<svg id="Calque_1" data-name="Calque 1" xmlns="http://www.w3.org/2000/svg" viewBox="0 0 148.3 146"><defs><style>.cls-1,.cls-2{fill:none;stroke:#e30613;stroke-miterlimit:10;}.cls-2{stroke-dasharray:2 2;}.cls-3{fill:#e30613;}.cls-4{fill:#948ba4;}.cls-5{fill:#fff;}.cls-6{fill:#95c11f;}.cls-7{fill:#00a19a;}.cls-8{fill:#f39200;}</style></defs><title>logo</title><path class="cls-1" d="M71.7,130.09h-1"/><path class="cls-2" d="M68.7,130A56.86,56.86,0,0,1,19.56,95.9"/><path class="cls-1" d="M19.17,95l-0.37-.93"/><circle class="cls-3" cx="18.87" cy="94.12" r="1.88" transform="translate(-33.7 13.8) rotate(-21.87)"/><path class="cls-4" d="M96.76,120a53,53,0,0,1-18.37,5.77,7.61,7.61,0,0,0-6.69,7.55v0.51a1.54,1.54,0,0,0,1.56,1.54A61.54,61.54,0,0,0,101,128Z"/><path class="cls-4" d="M123.08,105.72l-0.16-.1a8.22,8.22,0,0,0-10.57,1.78A52.8,52.8,0,0,1,98.51,119l4.19,8a62.54,62.54,0,0,0,20.78-19.54A1.26,1.26,0,0,0,123.08,105.72Z"/><rect class="cls-5" x="101.39" y="117.8" width="3.81" height="3.81" rx="0.8" ry="0.8" transform="translate(-49.89 80.55) rotate(-34.87)"/><rect class="cls-5" x="105.39" y="114.87" width="3.81" height="3.81" rx="0.8" ry="0.8" transform="translate(-48.75 88.5) rotate(-37.15)"/><path class="cls-5" d="M111.39,107.11h4.16a3.4,3.4,0,0,1,3.4,3.4v0a0.41,0.41,0,0,1-.41.41h-7.14a0.76,0.76,0,0,1-.76-0.76v-2.28a0.76,0.76,0,0,1,.76-0.76Z" transform="translate(-43.16 119.62) rotate(-47.36)"/><path class="cls-5" d="M75.59,126.7h7.14a0.41,0.41,0,0,1,.41.41v0a3.4,3.4,0,0,1-3.4,3.4H75.59a0.76,0.76,0,0,1-.76-0.76v-2.28A0.76,0.76,0,0,1,75.59,126.7Z" transform="translate(177.9 242.59) rotate(170.61)"/><rect class="cls-5" x="92.99" y="122.43" width="3.81" height="3.81" rx="0.8" ry="0.8" transform="translate(-40.38 45.82) rotate(-22.52)"/><rect class="cls-5" x="88.07" y="124.35" width="3.81" height="3.81" rx="0.8" ry="0.8" transform="translate(-35.51 35.2) rotate(-18.56)"/><path class="cls-5" d="M28.89,75.92a5,5,0,1,1-10,0v-8a5,5,0,1,1,10,0v0.25H26.81V67.92a2.92,2.92,0,1,0-5.85,0v8a2.92,2.92,0,1,0,5.85,0V75.67h2.07v0.25Z"/><path class="cls-5" d="M30.64,66.67h2.07v14H30.64v-14Z"/><path class="cls-5" d="M37,68.75H34.09V66.67h8v2.07h-3V80.67H37V68.75Z"/><path class="cls-5" d="M43.46,66.67h7v2.07H45.54v3.9h4.52v2.07H45.54V78.6h4.92v2.07h-7v-14Zm4.95-5h2.08L48,65.42H45.91Z"/><path class="cls-5" d="M51.46,72.65h6.82v2.07H51.46V72.65Z"/><path class="cls-5" d="M59.79,66.67h2.07V78.6h4.92v2.07h-7v-14Z"/><path class="cls-5" d="M68.19,70.47a4,4,0,1,1,8,0v10.2H74.11V74.72H70.26v5.95H68.19V70.47Zm5.92,2.17V70.47a1.92,1.92,0,1,0-3.85,0v2.17h3.85Z"/><path class="cls-5" d="M78.19,70.47a4,4,0,1,1,8,0v10.2H84.11V70.47a1.92,1.92,0,1,0-3.85,0v10.2H78.19V70.47Z"/><path class="cls-5" d="M88.19,76.87v-6.4a4,4,0,1,1,8,0v0.2H94.11v-0.2a1.92,1.92,0,1,0-3.85,0v6.4a1.92,1.92,0,1,0,3.85,0V74.72H92.19V72.65h4v4.22A4,4,0,1,1,88.19,76.87Z"/><path class="cls-5" d="M98.19,70.47a4,4,0,1,1,8,0v10.2h-2.08V74.72h-3.85v5.95H98.19V70.47Zm5.92,2.17V70.47a1.92,1.92,0,1,0-3.85,0v2.17h3.85Z"/><path class="cls-5" d="M108.19,76.87v-6.4a4,4,0,1,1,8,0v0.2h-2.08v-0.2a1.92,1.92,0,1,0-3.85,0v6.4a1.92,1.92,0,1,0,3.85,0V74.72h-1.92V72.65h4v4.22A4,4,0,1,1,108.19,76.87Z"/><path class="cls-5" d="M118.19,66.67h7v2.07h-4.92v3.9h4.52v2.07h-4.52V78.6h4.92v2.07h-7v-14Z"/><path class="cls-6" d="M10.73,59a63.54,63.54,0,0,1,124,0h1.88A65.38,65.38,0,0,0,8.86,59h1.88Z"/><path class="cls-6" d="M134.72,86.94a63.54,63.54,0,0,1-124,0H8.86a65.38,65.38,0,0,0,127.74,0h-1.88Z"/><path class="cls-7" d="M28.94,59a46,46,0,0,1,87.58,0H121a50.21,50.21,0,0,0-96.46,0h4.44Z"/><path class="cls-7" d="M116.52,86.94a46,46,0,0,1-87.58,0H24.49a50.21,50.21,0,0,0,96.46,0h-4.44Z"/><path class="cls-8" d="M51.26,34.61A18,18,0,0,1,50,40.68c2.94,1.78,7.89,4.64,7.89,4.64a19.78,19.78,0,0,1-1.06,6.27c1.14,1.32,2.53,2.63,2.53,2.63s16.74-10.35,9.9-25A43.87,43.87,0,0,0,51.26,34.61Z"/><path class="cls-8" d="M31,59H49.63a53.72,53.72,0,0,1,3.79-7.15s-3.71-2.48-6.65-4.33c-0.15.62-2.79,5.34-2.79,5.34A24.34,24.34,0,0,1,38.8,49c1.08-3.25,4.87-7.89,4.87-7.89L43,40.53A43.88,43.88,0,0,0,31,59Z"/><path class="cls-8" d="M93.22,56.62a52.87,52.87,0,0,0,7.61,1.16V59h13.57a43.76,43.76,0,0,0-26-27.16c-1.91,3.2-3.82,8.28-4,11,0.93,0.15,2.39.58,2.39,0.58s3-4.16,4-4.85a6.88,6.88,0,0,1,2.86,1.79s-4.26,5.89-7.66,8a38.12,38.12,0,0,1-5,.78s3,2.4,3.33,3.79a27.8,27.8,0,0,1-5,1.32L80.65,59H82c1.72-.09,4.56-0.32,5.3-1a10.3,10.3,0,0,0-1.55-3.87l4.18-1.78S93,56.16,93.22,56.62Z"/><path class="cls-8" d="M93.46,86.94c0.22,3.8.16,8.41-.9,11.92,1.78,4.18,3.45,8,4.88,10.53a43.71,43.71,0,0,0,12.65-13.2c0.93-2.49,2.09-5.81,3.06-9.25H93.46Z"/><path class="cls-8" d="M44.06,86.94c-0.66,1.11-1.41,2.32-2.24,3.65,0.23,2.48,4.8,7.2,10.21,11.68,0,2.14-1.25,5.61-2.29,8.23A43.73,43.73,0,0,0,60,115.07c10.18-14,11-23.58,10.47-28.13H44.06Z"/></svg>