<svg id="Calque_1" data-name="Calque 1" xmlns="http://www.w3.org/2000/svg" viewBox="0 0 163.98 165.47"><defs><style>.cls-1{fill:#007f76;}</style></defs><title>cat_1</title><path class="cls-1" d="M144,82.74A62.35,62.35,0,0,0,143,71.41l21-12.13L143.29,23.45l-21,12.14a62.15,62.15,0,0,0-19.6-11.3V0H61.3V24.29a62.15,62.15,0,0,0-19.6,11.3l-21-12.14L0,59.28,21,71.42A59.74,59.74,0,0,0,21,94L0,106.19,20.68,142l21-12.14a61.92,61.92,0,0,0,19.59,11.3v24.29h41.37V141.18a61.8,61.8,0,0,0,19.59-11.3l21,12.14L164,106.19,143,94.06A62.5,62.5,0,0,0,144,82.74ZM149.85,110l-10.34,17.92-12.07-7-6.34-3.66L115.54,122a51.18,51.18,0,0,1-16.32,9.41l-6.89,2.43v21.26H71.65V133.87l-6.89-2.43A51.51,51.51,0,0,1,48.44,122l-5.55-4.76-6.34,3.66-12.07,7L14.12,110l12.07-7,6.32-3.66-1.32-7.18a49.39,49.39,0,0,1,0-18.87l1.32-7.18-6.32-3.65-12.07-7L24.47,37.58l12.06,7,6.33,3.66,5.55-4.74A51.78,51.78,0,0,1,64.76,34l6.89-2.44V10.34H92.33V31.59L99.22,34a51.67,51.67,0,0,1,16.34,9.42l5.56,4.74,6.32-3.66,12.06-7L149.85,55.5l-12.06,7-6.32,3.66,1.32,7.17a49.62,49.62,0,0,1,0,18.91l-1.32,7.18,6.32,3.65Z"/><path class="cls-1" d="M82,62.05A20.68,20.68,0,1,1,61.3,82.74,20.7,20.7,0,0,1,82,62.05m0-10.34a31,31,0,1,0,31,31,31,31,0,0,0-31-31h0Z"/></svg>