<?xml version="1.0" encoding="utf-8"?>
<!-- Generator: Adobe Illustrator 19.2.1, SVG Export Plug-In . SVG Version: 6.00 Build 0)  -->
<svg version="1.1" id="Calque_1" xmlns="http://www.w3.org/2000/svg" xmlns:xlink="http://www.w3.org/1999/xlink" x="0px" y="0px"
	 viewBox="0 0 191.4 191" style="enable-background:new 0 0 191.4 191;" xml:space="preserve">
<style type="text/css">
	.st0{fill:#007F76;}
</style>
<title>cat_3</title>
<path class="st0" d="M147,50c-16.6,0-31.9,9.3-39.5,24.1c-7.7-2.4-16-2.5-23.8-0.5C72.2,51.9,45.3,43.7,23.6,55.2
	c-3.2,1.7-6.3,3.8-9,6.3C-3.5,78-4.9,106.1,11.5,124.3c12.6,13.9,32.5,18.4,49.8,11.3l0,0c19.6-8.2,30.8-29,26.8-49.9
	c5-1.1,10.3-0.9,15.2,0.6c-3.7,19.5,6.7,39.7,24.6,48.3l0,0c20.5,9.6,45,2.4,57-16.8c12.9-20.9,6.4-48.3-14.6-61.2
	C163.3,52.3,155.2,50,147,50z M76,97.4c-1.5,15-13.3,27-28.4,28.6c-17.4,1.8-32.9-10.9-34.7-28.2c-0.8-8.2,1.5-16.3,6.6-22.8
	c7.8-9.9,20.8-14.3,33-11.2C67.4,67.9,77.3,82,76,97.4L76,97.4z M147,126.1c-15.7-0.2-29-11.7-31.3-27.3c-2.4-17.3,9.7-33.3,27-35.7
	c17.3-2.4,33.3,9.7,35.7,27c0.6,4.4,0.3,9-1,13.3C173.3,116.8,161,126,147,126.1z"/>
</svg>
