<?xml version="1.0" encoding="utf-8"?>
<!-- Generator: Adobe Illustrator 19.2.1, SVG Export Plug-In . SVG Version: 6.00 Build 0)  -->
<svg version="1.1" id="Calque_1" xmlns="http://www.w3.org/2000/svg" xmlns:xlink="http://www.w3.org/1999/xlink" x="0px" y="0px"
	 viewBox="0 0 176 176.3" style="enable-background:new 0 0 176 176.3;" xml:space="preserve">
<style type="text/css">
	.st0{fill:#007F76;}
</style>
<title>cat_2</title>
<path class="st0" d="M136.7,170.6v-37.4H89.9v36.1C105.5,169.5,121.1,169.9,136.7,170.6z"/>
<path class="st0" d="M139.8,170.7c11.3,0.5,22.6,1.2,33.9,2v-69.8h-41v27.2h7L139.8,170.7L139.8,170.7z"/>
<path class="st0" d="M86.7,169.3v-39.2h13.8V72.6L84,57.9v-15h-6.6L75.5,0l-1.8,42.9H67v15L50.5,72.6v96.8
	C62.6,169.2,74.6,169.2,86.7,169.3z"/>
<path class="st0" d="M43.3,169.4V87.9c0-4.3-3.5-7.8-7.8-7.8h-6v89.6C34.1,169.6,38.7,169.5,43.3,169.4z"/>
<path class="st0" d="M27.4,169.9V62.5h-9.2v107.6C21.3,170.1,24.3,169.9,27.4,169.9z"/>
<path class="st0" d="M16.1,170.2V80.2h-6c-4.3,0-7.8,3.5-7.8,7.8c0,0,0,0,0,0v82.8C6.9,170.5,11.5,170.4,16.1,170.2z"/>
</svg>
