<svg id="Calque_1" data-name="Calque 1" xmlns="http://www.w3.org/2000/svg" viewBox="0 0 57.63 57.63"><defs><style>.cls-1{fill:#fff;}</style></defs><title>parcours_H</title><polygon class="cls-1" points="25.04 39.03 15.71 29.7 19.25 26.16 25.04 31.94 38.38 18.6 41.92 22.14 25.04 39.03"/><path class="cls-1" d="M28.82,57.63A28.82,28.82,0,1,1,57.63,28.82,28.85,28.85,0,0,1,28.82,57.63Zm0-55.13A26.31,26.31,0,1,0,55.13,28.82,26.34,26.34,0,0,0,28.82,2.5Zm0,45.68A19.37,19.37,0,1,1,48.19,28.82,19.39,19.39,0,0,1,28.82,48.19Zm0-36.24A16.87,16.87,0,1,0,45.68,28.82,16.88,16.88,0,0,0,28.82,12Z"/><polygon class="cls-1" points="46.52 14.66 44.93 15.5 45.23 13.73 43.94 12.47 45.73 12.21 46.52 10.6 47.32 12.21 49.1 12.47 47.81 13.73 48.12 15.5 46.52 14.66"/><polygon class="cls-1" points="11.46 14.66 9.86 15.5 10.17 13.73 8.88 12.47 10.66 12.21 11.46 10.6 12.25 12.21 14.04 12.47 12.75 13.73 13.05 15.5 11.46 14.66"/><polygon class="cls-1" points="46.52 44.72 44.93 45.56 45.23 43.78 43.94 42.53 45.73 42.27 46.52 40.65 47.32 42.27 49.1 42.53 47.81 43.78 48.12 45.56 46.52 44.72"/><polygon class="cls-1" points="11.46 44.72 9.86 45.56 10.17 43.78 8.88 42.53 10.66 42.27 11.46 40.65 12.25 42.27 14.04 42.53 12.75 43.78 13.05 45.56 11.46 44.72"/><polygon class="cls-1" points="28.99 52.86 27.39 53.7 27.7 51.93 26.41 50.67 28.19 50.41 28.99 48.79 29.79 50.41 31.57 50.67 30.28 51.93 30.58 53.7 28.99 52.86"/><polygon class="cls-1" points="28.99 7.15 27.39 7.99 27.7 6.21 26.41 4.96 28.19 4.7 28.99 3.08 29.79 4.7 31.57 4.96 30.28 6.21 30.58 7.99 28.99 7.15"/><polygon class="cls-1" points="51.53 30.32 49.94 31.16 50.24 29.38 48.95 28.13 50.73 27.87 51.53 26.25 52.33 27.87 54.11 28.13 52.82 29.38 53.13 31.16 51.53 30.32"/><polygon class="cls-1" points="5.82 30.32 4.23 31.16 4.53 29.38 3.24 28.13 5.02 27.87 5.82 26.25 6.62 27.87 8.4 28.13 7.11 29.38 7.42 31.16 5.82 30.32"/></svg>