<?xml version="1.0" encoding="utf-8"?>
<!-- Generator: Adobe Illustrator 19.2.1, SVG Export Plug-In . SVG Version: 6.00 Build 0)  -->
<svg version="1.1" id="Calque_1" xmlns="http://www.w3.org/2000/svg" xmlns:xlink="http://www.w3.org/1999/xlink" x="0px" y="0px"
	 viewBox="0 0 107.5 107.4" style="enable-background:new 0 0 107.5 107.4;" xml:space="preserve">
<style type="text/css">
	.stIconeParcour{fill:#FFFFFF;}
</style>
<g>
	<path class="stIconeParcour" d="M61.1,103.8c-3.4-0.8-6.7-1.6-10.1-2.3c-2.7-0.6-5.4-1.2-8.1-1.8c-2.7-0.6-10.8-6.2-12.7-7.5
		c-2.4-1.6-3.9-3.9-5.1-6.3c-1.1-4.4-3.1-6.8-6.6-7.3c-1.5-0.3-3-0.8-4.4-1.4c-2.4-1.1-4.8-2.3-6.6-4.3c-4-4.3-2.9-16.3,3.5-9.4
		c1.5,1.6,3.2,3,4.6,4.6c0.8,0.9,1.4,2,2,3.1c1.4,2.6,3.7,4.4,6,6.1c1.4,1.1,2.8,2.1,4.2,3.1c0.7,0.5,1.6,0.2,2.3-0.5
		c2.8-2.3,3.7-2.5,4.7-4.8c0.6-1.4,0.7-2.9,2-3.8c1.1-0.3,3.6-1.5,3.4-3.8c-0.2-2.3-2.5-5.6-3.9-8.4c-0.8-3,1.8-8.9-0.1-11.5
		c-2-2.4-3.9-10.5-4.1-13.4c-0.4-4.3-2.2-8.2-3.3-12.3c-2.4-9.1,8.4-16.4,9.3-4.4c-0.4,8.3,1.5,15.6,4.7,23.1
		c1.1,2.7,0.3,9.1,5.3,8.9c14.3-0.6,3.5,7.1,11,10.8c3.3,1.6,4.4-5.8,7.5-5.2c1.9,0.4,4.4,5.6,8,6c1.7,0.2,3.3,0.5,4.7,1.6
		c6.3,6.4-3.9,14.7-5,21.5c-0.6,3.7-1,7.5-1.7,11.1c-0.5,2.4-1.2,4.8-3.2,6.6c-1.3,1.2-2.3,2.1-4.5,2.2
		C62.7,104.3,61.5,103.9,61.1,103.8z M58.5,64.9c-0.9,2.6,1.1,9-3.6,5.6c-1.5-1.1-3.1-1.1-4.6,0.1c-1.6,1.3-2.5,3-2.5,5
		c0,0.6,0,1.3,0.1,1.9c0.3,2.1,1.3,4.1,2.8,5.6c0.6,0.6,1.2,1.2,1.7,1.9c1.4,1.2,3,1.5,4.7,1c0.2,0,0.3-0.2,0.4-0.3
		c10.4-8.9,13-19.9,7-21.7C59.6,62.4,58.9,63.8,58.5,64.9z"/>
	<path class="stIconeParcour" d="M61.3,7.7c0,2.4-0.1,4.8-0.4,7.2c-0.4,4-0.8,8-1.2,11.9c-0.6,5-1.7,12.9-1.4,17.8c0.7,1.8-2.9-0.6-3.2-0.7
		c-4.4-2.9-2.5-7.3-2.6-11.8c-0.3-8.4-1-19.8,1.5-27.9C55.2,0,62.2,3.6,61.3,7.7z"/>
	<path class="stIconeParcour" d="M82,11.6c2.2,0.1,3.6,2,3,4.1c-0.6,2.5-1,5.2-1.8,7.6c-1,3.1-2.5,6-3.7,9c-0.4,1.4-6.5,17.6-8.5,15
		c-1.2-1.6-1.9-3.3-0.9-5.3c3.3-5.7,3.8-13.7,5.3-19.9c0.6-2.6,1.6-5.2,2.5-7.8C78.5,12.5,80,11.5,82,11.6z"/>
	<path class="stIconeParcour" d="M87.4,53c0.7-0.5,15-10.7,14.4-5.8c-0.2,2-1.2,3.7-2.6,5.1c-2.1,2.1-4.2,4.1-6.3,6.2c-4,3.7-8.2,1.5-8.8-0.2
		C83.3,56.1,85.6,54.2,87.4,53z"/>
</g>
</svg>
