<?xml version="1.0" encoding="utf-8"?>
<!-- Generator: Adobe Illustrator 21.0.0, SVG Export Plug-In . SVG Version: 6.00 Build 0)  -->
<svg version="1.1" id="Calque_1" xmlns="http://www.w3.org/2000/svg" xmlns:xlink="http://www.w3.org/1999/xlink" x="0px" y="0px"
	 viewBox="0 0 107.5 107.4" style="enable-background:new 0 0 107.5 107.4;" xml:space="preserve">
<style type="text/css">
	.st0{fill:#FFFFFF;}
</style>
<title>Parcours_norme4</title>
<path class="st0" d="M45,76L27,56.7l5-4.9l12,13.4c9.7-11.3,20.9-22.6,32.7-22.8C59.9,47.8,50.7,61.1,45,76z"/>
<path class="st0" d="M53.6,104.3c-27.6,0-50-22.4-50-50.1c0-27.6,22.4-50,50.1-50c27.6,0,50,22.4,50,50
	C103.6,81.8,81.2,104.2,53.6,104.3z M53.6,8.5C28.3,8.5,7.9,29,7.9,54.2s20.5,45.7,45.7,45.7s45.7-20.5,45.7-45.7
	C99.2,29,78.8,8.5,53.6,8.5z M53.6,87.8c-18.6,0-33.7-15.1-33.7-33.7S35,20.5,53.6,20.5s33.7,15.1,33.7,33.7c0,0,0,0,0,0
	C87.2,72.8,72.1,87.8,53.6,87.8z M53.6,24.9c-16.2,0-29.3,13.1-29.3,29.3s13.1,29.3,29.3,29.3s29.3-13.1,29.3-29.3l0,0
	C82.9,38,69.7,24.9,53.6,24.9z"/>
<polygon class="st0" points="84.3,29.7 81.6,31.2 82.1,28.1 79.8,25.9 82.9,25.5 84.3,22.6 85.7,25.5 88.8,25.9 86.6,28.1 
	87.1,31.2 "/>
<polygon class="st0" points="23.4,29.7 20.6,31.2 21.2,28.1 18.9,25.9 22,25.5 23.4,22.6 24.8,25.5 27.9,25.9 25.7,28.1 26.2,31.2 
	"/>
<polygon class="st0" points="53.9,96.1 51.1,97.5 51.6,94.4 49.4,92.3 52.5,91.8 53.9,89 55.3,91.8 58.3,92.3 56.1,94.4 56.6,97.5 
	"/>
<polygon class="st0" points="53.9,16.7 51.1,18.1 51.6,15 49.4,12.9 52.5,12.4 53.9,9.6 55.3,12.4 58.3,12.9 56.1,15 56.6,18.1 "/>
<polygon class="st0" points="93,56.9 90.3,58.4 90.8,55.3 88.6,53.1 91.6,52.7 93,49.8 94.4,52.7 97.5,53.1 95.3,55.3 95.8,58.4 "/>
<polygon class="st0" points="13.6,56.9 10.9,58.4 11.4,55.3 9.1,53.1 12.2,52.7 13.6,49.8 15,52.7 18.1,53.1 15.9,55.3 16.4,58.4 
	"/>
</svg>
