<svg id="Calque_1" data-name="Calque 1" xmlns="http://www.w3.org/2000/svg" viewBox="0 0 73.91 34.33"><defs><style>.cls-1{fill:#fff;}</style></defs><title>parcours_E</title><path class="cls-1" d="M56.78,0A17.18,17.18,0,0,0,41.52,9.32a17,17,0,0,0-9.19-.21A17.15,17.15,0,0,0,5.66,4.44a17.17,17.17,0,0,0,18,28.63h0A17.34,17.34,0,0,0,34,13.79,12.15,12.15,0,0,1,39.9,14a17.36,17.36,0,0,0,9.48,18.66h0a17.29,17.29,0,0,0,22-6.48A17.18,17.18,0,0,0,56.78,0ZM29.33,18.3a12.34,12.34,0,0,1-10.94,11A12.21,12.21,0,0,1,7.54,9.67,12.31,12.31,0,0,1,20.27,5.36,12.37,12.37,0,0,1,29.33,18.3h0ZM56.78,29.39A12.37,12.37,0,0,1,44.69,18.86a12.21,12.21,0,1,1,23.81,1.77A12.34,12.34,0,0,1,56.78,29.39Z"/></svg>