<?xml version="1.0" encoding="utf-8"?>
<!-- Generator: Adobe Illustrator 19.2.1, SVG Export Plug-In . SVG Version: 6.00 Build 0)  -->
<svg version="1.1" id="Calque_1" xmlns="http://www.w3.org/2000/svg" xmlns:xlink="http://www.w3.org/1999/xlink" x="0px" y="0px"
	 viewBox="0 0 107.5 107.4" style="enable-background:new 0 0 107.5 107.4;" xml:space="preserve">
<style type="text/css">
	.stIconeParcour{fill:#FFFFFF;}
</style>
<g>
	<path class="stIconeParcour" d="M38.1,26.2c-6.1,0-11.1,5-11.1,11.1s5,11.1,11.1,11.1s11-5,11-11.1C49.2,31.2,44.2,26.2,38.1,26.2z M60.3,43.6
		l-2,4.8l3.6,7l0.5,0.9l-4.9,4.9l-8.1-3.8l-4.8,2l-2.4,7.5l-0.3,1h-7l-3-8.4l-4.8-2L20,61l-0.9,0.5l-4.9-4.9l3.8-8.1l-2-4.8
		l-7.4-2.4l-1-0.3v-7l8.4-3l2-4.8l-3.5-7L14,18.3l4.9-4.9l8.1,3.8l4.8-2l2.4-7.5l0.3-1h7l3,8.4l4.8,2l7-3.5l0.9-0.5l4.9,4.9
		l-3.8,8.1l2,4.8l7.5,2.4l1,0.3v7L60.3,43.6z"/>
	<path class="stIconeParcour" d="M79.6,68.3c-4.4-2.2-9.8-0.4-12,4.1c-2.2,4.4-0.4,9.8,4.1,12c4.4,2.2,9.8,0.3,12-4.1
		C85.8,75.9,84,70.5,79.6,68.3z M89.5,88.9l-3.2,2.8l0.1,6.3v0.8l-5.3,1.8L76.5,95l-4.2-0.3l-4.4,4.5l-0.6,0.6l-5.1-2.5l0.8-7.2
		L60.3,87L54,87.1h-0.8l-1.8-5.3l5.7-4.5l0.3-4.2l-4.5-4.4l-0.6-0.6l2.5-5.1l7.2,0.8l3.2-2.8l-0.1-6.4v-0.8l5.3-1.8l4.5,5.7l4.2,0.3
		l4.4-4.5l0.6-0.6l5.1,2.5l-0.8,7.2l2.8,3.2l6.4-0.1h0.8L100,71l-5.7,4.5L94,79.7l4.6,4.4l0.6,0.6l-2.5,5.1L89.5,88.9z"/>
</g>
</svg>
