<?xml version="1.0" encoding="utf-8"?>
<!-- Generator: Adobe Illustrator 19.2.1, SVG Export Plug-In . SVG Version: 6.00 Build 0)  -->
<svg version="1.1" id="Calque_1" xmlns="http://www.w3.org/2000/svg" xmlns:xlink="http://www.w3.org/1999/xlink" x="0px" y="0px"
	 viewBox="0 0 107.5 107.4" style="enable-background:new 0 0 107.5 107.4;" xml:space="preserve">
<style type="text/css">
	.stIconeParcour{fill:#FFFFFF;}
</style>
<g>
	<path class="stIconeParcour" d="M55.4,80.2V19.9c0,0,2.5-4.7,10.6-4.7c9.9,0,12.1,6.4,30.7,6.4c0,19.5,0,58.5,0,58.5
		c-15.2,0-19.7-6.8-29.6-6.8C59.7,73.3,55.4,80.2,55.4,80.2z"/>
	<path class="stIconeParcour" d="M53.2,80.2V19.9c0,0-2.5-4.7-10.6-4.7c-9.9,0-12.1,6.4-30.7,6.4c0,19.5,0,58.5,0,58.5
		c15.2,0,19.7-6.8,29.6-6.8C48.9,73.3,53.2,80.2,53.2,80.2z"/>
	<path class="stIconeParcour" d="M41.1,75.6c-10.5,0-15.2,7.3-31.3,7.3c0,0,0-35.6,0-57.2c-1.1,0-2.2,0.1-3.4,0.1c0,21.8,0,62.5,0,62.5
		c17.2,0,22.3-7.6,33.5-7.6c8.4,0,13.3,7.8,13.3,7.8v-6C51.8,80.6,47.6,75.6,41.1,75.6z"/>
	<path class="stIconeParcour" d="M67.4,75.6c10.5,0,15.2,7.3,31.3,7.3c0,0,0-35.6,0-57.2c1.1,0,2.2,0.1,3.4,0.1c0,21.8,0,62.5,0,62.5
		c-17.2,0-22.3-7.6-33.5-7.6c-8.4,0-13.3,7.8-13.3,7.8v-6C56.7,80.6,60.9,75.6,67.4,75.6z"/>
</g>
</svg>
