<?xml version="1.0" encoding="utf-8"?>
<!-- Generator: Adobe Illustrator 20.0.0, SVG Export Plug-In . SVG Version: 6.00 Build 0)  -->
<svg version="1.1" id="Calque_1" xmlns="http://www.w3.org/2000/svg" xmlns:xlink="http://www.w3.org/1999/xlink" x="0px" y="0px"
	 viewBox="0 0 107.5 107.4" style="enable-background:new 0 0 107.5 107.4;" xml:space="preserve">
<style type="text/css">
	.st0{display:none;}
	.st1{display:inline;}
	.st2{fill:#010202;}
	.st3{fill:#FFFFFF;}
</style>
<g id="Calque_1_1_" class="st0">
	<g class="st1">
		<path class="st2" d="M53.6,104.3C26,104.3,3.5,81.8,3.5,54.2S26,4.1,53.6,4.1s50.1,22.5,50.1,50.1
			C103.6,81.8,81.2,104.3,53.6,104.3z M53.6,8.5C28.4,8.5,7.9,29,7.9,54.2s20.5,45.7,45.7,45.7s45.7-20.5,45.7-45.7
			S78.8,8.5,53.6,8.5z M53.6,87.8C35,87.8,20,72.7,20,54.2c0-18.6,15.1-33.6,33.6-33.6s33.6,15.1,33.6,33.6S72.1,87.8,53.6,87.8z
			 M53.6,24.9c-16.2,0-29.3,13.1-29.3,29.3s13.1,29.3,29.3,29.3s29.3-13.1,29.3-29.3S69.7,24.9,53.6,24.9z"/>
	</g>
	<g class="st1">
		<g>
			<polygon class="st2" points="84.3,29.7 81.6,31.2 82.1,28.1 79.8,25.9 82.9,25.5 84.3,22.7 85.7,25.5 88.8,25.9 86.6,28.1 
				87.1,31.2 			"/>
		</g>
		<g>
			<polygon class="st2" points="23.4,29.7 20.6,31.2 21.2,28.1 18.9,25.9 22,25.5 23.4,22.7 24.8,25.5 27.9,25.9 25.7,28.1 
				26.2,31.2 			"/>
		</g>
	</g>
	<g class="st1">
		<g>
			<polygon class="st2" points="84.3,81.9 81.6,83.4 82.1,80.3 79.8,78.1 82.9,77.7 84.3,74.9 85.7,77.7 88.8,78.1 86.6,80.3 
				87.1,83.4 			"/>
		</g>
		<g>
			<polygon class="st2" points="23.4,81.9 20.6,83.4 21.2,80.3 18.9,78.1 22,77.7 23.4,74.9 24.8,77.7 27.9,78.1 25.7,80.3 
				26.2,83.4 			"/>
		</g>
	</g>
	<g class="st1">
		<g>
			<polygon class="st2" points="53.9,96.1 51.1,97.5 51.6,94.4 49.4,92.3 52.5,91.8 53.9,89 55.3,91.8 58.4,92.3 56.1,94.4 
				56.6,97.5 			"/>
		</g>
		<g>
			<polygon class="st2" points="53.9,16.7 51.1,18.1 51.6,15 49.4,12.9 52.5,12.4 53.9,9.6 55.3,12.4 58.4,12.9 56.1,15 56.6,18.1 
							"/>
		</g>
	</g>
	<g class="st1">
		<g>
			<polygon class="st2" points="93,56.9 90.3,58.4 90.8,55.3 88.5,53.1 91.6,52.6 93,49.8 94.4,52.6 97.5,53.1 95.3,55.3 95.8,58.4 
							"/>
		</g>
		<g>
			<polygon class="st2" points="13.6,56.9 10.9,58.4 11.4,55.3 9.1,53.1 12.2,52.6 13.6,49.8 15,52.6 18.1,53.1 15.9,55.3 
				16.4,58.4 			"/>
		</g>
	</g>
</g>
<g id="Calque_2">
	<g>
		<path class="st3" d="M55.9,22c-0.1,0-0.2,0-0.2,0.1C55.8,22,55.9,22,55.9,22z"/>
		<path class="st3" d="M52.7,21.6c0.1,0,0.1,0,0.2,0C52.8,21.6,52.7,21.6,52.7,21.6z"/>
		<path class="st3" d="M78,33.1L78,33.1c0.2,0.1,0.2,0.1,0.3,0.1L78,33.1z"/>
		<path class="st3" d="M83.1,60.6L83.1,60.6C83.1,60.6,83.1,60.5,83.1,60.6z"/>
		<path class="st3" d="M47,21.9L47,21.9C47.2,21.8,47.1,21.8,47,21.9z"/>
		<path class="st3" d="M35.2,27.1c0,0,0.1,0,0.2,0C35.3,27.1,35.3,27.1,35.2,27.1z"/>
		<path class="st3" d="M76.7,73.7c0.1,0,0.2,0,0.3,0C76.8,73.6,77.3,73.1,76.7,73.7z"/>
		<path class="st3" d="M32.9,32.3l-0.6,0.5C32.5,32.6,32.7,32.4,32.9,32.3z"/>
		<path class="st3" d="M78.9,74.1c0.1-0.4,0.9-1.3,0.6-1.3c0.2-0.2,0.4-0.4,0.6-0.5c-0.1,0.1-0.2,0.1-0.2,0.1l0.1-0.1l0,0
			c1.2-1.4,2-3.2,2.8-4.9l0,0l0,0c0.2-0.4,0.4-0.7,0.5-1.1c0,0.3,0.2-0.2-0.1,0.4c0.3-0.6,0.5-0.7,0.5-1.3c0-0.1,0.1-0.1,0.1-0.2
			l0,0c0.2,0,0.4-0.6,0.4-0.8L84,64.6c0-0.1,0-0.1,0-0.2c0.1-0.2,0.1-0.4,0.2-0.6h0.1c0,0,0,0,0-0.1l0.3,0.3c0.4-0.7,0.4-1.4,0.4-2
			c0-0.7,0.1-1.2,0.5-1.7c-0.1-0.3-0.2,0.1-0.3,0.3c0-0.2,0-0.3,0-0.5c0.2-0.4,0.5-0.8,0.5-1c0.3-0.9-0.3-0.9-0.1-1.9
			c-0.1,0.1-0.2,0.1-0.3,0c0-0.2-0.1-0.5-0.1-0.5c0.1-0.4,0.2-0.4,0.3-0.4c0,0.1,0,0.2,0.1,0.2c0-0.1,0-0.2-0.1-0.2h0.1
			c0,0.2,0,0.2-0.1,0.2c0,0.2,0.1,0.5,0.2,0.3l-0.1-0.1c0.1-0.1,0.1-0.4,0.1-0.6c0-0.1,0.1-0.2,0.1-0.4c0-0.1,0.1-0.2,0.1-0.1
			c0-0.3-0.1-0.3-0.1-0.2v-0.1c0.1-0.6,0-1.1,0.1-1.8c-0.1,0.1-0.2,0.3-0.2,0.1c0.1-1.3-0.3-0.6-0.4-1.5c0.2-0.5,0.4,0.2,0.2-0.7
			c0.1-0.6,0.3-0.1,0.4,0.1c-0.2-0.8-0.1-1.6-0.1-2.1l0.2,0.4c-0.1-0.3-0.1-0.5-0.2-0.7l-0.2,0.3c0-0.3,0-0.5,0.1-0.5
			c-0.2-0.2-0.4,0.3-0.6-0.2c0.1-0.4-0.3-1,0-1.2c0.1,1.1,0.3-0.2,0.5,0.7c-0.1-0.2-0.1-0.4-0.1-0.7c0,0,0.1,0,0.1,0.1
			c0-1.1-0.5-0.4-0.7-1.4c0.2,0.1,0.3-0.3,0.2-0.5c0.1,0.4-0.2,0.3-0.5-0.1c0-0.7-0.3-0.7-0.4-1.1v0.4c-0.2-0.1-0.3-0.4-0.5-0.9
			c0.1-0.1,0.2,0.4,0.2,0.2c-0.5-0.4-0.1-1.2-0.6-1.9c0-0.4,0.3-0.2,0.3-0.5c-0.5-0.7-0.1-0.9-0.7-1.7c-0.1,0.3,0,0.3-0.5-0.1
			l0.8,1.2l-0.7-0.7c0.2,0.4,0.6,0.8,0.6,1c-0.3-0.3-0.3-0.3-0.4-0.1l0,0c0-0.6-0.7-0.9-0.8-1.6l0.5-0.2c-0.1-0.5-0.4-0.9-0.7-1.3
			c-0.3-0.4-0.7-0.8-1-1.4l0.1,0.4c-0.3,0-0.5-0.7-0.8-1c0.2-0.1,0.1-0.3,0.1-0.6c-0.1,0.1-0.6-0.8-1-0.7l-0.2-0.6
			c-0.4-0.7-0.9-0.7-1.4-1.1c0.1,0,0.2,0,0.4,0.1L77.5,33c-0.1,0-0.2-0.1-0.3-0.1c0.2-0.1,0.1-0.3,0.6,0.1c-0.2-0.3-0.4-0.5-0.5-0.4
			c0-0.2-0.8-0.5-0.9-0.9c-0.1,0-0.2,0-0.3,0c-0.1-0.1-0.2-0.2-0.3-0.3l0,0l0,0c-0.1-0.1-0.2-0.3-0.3-0.4c-0.1,0.1-0.1,0.2-0.1,0.3
			c-0.1-0.3-0.3-0.5-0.5-0.8c-0.2-0.2-0.4-0.5-0.4-0.7c0,0.1-0.1,0.2-0.3,0.1c0,0,0,0-0.1-0.1s-0.2-0.2-0.3-0.3
			c-0.1-0.2,0.1-0.2-0.1-0.5h-0.1c0.2,0,0.3-0.2,0-0.4l-0.1,0.3c-0.2-0.1-0.3-0.2-0.5-0.1c-0.1-0.1-0.1-0.1-0.2-0.2
			c0-0.1,0-0.1,0-0.2l0,0l-0.2-0.2v0.1h0.1c0,0,0,0-0.1,0l0,0c-0.7-0.4-1.4-0.9-2-1.3c0.1,0,0.1-0.1,0.2,0c-0.5-0.4-0.7-0.2-1-0.2
			c-0.2-0.2-0.4-0.3-0.7-0.5c0-0.2,0.6,0.3,0.4,0c0.2-0.6-1.1-0.6-1.6-1.3h0.2c-0.4-0.4-1.3-0.4-2.1-0.8c0,0,0.1,0,0-0.1V24
			c-0.2-0.1-0.2,0-0.2,0c-0.3,0-0.7-0.1-1.1-0.1c0,0-0.1,0-0.1-0.1c0.6,0-0.1-0.2,0.6,0.1c-0.7-0.3-0.8-0.5-1.6-0.6
			c0.3-0.1-0.4-0.5-0.8-0.5l0.4,0.3c-0.4-0.1-0.7-0.2-1-0.4h0.1c0.2,0.1,0.5,0.2,0.5,0.2c-0.1-0.2-0.2-0.3-0.4-0.3l0.1-0.1
			c-0.7-0.4-1.4-0.4-2-0.4c-0.4,0-0.8-0.1-1.2-0.2c-0.1-0.1-0.2-0.1-0.3-0.2c-0.1,0-0.2-0.1-0.2-0.1c-0.1,0-0.1,0.1,0,0.1h-0.1
			c0.2,0,0.4,0.1,0.5,0.2s0.1,0.1,0,0.2c-0.7-0.1-1.3-0.7-1.5-0.8c-0.6-0.2-0.8,0-1.1,0.1c-0.2,0-0.4,0-0.5,0.1c-0.1,0-0.2,0-0.3,0
			c0.1,0.1,0.1,0.2,0.1,0.3c-0.3,0.1-0.7,0.1-1,0.1c-0.2-0.2-0.2-0.4,0.1-0.5c0.2,0,0.2,0,0.2,0.1c0.2,0,0.5-0.1,0.3-0.2l-0.1,0.1
			c-0.3-0.1-1.3-0.2-1.1-0.4c-0.5,0.1-0.2,0.2,0.2,0.3c-0.9-0.2-1.4-0.1-2.3-0.2c0.1,0,0.1,0.1,0.2,0.1c-0.2,0-0.4-0.1-0.6-0.2
			c-0.6,0.2-1.3,0.2-1.9,0.2c0.1-0.1,0.2-0.1,0.3-0.2c-0.8,0.2-1.6,0.1-2.1,0.1l0.4-0.2C48.2,21,48,21,47.8,21.1l0.3,0.2
			c-0.3,0-0.5,0-0.5-0.1c-0.1,0.1-0.1,0.1-0.1,0.2c-0.2,0-0.4,0-0.6,0.1c0.6,0.4-0.2,0.2-0.3,0.5c-0.2,0-0.3,0-0.4,0l0,0
			c0.9-0.1-0.2-0.3,0.6-0.5c-0.2,0.1-0.4,0.1-0.7,0.1c0,0,0-0.1,0.1-0.1c-1.1,0-0.4,0.5-1.4,0.7v-0.1c0.1,0,0.2-0.1,0.1-0.1
			c-0.1,0-0.2,0-0.2,0c-0.1,0-0.3-0.1-0.4,0c-0.1-0.1-0.1-0.2-0.5-0.2c0.2,0.2-0.2,0.4-0.8,0.4l0.8,0.1c-1.1,0.6-1.2-0.2-2.3,0.6
			l0.3-0.3c-0.4,0.2-1.6,0.6-2.2,1.1c-0.2,0-0.4,0.1-0.6,0.3l0,0c-0.7,0.3-1.5,0.8-2.2,1.3s-1.3,1-1.9,1.2v-0.2
			c-0.2,0.1-0.2,0.3-0.4,0.4c0,0,0,0-0.1,0c0,0,0,0,0,0.1c-0.1,0-0.1,0.1-0.2,0.1c0-0.1,0-0.2-0.1-0.1s-0.5,0.7-0.8,0.8l0.2-0.3
			c-0.7,0.4-1.1,0.8-1.5,1.3c-0.1,0.1-0.2,0.3-0.3,0.4c-0.2,0.2-0.5,0.4-0.4,0.5c-0.1,0-0.3,0.3-0.4,0.5c-0.3-0.2-1.3,0.4-1.7,0.8
			v-0.1c-0.6,0.7-1.1,1.3-1.5,1.9c-0.4,0.6-0.7,1.3-1.1,2c-0.3,0.1-0.5,0.4-0.8,0.7S25.3,36,25,36.4c-0.5,0.8-1.1,1.7-1.5,2.4
			c0.2-0.2,0.3,0.2,0.2,0.5c-0.3,0.3-0.2,1.1-0.5,0.9l0.1-0.1c-0.5,0.1-0.8,0.9-1,1.5l0.5,0.3c-0.6,0.6-1,1.7-1.2,2.6
			c-0.2,1-0.3,1.8-0.7,2.2c0,0.4-0.1,0.9,0,1.3l-0.3-0.1c-0.2,1.1-0.4,1.6-0.4,3L20,50.6c-0.1,0.8,0.8,1,0.7,1.7l0,0l0.3,0.6
			c-0.1,1.3-0.3,2.7,0.1,4c-0.1,0-0.2,0-0.2-0.3c0,0.6,0,2.1,0.4,2.2c0,0.1,0,0.1,0,0.2c0,0.1,0,0.2,0,0.3c0,0.3,0.1,0.5,0.1,0.8
			c0-0.1,0.1-0.1,0.1-0.1c0.1,0.3,0.2,0.6,0.3,0.8c-0.1,0-0.1,0-0.2,0h-0.1c0,0,0,0,0.1,0.1c0,0.1,0,0.1,0,0.2
			c0-0.1,0.1-0.1,0.1-0.1c0.1,0.1,0.2,0.2,0.3,0.3c0,0,0,0.1,0.1,0.1c0.1,0.1,0.1,0.1,0.2,0.2v0.8c-0.1,0.3-0.2-0.4-0.4-0.3
			c0.2,0.9-0.2,0.4-0.2,1.1c0.2-0.2,0.4,0.2,0.4,0.8l0.1-0.8c0.6,1.1-0.2,1.2,0.6,2.3L22.5,65c0.3,0.5,0.7,1.7,1.2,2.4
			c-0.1,0-0.1,0-0.3-0.1c0.2,0.2,0.4,0.4,0.6,0.6c0,0-0.1,0-0.2-0.1c0.3,0.7,0.7,1.4,1.2,2c0,0.1,0.1,0.2,0.2,0.3
			c-0.1,0.2,0.3,0.8,0.5,1.1c0.1-0.1,0.2,0,0.3,0c0.1,0.2,0.2,0.4,0.3,0.6h-0.2c0.2,0.2,0.5,0.3,0.6,0.7c-0.1,0-0.2,0-0.1,0.1
			s0.3,0.2,0.5,0.4c0.1,0.1,0.2,0.2,0.3,0.3c0,0.1,0.1,0.1,0.1,0.2l-0.3-0.2c0.4,0.7,0.8,1.1,1.3,1.5c0.3,0.2,0.6,0.4,1,0.7
			c0.1,0.1,0.3,0.3,0.5,0.4c-0.3,0.3,0.4,1.3,0.8,1.7h-0.1c0.7,0.6,1.3,1.1,1.9,1.5c0.6,0.4,1.3,0.7,2,1.1c0.1,0.3,0.4,0.5,0.7,0.8
			s0.7,0.5,1.1,0.8c0.8,0.5,1.7,1.1,2.4,1.5c-0.2-0.2,0.2-0.3,0.5-0.2c0.3,0.3,1.1,0.2,0.9,0.5l-0.1-0.1c0.1,0.5,0.9,0.8,1.5,1
			l0.3-0.5c0.6,0.6,1.7,1,2.6,1.2c1,0.2,1.8,0.3,2.2,0.7c0.4,0,0.9,0.1,1.3,0l-0.1,0.3c1.1,0.2,1.6,0.4,3,0.4L50.4,87
			c0.5,0,0.8-0.3,1.2-0.6c0.1,0.1,0.3,0.1,0.7,0.1l0,0l0.1,0.1c1.3,0.1,2.7,0.3,4-0.1c0,0.1,0,0.2-0.3,0.2c0.6,0,2.5,0,2.2-0.5
			c0.1,0.4,1.4-0.2,2-0.5L60.2,86c0.5-0.5,0.5-0.6,1.3-0.9c0.2,0,0.2,0.2,0,0.2c0.7,0,0.4-0.4,1.2-0.4l-0.2,0.2
			c0.7-0.2,0.6-0.2,0.9-0.5c0.4-0.3,1.2-0.4,1.4-0.2c0-0.2,0.3-0.5,0.7-0.6l0,0l0,0c0,0,0,0.1-0.2,0.2c0.1,0,0.1,0,0.1,0l0,0
			c1.2-0.2,1.4-1,2.2-1c0.1,0.1,0.1,0.1,0.2,0.1c-0.8,0.4-1.5,0.7-1.4,0.6c0.1,0.2,0.8,0,0.4,0.5c0.5-0.4,1.2-1.3,1.9-1.5h0.1
			L68.7,83c0.2-0.1,0.3-0.1,0.4-0.2c0.2-0.1,0.4-0.1,0.5-0.2c0.2,0.1,0.8-0.3,1.1-0.5c-0.2-0.2,0.3-0.4-0.2-0.4c0.1,0,0,0.1-0.2,0.2
			L70.2,82l0,0c-0.2,0.1-0.5,0.3-0.8,0.5c0.1-0.1,0.1-0.2,0.2-0.3l0,0l0.1-0.1c0.1-0.1,0.3-0.2,0.5-0.2c0.1-0.2,0.1-0.4,0.2-0.6
			l0.1-0.1c0.6,0,1.5-0.3,1.7-0.2c0.7-0.7,1.7-1.4,2.1-2.1c0.1-0.1,0.2-0.2,0.2-0.2c0-0.1,0.1-0.3,0.2-0.5c0.1,0,0.1,0,0.2,0v0.1
			c-0.1,0.1-0.2,0.2-0.2,0.3c0.3-0.4,1-1,1.2-1.4c0.1-0.1,0.2-0.2,0.3-0.3c0,0.1-0.2,0.4,0.4-0.2v0.2c0.8-0.5,1.3-1.2,1.7-1.9
			c0,0,0.1,0,0.2-0.1c0-0.2,0.4-0.5,0.2-0.7l0,0C78.7,74,78.8,74.1,78.9,74.1z M70.1,82.2L70.1,82.2L70.1,82.2
			c-0.2,0.3-0.3,0.3-0.3,0.2C69.9,82.4,70,82.3,70.1,82.2z M83,41.6L83,41.6L83,41.6L83,41.6z M45.3,22.4c-0.1,0-0.2,0-0.2,0
			C45.2,22.4,45.3,22.4,45.3,22.4z M39.8,24.4c0.2,0.1,0.2,0.1,0.2,0.2C39.8,24.6,39.7,24.5,39.8,24.4z M25.4,70.6
			c-0.2-0.2-0.2-0.3-0.1-0.3c0.1,0.1,0.1,0.2,0.3,0.4l0,0C25.5,70.7,25.4,70.7,25.4,70.6z M51.8,84.4L51.8,84.4L51.8,84.4L51.8,84.4
			z M67.7,81.4L67.7,81.4c0.1-0.1,0.2-0.1,0.3-0.2C67.9,81.3,67.9,81.3,67.7,81.4z M78.5,71.6C78.4,71.6,78.4,71.6,78.5,71.6
			c-0.2,0.5-1.1,1.3-1.2,2.1c-0.1,0-0.1,0-0.1,0c0.1,0,0.2,0.1,0.3,0.1c-0.2,0.2-0.4,0.4-0.6,0.6c0-0.1,0.3-0.4,0.2-0.5
			c-0.4,0.6-0.7,1.4-1.1,1.7c-0.3-0.2,0.7-1,0.1-0.7l0.6-0.5c-0.8,0.1,0.4-0.3-0.5-0.3c-0.8,0.7-0.6,1-1.5,1.7
			c0,0.3,0.3,0.1,0.2,0.4c-0.9,1.3-1.4,0.2-2,1.2c-0.1,0.4,0.1,0.7-0.7,1v-0.5c-0.8,0.6-0.1,0.8-1.1,1.2c0.1-0.2,0.6-0.6,0.4-0.5
			c-0.7,0.2-0.3,0.5-0.7,0.8l-0.3-0.2c-0.9,0.6-1.8,1.5-2.8,2.1c0-0.1,0.2-0.3-0.2-0.3c-0.6,0.4-1.4,0.7-2.1,1
			c-0.8,0.2-1.6,0.4-2.3,0.6l-0.4,0.5c-0.1,0-0.3-0.1-0.2-0.1c-0.6,0,0,0.2-0.2,0.4c-0.3,0.1-0.5-0.1-0.3-0.2
			c-0.4,0.2-1.1,0.6-1.8,0.8c-0.7,0.3-1.4,0.3-2,0.3l0.2-0.1c-0.8,0-0.8,0.7-1.6,0.6l0.1-0.1c-0.1,0-0.1,0-0.2,0h0.1h-0.1l0,0
			c-0.8,0-1.7,0.1-2.5,0.1c-0.3,0-0.5,0-0.8,0c-0.1-0.1-0.3-0.2-0.6-0.3l-0.5,0.1c-0.2,0-0.3-0.1-0.5-0.1h0.6
			c-0.4-0.2-0.6-0.1-0.9,0.1c-0.1-0.1-0.2-0.2-0.3-0.3l-0.5,0.2c-0.1,0-0.2,0-0.3,0c0.1-0.1,0.1-0.2-0.2-0.3
			c-0.2,0.1-0.1,0.2-0.1,0.3c-0.1,0-0.2,0.1-0.3,0.1c-0.2-0.2-0.2-0.3-0.6-0.2c0-0.1,0.1-0.2,0.2-0.2c-0.2,0-0.4,0-0.6,0
			c-0.2-0.1-0.5-0.2-1.1-0.4c-0.2,0-0.4,0.1-0.7,0.1c-0.1-0.1-0.1-0.1-0.1-0.2c-0.1,0-0.2,0.1-0.3,0.1v-0.1L46,83.8h-0.1l0,0
			c0.2-0.1,0.1-0.2-0.2-0.3l-0.1-0.1h-0.3c-0.3-0.1-0.6-0.2-0.5-0.4c-0.2,0.1-0.5,0.1-0.8,0c0-0.1-0.1-0.1-0.1-0.1l-1.3-0.3h-0.1
			h-0.2l0,0h0.1c0,0,0,0-0.1,0c0.1,0,0.3,0,0.5,0c-0.9,0,0-0.4-0.9-0.4v0.1c0.2-0.3,0.1-0.3-0.1-0.4c0,0.1-0.1,0.1-0.2,0.1
			c-0.2-0.2-0.5-0.3-0.9-0.5c0.1,0,0.1-0.1,0.1-0.2c0,0.1-0.2,0.1-0.4,0.1c-0.1,0-0.2-0.1-0.3-0.1l0.2-0.1c-0.8-0.4-1.6-0.8-2.4-1.2
			c0.1-0.1,0.4,0,0.4,0c-0.3-0.2-0.4-0.1-0.5,0c-0.2-0.1-0.4-0.2-0.6-0.3c0-0.1,0-0.1,0-0.2c-0.3-0.1-0.7-0.1-0.9-0.2
			c0.1,0,0.1,0,0.2,0L35.9,79c0-0.1,0.2-0.1,0.3-0.1c-0.3,0-0.7-0.9-1.2-0.8V78c-0.5-0.4-1-0.7-1.3-1c-0.1-0.1-0.3-0.2-0.4-0.3
			c-0.6-0.7-1-0.6-1.6-1.4c-0.2,0-0.2,0.1-0.3,0.2c-0.3-0.4-0.5-0.8-0.9-1.2c0-0.3-0.1-0.5-0.5-0.7c-0.1,0-0.1,0-0.2,0
			c-0.1-0.1-0.2-0.1-0.2,0c-0.1,0-0.1,0-0.2,0c0-0.2-0.1-0.5-0.2-0.6h0.2l0,0l0,0c-0.3-0.4-0.5-0.7-0.8-0.9
			c-0.1-0.1-0.1-0.2-0.2-0.2c-0.1-0.1-0.2-0.3-0.4-0.4l0,0l0.1-0.1c-0.4-0.7-1-1.3-1.6-2c-0.1-0.3-0.2-0.5-0.3-0.8
			c0,0,0.1-0.1,0-0.2s-0.3-0.2-0.4-0.3C26,66.8,26,66,25,65.4l0,0l0.3,0.1l0.1-0.1c-0.2-0.6-0.2-1.2-0.4-1.7l-0.4-0.4l0,0
			c0-0.1,0.1-0.2,0.2-0.1c0-0.4-0.1-0.2-0.2-0.2c0-0.1-0.1-0.3-0.1-0.4c0,0,0.1,0,0.2,0.1c-0.1-0.1-0.2-0.3-0.2-0.5
			c-0.1-0.5-0.2-0.9-0.4-1.4c0.2-0.5,0.1-1.4-0.1-2.2c-0.1-0.4-0.2-0.9-0.2-1.3c0-0.4,0-0.8,0.1-1.1l-0.2,0.1
			c-0.2-0.3,0.1-0.4,0.1-0.7c-0.1,0-0.1,0.4-0.2,0.2c-0.2-1.4,0-2.9,0.1-4.3c0.1-0.7,0.3-1.4,0.5-2.1l0.3-1.1l0.3-1
			c0.2-0.5,0-0.7-0.2-0.9v-0.2c0,0,0,0.1-0.1,0.1c-0.1-0.2-0.1-0.5,0.2-0.9l0.2,0.5c0.1-0.7,0.3-1.4,0.5-2.1v0.1c0-0.1,0-0.1,0-0.1
			c0-0.1,0.1-0.2,0.1-0.3c0.1,0,0.2,0.1,0.2-0.4h-0.1c0-0.1,0.1-0.2,0.1-0.3c0.3-0.5,0.5-1.1,0.7-1.6l0.1,0.2
			c0.2-0.5,0.5-1.1,0.8-1.6c0-0.1,0.1-0.1,0.1-0.2c0.2-0.3,0.3-0.6,0.5-0.9c0,0,0,0,0.1,0c0.2-0.1,0.3-0.4,0.3-0.7c0,0,0,0,0-0.1
			l0,0c0.1-0.2,0.1-0.4,0.3-0.5c0.1,0,0,0.1,0,0.2c0-0.1,0.1-0.3,0.3-0.4l0,0c0-0.3,0.9-0.7,0.8-1.2h0.1c0.4-0.5,0.7-1,1-1.3
			c0.3-0.4,0.6-0.7,0.9-1.1v-0.1c0.3-0.3,0.7-0.8,0.9-1.1c0,0.2,0.4-0.2,0.4,0.1c0.4-0.3,0.6-0.7,0.5-0.8c0.1-0.1,0.2-0.1,0.2-0.2
			c0.6-0.3,0.9-0.8,1.3-1.1c0,0,0,0,0,0.2c0.2-0.1,0.3-0.3,0.5-0.4c0.1,0,0.2,0,0.3,0c0.3-0.3,0.6-0.6,0.9-0.9
			c0.3-0.3,0.6-0.5,1-0.7c0.3-0.2,0.7-0.5,1-0.8c0.2-0.1,0.5-0.2,0.8-0.3c-0.3,0.3-1.3,0.7-1,1c0.3-0.2,0.5-0.4,0.8-0.7
			c0.2-0.1,0.3-0.3,0.5-0.4c0.1,0,0.3-0.1,0.4-0.1c0.9-0.2,1.7-0.5,2.3-1L42.2,26l0.6-0.3c0.1,0,0.2-0.1,0.3-0.1
			c0.2-0.1,0.3-0.1,0.5-0.2c-0.1,0.1-0.2,0.2,0.1,0.2c0.3-0.2,0.6-0.4,0.9-0.5l0,0c-0.1,0,0,0,0,0c0.3-0.1,0.5-0.1,0.8-0.2
			c0.6-0.1,1.1-0.2,1.6-0.5l0,0c0,0,0,0,0,0.1h0.1c0.5,0.2,1.3,0.1,2.2-0.1c0.4-0.1,0.9-0.2,1.3-0.2c0.4,0,0.8,0,1.1,0.1L51.6,24
			c0.3-0.2,0.4,0.1,0.7,0.1c0-0.1-0.4-0.1-0.2-0.2c1.4-0.2,2.9,0,4.3,0.1c0.7,0.1,1.4,0.3,2.1,0.5l1.1,0.3l1,0.3c1,0.3,0.8-0.7,2,0
			l-0.5,0.2c1.1,0.1,2.1,0.5,3.1,0.9c1,0.5,1.9,0.9,2.9,1.3c-0.1,0-0.2,0.1-0.4,0c0.3,0.4,1.4,0.8,1.5,0.7c0.3,0.2,0,0.2,0.1,0.4
			c0.3,0.4,1.1,0.3,1.2,0.7c0,0.1-0.1,0-0.2,0c0.3,0.1,1.1,0.8,1,0.4c0.5,0.6,1.3,0.8,1.7,1.3c0.5,0,0.9,1,1.3,0.8
			c-0.4,0.3,0.8,1.2,1.2,1.4c-0.2,0,0.2,0.4-0.1,0.4c0.4,0.4,0.8,0.7,0.9,0.5c0.3,1.1,1.7,1.4,1.5,2.2c0.3,0.3,0.6,0.6,0.9,0.9
			c0.3,0.3,0.5,0.6,0.7,1c0.5,0.6,1,1.2,1.3,1.9c-0.4,0.1-0.9-1.5-1.2-1.2c0.2,0.3,0.4,0.5,0.7,0.8c0.2,0.2,0.4,0.5,0.5,0.7
			c0.3,0.4,0.6,0.9,0.9,1.6c0,0,0,0-0.1,0c0,0.1,0.1,0.1,0.1,0.1c-0.1,0-0.3-0.3-0.4-0.3c0.4,0.6,0.6,1.3,0.8,1.9
			c0.2,0.6,0.5,1.2,0.8,1.8c0,0-0.1-0.1-0.2-0.2c0.1,0.2,0.1,0.6,0.3,0.5l-0.1-0.2c0.2-0.5,0.8,0.8,1,0.8c-0.6-0.2,0,0.9-0.4,0.9
			c-0.1-0.2,0.1-0.7-0.1-0.9c0,0.2,0,0.6,0.1,0.9c-0.1,0-0.1,0-0.2-0.1c0.1,0.2,0.2,0.3,0.4,0.3c0,0.2,0,0.3-0.3,0.1
			c0.3,0.7,0.4,0.6,0.5,1l0,0c0,0.1,0,0.1,0.1,0.1c0,0.1,0,0.1,0,0.2c-0.1,0-0.2-0.1-0.3-0.2c0.2,0.3,0.4,0.6,0.5,1.2
			c0,0,0-0.1-0.1-0.1c0,0.1,0.1,0.2,0.1,0.3v0.1c-0.1,0-0.1,0.1-0.2-0.1c0.1,0.6,0.3,1.2,0.5,1.7c-0.1,0-0.1,0-0.2,0.1
			c0.2,0.1,0.2,0.2,0.3,0.3c0.1,0.4,0.1,0.8,0.1,1.2c-0.5-0.4-0.1,0.5-0.5,0.5c0,0,0,0.2,0.1,0.4c0,0.1,0,0.2,0,0.2
			C84.1,54.6,84,54.8,84,55l0.2,0.8L84,56v-0.7c-0.2,0.4-0.1,0.6,0.1,0.9c-0.1,0.1-0.2,0.2-0.3,0.3l0.4,0.8
			c-0.2,0.1-0.3-0.4-0.5,0.1c0.2,0.4,0.5-0.3,0.5,0.3c-0.3,0.4-0.4,0.2-0.3,0.7c-0.1,0-0.2-0.1-0.2-0.2c0.1,0.4-0.1,1,0.1,1.3
			c-0.2,0.2-0.2,0.5-0.2,0.8c-0.1,0.3-0.2,0.5-0.4,0.4c0.1,0.1,0.2,0.7,0.1,1.1c-0.3-0.8-0.4,1.3-0.9,1c0.4,0.6-0.4,1.7-0.4,2.6
			c0-0.1-0.1-0.2,0-0.2c-0.2,0.4-0.4,0.5-0.6,0.8c0.3,0.2,0.1,0.9,0.1,1.4c-0.6,0.4-0.3-0.5-0.7-0.5c0.3,0.1-0.2,1.1,0.2,1
			c-0.4,0.3-0.3,0.3-0.7,0.4c0.4,0.3-0.1,0.4,0,0.9c-0.6,0.4-0.5-0.1-0.7,0.6c-0.3,0.2-0.1-0.4-0.1-0.4c-0.4,0.6,0.1,0.5,0.2,0.7
			c-0.4,0.8-0.4,0.2-0.8,0.4C78.7,70.8,78.7,71.3,78.5,71.6z"/>
		<path class="st3" d="M70.3,81.8C70.3,81.7,70.3,81.7,70.3,81.8C70.3,81.7,70.3,81.7,70.3,81.8C70.2,81.8,70.2,81.8,70.3,81.8
			C70.2,81.8,70.3,81.8,70.3,81.8z"/>
		<polygon class="st3" points="46.8,83.5 46.8,83.6 46.9,83.6 		"/>
		<polygon class="st3" points="33,32.2 33,32.2 32.9,32.3 		"/>
		<path class="st3" d="M84.1,51L84,50.8L84.1,51L84.1,51z"/>
		<path class="st3" d="M84.1,51L84.1,51L84.1,51z"/>
		<path class="st3" d="M84.1,51.1c0,0.1,0,0.2,0.1,0.3L84.1,51.1z"/>
		<polygon class="st3" points="60.9,22.3 60.2,22.2 60.7,22.2 		"/>
		<polygon class="st3" points="41.9,84.8 42.5,84.9 42.2,84.8 		"/>
		<path class="st3" d="M56.8,5.6c0.2,0,0.3,0,0.3-0.1C56.9,5.5,56.8,5.6,56.8,5.6z"/>
		<path class="st3" d="M52.2,5.1c0.1,0,0.2,0,0.3,0C52.4,5.1,52.3,5.1,52.2,5.1z"/>
		<path class="st3" d="M90.6,22.4l0.1,0.2c0.1,0,0.1,0,0.2,0L90.6,22.4z"/>
		<path class="st3" d="M99.2,64.1L99.2,64.1L99.2,64.1z"/>
		<path class="st3" d="M25.9,13.4c0.1,0,0.1,0,0.2,0C26.1,13.4,26,13.4,25.9,13.4z"/>
		<path class="st3" d="M89.3,84.4c0.2-0.1,0.3-0.1,0.4-0.1C89.5,84.2,90.2,83.4,89.3,84.4z"/>
		<path class="st3" d="M21.5,20.3L20.6,21C20.9,20.8,21.2,20.6,21.5,20.3z"/>
		<path class="st3" d="M102.5,55.9c0-0.1,0-0.1,0-0.2c0.1-0.9,0.1-1.6,0.1-2.7c-0.1,0.2-0.2,0.4-0.2,0.2c0-2-0.3-0.9-0.4-2.2
			c0.1-0.8,0.4,0.3,0.2-1.1c0.1-0.9,0.3-0.2,0.4,0.1c-0.1-0.3-0.1-0.6-0.1-0.9c0-0.3-0.1-0.6-0.1-0.8c0-0.5,0-1,0-1.4l0.2,0.7
			c-0.1-0.4-0.2-0.7-0.2-1l-0.2,0.4c0-0.4-0.1-0.7,0-0.7c-0.2-0.4-0.3,0.4-0.7-0.4c0-0.5-0.3-1.5-0.1-1.8c0.2,1.6,0.3-0.2,0.6,1.1
			c-0.1-0.3-0.1-0.6-0.1-1c0-0.1,0.1,0,0.1,0.1c-0.1-1.6-0.5-0.6-0.9-2.2c0.2,0.2,0.2-0.5,0.1-0.7c0.2,0.6-0.2,0.4-0.5-0.2
			c-0.1-1-0.4-1.1-0.5-1.6l0.1,0.6c-0.2-0.2-0.3-0.7-0.6-1.3c0.1-0.1,0.3,0.6,0.3,0.3c-0.6-0.7-0.3-1.8-0.9-2.8
			c-0.1-0.5,0.3-0.2,0.2-0.6c-0.6-1.1-0.3-1.4-1-2.5c0,0.4,0,0.5-0.6-0.3l1.1,1.9l-0.9-1.1c0.3,0.6,0.8,1.2,0.8,1.6
			c-0.4-0.5-0.4-0.5-0.4-0.2v-0.1c-0.1-0.9-0.9-1.4-1.2-2.4l0.5-0.2c-0.2-0.8-0.6-1.4-1-2c-0.5-0.6-1-1.2-1.4-2.1l0.3,0.6
			c-0.3-0.1-0.7-1.1-1.1-1.6c0.2-0.1,0-0.4,0-0.8c-0.1,0.1-0.9-1.2-1.3-1.1l-0.3-0.9c-0.7-1.1-1.2-1.2-1.9-1.7
			c0.1,0,0.3,0.1,0.5,0.3l-0.6-0.6c-0.1,0-0.3-0.1-0.4-0.2c0.2,0,0.1-0.3,0.7,0.2c-0.4-0.4-0.6-0.8-0.8-0.7
			c-0.1-0.3-1.2-0.9-1.4-1.4c-0.1-0.1-0.2-0.1-0.3-0.1c-0.1-0.1-0.3-0.3-0.4-0.4l0,0l0,0c-0.2-0.2-0.4-0.4-0.5-0.6
			c-0.1,0-0.1,0.2-0.1,0.4c-0.2-0.4-0.5-0.7-0.9-1.1c-0.3-0.4-0.6-0.7-0.6-0.9c0,0.1-0.1,0.2-0.3,0.1l-0.1-0.1
			c-0.1-0.1-0.3-0.3-0.4-0.4c-0.3-0.4,0-0.3-0.3-0.7c0,0-0.1,0-0.1-0.1c0.2,0,0.3-0.1-0.1-0.4l-0.1,0.3c-0.2-0.2-0.5-0.3-0.6-0.2
			c-0.1-0.1-0.2-0.2-0.3-0.3c0-0.1,0-0.1-0.1-0.2l0,0l-0.3-0.2l0.1,0.1l0.1,0.1c0,0-0.1,0-0.1-0.1l0,0c-0.9-0.6-2.1-1.4-2.9-2
			c0.1,0,0.1-0.1,0.2,0c-0.8-0.6-1-0.4-1.5-0.5c-0.3-0.2-0.7-0.5-1-0.7c-0.1-0.2,0.9,0.4,0.6,0.1c0.1-0.7-1.7-1-2.5-1.8l0.3,0.1
			c-0.7-0.6-2-0.7-3.2-1.3c0,0,0.1,0,0-0.1V9.4c-0.3-0.1-0.3-0.1-0.2,0c-0.4-0.1-1-0.2-1.5-0.3c-0.1,0-0.1-0.1-0.2-0.1
			c0.9,0.1-0.2-0.2,0.9,0.2c-1-0.5-1.2-0.7-2.4-0.9c0.5-0.1-0.7-0.6-1.2-0.7L69.6,8c-0.6-0.2-1-0.4-1.5-0.6h0.1
			C68.5,7.5,69,7.7,69,7.7c-0.2-0.2-0.4-0.3-0.6-0.4l0.1-0.1c-1-0.5-2.1-0.6-3.1-0.7c-0.6-0.1-1.2-0.2-1.7-0.3
			C63.6,6.1,63.4,6,63.2,6c-0.2,0.1-0.4,0-0.5-0.1c-0.2,0-0.2,0.1,0,0.1c-0.1,0-0.1,0-0.2,0c0.3,0.1,0.6,0.1,0.8,0.2
			c0.1,0.1,0.2,0.1,0,0.2c-1-0.2-2-0.8-2.4-0.9c-0.9-0.2-1.2-0.1-1.7,0c-0.3,0-0.6,0-0.7,0c-0.1,0-0.3,0-0.5-0.1
			c0.1,0.1,0.2,0.2,0.1,0.3c-0.5,0-1,0.1-1.6,0.1c-0.4-0.2-0.3-0.4,0.1-0.5c0.3,0,0.4,0,0.4,0.1c0.3,0,0.8-0.1,0.4-0.2l-0.1,0.1
			c-0.5-0.1-2-0.2-1.6-0.4c-0.8,0.1-0.3,0.2,0.2,0.3C54.6,5,53.8,5,52.4,5c0.1,0,0.2,0.1,0.3,0.1c-0.4,0-0.7-0.1-0.9-0.2
			c-1,0.2-1.9,0.2-2.9,0.2C49,5,49.2,4.9,49.4,4.9C49.1,5,48.8,5,48.5,5c-0.3,0-0.6,0.1-0.8,0.1c-0.5,0-1,0-1.4,0H47
			c-0.4,0.1-0.7,0.2-1,0.2l0.4,0.2c-0.4,0-0.7,0.1-0.7,0c-0.1,0.1-0.1,0.1-0.1,0.2c-0.3,0-0.6,0.1-0.9,0.1c0.9,0.4-0.3,0.2-0.5,0.5
			c-0.2,0-0.4,0-0.6,0c0,0,0,0,0-0.1c1.4-0.2-0.3-0.3,1-0.6c-0.3,0.1-0.6,0.1-1,0.1c-0.1,0,0-0.1,0.1-0.1c-1.6,0.1-0.6,0.5-2.2,0.9
			V6.4c0.1-0.1,0.2-0.1,0.2-0.1c-0.1,0-0.2,0-0.3,0.1c-0.2,0-0.4,0-0.6,0c-0.2,0-0.1-0.2-0.7-0.1c0.2,0.2-0.4,0.4-1.2,0.5h1.2
			c-0.9,0.4-1.3,0.4-1.8,0.4c-0.4,0-0.9,0-1.7,0.5l0.5-0.4c-0.4,0.3-1.3,0.7-2.1,1c-0.2,0.1-0.4,0.2-0.6,0.3C34.2,8.7,34,8.8,33.8,9
			l0,0c-0.3,0.1-0.5,0.2-0.9,0.4c0,0,0,0,0.1,0c-1.1,0.5-2.3,1.1-3.3,1.9c-1,0.7-2,1.4-2.9,1.8l0.1-0.2c-0.2,0.2-0.4,0.4-0.6,0.6
			h-0.1c0,0,0,0,0,0.1c-0.1,0.1-0.2,0.1-0.3,0.2c0-0.1,0.1-0.2-0.1-0.1c-0.2,0.2-0.8,0.9-1.3,1.2l0.3-0.4c-1,0.6-1.7,1.2-2.2,1.9
			c-0.1,0.2-0.3,0.4-0.4,0.5c-0.4,0.3-0.7,0.6-0.6,0.7c-0.2,0.1-0.4,0.4-0.7,0.7c-0.4-0.1-1.8,0.8-2.4,1.4v-0.1
			c-0.9,1-1.7,1.9-2.3,2.8c-0.7,0.9-1.2,1.9-1.8,3c-0.3,0.2-0.7,0.6-1.1,1.1c-0.4,0.5-0.7,1.1-1.1,1.7c-0.8,1.2-1.6,2.5-2.2,3.6
			c0.2-0.3,0.3,0.2,0.1,0.6c-0.3,0.5-0.4,1.6-0.8,1.3L9,33.5c-0.5,0.2-1,1.4-1.3,2.3l0.4,0.3c-0.8,1-1.3,2.6-1.6,4
			c-0.3,1.5-0.5,2.8-1,3.3c0,0.6-0.2,1.3-0.1,1.9l-0.3-0.1c-0.2,0.8-0.3,1.4-0.4,2.1c-0.1,0.3-0.1,0.7-0.2,1.1
			c0,0.2-0.1,0.4-0.1,0.6c0,0.2,0,0.5,0,0.7l-0.2-0.4c0,1.2,0.8,1.6,0.8,2.6l-0.4,0.3c-0.2,2-0.3,4.1,0.1,6c-0.1,0-0.2-0.1-0.2-0.4
			c0,0.9,0.1,3.1,0.5,3.3c0,0.1,0,0.2,0,0.3s0,0.3,0.1,0.5c0,0.4,0.1,0.8,0.2,1.2c0-0.1,0.1-0.1,0.1-0.2c0.1,0.4,0.3,0.9,0.4,1.2
			c-0.1-0.1-0.1-0.1-0.2,0H5.5l0.1,0.1c0,0.1,0,0.2,0,0.3c0-0.2,0-0.2,0.1-0.2c0.1,0.2,0.2,0.3,0.3,0.4c0,0.1,0.1,0.1,0.1,0.2
			c-0.1,0.1,0,0.2,0.1,0.3l0.1,1.2C6.2,66.9,6,65.9,5.8,66c0.3,1.4-0.1,0.6,0,1.6C6,67.4,6.2,68,6.3,68.8v-1.2
			c0.4,0.9,0.4,1.3,0.4,1.8c0,0.4,0,0.9,0.5,1.7l-0.4-0.5c0.2,0.5,0.5,1.3,0.9,2.2C7.8,73,7.9,73.2,8,73.4c0.1,0.2,0.2,0.4,0.3,0.6
			c0.2,0,0.2,0,0.3,0.1c-0.1,0-0.2,0-0.4-0.2c0.2,0.3,0.5,0.7,0.8,1c0,0-0.1,0-0.2-0.2c0.5,1,1.1,2.1,1.8,3.1
			c0.1,0.2,0.1,0.3,0.2,0.5c-0.1,0.2,0.6,1.2,0.8,1.6c0.1-0.1,0.3,0,0.4,0.1c0.2,0.3,0.3,0.6,0.4,0.9l-0.2-0.1
			c0.3,0.4,0.6,0.5,0.8,1c-0.1,0-0.2-0.1-0.1,0.1c0.1,0.1,0.3,0.3,0.5,0.5s0.4,0.4,0.5,0.6c0.1,0.1,0.1,0.1,0.1,0.2L13.8,83
			c0.6,1,1.2,1.7,1.9,2.2c0.4,0.4,0.9,0.7,1.4,1.1c0.2,0.2,0.4,0.4,0.7,0.7c-0.2,0.3,0.8,1.8,1.4,2.4h-0.1c1,0.9,1.9,1.7,2.8,2.3
			c0.9,0.7,1.9,1.2,3,1.8c0.2,0.3,0.6,0.7,1.1,1.1s1.1,0.7,1.7,1.1c1.2,0.8,2.5,1.6,3.6,2.2c-0.3-0.2,0.2-0.3,0.6-0.1
			c0.5,0.3,1.6,0.4,1.3,0.8H33c0.2,0.5,1.4,1,2.3,1.3l0.3-0.4c1,0.8,2.6,1.3,4,1.6c1.5,0.3,2.8,0.5,3.3,1c0.6,0,1.3,0.2,1.9,0.1
			l-0.1,0.3c0.8,0.2,1.4,0.3,2.1,0.4c0.3,0.1,0.7,0.1,1.1,0.2c0.2,0,0.4,0.1,0.6,0.1c0.2,0,0.5,0,0.7,0l-0.4,0.2
			c0.8,0.1,1.2-0.3,1.7-0.5c0.2,0.1,0.5,0.1,1,0.1c0,0,0,0,0.1,0l0.1,0.1c2,0.2,4.1,0.3,6-0.1c0,0.1-0.1,0.2-0.4,0.2
			c1,0.1,3.7-0.2,3.3-0.7c0.1,0.4,2.1-0.3,3.1-0.6l-0.1,0.3c0.8-0.6,0.8-0.7,2-1.1c0.3,0,0.3,0.2-0.1,0.2c1-0.1,0.7-0.4,1.9-0.6
			L67,101c1-0.2,0.9-0.3,1.4-0.7c0.6-0.3,1.9-0.6,2.1-0.4c0.1-0.2,0.5-0.6,1.1-0.7l0,0l0,0c0,0,0,0.1-0.3,0.2c0.1,0,0.1,0,0.2,0
			c0,0-0.1,0-0.1,0.1c0.2,0,0.3-0.1,0.5-0.1H72c0.2-0.1,0.4-0.1,0.5-0.2c0.3-0.1,0.6-0.3,0.8-0.5c0.5-0.3,0.9-0.6,1.5-0.7
			c0.1,0,0.2,0,0.3,0c-1.2,0.6-2.2,1.1-2.2,1c0.1,0.2,1.1-0.2,0.5,0.5c0.7-0.6,1.9-1.6,3-2c0.1,0,0.1,0,0.2,0l-0.1,0.1
			c0.2-0.1,0.4-0.2,0.6-0.3c0.3-0.1,0.5-0.2,0.8-0.4C78,97,79,96.3,79.5,96c-0.2-0.2,0.5-0.6-0.2-0.4c0.1,0-0.1,0.1-0.4,0.3
			C78.8,96,78.8,96,78.7,96l0,0c-0.3,0.2-0.7,0.4-1.2,0.7c0.1-0.1,0.2-0.2,0.4-0.4c0,0,0,0,0.1,0s0.1-0.1,0.1-0.2
			c0.2-0.1,0.4-0.3,0.7-0.4c0.1-0.2,0.3-0.5,0.4-0.7c0.1,0,0.1-0.1,0.2-0.1c0.4,0,0.9-0.2,1.3-0.3c0.5-0.1,0.9-0.3,1-0.3
			c0.6-0.6,1.4-1.2,2.1-1.8c0.3-0.3,0.7-0.6,0.9-0.9c0.1-0.1,0.1-0.2,0.2-0.3c0.1-0.1,0.3-0.3,0.3-0.3c0.1-0.2,0.2-0.4,0.4-0.6
			c0.1,0,0.2,0,0.2-0.1v0.2c-0.1,0.2-0.3,0.3-0.3,0.4c0.5-0.6,1.5-1.5,1.9-2c0.2-0.2,0.3-0.3,0.5-0.5c0.1,0.1-0.3,0.5,0.5-0.3
			l-0.1,0.2c1.2-0.9,1.9-1.9,2.5-2.9c0.1,0,0.1,0,0.2-0.1c0.1-0.3,0.6-0.7,0.4-0.9c0,0,0,0,0-0.1c0.2-0.2,0.3-0.2,0.4-0.2
			c0.2-0.5,1.4-1.9,1-1.9c0.3-0.3,0.5-0.6,0.9-0.9c-0.2,0.1-0.2,0.2-0.3,0.2l0.1-0.1l0,0c0.3-0.3,0.6-0.7,0.8-1.1
			c0.3-0.4,0.6-0.9,0.8-1.3c0.5-0.9,1.1-1.8,1.5-2.8c0.3-0.8,0.7-1.5,1.1-2.3l0,0v-0.1c0.1-0.2,0.1-0.3,0.2-0.5
			c0.2-0.4,0.4-0.8,0.6-1.2c0,0.4,0.2-0.3-0.2,0.6c0.4-0.9,0.6-1.1,0.8-2c0-0.1,0.1-0.2,0.1-0.3c0,0,0,0,0-0.1
			c0.2-0.1,0.5-0.9,0.6-1.3l-0.3,0.5c0-0.1,0-0.2,0-0.3c0.1-0.3,0.2-0.6,0.3-0.9l0,0l-0.1-0.1l0,0l0.3,0.4c0.5-1,0.6-2.1,0.7-3.1
			s0.3-1.8,0.7-2.6c-0.1-0.4-0.2,0.2-0.3,0.5c0-0.3,0.1-0.5,0.1-0.8c0.3-0.7,0.6-1.2,0.6-1.5c0.4-1.4-0.2-1.4,0-2.9
			c-0.1,0.1-0.2,0.2-0.3,0.1c0-0.4-0.1-0.7-0.1-0.7c0.1-0.7,0.2-0.7,0.3-0.7c0,0.2,0,0.3,0.1,0.3c0-0.1,0-0.3,0-0.3h0.1
			c0,0.2,0,0.3-0.1,0.3c0,0.3,0.1,0.8,0.2,0.4l-0.1-0.1c0.1-0.2,0.1-0.5,0.1-0.9c0-0.1,0.1-0.3,0.1-0.6c0-0.2,0.1-0.3,0.1-0.2
			C102.6,55.8,102.5,55.8,102.5,55.9z M78.5,96.4L78.5,96.4L78.5,96.4c-0.3,0.3-0.4,0.3-0.5,0.3C78.1,96.7,78.3,96.6,78.5,96.4z
			 M98.3,35.2C98.2,35.2,98.2,35.2,98.3,35.2C98.2,35.2,98.2,35.2,98.3,35.2C98.2,35.1,98.2,35.2,98.3,35.2z M41.2,6.5
			c-0.1,0-0.2,0-0.3,0C41,6.4,41.1,6.4,41.2,6.5z M32.8,9.5c0.3,0,0.4,0,0.2,0.2C32.8,9.6,32.6,9.6,32.8,9.5z M11.1,79
			c-0.2-0.3-0.2-0.4-0.2-0.5c0.1,0.1,0.2,0.3,0.4,0.5c0,0,0,0,0.1,0C11.3,79,11.2,79,11.1,79z M50.8,100.9L50.8,100.9L50.8,100.9
			L50.8,100.9z M75.3,96.1L75.3,96.1c0.2-0.1,0.4-0.2,0.5-0.3C75.7,95.9,75.5,96,75.3,96.1z M100.5,53.6c0,0,0,0.3,0.1,0.5
			c0,0.1,0,0.3,0,0.4c-0.1,0.2-0.2,0.4-0.3,0.8l0.2,1.2l-0.2,0.4v-1c-0.2,0.6-0.1,0.9,0,1.4c-0.1,0.1-0.2,0.3-0.3,0.5l0.4,1.2
			c-0.2,0.1-0.3-0.6-0.5,0.2c0.1,0.6,0.5-0.5,0.5,0.4c-0.3,0.6-0.4,0.4-0.4,1.1c-0.1,0.1-0.2-0.1-0.2-0.3c0.1,0.6-0.2,1.6,0,1.9
			c-0.2,0.3-0.2,0.8-0.3,1.2c-0.1,0.4-0.2,0.7-0.4,0.7c0.1,0.2,0.1,1.1-0.1,1.7c-0.3-1.1-0.5,2-1,1.6c0.3,0.9-0.7,2.6-0.9,4
			c0-0.1,0-0.2,0-0.4c-0.3,0.7-0.5,0.8-0.7,1.3c0.3,0.2-0.1,1.3-0.2,2c-0.7,0.7-0.2-0.7-0.6-0.6c0.3,0.1-0.4,1.6,0,1.4
			c-0.5,0.5-0.4,0.5-0.8,0.7c0.4,0.3-0.2,0.6-0.2,1.3c-0.7,0.8-0.5,0-1,1c-0.4,0.4,0-0.6,0-0.6c-0.6,1,0,0.6,0.1,1
			c-0.6,1.2-0.6,0.4-1,0.7c-0.2,0.4-0.3,0.8-0.4,1.1c-0.1,0.3-0.3,0.6-0.4,0.9c-0.1,0-0.2,0.1-0.1-0.1c-0.3,0.9-1.6,2.1-1.9,3.2
			c-0.1,0-0.1,0-0.2,0c0.2,0,0.3,0,0.4,0.1c-0.2,0.2-0.5,0.4-0.7,0.7c-0.1,0.1-0.2,0.2-0.2,0.3c0-0.1,0.5-0.6,0.4-0.8
			c-0.6,0.8-1.2,1.9-1.8,2.5c-0.4-0.1,1.2-1.5,0.2-0.9l0.9-0.8c-1,0.3,0.5-0.5-0.5-0.3c-0.6,0.6-0.9,0.9-1.1,1.3
			c-0.3,0.4-0.5,0.8-1.2,1.2c-0.1,0.4,0.3,0.1,0.1,0.5c-1.5,1.8-1.9,0.6-2.9,2.1c-0.2,0.5-0.1,0.9-1.2,1.4l0.1-0.6
			c-1.3,0.9-0.4,1-1.9,1.8c0.1-0.3,0.9-0.8,0.7-0.7c-1,0.4-0.5,0.6-1.1,1.1L79.7,93c-0.7,0.5-1.4,1-2.1,1.5s-1.5,1.1-2.3,1.5
			c0-0.1,0.3-0.4-0.2-0.3c-1,0.6-2.1,1.1-3.3,1.6c-1.2,0.4-2.4,0.7-3.5,1l-0.7,0.6c-0.2,0.1-0.4,0-0.2-0.1c-0.9,0.1,0,0.2-0.4,0.4
			c-0.5,0.1-0.7,0-0.4-0.2c-0.7,0.3-1.8,0.7-2.8,1.1c-0.3,0.1-0.5,0.2-0.8,0.2s-0.5,0.1-0.8,0.1c-0.5,0.1-1,0.1-1.4,0.1l0.3-0.1
			c-1.3,0.1-1.3,0.8-2.6,0.7l0.2-0.1c-0.1,0-0.2,0-0.3,0h0.1h-0.2l0,0c-1.3,0.1-2.6,0.1-3.9,0.2c-0.3,0-0.7,0-1,0
			c-0.1,0-0.1,0-0.2,0c-0.2-0.1-0.5-0.2-0.9-0.3l-0.7,0.1c-0.2,0-0.5-0.1-0.7-0.2h0.9c-0.6-0.2-0.9-0.1-1.4,0
			c-0.1-0.1-0.3-0.2-0.5-0.3l-0.8,0.2c-0.1,0-0.3,0-0.4,0c0.1-0.1,0.2-0.2-0.3-0.3c-0.3,0.1-0.2,0.2-0.1,0.3c-0.2,0-0.4,0-0.5,0.1
			c-0.4-0.3-0.3-0.4-0.9-0.3c-0.1-0.1,0.1-0.2,0.3-0.2c-0.3,0-0.6,0-1,0c-0.3-0.1-0.8-0.3-1.7-0.5c-0.4-0.1-0.7,0-1,0.1
			c-0.1-0.1-0.2-0.1-0.1-0.2c-0.1,0-0.3,0-0.5,0v-0.1L42,99.7c-0.1,0-0.1,0-0.1,0l0,0c0.3-0.1,0.1-0.2-0.3-0.3l-0.1-0.1L41,99.2
			c-0.5-0.1-1-0.3-0.8-0.5c-0.3,0.1-0.7,0-1.2-0.1c-0.1-0.1-0.1-0.1-0.1-0.2L37,98c-0.1,0-0.2-0.1-0.3-0.1l-0.3-0.1c0,0,0,0,0.1,0
			s0.1,0,0.2,0c0,0-0.1,0-0.1-0.1c0.1,0,0.3,0,0.5,0c-1-0.2,0.1-0.4-1.1-0.5c0.1,0,0,0.1,0,0.1c-0.2-0.1-0.3-0.2-0.5-0.3
			c0,0.1-0.1,0.1-0.2,0.1c-0.4-0.2-0.9-0.5-1.4-0.7c0.1,0,0.2-0.1,0.2-0.2c0,0.1-0.2,0.1-0.5,0c-0.2-0.1-0.4-0.2-0.5-0.2l0.3-0.1
			c-1.2-0.5-2.4-1.2-3.7-1.9c0-0.1,0.6,0.1,0.6,0.1c-0.5-0.3-0.7-0.3-0.7-0.2c-0.3-0.2-0.6-0.3-0.8-0.5c0-0.1,0-0.1-0.1-0.2
			c-0.4-0.2-0.8-0.3-1.1-0.4c-0.1,0-0.2-0.1-0.2-0.1c0.1,0,0.2,0,0.2,0.1l-0.8-0.5c0-0.1,0.2,0,0.3-0.1c-0.4-0.1-1.1-1.3-1.8-1.3
			v-0.1c-0.4-0.3-0.8-0.6-1.1-0.8c-0.3-0.3-0.6-0.5-0.9-0.7c-0.2-0.2-0.4-0.4-0.7-0.5c-0.5-0.5-0.8-0.8-1.2-1
			c-0.4-0.3-0.8-0.5-1.2-1.2c-0.3-0.1-0.2,0.1-0.3,0.2c-0.4-0.6-0.9-1.2-1.4-1.8c-0.1-0.3-0.2-0.6-0.9-1.1c-0.1,0-0.1,0-0.2-0.1
			c-0.2-0.1-0.2-0.1-0.3-0.1c-0.1,0-0.2-0.1-0.2-0.1c0-0.2-0.3-0.7-0.4-0.9h0.2l0,0l0,0c-0.5-0.6-0.8-1-1.2-1.5
			c-0.1-0.2-0.2-0.3-0.3-0.4c-0.2-0.2-0.4-0.4-0.6-0.7l0,0l0.1-0.1c-0.5-0.7-1-1.4-1.5-2.1c-0.2-0.3-0.5-0.7-0.7-1
			c-0.2-0.4-0.4-0.8-0.5-1.2c0,0,0-0.1,0-0.3c-0.1-0.2-0.2-0.4-0.3-0.5l0,0c-0.2-0.7-0.5-1.3-0.7-1.9c-0.1-0.3-0.3-0.6-0.5-0.8
			C10.3,72,10,71.8,10,71.6l0,0l0.1,0.1v-0.1c-0.3-0.9-0.5-1.8-0.7-2.6l-0.5-0.7c0,0,0,0,0-0.1c0-0.2,0-0.3,0.1-0.2
			c-0.1-0.7-0.1-0.3-0.3-0.3c-0.1-0.2-0.1-0.4-0.1-0.6c0,0,0.1,0,0.2,0.1c-0.1-0.2-0.2-0.5-0.3-0.8C8.2,65.7,8,65,7.7,64.2
			c0-0.2,0.1-0.4,0-0.7c0-0.3,0-0.5,0-0.8c-0.1-0.6-0.2-1.2-0.3-1.9c-0.1-0.7-0.3-1.4-0.4-2c0-0.7,0-1.3,0.1-1.8L7,57.2
			c-0.2-0.5,0.1-0.6,0.1-1c-0.1,0-0.1,0.5-0.3,0.2c-0.3-2.2,0-4.4,0.2-6.7c0.1-1.1,0.4-2.2,0.7-3.3L8,44.8c0.2-0.5,0.3-1.1,0.5-1.6
			c0.2-0.8,0.1-1.1-0.1-1.4v-0.3c0,0.1,0,0.1-0.1,0.2c-0.1-0.3,0-0.7,0.3-1.5l0.2,0.7c0.2-1.1,0.5-2.1,0.9-3.1c0,0.1,0,0.1,0,0.2
			c0-0.1,0-0.1,0-0.2c0.1-0.2,0.1-0.4,0.2-0.5c0.1-0.1,0.2,0.1,0.3-0.7h-0.1c0.1-0.1,0.1-0.3,0.2-0.4c0.4-0.8,0.8-1.6,1.2-2.5
			l0.1,0.2c0.4-0.8,0.8-1.7,1.3-2.5c0.1-0.1,0.1-0.2,0.2-0.3c0.2-0.4,0.5-0.9,0.8-1.3c0,0,0.1,0,0.1-0.1c0.2-0.2,0.4-0.7,0.5-1v-0.1
			l0,0c0.1-0.3,0.3-0.6,0.5-0.7c0.1,0-0.1,0.2-0.1,0.3c0.1-0.2,0.2-0.4,0.4-0.7c0,0,0,0,0,0.1c0.1-0.4,1.3-1.1,1.3-1.8h0.1
			c0.3-0.4,0.6-0.8,0.8-1.1c0.3-0.3,0.5-0.6,0.7-0.9c0.5-0.5,0.9-1.1,1.5-1.7c0,0,0-0.1,0-0.2c0.5-0.5,1.1-1.3,1.4-1.6
			c-0.1,0.3,0.6-0.3,0.5,0c0.6-0.5,1-1,1-1.2c0.1-0.1,0.2-0.2,0.3-0.3c0.8-0.5,1.4-1.2,2-1.7c0.1,0,0,0-0.1,0.2
			c0.3-0.2,0.5-0.4,0.8-0.6c0.1,0,0.2-0.1,0.4-0.1c0.5-0.4,1-0.9,1.4-1.3c0.5-0.4,1-0.7,1.5-1.1c0.5-0.4,1-0.7,1.5-1l0.1-0.1
			c0.4-0.2,0.8-0.4,1.2-0.5c-0.2,0.1-0.5,0.3-0.8,0.5c-0.5,0.3-1,0.7-0.9,0.8c0.4-0.3,0.8-0.6,1.2-0.9c0.3-0.2,0.6-0.4,0.8-0.5
			s0.4-0.2,0.6-0.2c0.7-0.2,1.3-0.5,1.9-0.7c0.3-0.1,0.6-0.3,0.8-0.4c0.3-0.1,0.5-0.3,0.7-0.4v-0.1l0.9-0.5c0.2-0.1,0.4-0.1,0.5-0.2
			c0.2-0.1,0.5-0.2,0.7-0.3C38,9.9,37.8,10,38.2,10c0.5-0.3,1-0.5,1.4-0.7c0,0,0,0,0.1,0c-0.1,0.1-0.1,0,0.1,0
			C40.1,9.1,40.5,9,40.9,9c0.8-0.2,1.6-0.3,2.5-0.7l0,0c0,0,0,0-0.1,0.1c0.1,0,0.1,0,0.2-0.1c0.2,0,0.4,0.1,0.6,0c0.3,0,0.5,0,0.8,0
			c0.6-0.1,1.2-0.2,1.9-0.3c0.7-0.1,1.4-0.3,2-0.4c0.7,0,1.3,0,1.8,0.1l-0.1-0.2c0.5-0.2,0.6,0.1,1,0.1c-0.1-0.1-0.6-0.1-0.2-0.2
			c2.2-0.3,4.4,0,6.7,0.2c1.1,0.1,2.2,0.4,3.3,0.7l1.6,0.3C63.5,8.7,64,8.9,64.5,9c1.6,0.4,1.1-0.7,3,0.3l-0.7,0.2
			c1.6,0.3,3.2,0.9,4.8,1.5c1.5,0.7,3,1.4,4.5,2c-0.2,0-0.2,0-0.5-0.1c0.5,0.5,2.1,1.3,2.3,1.1c0.4,0.3,0,0.2,0.2,0.5
			c0.5,0.5,1.6,0.6,1.8,1c0,0.1-0.2-0.1-0.3-0.1c0.4,0.2,1.6,1.3,1.5,0.8c0.9,0.8,2,1.3,2.6,2c0.7,0.2,1.4,1.5,1.9,1.3
			c-0.4,0.3,1.3,1.7,2,2.1c-0.3-0.1,0.3,0.6,0,0.5c0.6,0.6,1.2,1.2,1.3,0.9c0.7,1.5,2.4,2.2,2.4,3.4c0.4,0.5,0.9,1,1.3,1.4
			c0.4,0.5,0.7,1,1.1,1.5s0.7,1,1,1.5l0.5,0.7l0.4,0.8c-0.2,0.1-0.5-0.5-0.8-1s-0.7-1-0.8-0.9c0.3,0.4,0.6,0.8,0.9,1.2
			c0.3,0.4,0.5,0.8,0.7,1.1c0.5,0.7,0.9,1.5,1.3,2.5c0,0,0,0-0.1,0c0.1,0.1,0.1,0.2,0.1,0.2c-0.1,0-0.4-0.4-0.5-0.5
			c0.6,0.9,0.9,2,1.3,3c0.2,0.5,0.4,1,0.5,1.4l0.3,0.7l0.3,0.7c0,0-0.1-0.2-0.2-0.4c0.1,0.4,0.2,0.9,0.3,0.8l-0.1-0.4
			c0.1-0.7,1,1.3,1.2,1.4c-0.6-0.4,0.1,1.4-0.4,1.3c-0.1-0.4,0-1.1-0.2-1.4c0.1,0.3,0.1,0.9,0.2,1.4c-0.1,0-0.1-0.1-0.2-0.1
			c0.1,0.2,0.3,0.5,0.4,0.4c0.1,0.4,0,0.5-0.2,0.2c0.2,0.7,0.4,0.9,0.4,1.1c0.1,0.1,0.1,0.3,0.2,0.5l0,0c0,0.1,0.1,0.2,0.1,0.2
			c0,0.1,0,0.2,0.1,0.3c-0.1,0-0.2-0.2-0.3-0.3c0.2,0.5,0.5,1,0.6,1.8c0,0,0-0.1-0.1-0.1c0,0.1,0.1,0.3,0.1,0.5c0,0.1,0,0.1,0,0.2
			c-0.1-0.1-0.1,0.1-0.2-0.2c0.2,1,0.4,1.8,0.6,2.6c-0.1,0-0.1,0-0.2,0.1c0.2,0.2,0.2,0.4,0.3,0.5c0.1,0.6,0.1,1.2,0.1,1.8
			C100.5,52.2,100.9,53.5,100.5,53.6z"/>
		<path class="st3" d="M78.8,95.9L78.8,95.9C78.8,95.8,78.8,95.8,78.8,95.9c-0.1,0-0.1,0.1-0.2,0.1C78.7,96,78.8,95.9,78.8,95.9z"/>
		<polygon class="st3" points="43.1,99.6 43,99.7 43.2,99.7 		"/>
		<polygon class="st3" points="21.6,20.2 21.6,20.2 21.5,20.3 		"/>
		<path class="st3" d="M100.5,49.3L100.5,49.3v-0.2V49.3z"/>
		<path class="st3" d="M100.6,49.5c0-0.1,0-0.2,0-0.2V49.5z"/>
		<path class="st3" d="M100.6,49.5c0,0.2,0,0.4,0.1,0.5L100.6,49.5z"/>
		<polygon class="st3" points="64.6,6.2 63.6,6 64.3,6.1 		"/>
		<polygon class="st3" points="36,100.2 36.9,100.5 36.5,100.3 		"/>
		<path class="st3" d="M86.1,53.2c0,0.1,0,0.1,0,0.2C86.1,53.3,86.1,53.2,86.1,53.2z"/>
		<path class="st3" d="M74.6,78.6L74.6,78.6c-0.1,0.2-0.1,0.2-0.1,0.3L74.6,78.6z"/>
		<path class="st3" d="M47.1,83.6L47.1,83.6L47.1,83.6z"/>
		<path class="st3" d="M85.8,47.6L85.8,47.6C85.9,47.7,85.8,47.6,85.8,47.6z"/>
		<path class="st3" d="M80.6,35.7c0,0,0,0.1,0,0.2C80.6,35.8,80.6,35.8,80.6,35.7z"/>
		<path class="st3" d="M77.2,32.1c-0.1-0.1-0.1-0.2-0.2-0.3c0,0,0,0,0,0.1C77,31.9,77.1,31.9,77.2,32.1z"/>
		<path class="st3" d="M75.4,33.4l-0.5-0.6C75.1,33,75.2,33.2,75.4,33.4z"/>
		<path class="st3" d="M73.2,31.3c0-0.2-0.1-0.3-0.2-0.4h-0.1L73.2,31.3z"/>
		<path class="st3" d="M82.7,45.2L82.7,45.2C82.5,44.9,82.6,45.1,82.7,45.2z"/>
		<polygon class="st3" points="75.5,33.5 75.5,33.5 75.4,33.4 		"/>
		<path class="st3" d="M82.9,67.2l0.2,0.2C83.3,67,83,67.3,82.9,67.2z"/>
		<polygon class="st3" points="85.5,60.8 85.4,61.2 85.4,61.4 		"/>
		<polygon class="st3" points="22.9,42.4 22.7,43 22.9,42.8 		"/>
		<path class="st3" d="M102.6,52.7c0,0.1,0,0.2,0,0.3C102.6,52.9,102.6,52.8,102.6,52.7z"/>
		<path class="st3" d="M85.3,91.1l-0.2,0.1c0,0.1,0,0.1,0,0.2L85.3,91.1z"/>
		<path class="st3" d="M43.5,99.7L43.5,99.7C43.6,99.7,43.6,99.7,43.5,99.7z"/>
		<path class="st3" d="M94.3,26.4c0,0.1,0,0.1,0,0.2C94.3,26.6,94.3,26.5,94.3,26.4z"/>
		<path class="st3" d="M89.2,20.8c-0.1-0.2-0.1-0.2-0.3-0.4v0.1C89,20.5,89.1,20.6,89.2,20.8z"/>
		<path class="st3" d="M87.4,22.1l-0.8-0.9C86.8,21.4,87.1,21.8,87.4,22.1z"/>
		<path class="st3" d="M84,18.8c-0.1-0.2-0.2-0.4-0.4-0.6c-0.1,0-0.1,0-0.1,0L84,18.8z"/>
		<path class="st3" d="M98.5,40.4C98.5,40.3,98.5,40.3,98.5,40.4C98.3,39.9,98.4,40.2,98.5,40.4z"/>
		<polygon class="st3" points="87.5,22.2 87.5,22.2 87.4,22.1 		"/>
		<path class="st3" d="M98,73.9l0.2,0.2C98.4,73.6,98.1,74.1,98,73.9z"/>
		<polygon class="st3" points="101.5,65.1 101.7,64.1 101.5,64.8 		"/>
		<polygon class="st3" points="7.4,36.6 7.2,37.4 7.4,37.1 		"/>
		<polygon class="st3" points="74.2,41.4 74.8,40.8 74.1,41.2 		"/>
		<path class="st3" d="M74.1,41.4C74,41.4,74.1,41.3,74.1,41.4c-0.2,0.1-0.3,0.3-0.2,0.4c0.1-0.2,0.2-0.2,0.3-0.3L74.1,41.4
			L74.1,41.4L74.1,41.4z"/>
		<path class="st3" d="M74,41.2c-0.2,0-0.3,0-0.3-0.1c-0.1,0.1-0.3,0-0.4,0.1C73.6,41.3,73.9,41.3,74,41.2L74,41.2L74,41.2
			C74.1,41.1,74.1,41.1,74,41.2z"/>
		<path class="st3" d="M72.1,42.7L72.1,42.7L72.1,42.7L72.1,42.7z"/>
		<path class="st3" d="M60.9,47.5c0.1,0,0.1,0,0.2,0C61,47.5,61.3,47.2,60.9,47.5z"/>
		<path class="st3" d="M72,42.7L72,42.7C72.1,42.6,72.1,42.6,72,42.7C72.1,42.7,72.1,42.7,72,42.7z"/>
		<path class="st3" d="M44.5,67.1c0-0.1-0.1-0.2-0.2-0.2c0,0,0,0-0.1,0L44.5,67.1z"/>
		<path class="st3" d="M73.6,41.7h-0.2c0.1-0.1,0.1,0.1,0,0.1s-0.1,0.1-0.1,0.1c-0.1,0.1-0.3,0-0.3,0l0.2-0.1c0,0-0.1,0-0.2,0
			c0.1-0.1,0.1-0.1,0.1-0.1l0,0l1-0.4L73,41.5l0,0c0-0.1,0-0.2,0-0.3c0,0,0.1,0,0.2,0l0.1-0.2L73,41.1c0,0,0,0,0,0.1
			c0-0.1-0.2-0.2-0.6-0.2L72,41.3l-0.2-0.1l0.4-0.1c-0.3,0-0.4,0.1-0.5,0.2c-0.1,0-0.1-0.1-0.2,0L71,41.7c-0.1-0.1,0.2-0.2-0.2-0.2
			c-0.2,0.2,0.3,0.1-0.1,0.3c-0.3,0-0.2-0.1-0.5,0.1c-0.1,0,0-0.1,0.1-0.2c-0.2,0.2-0.6,0.3-0.7,0.4c-0.3,0-0.8,0.4-0.8,0.2
			c0,0.1-0.3,0.4-0.5,0.5c0.3-0.4-0.8,0.4-0.8,0.1c-0.2,0.4-0.9,0.7-1.3,1.1l0.1-0.1C66,44,65.9,44,65.7,44.1
			c0.1,0.2-0.3,0.5-0.5,0.7c-0.4,0.1,0.1-0.3-0.1-0.4c0.1,0.1-0.5,0.5-0.3,0.5c-0.3,0.1-0.2,0.1-0.5,0c0.1,0.2-0.2,0.2-0.3,0.4
			c-0.4,0.1-0.2-0.1-0.6,0.2c-0.2,0.1,0.1-0.2,0.1-0.2c-0.4,0.3-0.1,0.3-0.1,0.4c-0.4,0.4-0.3,0-0.5,0.1c-0.3,0.2-0.4,0.5-0.6,0.7
			c0,0-0.1,0-0.1-0.1c-0.2,0.3-0.9,0.7-1.1,1.1H61c0.1,0,0.2,0.1,0.2,0.2C61,47.8,61,48,60.8,48c0.1-0.1,0.1-0.1,0.1-0.2V48
			c-0.3,0,0.2-0.2,0.1-0.3c-0.3,0.3-0.6,0.7-0.9,0.9c-0.2-0.1,0.6-0.5,0.1-0.4l0.4-0.3c-0.5,0,0.3-0.2-0.2-0.2
			c-0.6,0.4-0.5,0.5-1.1,0.9c-0.1,0.2,0.1,0.1,0.1,0.2c-0.6,0.7-0.8,0.2-1.2,0.8c-0.1,0.2,0,0.4-0.4,0.7V50
			c-0.5,0.4-0.1,0.5-0.7,0.8c0-0.1,0.3-0.4,0.2-0.3c-0.4,0.2-0.2,0.3-0.4,0.5l-0.1,0c-0.5,0.5-1,1.1-1.5,1.7c0-0.1,0.1-0.2-0.1-0.1
			c-0.6,0.7-1.5,1.4-2.2,2L52.9,55c-0.1,0.1-0.2,0.1-0.1,0c-0.3,0.2,0.1,0.1,0,0.2c-0.1,0.2-0.3,0.1-0.2,0c-0.4,0.5-1.1,1.5-1.6,1.9
			l0-0.1c-0.4,0.3-0.2,0.6-0.6,0.9v-0.1c-0.4,0.4-0.9,1-1,1c-0.1,0.2-0.2,0-0.2-0.1s-0.1-0.1-0.1-0.1c-0.1-0.1-0.1-0.2-0.2-0.3
			c-0.3,0-0.7-0.9-1-0.7c-0.3-0.6-0.2-0.5-0.7-1.2c-0.2-0.2-0.4-0.1-0.6-0.3l0.1-0.1l-0.4-0.2v-0.3l-0.2-0.2
			c0.1,0.1,0.1,0.2,0.1,0.2c-0.4-0.3-0.7-0.9-0.6-0.9l-0.8-0.7c0.1,0,0.2,0.1,0.3,0.2c-0.5-0.3,0-0.2-0.4-0.5c0,0.1-0.1,0-0.1,0
			c-0.1-0.3-0.5-0.7-0.8-1h0.1c-0.5-0.6-1.2-1.2-1.7-1.8c0.2,0.3,0,0.3-0.2,0.2v-0.2c-0.2-0.1,0.1,0.2-0.2,0.1
			c-0.2-0.3,0-0.3,0.2-0.2l-0.3-0.3c0-0.1,0.1,0,0.2,0c-0.2,0-0.3-0.6-0.6-0.7l0,0c-0.6-0.6-0.9-0.9-1.4-1.4
			c-0.1,0.1-0.3-0.1-0.6-0.3c-0.2-0.3-0.5-0.6-0.7-0.9c-0.2,0.2-0.4,0.4-0.6,0.6c-0.2,0.2-0.5,0.5-0.6,0.6c-0.2,0.4,0,0.2-0.1,0.4
			c-0.1-0.1-0.5,0.4-0.4,0.1c-0.5,0.6-0.6,0.7-1.2,1.5c0.1,0,0.2-0.1,0.2,0c-0.1,0.1-0.3,0.3-0.3,0.2l0,0c-0.6,0.9-1.9,1.6-2.3,2.4
			l0,0l-0.5,0.8c-0.3,0.3,0.1-0.2-0.2-0.1c-0.2,0.4-0.5,0.7-0.7,1L31.5,55c-0.1,0.1-0.2,0.2-0.4,0.5c-0.3,0.2-0.6,0.5-1,0.9
			c0.3,0.2,0.6,0.4,0.9,0.6c0.2,0.2,0.5,0.3,0.7,0.5c0.3,0.2,0.7,0.5,0.8,0.7v-0.1c0.2,0.1,0.2,0.2,0.3,0.3c0-0.1-0.1-0.2,0-0.2
			c1.5,1,2.9,2.3,4.3,3.5c0.5,0.4,0.6-0.1,1.1,0.5h-0.3c1.2,0.7,2.2,1.7,3.4,2.3c-0.1,0-0.1,0-0.2-0.1c0.2,0.3,0.8,0.6,0.9,0.6
			c0.2,0.1,0,0.1,0.1,0.2c0.2,0.2,0.7,0.3,0.7,0.5h-0.1c0.2,0.1,0.7,0.5,0.6,0.3c0.4,0.4,0.8,0.5,1.1,0.8c0.3,0,0.6,0.6,0.8,0.4
			c-0.2,0.2,0.6,0.7,0.9,0.8c-0.1,0,0.2,0.2,0,0.2c0.3,0.2,0.6,0.4,0.6,0.2c0.4,0.6,1.2,0.6,1.3,1.1c1,0.6,1.6,1,3,1.9
			c0,0.3-1.4-1-1.4-0.7c0.5,0.4,1.1,0.7,1.4,0.9c0.1-0.3,0.3-0.6,0.4-1c0.1-0.2,0.1-0.3,0.2-0.5c0.1-0.2,0.1-0.2,0.2-0.3
			c0.1-0.2,0,0.2,0,0.3c0.3-0.9,0.8-1.6,1-2.4c0,0,0,0.1,0,0.2c0.1-0.1,0.2-0.3,0.1-0.3v0.2c-0.2,0.2,0-0.7-0.1-0.8
			c0.1,0.4,0.4-0.7,0.6-0.1c0-0.1,0-0.2,0-0.2c0.1-0.1,0.1-0.2,0.1,0c0.2-0.5,0-0.4,0.3-0.9c0,0,0,0.1,0,0.2c0-0.3,0.1-0.6,0.3-0.9
			c0,0,0.1,0,0,0.1c0.3-0.7,0.4-1.3,0.9-1.9c0.1,0.3,0.2-0.2,0.4-0.2l0.2-0.4l-0.2,0.1c0.2-0.3,0.3-0.7,0.5-1l-0.1,0.3l0.3-0.6
			l-0.3,0.3c0.1-0.3-0.1-0.2-0.2-0.3c0.3-0.4,0.5-0.9,0.8-1.3c0.1,0,0.2,0.2,0.3,0.1c0-0.2,0.5-0.8,0.5-1.1c0,0.1,0.1,0.1,0.1,0.1
			v-0.2c0.1-0.1,0.2-0.1,0.2-0.1c0.3-0.4-0.3,0,0.1-0.5c0,0,0,0,0,0.1c0.4-0.5,0.6-1.1,1-1.6c0.3,0-0.2,0.5,0,0.4
			c0.4-0.7,0.8-1.6,1.3-2.3l-0.1,0.1c-0.2-0.2,0.5-0.4,0.6-0.8c0,0.1,0,0.2,0,0.2c0.4-0.4,0.6-1,1-1.7V53c0.2-0.2,0.5-0.7,0.8-1
			c0-0.1,0.1-0.3,0-0.2c1-0.6,1.1-1.8,2-2.4c-0.1,0.1-0.1,0.3-0.1,0.2l0.5-0.7c-0.1,0-0.1,0-0.3,0.1c0-0.1,0.1-0.3,0.3-0.5
			c-0.2,0.3,0.1,0.1,0.3,0c0,0,0-0.1-0.1-0.1c0.4-0.2-0.1-0.2,0.4-0.6v0.1c0.1-0.2,0.2-0.4,0.4-0.6c0.2,0-0.1,0.2,0,0.3
			c0.2-0.3,0.3-0.7,0.6-0.8c-0.1,0.1-0.2,0.3-0.3,0.4c0.3-0.1,0.3-0.2,0.5-0.4l0,0l0.4-0.4L66.7,47c0-0.5,0.6-0.7,0.8-1.2
			c-0.3,0.5,0,0.2,0.1,0.3c0.1-0.1,0.3-0.2,0.3-0.1c0.1-0.3,0.4-0.2,0.6-0.6c0,0,0.2-0.2,0.3-0.1c0.2-0.3-0.1,0-0.1-0.1
			c0.3-0.5,1.1-0.6,1.6-1.3c0.5-0.5,0.5-0.7,1-1.1c0.2,0,0,0.2,0,0.2c0.3-0.1,0.5-0.3,0.8-0.5c0,0.1,0,0.1,0.1,0.1
			c0.2-0.1,0-0.3,0.4-0.4c0,0.1-0.1,0.2-0.1,0.3c0.2-0.2,0.5-0.4,0.7-0.6c0.1,0-0.1,0.2-0.2,0.3c0.1-0.1,0.3-0.2,0.5-0.3
			C73.4,41.9,73.6,41.8,73.6,41.7z M55.5,52.6c0,0-0.1,0.1-0.2,0.2l0,0C55.4,52.6,55.5,52.6,55.5,52.6z M55,53.1
			C55.1,53.1,55.1,53.2,55,53.1c0,0-0.2,0.2-0.3,0.2C54.8,53.3,54.9,53.2,55,53.1z M63.3,50.5C63.3,50.5,63.2,50.5,63.3,50.5
			c0-0.1,0-0.2,0.1-0.3C63.4,50.3,63.4,50.3,63.3,50.5z M69.7,44h-0.2c0.1-0.1,0.2-0.2,0.3-0.2C69.9,43.7,69.8,43.8,69.7,44z
			 M71.7,42.6C71.6,42.6,71.6,42.6,71.7,42.6c0-0.2,0.2-0.3,0.3-0.3L71.7,42.6z M72,42.5v-0.2l0,0c0,0,0,0,0.1,0s0.2,0,0.3-0.1l0,0
			C72.3,42.3,72.1,42.4,72,42.5z"/>
		<polygon class="st3" points="46.7,55.9 46.7,55.9 46.8,55.9 		"/>
		<path class="st3" d="M66.4,47.2l0.2-0.2C66.5,47.1,66.4,47.2,66.4,47.2z"/>
		<path class="st3" d="M67.6,46.1L67.6,46.1L67.6,46.1L67.6,46.1z"/>
		<path class="st3" d="M52.8,68L52.8,68C52.8,68.2,52.8,68.1,52.8,68z"/>
		<path class="st3" d="M56.3,61.2c0.1-0.1,0.1-0.2,0.1-0.3C56.3,61,56.3,61.1,56.3,61.2z"/>
		<polygon class="st3" points="46.1,68.3 46.1,68.3 46.1,68.2 		"/>
		<path class="st3" d="M56.3,61.2c-0.1,0.1-0.1,0.2-0.2,0.3C56.2,61.4,56.2,61.3,56.3,61.2z"/>
		<path class="st3" d="M73.5,42L73.5,42L73.5,42L73.5,42z"/>
		<path class="st3" d="M73.7,41.8l-0.2,0.1C73.6,41.9,73.7,41.9,73.7,41.8z"/>
		<path class="st3" d="M70.9,43.4c0.1-0.1,0.4-0.1,0.6-0.3l0,0C71.5,43.2,71,43.2,70.9,43.4z"/>
		<polygon class="st3" points="58.2,58.1 58.4,57.9 58.4,57.8 		"/>
		<path class="st3" d="M84.8,30C84.8,30,84.8,30.1,84.8,30C84.8,30.1,84.9,30.1,84.8,30z"/>
		<path class="st3" d="M85.8,30.9c0.1,0,0.1,0.2,0.4,0.3c0.3,0.2,0.3-0.1,0.4-0.2c0,0-0.4,0-0.4-0.1c0.1,0,0.1-0.1,0.2,0
			c-0.2-0.1-0.2,0-0.3-0.1c0-0.1,0.2,0.1,0.2-0.1c-0.1,0-0.2-0.1-0.3,0l-0.1-0.1v0.2c0,0.1,0.2-0.1,0.1,0.1
			C85.9,30.9,85.9,30.9,85.8,30.9z"/>
		<path class="st3" d="M86.7,31.2L86.7,31.2L86.7,31.2z"/>
		<path class="st3" d="M87.6,31.8c-0.1-0.2-0.1-0.4-0.2-0.5c0,0-0.1,0,0,0.1l-0.1-0.2c-0.1,0-0.1,0-0.1,0.1c-0.1,0-0.1-0.1-0.2-0.1
			h-0.1l-0.1-0.1c0,0.1,0,0.1,0,0.1c0.2,0.3,0.3,0.1,0.3,0.1c0.4,0.3,0.1,0.1,0.3,0.4c-0.1-0.1-0.2-0.1-0.3-0.2
			C87.3,31.7,87.5,31.8,87.6,31.8z"/>
		<path class="st3" d="M86.7,31c0.1,0,0.1,0,0.1,0.1C86.7,31,86.7,31,86.7,31z"/>
		<path class="st3" d="M87.2,31.1L87.2,31.1c-0.1,0,0,0.1,0,0.1V31.1z"/>
		<path class="st3" d="M87.6,27.6L87.6,27.6C87.6,27.6,87.6,27.7,87.6,27.6C87.6,27.7,87.6,27.6,87.6,27.6z"/>
		<path class="st3" d="M87,27.7L87,27.7L87,27.7L87,27.7z"/>
		<path class="st3" d="M87.2,28.1c0,0-0.1,0-0.2,0C87,28.1,87.1,28.1,87.2,28.1z"/>
		<path class="st3" d="M87.1,28.7C87.1,28.6,87,28.6,87.1,28.7C87,28.7,87,28.7,87.1,28.7z"/>
		<polygon class="st3" points="87.9,27.3 87.8,27.5 87.8,27.4 		"/>
		<polygon class="st3" points="87.8,25.6 87.8,25.5 87.7,25.6 		"/>
		<path class="st3" d="M86.5,25.4L86.5,25.4L86.5,25.4C86.4,25.4,86.4,25.4,86.5,25.4z"/>
		<path class="st3" d="M83.6,23.9C83.6,23.9,83.6,24,83.6,23.9C83.6,24,83.6,24,83.6,23.9z"/>
		<polygon class="st3" points="85.8,25.2 85.8,25.3 85.8,25.3 		"/>
		<path class="st3" d="M80.2,26.3l0.1,0.1c0,0,0,0,0,0.1h-0.1c0.1,0.1,0.1,0.3,0.3,0.2c0.1,0,0,0.1,0,0.2c0.3,0,0.3,0.5,0.6,0.4
			L81,27.2l0.2,0.2L81,27.2c0.1,0.3,0.5,0.2,0.5,0.5c0.1,0.1,0.2,0.1,0.3,0.1l0,0l0,0c0,0,0,0,0.1,0l0.1,0.1v0.7
			c-0.2,0.2,0.1,0.3-0.2,0.4l0,0v0.1c0,0,0,0,0.1-0.1l-0.1,0.4l0,0l0,0l-0.3,1.7l2.8-1.5l0.1,0.1c0,0-0.1,0-0.1,0.1
			c0.1,0,0.2,0,0.2,0c-0.1,0-0.1,0-0.2,0.1c0.1,0.1,0.1,0,0.2,0.1l-0.1,0.1h0.1c0-0.2,0.1-0.2,0-0.2l0.2,0.1c0.1,0,0,0.1,0,0.1
			l0.1-0.1h0.1l0,0l0,0H85l0.2,0.1l0,0h-0.1H85l0,0c0,0.1,0.1,0.1,0,0.1s0-0.1-0.1-0.1l0.1,0.1c0.1,0.1,0.3,0,0.4-0.1l0.3,0.1
			c-0.1,0.1-0.2-0.1-0.2,0c0.1,0.1,0.2,0.2,0.1,0.3h0.1c0.1,0,0.1-0.1,0-0.2l1.4,0.7l-0.5-3.1l0.8-0.8c-0.1,0.2-0.2,0.3-0.4,0.4
			c-0.1,0.1-0.2,0.2-0.3,0.3l-0.1,0.1c0.1,0.5,0.2,1.1,0.3,1.7l0.2,0.1c-0.1,0,0,0.1-0.1,0.1v-0.1c-0.1,0.2,0.1,0.3,0.1,0.5
			c0,0,0.1,0,0.2,0c-0.2-0.1,0.1,0.3-0.1,0.2c0,0.1,0.2,0.1,0.2,0.3c0.1,0.1,0-0.2,0.1-0.2c0.1,0.1,0,0.2,0.1,0.3
			c0-0.2-0.1-0.6-0.2-0.9C87.1,30,87,29.8,87,29.6h0.1c-0.1-0.2-0.2-0.5,0-0.7c-0.1,0.1,0-0.3-0.2-0.3c0-0.1,0-0.1,0-0.2h-0.1
			c0-0.1,0.1-0.1,0.1-0.2c-0.1,0-0.1,0-0.2,0c0,0,0-0.1,0.1-0.1s0.2,0,0.3,0H87c0.1,0,0-0.1,0-0.1c0.1-0.1,0.1,0,0.2,0.1
			c0.1-0.1,0-0.3,0.2-0.3h-0.1c0.1-0.1,0.3-0.2,0.4-0.3c0.1,0,0,0.2,0,0.3c0,0,0.1-0.1,0.1,0c0-0.1,0-0.2,0.1-0.3c0,0.2,0.2,0,0.2,0
			s-0.1,0-0.2,0c0-0.1,0.1-0.1,0.1-0.2c-0.1,0-0.1,0-0.1-0.1l0.3-0.3c0,0.1-0.1,0.1-0.1,0.1s0.2,0,0.1,0.1c0,0,0.1,0,0.1,0.1
			c0.1-0.1,0.1-0.2,0.1-0.3c0.1,0,0,0.1,0.1,0.1v-0.1c0.1,0,0,0.1,0.1,0c0,0,0-0.2,0.2-0.3l0,0c0.1-0.1,0.2-0.2,0-0.2l0.2-0.1h-0.1
			c0.2-0.2,0.7-0.3,0.8-0.6c-0.1,0.1-0.1,0-0.1,0c-0.2,0.1,0,0.1-0.1,0.2c-0.1,0-0.2-0.1-0.4,0c0.2-0.1,0.2-0.1,0.3-0.2
			c0,0,0,0,0.1-0.1c-0.2,0-0.5,0-0.6-0.1l0,0c-0.2,0.1-0.2-0.1-0.4,0h0.1c0,0-0.1,0-0.2,0l0,0c-0.1,0.1-0.2,0.1-0.3,0.1h-0.3
			l-0.1-0.2c0,0,0.1,0,0.1,0.1c0.1-0.1,0-0.1,0-0.2c0.1,0,0.1,0.1,0.3,0c-0.2-0.2-0.2,0.1-0.4-0.1l-0.1,0.2c-0.1,0,0-0.1,0-0.1
			c-0.1,0.1,0.1,0.2,0,0.2c0,0-0.1,0-0.2,0h-0.1c0-0.1,0-0.2,0-0.2s-0.1,0-0.2-0.1c0.2,0.1-0.1,0,0,0.1L87,25.4h-0.1h-0.1
			c0-0.1,0.1,0,0.1,0c0-0.1-0.1-0.1-0.1-0.2c-0.1,0.1-0.4,0.1-0.5,0.1h-0.1v-0.1c-0.1,0-0.1,0-0.1,0.1H86l-0.1-0.1
			c0.1,0,0-0.2,0.1-0.3c-0.3-0.1,0.1-0.3-0.1-0.5c-0.1-0.1-0.1,0.1-0.1,0.1c0-0.1-0.1-0.1-0.1-0.2c0.1,0,0.1,0,0.1,0.1
			c0.1-0.1-0.1-0.1,0-0.2c0,0,0,0.1,0,0c-0.1-0.2-0.1-0.1-0.2-0.4c0,0-0.1-0.1-0.1,0c0-0.2,0.1-0.1,0-0.3c0,0-0.1,0.1-0.2,0.2v-0.1
			c0-0.2-0.1-0.2-0.1-0.4c0,0,0,0,0.1,0.1c0.1-0.1-0.1-0.2-0.1-0.3l0.1-0.1c-0.1-0.1-0.2-0.2-0.2-0.5v-0.1c-0.1-0.1-0.2-0.2-0.2-0.3
			c-0.1,0.2-0.2,0.4-0.2,0.6h-0.1c-0.1,0.5,0.2-0.3,0.1,0.2c-0.1-0.3,0,0.2-0.1,0.3c-0.1,0,0-0.2-0.1-0.2c0.1,0.1,0,0.1,0,0.2
			c-0.1-0.1-0.1,0.2-0.2,0.1v0.4c-0.1,0-0.1,0.1-0.1,0.2c0-0.1,0.1,0,0.1,0L84.2,24c-0.1,0-0.2,0-0.3,0c0,0.2,0,0.3,0,0.5l-0.1-0.1
			c0,0,0,0.2,0.1,0.2v0.1l0,0l0,0c-0.1-0.1-0.1-0.1-0.2-0.2v0.1c0-0.1-0.1,0-0.1,0c0,0.1,0,0.2-0.1,0.2l-0.1,0.1c0,0,0,0,0,0.1l0,0
			c0.1,0,0,0.1,0,0.1c-0.1,0-0.1,0-0.1,0s0,0-0.1,0c0,0.1,0,0.2-0.2,0.2c0-0.1-0.2,0-0.3-0.1c0,0.1-0.2,0.1-0.2,0.2
			c-0.1,0-0.2,0-0.2,0l0,0h-0.1l0,0c-0.1,0,0,0.1-0.1,0c0,0,0,0,0.1-0.1c-0.2,0-0.2,0.2-0.4,0.1c0,0.1-0.2,0.1-0.1,0.2
			c-0.1,0-0.1-0.1-0.2-0.1c-0.1,0.1-0.2,0-0.2,0.1c0.1-0.1,0,0,0.1-0.2c-0.1,0-0.2,0.1-0.4,0.1c0,0,0-0.1-0.1-0.1
			c-0.1,0.1-0.1,0.1-0.3,0.1l0.1,0.1c-0.2,0-0.4,0-0.7,0l0.1,0.1H80C79.5,25.9,79.9,26.2,80.2,26.3z M81.6,25.7L81.6,25.7L81.6,25.7
			z M87.5,27.3C87.5,27.3,87.5,27.2,87.5,27.3l0.2-0.2C87.6,27.1,87.6,27.2,87.5,27.3z M88.3,26.7c0.1-0.2-0.1-0.1-0.2-0.2l0.2-0.2
			C88.3,26.5,88.5,26.6,88.3,26.7z M88.3,26.4l0.1-0.1C88.4,26.3,88.4,26.3,88.3,26.4C88.4,26.4,88.3,26.4,88.3,26.4z M88.9,25.8
			l-0.3,0.1h-0.1C88.7,25.8,88.7,25.8,88.9,25.8z M88.1,25.7C88.1,25.7,88.1,25.8,88.1,25.7h-0.3C87.9,25.8,88,25.7,88.1,25.7z
			 M86.2,25.5c0.1,0,0.1,0,0.2,0H86.2L86.2,25.5z M85.6,25.2L85.6,25.2L85.6,25.2z M85.2,24.4c0.1,0.2,0.4,0.3,0.3,0.6h0.1h-0.1
			L85.2,24.4L85.2,24.4z M84.5,22.9L84.5,22.9C84.4,22.9,84.4,22.9,84.5,22.9L84.5,22.9z M84.4,22.7L84.4,22.7
			C84.3,22.7,84.3,22.6,84.4,22.7L84.4,22.7z M84.3,22.6C84.3,22.7,84.3,22.7,84.3,22.6L84.3,22.6C84.3,22.7,84.3,22.7,84.3,22.6z
			 M83.1,25.1L83.1,25.1v0.1C83,25.2,83,25.1,83.1,25.1z M82.6,25.5c0-0.1,0.1-0.2,0.1-0.2l0,0l0.1,0.1l0,0
			C82.8,25.3,82.8,25.4,82.6,25.5l-0.3,0.1C82.4,25.5,82.5,25.4,82.6,25.5z M82.2,25.5C82.2,25.6,82.2,25.6,82.2,25.5L82.2,25.5
			C82.2,25.6,82.2,25.5,82.2,25.5z M80.4,25.7c0.3,0,0.2-0.1,0.5-0.2c0.1,0.1-0.2,0,0,0.1c-0.1,0.1-0.1,0.1-0.2,0.1h-0.1
			C80.5,25.8,80.3,25.8,80.4,25.7z M80.2,25.9H80c0,0,0,0-0.1,0C80.1,25.8,80.1,25.8,80.2,25.9z"/>
		<path class="st3" d="M80,26.2v0.1V26.2C80,26.3,80,26.3,80,26.2z"/>
		<path class="st3" d="M80.1,26.3c0,0,0.1,0,0.1,0.1L80.1,26.3L80.1,26.3z"/>
		<path class="st3" d="M81.9,28C81.9,28.1,81.9,28.1,81.9,28C82,28.1,81.9,28,81.9,28z"/>
		<path class="st3" d="M82,28v0.1V28z"/>
		<path class="st3" d="M23.9,30C23.9,30,23.9,30.1,23.9,30C23.9,30.1,24,30.1,23.9,30z"/>
		<path class="st3" d="M24.9,30.9c0.1,0,0.1,0.2,0.4,0.3c0.3,0.2,0.3-0.1,0.4-0.2c0,0-0.4,0-0.4-0.1c0.1,0,0.1-0.1,0.2,0
			c-0.2-0.1-0.2,0-0.3-0.1c0-0.1,0.2,0.1,0.2-0.1c-0.1,0-0.2-0.1-0.3,0L25,30.6v0.2c0,0.1,0.2-0.1,0.1,0.1
			C25,30.9,25,30.9,24.9,30.9z"/>
		<path class="st3" d="M25.7,31.2L25.7,31.2L25.7,31.2z"/>
		<path class="st3" d="M26.7,31.8c-0.1-0.2-0.1-0.4-0.2-0.5c0,0-0.1,0,0,0.1l-0.1-0.2c-0.1,0-0.1,0-0.1,0.1c-0.1,0-0.1-0.1-0.2-0.1
			H26l-0.1-0.1c0,0.1,0,0.1,0,0.1c0.2,0.3,0.3,0.1,0.3,0.1c0.4,0.3,0.1,0.1,0.3,0.4c-0.1-0.1-0.2-0.1-0.3-0.2
			C26.4,31.7,26.6,31.8,26.7,31.8z"/>
		<path class="st3" d="M25.8,31c0.1,0,0.1,0,0.1,0.1C25.8,31,25.8,31,25.8,31z"/>
		<path class="st3" d="M26.3,31.1L26.3,31.1c-0.1,0,0,0.1,0,0.1V31.1z"/>
		<path class="st3" d="M26.7,27.6L26.7,27.6C26.7,27.6,26.7,27.7,26.7,27.6C26.7,27.7,26.7,27.6,26.7,27.6z"/>
		<path class="st3" d="M26.1,27.7L26.1,27.7L26.1,27.7L26.1,27.7z"/>
		<path class="st3" d="M26.3,28.1c0,0-0.1,0-0.2,0C26.1,28.1,26.2,28.1,26.3,28.1z"/>
		<path class="st3" d="M26.2,28.7C26.1,28.6,26.1,28.6,26.2,28.7C26.1,28.7,26.1,28.7,26.2,28.7z"/>
		<polygon class="st3" points="26.9,27.3 26.9,27.5 26.9,27.4 		"/>
		<polygon class="st3" points="26.9,25.6 26.9,25.5 26.8,25.6 		"/>
		<path class="st3" d="M25.5,25.4h-0.1H25.5L25.5,25.4z"/>
		<path class="st3" d="M22.7,23.9C22.7,23.9,22.7,24,22.7,23.9C22.7,24,22.7,24,22.7,23.9z"/>
		<polygon class="st3" points="24.9,25.2 24.8,25.3 24.9,25.3 		"/>
		<path class="st3" d="M19.3,26.3l0.1,0.1c0,0,0,0,0,0.1h-0.1c0.1,0.1,0.1,0.3,0.3,0.2c0.1,0,0,0.1,0,0.2c0.3,0,0.3,0.5,0.6,0.4
			l-0.1-0.1l0.2,0.2l-0.1,0.1c0.1,0.3,0.5,0.2,0.5,0.5c0.1,0.1,0.2,0.1,0.3,0.1l0,0l0,0c0,0,0,0,0.1,0l0.1,0.1l-0.1,0.5
			c-0.2,0.2,0.1,0.3-0.2,0.4l0,0v0.1c0,0,0,0,0.1-0.1l-0.1,0.4l0,0l0,0l-0.3,1.7l2.8-1.5l0.1,0.1c0,0-0.1,0-0.1,0.1
			c0.1,0,0.2,0,0.2,0c-0.1,0-0.1,0-0.2,0.1c0.1,0.1,0.1,0,0.2,0.1l-0.1,0.1h0.1c0-0.2,0.1-0.2,0-0.2l0.4,0c0.1,0,0,0.1,0,0.1
			l0.1-0.1h0.1l0,0l0,0h0.1l0.2,0.1l0,0h-0.2h-0.2l0,0c0,0.1,0.1,0.1,0.1,0.1c-0.1,0,0.1-0.1,0-0.1l0.1,0.1c0.1,0.1,0.3,0,0.4-0.1
			l0.3,0.1c-0.1,0.1-0.2-0.1-0.2,0c0.1,0.1,0.2,0.2,0.1,0.3H25c0.1,0,0.1-0.1,0-0.2l1.4,0.7l-0.5-3.1l0.8-0.8
			c-0.1,0.2-0.2,0.3-0.4,0.4c-0.1,0.1-0.2,0.2-0.3,0.3l-0.1,0.1c0.1,0.5,0.2,1.1,0.3,1.7l0.2,0.1c-0.1,0,0,0.1-0.1,0.1v-0.1
			c-0.1,0.2,0.1,0.3,0.1,0.5c0,0,0.1,0,0.2,0c-0.2-0.1,0.1,0.3-0.1,0.2c0,0.1,0.2,0.1,0.2,0.3c0.1,0.1,0-0.2,0.1-0.2
			c0.1,0.1,0,0.2,0.1,0.3c0-0.2-0.1-0.6-0.2-0.9c-0.1-0.2-0.2-0.4-0.2-0.6h0.1c-0.1-0.2-0.2-0.5,0-0.7c-0.1,0.1,0-0.3-0.2-0.3
			c0-0.1,0-0.1,0-0.2h-0.1c0-0.1,0.1-0.1,0.1-0.2c-0.1,0-0.1,0-0.2,0c0,0,0-0.1,0.1-0.1s0.2,0,0.3,0h-0.1c0.1,0,0-0.1,0-0.1
			c0.1-0.1,0.1,0,0.2,0.1c0.1-0.1,0-0.3,0.2-0.3h-0.1c0.1-0.1,0.3-0.2,0.4-0.3c0.1,0,0,0.2,0,0.3c0,0,0.1-0.1,0.1,0
			c0-0.1,0-0.2,0.1-0.3c0,0.2,0.2,0,0.2,0s-0.1,0-0.2,0c0-0.1,0.1-0.1,0.1-0.2c-0.1,0-0.1,0-0.1-0.1l0.3-0.3c0,0.1-0.1,0.1-0.1,0.1
			s0.2,0,0.1,0.1c0,0,0.1,0,0.1,0.1c0.1-0.1,0.1-0.2,0.1-0.3c0.1,0,0,0.1,0.1,0.1v-0.1c0.1,0,0,0.1,0.1,0c0,0,0-0.2,0.2-0.3l0,0
			c0.1-0.1,0.2-0.2,0-0.2l0.2-0.1h-0.1c0.2-0.2,0.7-0.3,0.8-0.6c-0.1,0.1-0.1,0-0.1,0c-0.2,0.1,0,0.1-0.1,0.2c-0.1,0-0.2-0.1-0.4,0
			c0.2-0.1,0.2-0.1,0.3-0.2c0,0,0,0,0.1-0.1c-0.2,0-0.5,0-0.6-0.1l0,0c-0.2,0.1-0.2-0.1-0.4,0h0.1c0,0-0.1,0-0.2,0l0,0
			c-0.1,0.1-0.2,0.1-0.3,0.1h-0.3l-0.1-0.2c0,0,0.1,0,0.1,0.1c0.1-0.1,0-0.1,0-0.2c0.1,0,0.1,0.1,0.3,0c-0.2-0.2-0.2,0.1-0.4-0.1
			l-0.1,0.2c-0.1,0,0-0.1,0-0.1c-0.1,0.1,0.1,0.2,0,0.2c0,0-0.1,0-0.2,0h-0.1c0-0.1,0-0.2,0-0.2s-0.1,0-0.2-0.1c0.2,0.1-0.1,0,0,0.1
			l-0.1,0.1h-0.1h-0.1c0-0.1,0.1,0,0.1,0c0-0.1-0.1-0.1-0.1-0.2C26.2,25,25.9,25,25.8,25h-0.1v-0.1c-0.1,0-0.1,0-0.1,0.1h-0.1
			l-0.1-0.1c0.1,0,0-0.2,0.1-0.3c-0.3-0.1,0.1-0.3-0.1-0.5c-0.1-0.1-0.1,0.1-0.1,0.1c0-0.1-0.1-0.1-0.1-0.2c0.1,0,0.1,0,0.1,0.1
			c0.1-0.1-0.1-0.1,0-0.2c0,0,0,0.1,0,0c-0.1-0.2-0.1-0.1-0.2-0.4c0,0-0.1-0.1-0.1,0c0-0.2,0.1-0.1,0-0.3c0,0-0.1,0.1-0.2,0.2v-0.1
			c0-0.2-0.1-0.2-0.1-0.4c0,0,0,0,0.1,0.1c0.1-0.1-0.1-0.2-0.1-0.3l0.1-0.1c-0.1-0.1-0.2-0.2-0.2-0.5V22c-0.1-0.1-0.2-0.2-0.2-0.3
			c-0.1,0.2-0.2,0.4-0.2,0.6h-0.1c-0.1,0.5,0.2-0.3,0.1,0.2c-0.1-0.3,0,0.2-0.1,0.3c-0.1,0,0-0.2-0.1-0.2c0.1,0.1,0,0.1,0,0.2
			c-0.1-0.1-0.1,0.2-0.2,0.1v0.4c-0.1,0-0.1,0.1-0.1,0.2c0-0.1,0.1,0,0.1,0l-0.1,0.2c-0.1,0-0.2,0-0.3,0c0,0.2,0,0.3,0,0.5l-0.1-0.1
			c0,0,0,0.2,0.1,0.2v0.1l0,0l0,0c-0.1-0.1-0.1-0.1-0.2-0.2v0.1c0-0.1-0.1,0-0.1,0c0,0.1,0,0.2-0.1,0.2l-0.1,0.1c0,0,0,0,0,0.1l0,0
			c0.1,0,0,0.1,0,0.1c-0.1,0-0.1,0-0.1,0s0,0-0.1,0c0,0.1,0,0.2-0.2,0.2c0-0.1-0.2,0-0.3-0.1c0,0.1-0.2,0.1-0.2,0.2
			c-0.1,0-0.2,0-0.2,0l0,0h-0.1l0,0c-0.1,0,0,0.1-0.1,0c0,0,0,0,0.1-0.1c-0.2,0-0.2,0.2-0.4,0.1c0,0.1-0.2,0.1-0.1,0.2
			c-0.1,0-0.1-0.1-0.2-0.1c-0.1,0.1-0.2,0-0.2,0.1c0.1-0.1,0,0,0.1-0.2c-0.1,0-0.2,0.1-0.4,0.1c0,0,0-0.1-0.1-0.1
			c-0.1,0.1-0.1,0.1-0.3,0.1l0.1,0.1c-0.2,0-0.4,0-0.7,0l0.1,0.1h-0.1C18.6,25.9,19,26.2,19.3,26.3z M20.7,25.7L20.7,25.7L20.7,25.7
			z M26.6,27.3C26.6,27.3,26.6,27.2,26.6,27.3l0.2-0.2C26.7,27.1,26.7,27.2,26.6,27.3z M27.4,26.7c0.1-0.2-0.1-0.1-0.2-0.2l0.2-0.2
			C27.4,26.5,27.6,26.6,27.4,26.7z M27.4,26.4l0.1-0.1C27.5,26.3,27.5,26.3,27.4,26.4C27.5,26.4,27.4,26.4,27.4,26.4z M28,25.8
			l-0.3,0.1h-0.1C27.7,25.8,27.8,25.8,28,25.8z M27.2,25.7C27.2,25.7,27.2,25.8,27.2,25.7h-0.3C27,25.8,27.1,25.7,27.2,25.7z
			 M25.3,25.5c0.1,0,0.1,0,0.2,0H25.3L25.3,25.5z M24.7,25.2L24.7,25.2L24.7,25.2z M24.3,24.4c0.1,0.2,0.4,0.3,0.3,0.6h0.1h-0.1
			L24.3,24.4L24.3,24.4z M23.5,22.9L23.5,22.9L23.5,22.9L23.5,22.9z M23.5,22.7L23.5,22.7C23.4,22.7,23.4,22.6,23.5,22.7
			C23.4,22.7,23.5,22.7,23.5,22.7z M23.4,22.6C23.4,22.7,23.4,22.7,23.4,22.6L23.4,22.6C23.4,22.7,23.4,22.7,23.4,22.6z M22.2,25.1
			L22.2,25.1v0.1C22.1,25.2,22.1,25.1,22.2,25.1z M21.7,25.5c0-0.1,0.1-0.2,0.1-0.2l0,0l0.1,0.1l0,0C21.9,25.3,21.9,25.4,21.7,25.5
			l-0.3,0.1C21.5,25.5,21.6,25.4,21.7,25.5z M21.3,25.5C21.3,25.6,21.3,25.6,21.3,25.5L21.3,25.5C21.3,25.6,21.3,25.5,21.3,25.5z
			 M19.5,25.7c0.3,0,0.2-0.1,0.5-0.2c0.1,0.1-0.2,0,0,0.1c-0.1,0.1-0.1,0.1-0.2,0.1h-0.1C19.6,25.8,19.4,25.8,19.5,25.7z M19.3,25.9
			h-0.2c0,0,0,0-0.1,0C19.1,25.8,19.2,25.8,19.3,25.9z"/>
		<path class="st3" d="M19.1,26.2v0.1V26.2C19.1,26.3,19.1,26.3,19.1,26.2z"/>
		<path class="st3" d="M19.2,26.3c0,0,0.1,0,0.1,0.1C19.3,26.4,19.2,26.3,19.2,26.3L19.2,26.3z"/>
		<path class="st3" d="M21,28C21,28.1,21,28.1,21,28C21.1,28.1,21,28,21,28z"/>
		<path class="st3" d="M21.1,28v0.1V28z"/>
		<path class="st3" d="M84.4,82C84.2,82,84.4,82,84.4,82C84.4,82.1,84.4,82,84.4,82z"/>
		<path class="st3" d="M79.6,77.8L79.6,77.8C79.7,77.8,79.7,77.8,79.6,77.8L79.6,77.8z"/>
		<path class="st3" d="M88.1,77.6c-0.4,0-0.8-0.1-1.2-0.1l-0.6-0.1H86c-0.1,0-0.1,0-0.1,0s0,0-0.1-0.1V77c-0.2-0.1-0.2-0.3-0.4-0.4
			l0,0c-0.1-0.1-0.1-0.2-0.1-0.4c0,0,0-0.1-0.1,0c-0.1,0,0-0.1,0-0.2l0,0c-0.2-0.2,0,0,0-0.3c-0.1-0.2-0.3-0.5-0.4-0.7
			c-0.1-0.3-0.3-0.5-0.4-0.8c-0.1,0.1-0.1,0.2-0.2,0.3c0,0,0,0,0,0.1c-0.1-0.1-0.1,0.2-0.2,0.3v-0.1c-0.2,0.2-0.3,0.6-0.4,0.8l0,0
			c0,0.2-0.2,0.4-0.2,0.5l-0.1,0.1c0,0.2-0.2,0.3-0.2,0.5l0,0c-0.1,0.2-0.2,0.3-0.2,0.5l-0.1,0.3c0,0.1,0,0.1,0,0.1s0,0-0.2,0.1
			c-0.3,0.1-0.6,0-0.9,0.1c-0.1,0,0,0,0,0.1c-0.1,0,0,0,0,0c-0.1,0.1-0.3,0-0.5,0.1c0,0-0.1,0,0,0.1c-0.1,0-0.2,0-0.4,0
			c-0.2,0-0.4,0.1-0.6,0.1c0.2,0.1-0.1,0.1-0.2,0.1s-0.1,0-0.1,0c-0.1,0-0.3,0-0.4,0.1c0,0,0.1,0.1,0.2,0.2s0.2,0.1,0.3,0.3
			c0,0.1,0.3,0.3,0.3,0.4c0-0.1,0.2,0.1,0.3,0.2h-0.1c0.3,0.2,0.5,0.6,0.9,0.8v0.1c0.1,0.1,0.3,0.2,0.4,0.3l0.2,0.2
			c0,0,0.1,0,0.1,0.1v0.1c0,0-0.1,0.2-0.1,0.3c0,0.1,0,0.2,0.1,0.3c0,0.1,0,0.1-0.1,0.1c0,0.2-0.1,0.3-0.1,0.5l0,0
			c0,0.1,0,0.4,0,0.5c0,0,0,0.2,0.1,0.1c0,0.1-0.1,0,0,0.1v-0.1c0,0.1-0.1,0.4-0.1,0.6s0,0.4-0.1,0.6v0.1c0.1,0,0.4-0.2,0.6-0.3
			c0.1-0.1,0.4-0.2,0.4-0.3l0,0c0.1-0.1,0.3-0.2,0.5-0.2c0.1,0,0.1-0.1,0.2-0.2l0,0c0.1-0.1,0.1-0.1,0.1-0.2h0.1c0,0,0,0,0.1,0
			c-0.1,0.1-0.1,0.1-0.1,0.2c0.1,0,0.2-0.2,0.3-0.2c0.1,0,0.2-0.1,0.1-0.1c0,0,0.1,0,0,0c0.1,0,0.1-0.1,0.1-0.1l0,0
			c0,0,0.1-0.1,0-0.1h0.1v0.1l0.1-0.2l0.3-0.2l1.3,0.7c-0.3-0.1-0.6-0.4-1-0.4c-0.3-0.1-0.4,0-0.4,0c0.6,0.3,1.2,0.6,1.7,1
			c0.1,0.1,0.7,0.3,1.1,0.5l0.6,0.3c-0.1-0.3-0.1-0.7-0.2-1.1l-0.1-0.6v-0.3c0-0.4-0.1-0.8-0.2-1.2c0,0.1-0.1,0-0.1,0l0,0L87,80.9
			c0-0.1,0,0,0.1,0c0-0.2-0.1-0.5-0.1-0.4l0,0l0.1-0.1c0-0.1,0.1-0.1,0.1-0.2l0,0c0.2-0.2,0.2-0.2,0.4-0.3c0.3-0.2,0.5-0.5,0.8-0.7
			l1.3-1.3C89.2,77.7,88.7,77.7,88.1,77.6z M88.8,78.1L88.8,78.1L88.8,78.1C88.8,78.1,88.8,78.1,88.8,78.1z M88.7,78.1L88.7,78.1
			L88.7,78.1L88.7,78.1z M87.8,78L87.8,78C87.7,77.9,87.7,77.9,87.8,78C87.7,77.9,87.8,78,87.8,78z M86.9,77.8h0.2
			C87.1,77.8,87.1,77.8,86.9,77.8l0.2,0.1l0,0h-0.3C86.9,77.8,86.9,77.8,86.9,77.8z M86.7,81L86.7,81L86.7,81L86.7,81z M86.6,77.8
			L86.6,77.8L86.6,77.8L86.6,77.8z M83.7,82.2L83.7,82.2L83.7,82.2C83.8,82.2,83.7,82.2,83.7,82.2z M85.8,82.8
			C85.8,82.8,85.8,82.7,85.8,82.8l0.2,0.1C86,82.8,85.9,82.8,85.8,82.8z M87,82.7L87,82.7C87.1,82.8,87,82.8,87,82.7
			c0,0.2,0,0.3,0.1,0.4c0,0,0,0-0.1-0.1c0,0.1,0.1,0.3,0.1,0.4v-0.1v0.1c-0.2-0.1-0.4-0.3-0.6-0.4l0.5,0.2l-0.3-1.7
			c0,0.1,0.1,0.3,0.1,0.4l0,0C87,82.3,86.9,82.5,87,82.7z M87,79.9L87,79.9L87,79.9C87,79.8,87,79.9,87,79.9z M88.1,78.8L88.1,78.8
			C88.2,78.8,88.1,78.8,88.1,78.8L88.1,78.8z M88.3,78.6L88.3,78.6L88.3,78.6C88.4,78.6,88.4,78.6,88.3,78.6z M88.4,78.5L88.4,78.5
			C88.5,78.4,88.5,78.5,88.4,78.5C88.5,78.5,88.5,78.5,88.4,78.5z"/>
		<path class="st3" d="M83.8,82.3L83.8,82.3L83.8,82.3z"/>
		<path class="st3" d="M84.1,82.1C84.1,82.1,84.2,82.1,84.1,82.1C84.2,82.1,84.1,82.1,84.1,82.1z"/>
		<path class="st3" d="M23.5,82C23.3,82,23.5,82,23.5,82C23.4,82.1,23.5,82,23.5,82z"/>
		<path class="st3" d="M22.9,82.3L22.9,82.3L22.9,82.3z"/>
		<path class="st3" d="M18.7,77.8L18.7,77.8C18.7,77.8,18.8,77.8,18.7,77.8L18.7,77.8z"/>
		<path class="st3" d="M26,77.4l-0.6-0.1h-0.3c-0.1,0-0.1,0-0.1,0s0,0-0.1-0.1V77c-0.2-0.1-0.2-0.3-0.4-0.4l0,0
			c-0.1-0.1-0.1-0.2-0.1-0.4c0,0,0-0.1-0.1,0c-0.1,0,0-0.1,0-0.2l0,0c-0.2-0.2,0,0,0-0.3c-0.1-0.2-0.3-0.5-0.4-0.7
			c-0.1-0.3-0.3-0.5-0.4-0.8c-0.1,0.1-0.1,0.2-0.2,0.3c0,0,0,0,0,0.1c-0.1-0.1-0.1,0.2-0.2,0.3v-0.1c-0.2,0.2-0.3,0.6-0.4,0.8l0,0
			c0,0.2-0.2,0.4-0.2,0.5l-0.1,0.1c0,0.2-0.2,0.3-0.2,0.5l0,0C22.1,76.9,22,77,22,77.2l-0.1,0.3c0,0.1,0,0.1,0,0.1s0,0-0.2,0.1
			c-0.3,0.1-0.6,0-0.9,0.1c-0.1,0,0,0,0,0.1c-0.1,0,0,0,0,0c-0.1,0.1-0.3,0-0.5,0.1c0,0-0.1,0,0,0.1c-0.1,0-0.2,0-0.4,0
			c-0.2,0-0.4,0.1-0.6,0.1c0.2,0.1-0.1,0.1-0.2,0.1s-0.1,0-0.1,0c-0.1,0-0.3,0-0.4,0.1c0,0,0.1,0.1,0.2,0.2s0.2,0.1,0.3,0.3
			c0,0.1,0.3,0.3,0.3,0.4c0-0.1,0.2,0.1,0.3,0.2h-0.1c0.3,0.2,0.5,0.6,0.9,0.8v0.1c0.1,0.1,0.3,0.2,0.4,0.3l0.2,0.2
			c0,0,0.1,0,0.1,0.1v0.1c0,0-0.1,0.2-0.1,0.3c0,0.1,0,0.2,0.1,0.3c0,0.1,0,0.1-0.1,0.1c0,0.2-0.1,0.3-0.1,0.5l0,0
			c0,0.1,0,0.4,0,0.5c0,0,0,0.2,0.1,0.1c0,0.1-0.1,0,0,0.1v-0.1c0,0.1-0.1,0.4-0.1,0.6s0,0.4-0.1,0.6v0.1c0.1,0,0.4-0.2,0.6-0.3
			c0.1-0.1,0.4-0.2,0.4-0.3l0,0c0.1-0.1,0.3-0.2,0.5-0.2c0.1,0,0.1-0.1,0.2-0.2l0,0c0.1-0.1,0.1-0.1,0.1-0.2h0.1c0,0,0,0,0.1,0
			c-0.1,0.1-0.1,0.1-0.1,0.2c0.1,0,0.2-0.2,0.3-0.2c0.1,0,0.2-0.1,0.1-0.1c0,0,0.1,0,0,0c0.1,0,0.1-0.1,0.1-0.1l0,0
			c0,0,0.1-0.1,0-0.1h0.1v0.1l0.1-0.2l0.3-0.2l1.3,0.7c-0.3-0.1-0.6-0.4-1-0.4c-0.3-0.1-0.4,0-0.4,0c0.6,0.3,1.2,0.6,1.7,1
			c0.1,0.1,0.7,0.3,1.1,0.5l0.6,0.3c-0.1-0.3-0.1-0.7-0.2-1.1l-0.1-0.6v-0.3c0-0.4-0.1-0.8-0.2-1.2c0,0.1-0.1,0-0.1,0l0,0l-0.1-0.1
			c0-0.1,0,0,0.1,0c0-0.2-0.1-0.5-0.1-0.4l0,0l0.1-0.1c0-0.1,0.1-0.1,0.1-0.2l0,0c0.2-0.2,0.2-0.2,0.4-0.3c0.3-0.2,0.5-0.5,0.8-0.7
			l1.3-1.3c-0.5-0.1-1-0.2-1.6-0.2C26.8,77.5,26.4,77.5,26,77.4z M26.9,78L26.9,78C26.8,77.9,26.8,77.9,26.9,78
			C26.8,77.9,26.8,78,26.9,78z M26,77.8h0.2c0,0,0,0-0.1,0l0.1,0.1l0,0L26,77.8C26,77.8,26,77.8,26,77.8z M25.8,81L25.8,81L25.8,81
			L25.8,81z M25.7,77.8L25.7,77.8L25.7,77.8L25.7,77.8z M22.8,82.2L22.8,82.2L22.8,82.2L22.8,82.2z M24.9,82.8
			C24.9,82.8,24.9,82.7,24.9,82.8l0.2,0.1C25.1,82.8,25,82.8,24.9,82.8z M26.1,82.7L26.1,82.7C26.2,82.8,26.1,82.8,26.1,82.7
			c0,0.2,0,0.3,0.1,0.4c0,0,0,0-0.1-0.1c0,0.1,0.1,0.3,0.1,0.4v-0.1v0.1c-0.2-0.1-0.4-0.3-0.6-0.4l0.5,0.2l-0.3-1.7
			c0,0.1,0.1,0.3,0.1,0.4l0,0C26.1,82.3,26,82.5,26.1,82.7z M26.1,79.9L26.1,79.9L26.1,79.9C26.1,79.8,26.1,79.9,26.1,79.9z
			 M27.2,78.8L27.2,78.8L27.2,78.8L27.2,78.8z M27.4,78.6L27.4,78.6L27.4,78.6C27.5,78.6,27.4,78.6,27.4,78.6z M27.5,78.5L27.5,78.5
			C27.6,78.4,27.6,78.5,27.5,78.5L27.5,78.5z M27.9,78.1L27.9,78.1h-0.1C27.9,78.1,27.9,78.1,27.9,78.1z M27.7,78.1L27.7,78.1
			L27.7,78.1C27.8,78.1,27.8,78.1,27.7,78.1z"/>
		<path class="st3" d="M23.2,82.1L23.2,82.1C23.3,82.1,23.2,82.1,23.2,82.1z"/>
		<path class="st3" d="M54.4,96.4C54.4,96.4,54.3,96.4,54.4,96.4C54.3,96.4,54.4,96.4,54.4,96.4z"/>
		<path class="st3" d="M55.9,97.3c-0.2-0.1-0.2,0-0.3-0.1c0-0.1,0.2,0.1,0.2-0.1c-0.1,0-0.2-0.1-0.3,0L55.4,97v0.2
			c0,0.1,0.2-0.1,0.1,0.1c0,0.1-0.1,0.1-0.1,0c0.1,0,0.1,0.2,0.4,0.3c0.3,0.2,0.3-0.1,0.4-0.2C56.2,97.4,55.8,97.4,55.9,97.3
			C55.8,97.3,55.8,97.3,55.9,97.3z"/>
		<path class="st3" d="M56.2,97.6L56.2,97.6L56.2,97.6z"/>
		<path class="st3" d="M56.9,97.8l-0.1-0.2c-0.1,0-0.1,0-0.1,0.1c-0.1,0-0.1-0.1-0.2-0.1h-0.1l-0.1-0.1c0,0.1,0,0.1,0,0.1
			c0.2,0.3,0.3,0.1,0.3,0.1c0.4,0.3,0.1,0.1,0.3,0.4c-0.1-0.1-0.2-0.1-0.3-0.2c0.2,0.2,0.3,0.3,0.4,0.3C57.1,98,57,97.8,56.9,97.8
			C57,97.7,56.9,97.7,56.9,97.8z"/>
		<path class="st3" d="M56.2,97.4C56.3,97.4,56.3,97.4,56.2,97.4C56.3,97.4,56.3,97.3,56.2,97.4z"/>
		<path class="st3" d="M56.8,97.4L56.8,97.4C56.7,97.4,56.8,97.5,56.8,97.4L56.8,97.4z"/>
		<path class="st3" d="M57.2,94L57.2,94L57.2,94L57.2,94z"/>
		<path class="st3" d="M56.5,94.1L56.5,94.1C56.6,94,56.6,94,56.5,94.1L56.5,94.1z"/>
		<path class="st3" d="M56.7,94.4c0,0-0.1,0-0.2,0C56.6,94.5,56.6,94.5,56.7,94.4z"/>
		<path class="st3" d="M56.6,95L56.6,95L56.6,95z"/>
		<polygon class="st3" points="57.4,93.7 57.4,93.7 57.3,93.8 		"/>
		<path class="st3" d="M58.8,92.1c-0.2,0.1,0,0.1-0.1,0.2c-0.1,0-0.2-0.1-0.4,0c0.2-0.1,0.2-0.1,0.3-0.2
			C58.6,92.1,58.6,92.1,58.8,92.1c-0.3-0.1-0.6,0-0.7-0.1l0,0c-0.2,0.1-0.2-0.1-0.4,0h0.1c0,0-0.1,0-0.2,0l0,0
			c-0.1,0.1-0.2,0.1-0.3,0.1H57l0-0.2c0,0,0.1,0,0.1,0.1c0.1-0.1,0-0.1,0-0.2c0.1,0,0.1,0.1,0.3,0c-0.2-0.2-0.2,0.1-0.4-0.1
			l-0.1,0.2c-0.1,0,0-0.1,0-0.1c-0.1,0.1,0.1,0.2,0,0.2c0,0-0.1,0-0.2,0h-0.1c0-0.1,0-0.2,0-0.2s-0.1,0-0.2-0.1c0.2,0.1-0.1,0,0,0.1
			l-0.1,0.1h-0.1h-0.1c0-0.1,0.1,0,0.1,0c0-0.1-0.1-0.1-0.1-0.2c-0.1,0.1-0.4,0.1-0.5,0.1h-0.1v-0.1c-0.1,0-0.1,0-0.1,0.1h-0.1
			l-0.1-0.1c0.1,0,0-0.2,0.1-0.3c-0.3-0.1,0.1-0.3-0.1-0.5C55,90.8,55.1,91,55,91c0-0.1-0.1-0.1-0.1-0.2c0.1,0,0.1,0,0.1,0.1
			c0.1-0.1-0.1-0.1,0-0.2c0,0,0,0.1,0,0c-0.1-0.2-0.1-0.1-0.2-0.4c0,0-0.1-0.1-0.1,0c0-0.2,0.1-0.1,0-0.3c0,0-0.1,0.1-0.2,0.2v-0.1
			c0-0.2-0.1-0.2-0.1-0.4c0,0,0,0,0.1,0.1c0.1-0.1-0.1-0.2-0.1-0.3l0.1-0.1c-0.1-0.1-0.2-0.2-0.2-0.5v-0.1c-0.1-0.1-0.2-0.2-0.2-0.3
			c-0.1,0.2-0.2,0.4-0.2,0.6h-0.1c-0.1,0.5,0.2-0.3,0.1,0.2c-0.1-0.3,0,0.2-0.1,0.3c-0.1,0,0-0.2-0.1-0.2c0.1,0.1,0,0.1,0,0.2
			c-0.1-0.1-0.1,0.2-0.2,0.1v0.4c-0.1,0-0.1,0.1-0.1,0.2c0-0.1,0.1,0,0.1,0l-0.1,0.2c-0.1,0-0.2,0-0.3,0c0,0.2,0,0.3,0,0.5L53,90.9
			c0,0,0,0.2,0.1,0.2v0.1l0,0l0,0C53,91.1,53,91.1,52.9,91v0.1c0-0.1-0.1,0-0.1,0c0,0.1,0,0.2-0.1,0.2l-0.1,0.1c0,0,0,0,0,0.1l0,0
			c0.1,0,0,0.1,0,0.1c-0.1,0-0.1,0-0.1,0s0,0-0.1,0c0,0.1,0,0.2-0.2,0.2c0-0.1-0.2,0-0.3-0.1c0,0.1-0.2,0.1-0.2,0.2
			c-0.1,0-0.2,0-0.2,0l0,0h-0.1l0,0c-0.1,0,0,0.1-0.1,0c0,0,0,0,0.1-0.1c-0.2,0-0.2,0.2-0.4,0.1c0,0.1-0.2,0.1-0.1,0.2
			c-0.1,0-0.1-0.1-0.2-0.1c-0.1,0.1-0.2,0-0.2,0.1c0.1-0.1,0,0,0.1-0.2c-0.1,0-0.2,0.1-0.4,0.1c0,0,0-0.1-0.1-0.1
			C50,92,50,92,49.8,92l0.1,0.1c-0.2,0-0.4,0-0.7,0l0.1,0.1h-0.1c-0.1,0.1,0.4,0.4,0.6,0.4l0.1,0.1c0,0,0,0,0,0.1h-0.1
			c0.1,0.1,0.1,0.3,0.3,0.2c0.1,0,0,0.1,0,0.2c0.3,0,0.3,0.5,0.6,0.4l-0.1-0.1l0.2,0.2l-0.1,0.1c0.1,0.3,0.5,0.2,0.5,0.5
			c0.1,0.1,0.2,0.1,0.3,0.1l0,0l0,0c0,0,0,0,0.1,0l0.1,0.1L51.5,95c-0.2,0.2,0.1,0.3-0.2,0.4l0,0v0.1c0,0,0,0,0.1-0.1l-0.1,0.4l0,0
			l0,0L51.1,97c-0.1,0.1-0.2,0.1-0.2,0.2l0,0c0,0,0.1,0,0.1,0.1c0,0,0-0.1,0.1-0.1L51,97.5l2.8-1.5l0.1,0.1c0,0-0.1,0-0.1,0.1
			c0.1,0,0.2,0,0.2,0c-0.1,0-0.1,0-0.2,0.1c0.1,0.1,0.1,0,0.2,0.1l-0.1,0.1H54c0-0.2,0.1-0.2,0-0.2l0.2,0.1c0.1,0,0,0.1,0,0.1
			l0.1-0.1h0.1l0,0l0,0h0.1l0.2,0.1l0,0h0.1h0.1l0,0c0,0.1-0.1,0.1-0.2,0.1c-0.1,0-0.1-0.1-0.2-0.1v0.1c0.1,0.1,0.3,0,0.3-0.1
			l0.3,0.1c-0.1,0.1-0.2-0.1-0.3,0c0.1,0.1,0.2,0.2,0.1,0.3H55c0.1,0,0.1-0.1,0-0.2l1.4,0.7l-0.5-3.1l0.8-0.8
			c-0.1,0.2-0.2,0.3-0.4,0.4c-0.1,0.1-0.2,0.2-0.3,0.3l-0.1,0.1c0.1,0.5,0.2,1.1,0.3,1.7l0.2,0.1c-0.1,0,0,0.1-0.1,0.1v-0.1
			c-0.1,0.2,0.1,0.3,0.1,0.5c0,0,0.1,0,0.2,0c-0.2-0.1,0.1,0.3-0.1,0.2c0,0.1,0.2,0.1,0.2,0.3c0.1,0.1,0-0.2,0.1-0.2
			c0.1,0.1,0,0.2,0.1,0.3c0-0.2-0.1-0.6-0.2-0.9c-0.1-0.2-0.2-0.4-0.2-0.6h0.1c-0.1-0.2-0.2-0.5,0-0.7c-0.1,0.1,0-0.3-0.2-0.3
			c0-0.1,0-0.1,0-0.2h-0.1c0-0.1,0.1-0.1,0.1-0.2c-0.1,0-0.1,0-0.2,0c0,0,0-0.1,0.1-0.1s0.2,0,0.3,0h-0.1c0.1,0,0-0.1,0-0.1
			c0.1-0.1,0.1,0,0.2,0.1c0.1-0.1,0-0.3,0.2-0.3h-0.1c0.1-0.1,0.3-0.2,0.4-0.3c0.1,0,0,0.2,0,0.3c0,0,0.1-0.1,0.1,0
			c0-0.1,0-0.2,0.1-0.3c0,0.2,0.2,0,0.2,0s-0.1,0-0.2,0c0-0.1,0.1-0.1,0.1-0.2c-0.1,0-0.1,0-0.1-0.1l0.3-0.3c0,0.1-0.1,0.1-0.1,0.1
			s0.2,0,0.1,0.1c0,0,0.1,0,0.1,0.1c0.1-0.1,0.1-0.2,0.1-0.3c0.1,0,0,0.1,0.1,0v-0.1c0.1,0,0,0.1,0.1,0c0,0,0-0.2,0.2-0.3l0,0
			c0.1-0.1,0.2-0.2,0-0.2l0.2-0.1h-0.1c0.2-0.2,0.7-0.3,0.8-0.6C58.9,92.2,58.8,92.1,58.8,92.1z M58.5,92.1l-0.3,0.1h-0.1
			C58.2,92.2,58.3,92.1,58.5,92.1z M57.7,92.1C57.6,92.1,57.6,92.1,57.7,92.1h-0.3C57.5,92.1,57.6,92.1,57.7,92.1z M55.8,91.9
			c0.1,0,0.1,0,0.2,0H55.8C55.7,91.9,55.8,91.9,55.8,91.9z M55.1,91.5L55.1,91.5L55.1,91.5z M54.8,90.8c0.1,0.2,0.4,0.3,0.3,0.6h0.1
			h-0.1L54.8,90.8L54.8,90.8z M54,89.3L54,89.3C54,89.2,54,89.2,54,89.3C54,89.2,54,89.2,54,89.3z M53.9,89.1L53.9,89.1
			C53.9,89,53.9,89,53.9,89.1C53.9,89,53.9,89,53.9,89.1z M53.9,89L53.9,89L53.9,89L53.9,89z M52.7,91.4L52.7,91.4L52.7,91.4
			C52.6,91.5,52.6,91.5,52.7,91.4z M52.2,91.8c0-0.1,0.1-0.2,0.1-0.2l0,0l0.1,0.1l0,0C52.3,91.7,52.3,91.8,52.2,91.8l-0.3,0.1
			C52,91.8,52.1,91.8,52.2,91.8z M51.1,92L51.1,92L51.1,92z M51.7,91.9L51.7,91.9L51.7,91.9L51.7,91.9z M49.9,92.1
			c0.3,0,0.2-0.1,0.5-0.2c0.1,0.1-0.2,0,0,0.1c-0.1,0.1-0.1,0.1-0.2,0.1h-0.1C50.1,92.2,49.9,92.1,49.9,92.1z M49.7,92.2h-0.2
			c0,0,0,0-0.1,0C49.6,92.2,49.7,92.2,49.7,92.2z M57,93.6L57,93.6l0.2-0.2C57.1,93.5,57.1,93.5,57,93.6z M57.8,93.1
			c0.1-0.2-0.1-0.1-0.2-0.2l0.2-0.2C57.8,92.8,58,93,57.8,93.1z M57.9,92.7L57.9,92.7C58,92.6,58,92.7,57.9,92.7
			C57.9,92.8,57.9,92.8,57.9,92.7z"/>
		<polygon class="st3" points="57.3,91.9 57.3,91.9 57.2,92 		"/>
		<path class="st3" d="M55.9,91.7L55.9,91.7C56,91.7,56,91.7,55.9,91.7L55.9,91.7z"/>
		<path class="st3" d="M53.2,90.3L53.2,90.3C53.2,90.4,53.2,90.3,53.2,90.3z"/>
		<path class="st3" d="M55.3,91.6L55.3,91.6L55.3,91.6z"/>
		<path class="st3" d="M49.6,92.6L49.6,92.6L49.6,92.6C49.6,92.6,49.5,92.6,49.6,92.6z"/>
		<path class="st3" d="M49.6,92.7C49.6,92.7,49.7,92.7,49.6,92.7C49.7,92.7,49.7,92.7,49.6,92.7L49.6,92.7z"/>
		<path class="st3" d="M51.4,94.4C51.5,94.4,51.5,94.4,51.4,94.4C51.5,94.4,51.5,94.4,51.4,94.4z"/>
		<polygon class="st3" points="51.5,94.4 51.6,94.4 51.6,94.4 		"/>
		<path class="st3" d="M54.4,17C54.4,17,54.3,17,54.4,17C54.3,17,54.4,17,54.4,17z"/>
		<path class="st3" d="M55.4,17.8c0.1,0,0.1,0.2,0.4,0.3c0.3,0.2,0.3-0.1,0.4-0.2c0,0-0.4,0-0.4-0.1c0.1,0,0.1-0.1,0.2,0
			c-0.2-0.1-0.2,0-0.3-0.1c0-0.1,0.2,0.1,0.2-0.1c-0.1,0-0.2-0.1-0.3,0l-0.1-0.1v0.2c0,0.1,0.2-0.1,0.1,0.1
			C55.5,17.9,55.4,17.8,55.4,17.8z"/>
		<path class="st3" d="M56.2,18.2L56.2,18.2L56.2,18.2z"/>
		<path class="st3" d="M57.1,18.8c-0.1-0.2-0.1-0.4-0.2-0.5c0,0-0.1,0,0,0.1l-0.1-0.2c-0.1,0-0.1,0-0.1,0.1c-0.1,0-0.1-0.1-0.2-0.1
			h-0.1l-0.1-0.1c0,0.1,0,0.1,0,0.1c0.2,0.3,0.3,0.1,0.3,0.1c0.4,0.3,0.1,0.1,0.3,0.4c-0.1-0.1-0.2-0.1-0.3-0.2
			C56.9,18.7,57,18.8,57.1,18.8z"/>
		<path class="st3" d="M56.2,18c0.1,0,0.1,0,0.1,0.1C56.3,18,56.3,17.9,56.2,18z"/>
		<path class="st3" d="M56.8,18L56.8,18c-0.1,0,0,0.1,0,0.1V18z"/>
		<path class="st3" d="M57.2,14.6L57.2,14.6L57.2,14.6L57.2,14.6z"/>
		<path class="st3" d="M56.5,14.7L56.5,14.7C56.6,14.6,56.6,14.6,56.5,14.7L56.5,14.7z"/>
		<path class="st3" d="M56.7,15c0,0-0.1,0-0.2,0C56.6,15.1,56.6,15.1,56.7,15z"/>
		<path class="st3" d="M56.6,15.6L56.6,15.6L56.6,15.6z"/>
		<path class="st3" d="M57.4,14.3l-0.1,0.1L57.4,14.3z"/>
		<polygon class="st3" points="57.3,12.5 57.3,12.5 57.2,12.6 		"/>
		<path class="st3" d="M56,12.3L56,12.3L56,12.3C55.9,12.3,56,12.3,56,12.3z"/>
		<path class="st3" d="M53.2,10.9L53.2,10.9C53.2,11,53.2,10.9,53.2,10.9z"/>
		<path class="st3" d="M55.3,12.2L55.3,12.2L55.3,12.2z"/>
		<path class="st3" d="M49.7,13.2l0.1,0.1c0,0,0,0,0,0.1h-0.1c0.1,0.1,0.1,0.3,0.3,0.2c0.1,0,0,0.1,0,0.2c0.3,0,0.3,0.5,0.6,0.4
			l-0.1-0.1l0.2,0.2l-0.1,0.1c0.1,0.3,0.5,0.2,0.5,0.5c0.1,0.1,0.2,0.1,0.3,0.1l0,0l0,0c0,0,0,0,0.1,0l0.1,0.1l-0.1,0.5
			c-0.2,0.2,0.1,0.3-0.2,0.4l0,0v0.1c0,0,0,0,0.1-0.1l-0.1,0.4l0,0l0,0l-0.2,1.2c-0.1,0.1-0.2,0.1-0.2,0.2l0,0c0,0,0.1,0,0.1,0.1
			c0,0,0-0.1,0.1-0.1L51,18.1l2.8-1.5l0.1,0.1c0,0-0.1,0-0.1,0.1c0.1,0,0.2,0,0.2,0c-0.1,0-0.1,0-0.2,0.1c0.1,0.1,0.1,0,0.2,0.1
			l-0.1,0.1H54c0-0.2,0.1-0.2,0-0.2l0.2,0.1c0.1,0,0,0.1,0,0.1l0.1-0.1h0.1l0,0l0,0h0.1l0.2,0.1l0,0h0.1h0.1l0,0
			c0,0.1-0.1,0.1-0.2,0.1c-0.1,0-0.1-0.1-0.2-0.1v0.1c0.1,0.1,0.3,0,0.3-0.1l0.3,0.1c-0.1,0.1-0.2-0.1-0.3,0
			c0.1,0.1,0.2,0.2,0.1,0.3H55c0.1,0,0.1-0.1,0-0.2l1.4,0.7l-0.3-3l0.8-0.8c-0.1,0.2-0.2,0.3-0.4,0.4c-0.1,0.1-0.2,0.2-0.3,0.3
			L56.1,15c0.1,0.5,0.2,1.1,0.3,1.7l0.2,0.1c-0.1,0,0,0.1-0.1,0.1v-0.1c-0.1,0.2,0.1,0.3,0.1,0.5c0,0,0.1,0,0.2,0
			c-0.2-0.1,0.1,0.3-0.1,0.2c0,0.1,0.2,0.1,0.2,0.3c0.1,0.1,0-0.2,0.1-0.2c0.1,0.1,0,0.2,0.1,0.3c0-0.2-0.1-0.6-0.2-0.9
			c-0.1-0.2-0.2-0.4-0.2-0.6h0.1c-0.1-0.2-0.2-0.5,0-0.7c-0.1,0.1,0-0.3-0.2-0.3c0-0.1,0-0.1,0-0.2h-0.1c0-0.1,0.1-0.1,0.1-0.2
			c-0.1,0-0.1,0-0.2,0c0,0,0-0.1,0.1-0.1s0.2,0,0.3,0h-0.1c0.1,0,0-0.1,0-0.1c0.1-0.1,0.1,0,0.2,0.1c0.1-0.1,0-0.3,0.2-0.3H57
			c0.1-0.1,0.3-0.2,0.4-0.3c0.1,0,0,0.2,0,0.3c0,0,0.1-0.1,0.1,0c0-0.1,0-0.2,0.1-0.3c0,0.2,0.2,0,0.2,0s-0.1,0-0.2,0
			c0-0.1,0.1-0.1,0.1-0.2c-0.1,0-0.1,0-0.1-0.1l0.3-0.3c0,0.1-0.1,0.1-0.1,0.1s0.2,0,0.1,0.1c0,0,0.1,0,0.1,0.1
			c0.1-0.1,0.1-0.2,0.1-0.3c0.1,0,0,0.1,0.1,0.1v-0.1c0.1,0,0,0.1,0.1,0c0,0,0-0.2,0.2-0.3l0,0c0.1-0.1,0.2-0.2,0-0.2l0.2-0.1h-0.1
			c0.2-0.2,0.7-0.3,0.8-0.6c-0.1,0.1-0.1,0-0.1,0c-0.2,0.1,0,0.1-0.1,0.2c-0.1,0-0.2-0.1-0.4,0c0.2-0.1,0.2-0.1,0.3-0.2
			c0,0,0,0,0.1-0.1c-0.2,0-0.5,0-0.6-0.1l0,0c-0.2,0.1-0.2-0.1-0.4,0h0.1c0,0-0.1,0-0.2,0l0,0c-0.1,0.1-0.2,0.1-0.3,0.1h-0.3
			L57,12.5c0,0,0.1,0,0.1,0.1c0.1-0.1,0-0.1,0-0.2c0.1,0,0.1,0.1,0.3,0c-0.2-0.2-0.2,0.1-0.4-0.1l-0.1,0.2c-0.1,0,0-0.1,0-0.1
			c-0.1,0.1,0.1,0.2,0,0.2c0,0-0.1,0-0.2,0h-0.1c0-0.1,0-0.2,0-0.2s-0.1,0-0.2-0.1c0.2,0.1-0.1,0,0,0.1l-0.1,0.1h-0.1h-0.1
			c0-0.1,0.1,0,0.1,0c0-0.1-0.1-0.1-0.1-0.2c-0.1,0.1-0.4,0.1-0.5,0.1h-0.1v-0.1c-0.1,0-0.1,0-0.1,0.1h-0.1l-0.1-0.1
			c0.1,0,0-0.2,0.1-0.3c-0.3-0.1,0.1-0.3-0.1-0.5c-0.1-0.1-0.1,0.1-0.1,0.1c0-0.1-0.1-0.1-0.1-0.2c0.1,0,0.1,0,0.1,0.1
			c0.1-0.1-0.1-0.1,0-0.2c0,0,0,0.1,0,0c-0.1-0.2-0.1-0.1-0.2-0.4c0,0-0.1-0.1-0.1,0c0-0.2,0.1-0.1,0-0.3c0,0-0.1,0.1-0.2,0.2v-0.1
			c0-0.2-0.1-0.2-0.1-0.4c0,0,0,0,0.1,0.1c0.1-0.1-0.1-0.2-0.1-0.3l0.1-0.1c-0.1-0.1-0.2-0.2-0.2-0.5V9.4c-0.1-0.1-0.2-0.2-0.2-0.3
			C54.1,9.3,54,9.5,54,9.7h-0.1c-0.1,0.5,0.2-0.3,0.1,0.2c-0.1-0.3,0,0.2-0.1,0.3c-0.1,0,0-0.2-0.1-0.2c0.1,0.1,0,0.1,0,0.2
			c-0.1-0.1-0.1,0.2-0.2,0.1v0.4c-0.1,0-0.1,0.1-0.1,0.2c0-0.1,0.1,0,0.1,0l-0.1,0.2c-0.1,0-0.2,0-0.3,0c0,0.2,0,0.3,0,0.5l-0.1-0.1
			c0,0,0,0.2,0.1,0.2v0.1l0,0l0,0c-0.1-0.1-0.1-0.1-0.2-0.2v0.1c0-0.1-0.1,0-0.1,0c0,0.1,0,0.2-0.1,0.2L52.7,12c0,0,0,0,0,0.1l0,0
			c0.1,0,0,0.1,0,0.1c-0.1,0-0.1,0-0.1,0s0,0-0.1,0c0,0.1,0,0.2-0.2,0.2c0-0.1-0.2,0-0.3-0.1c0,0.1-0.2,0.1-0.2,0.2
			c-0.1,0-0.2,0-0.2,0l0,0h-0.1l0,0c-0.1,0,0,0.1-0.1,0c0,0,0,0,0.1-0.1c-0.2,0-0.2,0.2-0.4,0.1c0,0.1-0.2,0.1-0.1,0.2
			c-0.1,0-0.1-0.1-0.2-0.1c-0.1,0.1-0.2,0-0.2,0.1c0.1-0.1,0,0,0.1-0.2c-0.1,0-0.2,0.1-0.4,0.1c0,0,0-0.1-0.1-0.1
			c-0.1,0.1-0.1,0.1-0.3,0.1l0.1,0.1c-0.2,0-0.4,0-0.7,0l0.1,0.1h-0.1C49.1,12.9,49.5,13.1,49.7,13.2z M51.1,12.6L51.1,12.6
			L51.1,12.6z M57,14.2L57,14.2l0.2-0.2C57.1,14,57.1,14.1,57,14.2z M57.8,13.7c0.1-0.2-0.1-0.1-0.2-0.2l0.2-0.2
			C57.8,13.4,58,13.6,57.8,13.7z M57.9,13.3l0.1-0.1C58,13.2,58,13.3,57.9,13.3C57.9,13.3,57.9,13.4,57.9,13.3z M58.5,12.7l-0.3,0.1
			h-0.1C58.2,12.8,58.3,12.7,58.5,12.7z M57.7,12.7C57.6,12.7,57.6,12.7,57.7,12.7h-0.3C57.5,12.7,57.6,12.7,57.7,12.7z M55.8,12.5
			c0.1,0,0.1,0,0.2,0H55.8C55.7,12.5,55.8,12.5,55.8,12.5z M55.1,12.1L55.1,12.1L55.1,12.1z M54.8,11.4c0.1,0.2,0.4,0.3,0.3,0.6h0.1
			h-0.1L54.8,11.4L54.8,11.4z M54,9.8L54,9.8L54,9.8L54,9.8z M53.9,9.7L53.9,9.7C53.9,9.6,53.9,9.6,53.9,9.7
			C53.9,9.6,53.9,9.6,53.9,9.7z M53.9,9.6L53.9,9.6L53.9,9.6L53.9,9.6z M52.7,12L52.7,12v0.1C52.6,12.1,52.6,12.1,52.7,12z
			 M52.2,12.4c0-0.1,0.1-0.2,0.1-0.2l0,0l0.1,0.1l0,0C52.3,12.3,52.3,12.4,52.2,12.4l-0.3,0.1C52,12.4,52.1,12.4,52.2,12.4z
			 M51.7,12.5L51.7,12.5L51.7,12.5L51.7,12.5z M49.9,12.7c0.3,0,0.2-0.1,0.5-0.2c0.1,0.1-0.2,0,0,0.1c-0.1,0.1-0.1,0.1-0.2,0.1h-0.1
			C50.1,12.8,49.9,12.7,49.9,12.7z M49.7,12.8h-0.2c0,0,0,0-0.1,0C49.6,12.8,49.7,12.8,49.7,12.8z"/>
		<path class="st3" d="M49.6,13.2v0.1V13.2C49.6,13.2,49.5,13.2,49.6,13.2z"/>
		<path class="st3" d="M49.6,13.3c0,0,0.1,0,0.1,0.1C49.7,13.3,49.7,13.3,49.6,13.3L49.6,13.3z"/>
		<path class="st3" d="M51.4,15C51.5,15,51.5,15,51.4,15C51.5,15,51.5,15,51.4,15z"/>
		<polygon class="st3" points="51.5,15 51.6,15 51.6,15 		"/>
		<path class="st3" d="M97.8,52.3L97.8,52.3C97.8,52.4,97.8,52.4,97.8,52.3z"/>
		<path class="st3" d="M96,54.6L96,54.6C96,54.5,96,54.6,96,54.6z"/>
		<path class="st3" d="M90,55.8L90,55.8C90,55.9,90,55.9,90,55.8z"/>
		<path class="st3" d="M97.2,52.6c0.2-0.1,0.3-0.3,0.7-0.3l0.2-0.1c-0.5-0.1-1.3-0.3-1.8,0c0.1-0.2-0.1-0.1-0.2-0.2
			c-0.1,0,0,0,0,0.1c-0.2,0.2-0.3-0.1-0.4,0l0,0l-0.2,0.1c0,0-0.1-0.1-0.1-0.2v0.2c-0.1,0,0-0.2-0.2-0.2v0.1c0-0.1-0.2,0.1-0.2-0.1
			l0,0c0-0.1,0-0.1,0-0.1l0,0c0,0-0.1,0.1,0,0l-0.2,0.3l0,0c0,0,0.1-0.1,0.1-0.2c0,0,0-0.1,0.1-0.1c-0.1,0-0.1,0.1-0.2,0.1v-0.1H95
			c-0.4,0-0.2-0.5-0.6-0.5c0-0.1,0.2,0,0.2-0.1s-0.2-0.4-0.3-0.6c-0.2-0.2-0.3-0.3-0.3-0.6c-0.1-0.4-0.2-0.7-0.4-1
			c-0.2-0.3-0.3-0.6-0.5-1c0,0,0,0-0.1,0.1v0.2l-0.2,0.4c0,0.4-0.2,0.6-0.2,1.1c0-0.1-0.2-0.2-0.2-0.3C92.3,49.7,92,50,92,50v-0.1
			c0,0.4-0.5,1.1-0.5,1.4c0,0.1-0.1,0-0.2,0c-0.1,0.1,0,0.3,0,0.4c0,0-0.1,0-0.2,0l0.1,0.1c-0.1,0-0.1-0.1-0.2,0
			c0.1,0.2,0,0.1,0,0.1l0,0V52c0,0.1-0.1,0-0.1-0.1l0,0c-0.1,0-0.1,0.1-0.2,0.1c-0.1,0.1-0.3,0.2-0.5,0.2c-0.1-0.2-0.3-0.1-0.4-0.1
			c-0.2,0-0.4,0.1-0.5-0.1c-0.3,0.1-0.7,0-0.7,0.3c-0.1,0-0.1,0,0-0.1c-0.3-0.1-0.7,0.1-0.9,0.2l-0.2-0.1c0.2,0.1-0.1,0.2-0.1,0.3
			c0.1,0.1,0.3,0.2,0.4,0.2c-0.1,0-0.2-0.1-0.4-0.2c-0.3,0,0.4,0.3,0.5,0.4c-0.1,0-0.2,0-0.3-0.1c0,0.2,0.5,0.6,0.9,1
			c0.2,0.2,0.4,0.3,0.6,0.5s0.4,0.4,0.4,0.5c0.1,0.1,0.1-0.2,0.3-0.1c0,0.1-0.2,0.1-0.2,0.2c0.2,0,0.2,0,0.3,0.1
			c-0.1,0-0.1,0.1-0.2,0.1c0,0.1,0.4,0.1,0.2,0.2c0.1,0,0.1-0.1,0.1-0.1c0.1,0,0.1,0,0.1,0c-0.1,0.1-0.2,0.1-0.1,0.1c0,0,0,0,0.1,0
			c0,0,0,0-0.2,0c0.1,0,0.2,0.1,0.2,0.2L90,55.5l0.1,0.1h0.1C90,55.8,90,56,90,56l0,0l-0.2,0.1c0.1,0.1,0.2,0.2,0.1,0.3
			c-0.3,0-0.2,0.5-0.2,0.8h-0.1c0.1,0.2,0,0.7,0,0.6c0,0.2-0.2,0.5-0.2,0.5c0,0.1,0,0.5,0.1,0.4l-0.3,0.6c0.3-0.2,0,0.4,0,0.5
			c0.1-0.1,0.1-0.1,0.2-0.3c0.1,0,0,0.2,0,0.2c0.4-0.4,0.6-0.5,0.8-0.6v0.1c0.2-0.1,0.6-0.5,0.9-0.7v0.3c0.2-0.1,0.2-0.4,0.4-0.4
			v0.1c0.2-0.1,0.4-0.2,0.5-0.2c0.2-0.3,0.3-0.3,0.3-0.5c0.2,0.2-0.1,0.2,0.1,0.3c0.3,0,0.4-0.2,0.6-0.4c0,0,0,0.1,0.1,0.1
			c0,0,0-0.1,0-0.3c0.2,0.1,0.5-0.1,0.5,0.2l0,0c0.1,0,0.2,0.1,0.3,0.2c0.1,0.1,0.3,0.2,0.5,0.3c0.2,0,0.6,0,0.5-0.3L94.7,58
			c-0.1-0.3-0.2-0.3-0.4-0.3l0.2,0.1c-0.1,0,0,0.2-0.1,0.2c-0.3-0.3-0.5-0.1-0.6-0.4l0,0h-0.2c0-0.1,0-0.1,0.1-0.1
			c-0.2,0-0.3,0-0.5,0c0-0.2,0-0.4-0.1-0.6l2.8,1.5l-0.2-0.9c0.1,0.1,0.2,0.3,0.3,0.5l-0.1-0.1v0.2l0,0l0.2,0.4L96,58.3
			c0,0.1,0.1,0.2,0.1,0.3l-0.2-0.2c0.1,0.2,0.2,0.3,0.3,0.5c0,0.1-0.1,0.1-0.2,0l-0.1-0.1L95.8,59c-0.3-0.3,0-0.3-0.3-0.4l-0.1-0.3
			c-0.1,0-0.2-0.2-0.3-0.1c0.1,0.2,0.2,0.2,0.2,0.3c-0.3-0.5-0.3-0.1-0.5,0c0.1,0,0.2,0.1,0.2,0c0.1,0.1,0.1,0.2,0.2,0.2l0.1-0.1
			l0.1,0.3h0.2c0.1,0.3,0.3,0.2,0.3,0.4c0.1,0,0.4,0.3,0.4,0c0.3,0.3-0.1,0.1,0.1,0.2c0.1,0,0.2,0.1,0.3,0.1
			c-0.2-0.9-0.3-1.6-0.4-2.4l0.1,0.1c-0.1-0.1-0.2-0.3-0.3-0.3c0.1-0.1,0.1-0.2,0.1-0.5c0-0.2,0-0.3-0.2-0.3h0.1c0-0.1,0-0.2,0-0.4
			c0-0.1,0-0.2,0-0.2l0,0c-0.1,0-0.1-0.1-0.1-0.1c0.1,0,0.1,0-0.1-0.1l0.1,0.1c-0.1,0-0.2-0.2-0.3-0.3c0.2,0.1,0.2,0.1,0.4,0.3H96
			l0.2,0.1c-0.1-0.1-0.1-0.2,0-0.3s0.1-0.1,0.2-0.1c0.2,0,0.3-0.1,0.3-0.3c0,0,0,0,0,0.1c0.1,0,0.2-0.1,0.2-0.2c0-0.1,0-0.2,0-0.3
			c0.1,0,0.1,0.2,0.1,0.3c0.2-0.1,0.4-0.4,0.6-0.6c0.2-0.2,0.3-0.4,0.6-0.6c-0.1-0.1-0.4,0.1-0.4,0c0.2-0.1,0.4-0.2,0.4-0.1
			c0.5-0.2,0.6-0.5,0.8-0.8c-0.4,0-0.7-0.1-0.8-0.2C97.7,52.5,97.7,52.6,97.2,52.6z M96.2,54.5L96.2,54.5L96.2,54.5
			C96.3,54.4,96.2,54.4,96.2,54.5z M95.3,55.2l0.2-0.2C95.6,55.1,95.7,55.2,95.3,55.2z M95.3,55.7c0.1,0,0.2,0.1,0.2,0.1
			C95.4,55.8,95.4,55.8,95.3,55.7L95.3,55.7z M96.3,52.9L96.3,52.9C96.4,52.9,96.4,52.9,96.3,52.9C96.4,52.9,96.4,52.9,96.3,52.9z
			 M95,52.6c0.1,0,0.1,0,0.2,0H95L95,52.6C94.9,52.7,95,52.7,95,52.6z M94.1,52L94.1,52C94.1,51.9,94.1,51.9,94.1,52
			C94.2,52,94.1,52,94.1,52z M95.6,57.2L95.6,57.2c0.1-0.1,0.2-0.1,0.2,0.1L95.6,57.2l0.2,0.2C95.8,57.4,95.7,57.3,95.6,57.2z
			 M96,56.7c-0.1,0,0.1,0.3-0.2,0c0.1,0.3-0.1,0.3-0.2,0.4l-0.1-0.8C95.6,56.3,95.6,56.6,96,56.7z M96.1,54.9c0,0,0-0.2-0.1-0.3
			c-0.1,0-0.1,0-0.2,0.1l0.2-0.2v0.1c0.2,0.1,0.3-0.1,0.3,0.1C96.1,54.7,96.4,54.9,96.1,54.9z M96.4,54.2L96.4,54.2l0.3-0.3
			C96.6,54.1,96.6,54.2,96.4,54.2z"/>
		<path class="st3" d="M95,51.9L95,51.9L95,51.9z"/>
		<path class="st3" d="M18.4,52.3L18.4,52.3C18.4,52.4,18.4,52.4,18.4,52.3z"/>
		<path class="st3" d="M16.6,54.6L16.6,54.6C16.6,54.5,16.6,54.6,16.6,54.6z"/>
		<path class="st3" d="M10.6,55.8L10.6,55.8C10.6,55.9,10.6,55.9,10.6,55.8z"/>
		<path class="st3" d="M18.8,53.5c-0.1-0.1-0.4,0.1-0.4,0C18.6,53.4,18.8,53.3,18.8,53.5c0.5-0.3,0.6-0.6,0.8-0.9
			c-0.4,0-0.7-0.1-0.8-0.2c-0.6,0.1-0.5,0.2-1.1,0.2c0.2-0.1,0.3-0.3,0.7-0.3l0.2-0.1c-0.5-0.1-1.3-0.3-1.8,0
			c0.1-0.2-0.1-0.1-0.2-0.2c-0.1,0,0,0,0,0.1c-0.2,0.2-0.3-0.1-0.4,0l0,0L16,52.2c0,0-0.1-0.1-0.1-0.2v0.2c-0.1,0,0-0.2-0.2-0.2v0.1
			c-0.1-0.1-0.2,0.1-0.2-0.1l0,0c0-0.1,0-0.1,0-0.1l0,0c0,0-0.1,0.1,0,0l-0.2,0.3l0,0c0,0,0.1-0.1,0.1-0.2c0,0,0-0.1,0.1-0.1
			c-0.1,0-0.1,0.1-0.2,0.1v-0.1h0.2c-0.4,0-0.2-0.5-0.6-0.5c0-0.1,0.2,0,0.2-0.1s-0.2-0.4-0.3-0.6c-0.2-0.2-0.3-0.3-0.3-0.6
			c-0.1-0.4-0.2-0.7-0.4-1s-0.3-0.6-0.5-1c0,0,0,0-0.1,0.1v0.2l-0.2,0.4c0,0.3-0.1,0.5-0.2,0.8c0,0.1-0.1,0.4-0.1,0.4v-0.1
			c0,0.4-0.7,1.1-0.7,1.4c0,0.1-0.2,0-0.3,0c-0.1,0.1-0.1,0.3,0,0.4c0,0-0.1,0-0.2,0l0.1,0.1c-0.1,0-0.1-0.1-0.2,0
			c0.1,0.2,0,0.1,0,0.1l0,0V52c0,0.1-0.1,0-0.1-0.1l0,0c-0.1,0-0.1,0.1-0.2,0.1c-0.1,0.1-0.3,0.2-0.5,0.2c-0.1-0.2-0.3-0.1-0.4-0.1
			c-0.2,0-0.4,0.1-0.5-0.1c-0.3,0.1-0.7,0-0.7,0.3c-0.1,0-0.1,0,0-0.1c-0.3-0.1-0.7,0.1-0.9,0.2l-0.4,0c0.2,0.1-0.1,0.2-0.1,0.3
			c0.1,0.1,0.3,0.2,0.4,0.2c-0.1,0-0.2-0.1-0.4-0.2c-0.3,0,0.4,0.3,0.5,0.4c-0.1,0-0.2,0-0.3-0.1c0,0.2,0.5,0.6,0.9,1
			c0.2,0.2,0.4,0.3,0.6,0.5C9.8,54.7,10,54.9,10,55c0.1,0.1,0.1-0.2,0.3-0.1c0,0.1-0.2,0.1-0.2,0.2c0.2,0,0.2,0,0.3,0.1
			c-0.1,0-0.1,0.1-0.2,0.1c0,0.1,0.4,0.1,0.2,0.2c0.1,0,0.1-0.1,0.1-0.1c0.1,0,0.1,0,0.1,0c-0.1,0.1-0.2,0.1-0.1,0.1c0,0,0,0,0.1,0
			c0,0,0,0-0.2,0c0.1,0,0.2,0.1,0.2,0.2l-0.1-0.1l0.1,0.1h0.3c-0.1,0.1,0,0.2,0.1,0.2L10.7,56c0.1,0.1,0.1,0.2,0,0.3
			c-0.3,0-0.2,0.5-0.3,0.8h-0.1c0.1,0.2-0.1,0.7,0,0.6c0,0.2-0.2,0.5-0.2,0.5c0,0.1,0,0.5,0.1,0.4l-0.3,0.6c0.3-0.2,0,0.4,0,0.5
			c0.1-0.1,0.1-0.1,0.2-0.3c0.1,0,0,0.2,0,0.2c0.4-0.4,0.6-0.5,0.8-0.6v0.1c0.2-0.1,0.6-0.5,0.9-0.7v0.3c0.2-0.1,0.2-0.4,0.4-0.4
			v0.1c0.2-0.1,0.4-0.2,0.5-0.2c0.2-0.3,0.3-0.3,0.3-0.5c0.2,0.2-0.1,0.2,0.1,0.3c0.3,0,0.4-0.2,0.6-0.4c0,0,0,0.1,0.1,0.1
			c0,0,0-0.1,0-0.3c0.2,0.1,0.5-0.1,0.5,0.2l0,0c0.1,0,0.2,0.1,0.3,0.2c0.1,0.1,0.3,0.2,0.5,0.3c0.2,0,0.6,0,0.5-0.3l-0.2,0.1
			c-0.1-0.3-0.2-0.3-0.4-0.3l0.2,0.1c-0.1,0,0,0.2-0.1,0.2c-0.3-0.3-0.5-0.1-0.6-0.4l0,0h-0.2c0-0.1,0-0.1,0.1-0.1
			c-0.2,0-0.3,0-0.5,0c0-0.2,0-0.4-0.1-0.6l2.8,1.5l-0.2-0.9c0.1,0.1,0.2,0.3,0.3,0.5l-0.1-0.1V58l0,0l0.2,0.4l-0.1-0.2
			c0,0.1,0.1,0.2,0.1,0.3l-0.2-0.2c0.1,0.2,0.2,0.3,0.3,0.5c0,0.1-0.1,0.1-0.2,0l-0.1-0.1l-0.1,0.2c-0.3-0.3,0-0.3-0.3-0.4L16,58.3
			c-0.1,0-0.2-0.2-0.3-0.1c0.1,0.2,0.2,0.2,0.2,0.3c-0.3-0.5-0.3-0.1-0.5,0c0.1,0,0.2,0.1,0.2,0c0.1,0.1,0.1,0.2,0.2,0.2l0.1-0.1
			l0.1,0.3h0.2c0.1,0.3,0.3,0.2,0.3,0.4c0.1,0,0.4,0.3,0.4,0c0.3,0.3-0.1,0.1,0.1,0.2c0.1,0,0.2,0.1,0.3,0.1
			c-0.2-0.9-0.3-1.6-0.4-2.4l0.1,0.1c-0.1-0.1-0.2-0.3-0.3-0.3c0.1-0.1,0.1-0.2,0.1-0.5c0-0.2,0-0.3-0.2-0.3h0.1c0-0.1,0-0.2,0-0.4
			c0-0.1,0-0.2,0-0.2l0,0c-0.1,0-0.1-0.1-0.1-0.1c0.1,0,0.1,0-0.1-0.1l0.1,0.1c-0.1,0-0.2-0.2-0.3-0.3c0.2,0.1,0.2,0.1,0.4,0.3h-0.1
			l0.2,0.1c-0.1-0.1-0.1-0.2,0-0.3s0.1-0.1,0.2-0.1c0.2,0,0.3-0.1,0.3-0.3c0,0,0,0,0,0.1c0.1,0,0.2-0.1,0.2-0.2c0-0.1,0-0.2,0-0.3
			c0.1,0,0.1,0.2,0.1,0.3c0.2-0.1,0.4-0.4,0.6-0.6C18.3,53.9,18.5,53.7,18.8,53.5z M16.8,54.5L16.8,54.5l0.1-0.1
			C16.9,54.4,16.8,54.4,16.8,54.5z M16.9,52.9L16.9,52.9C17,52.9,17,52.9,16.9,52.9C17,52.9,17,52.9,16.9,52.9z M15.6,52.6
			c0.1,0,0.1,0,0.2,0H15.6L15.6,52.6C15.5,52.7,15.6,52.7,15.6,52.6z M14.7,52L14.7,52c0-0.1,0-0.1,0.1-0.1C14.8,52,14.7,52,14.7,52
			z M13.1,49.5c0,0.1,0,0.1,0,0.2C13.1,49.7,13.1,49.6,13.1,49.5z M16,56C16.1,56,16.1,56.1,16,56L16,56z M16.2,57.2L16.2,57.2
			c0.1-0.1,0.2-0.1,0.2,0.1h-0.1l0.1,0.1C16.4,57.4,16.3,57.3,16.2,57.2z M16.6,56.7c-0.1,0,0,0.3-0.2,0c0.1,0.3-0.1,0.3-0.2,0.4
			L16,56.2C16.2,56.3,16.2,56.6,16.6,56.7z M16.7,54.9c0,0,0-0.2-0.1-0.3c-0.2,0.1-0.2,0.2-0.3,0.3C16.2,55,16,55.1,16,55.2l0,0
			c0,0.3,0.2,0.4,0.3,0.5c-0.1,0-0.3,0-0.4,0l-0.1-0.5l0.8-0.8v0.1c0.2,0.1,0.3-0.1,0.3,0.1C16.7,54.7,17,54.9,16.7,54.9z M17,54.2
			C17,54.2,16.9,54.2,17,54.2l0.3-0.3C17.2,54.1,17.2,54.2,17,54.2z"/>
		<path class="st3" d="M15.6,51.9L15.6,51.9L15.6,51.9z"/>
	</g>
</g>
</svg>
