<?xml version="1.0" encoding="utf-8"?>
<!-- Generator: Adobe Illustrator 20.0.0, SVG Export Plug-In . SVG Version: 6.00 Build 0)  -->
<svg version="1.1" id="Calque_1" xmlns="http://www.w3.org/2000/svg" xmlns:xlink="http://www.w3.org/1999/xlink" x="0px" y="0px"
	 viewBox="0 0 107.5 107.4" style="enable-background:new 0 0 107.5 107.4;" xml:space="preserve">
<style type="text/css">
	.stIconeParcour{fill:#FFFFFF;}
</style>
<g>
	<g>
		<circle class="stIconeParcour" cx="26.9" cy="60.3" r="6.6"/>
	</g>
	<g>
		<path class="stIconeParcour" d="M36.2,87.2c0-0.2,0-0.4,0-0.6V76.1c0-4-3.2-7.2-7.2-7.2h-4.3c-4,0-7.2,3.2-7.2,7.2v10.5c0,0.2,0,0.4,0,0.6
			H36.2z"/>
	</g>
</g>
<path class="stIconeParcour" d="M79.1,24c0-6.4-4.5-11.5-9.9-14.4c-6.6-3.5-14.7-4-21.7-1.8c-3.3,1-6.4,2.7-9,5c-1.2,1.1-2.2,2.3-3,3.6
	c-0.4,0.6-0.7,1.2-1,1.8c-0.2,0.5-0.2,0.6-0.7,0.8c-0.5,0.1-1.2,0.1-1.7,0.1c-6.4,0.7-13.2,4.5-15,11C15,38,21.6,44.5,28.7,46.5
	c-0.4,1.4-2,1.9-1.4,3.6c0.6,1.8,2.4,1.7,3.8,1.1c1.4-0.6,2.6-1.6,3.6-2.8c0.2-0.3,0.4-0.8,0.7-1s0.8-0.2,1.2-0.2
	c0.8-0.1,1.7-0.2,2.5-0.4c3.1-0.6,6.1-1.9,8.5-3.9c0.6-0.5,1.1-1,1.6-1.5c0.1-0.1,0.4-0.6,0.6-0.7c0.3-0.1,1.2,0.2,1.6,0.3
	c0.9,0.2,1.9,0.3,2.8,0.3c0.9,0.1,1.9-0.1,2.8,0.1c0.5,0.1,0.5,0.3,0.7,0.8c0.2,0.4,0.3,0.7,0.5,1c0.4,0.7,0.9,1.3,1.4,1.9
	c1.2,1.3,2.7,2.2,4.4,2.7c-1.2-0.8-1.9-2.2-2.2-3.6c-0.2-0.8-0.3-1.5-0.3-2.3c0-0.2,0-0.4,0-0.7c-0.1-0.3,0-0.4,0.4-0.4
	c0.3-0.1,0.7-0.1,1-0.2c3-0.7,5.9-1.8,8.5-3.5C75.6,34.3,79.1,29.5,79.1,24z M34.6,45c-0.5,0-0.5-0.1-0.8,0.3
	c-0.1,0.2-0.3,0.6-0.4,0.8c-0.3,0.5-0.6,0.9-0.9,1.3c-0.8,0.9-1.9,1.6-3.1,2c1.2-0.8,1.6-2.4,1.7-3.8c0-0.4,0.1-0.7-0.2-0.9
	c-0.2-0.1-0.8-0.2-1-0.2c-0.8-0.2-1.5-0.4-2.3-0.7c-2.5-1-4.9-2.5-6.6-4.7c-3.2-4.2-2.5-9.6,1.1-13.2c4.3-4.3,11.2-5.5,17-4.1
	c6,1.4,12.3,6.4,10.9,13.2C48.7,41.7,40.9,45,34.6,45z"/>
<g>
	<g>
		<g>
			<circle class="stIconeParcour" cx="58.4" cy="64.8" r="8.9"/>
		</g>
	</g>
	<g>
		<g>
			<path class="stIconeParcour" d="M70.9,100.9c0-0.3,0-0.6,0-0.9V86c0-5.3-4.4-9.7-9.7-9.7h-5.8c-5.3,0-9.7,4.4-9.7,9.7v14.1
				c0,0.3,0,0.6,0,0.9L70.9,100.9L70.9,100.9z"/>
			<g>
				<path class="stIconeParcour" d="M66,77.6v8.9c0,0.2,0.1,0.5,0.1,0.5H71v-1C71,82.4,69,79.3,66,77.6z"/>
			</g>
		</g>
	</g>
</g>
<g>
	<circle class="stIconeParcour" cx="75.5" cy="60.3" r="6.6"/>
</g>
<path class="stIconeParcour" d="M77.6,69h-4.3c-3.7,0-6.8,2.8-7.1,6.4c4,1.8,6.8,5.8,6.8,10.6v1h11.8c0,0,0.2-0.3,0.2-0.5V76.1
	C85,72.1,81.6,69,77.6,69z"/>
</svg>
