<?xml version="1.0" encoding="utf-8"?>
<!-- Generator: Adobe Illustrator 20.0.0, SVG Export Plug-In . SVG Version: 6.00 Build 0)  -->
<svg version="1.1" id="Calque_1" xmlns="http://www.w3.org/2000/svg" xmlns:xlink="http://www.w3.org/1999/xlink" x="0px" y="0px"
	 viewBox="0 0 107.5 107.4" style="enable-background:new 0 0 107.5 107.4;" xml:space="preserve">
<style type="text/css">
	.st0{fill:#FFffff;}
</style>
<g>
	<path class="st0" d="M84.7,54c0,0.3,0.4,0.2,0.5,0.2C85.1,53.8,84.6,54,84.7,54z"/>
	<polygon class="st0" points="83.4,49.3 83.6,49.4 83,48.8 	"/>
	<path class="st0" d="M82.4,45c-0.6,0.6,0.5,1.5,0.5,2.3l-0.1,0.2l0.6,0.2C83.1,46.8,82.4,45.7,82.4,45z"/>
	<path class="st0" d="M83,42.3c-0.2,0.2-0.4-0.4,0.1,0.6c0-0.1,0-0.1,0-0.1C83.1,42.6,83.1,42.5,83,42.3z"/>
	<path class="st0" d="M83.2,42.7C83.4,43.2,83.3,42.3,83.2,42.7L83.2,42.7z"/>
	<path class="st0" d="M82.2,40.7l0.5,0.5c0.1-0.2-0.1-0.7,0.1-0.6C82.3,40,82.2,40.2,82.2,40.7z"/>
	<path class="st0" d="M81.4,40.4l0.2,0.2C81.7,40.5,81.7,40.5,81.4,40.4z"/>
	<path class="st0" d="M82.2,41.2l-0.5-0.5c-0.1,0.1-0.3,0.2,0.2,0.3C81.7,40.9,81.9,41,82.2,41.2z"/>
	<path class="st0" d="M82.2,41.6c0,0.4,0.1,0.8-0.4,0.4C82.4,43,82.8,42.6,82.2,41.6z"/>
	<path class="st0" d="M81.6,45l-0.1,0.5l0.3,0.3C81.7,45.7,81.8,45,81.6,45z"/>
	<path class="st0" d="M80.6,37c-0.1,0-0.2,0.4-0.4,0.5l0.4,0.3C80.6,37.6,80.4,37.1,80.6,37z"/>
	<path class="st0" d="M80.2,37.5L79.6,37C79.9,37.6,80.1,37.7,80.2,37.5z"/>
	<polygon class="st0" points="80.7,40.6 81.6,41.4 80.6,40.4 	"/>
	<polygon class="st0" points="79,34.7 79.6,34.9 78.7,34.6 	"/>
	<path class="st0" d="M77.9,33.4c0.4,0,0.1-0.6,0.5-0.5c-0.4-0.3-0.9-0.5-1.3-0.6C77.4,32.4,77.7,32.8,77.9,33.4z"/>
	<path class="st0" d="M76.4,32c0.2,0.1,0.4,0.2,0.7,0.2C76.9,32.1,76.7,32,76.4,32z"/>
	<path class="st0" d="M79,36.1c0-0.1,0.2-0.3,0-0.7l-0.2,0.5C78.9,35.9,79,36,79,36.1z"/>
	<path class="st0" d="M78.9,35.8L78.9,35.8c-0.2-0.3-0.3-0.4-0.3-0.5C78.6,35.4,78.7,35.6,78.9,35.8z"/>
	<path class="st0" d="M79.1,36.1C79,36.1,79,36.1,79.1,36.1C79,36.1,79,36.1,79.1,36.1z"/>
	<path class="st0" d="M80.2,38.9c-0.4-0.2-1.1-0.8-1,0.1C79.6,39,79.6,38.5,80.2,38.9z"/>
	<path class="st0" d="M78.8,36.7l0.3,0.7c0.1-0.1,0.2-0.3,0.4-0.2C79.5,37.2,78.8,36.7,78.8,36.7z"/>
	<polygon class="st0" points="78.5,36.5 78.8,36.7 78.7,36.4 	"/>
	<path class="st0" d="M77,33.2c-0.4-0.1-0.6-0.4-0.9-0.6c0.2,0.4,0.5,0.7,0.8,1C77,33.6,77.3,33.5,77,33.2z"/>
	<path class="st0" d="M77.9,34.5L77.9,34.5C77.8,34.5,77.8,34.5,77.9,34.5z"/>
	<path class="st0" d="M73.3,29.9V30V29.9z"/>
	<path class="st0" d="M76.8,33.7c0.1,0.3,0.4,0.4,0.6,0.4C77.2,34,77,33.8,76.8,33.7C76.8,33.6,76.7,33.6,76.8,33.7z"/>
	<path class="st0" d="M75.5,31.3c0.1,0.2,0.1,0.4,0.2,0.6C75.7,31.7,75.6,31.3,75.5,31.3z"/>
	<path class="st0" d="M77.9,34.3L77.9,34.3C77.9,34.2,77.9,34.2,77.9,34.3z"/>
	<path class="st0" d="M77.9,34.3c-0.1-0.1-0.3-0.1-0.5-0.2C77.5,34.2,77.7,34.3,77.9,34.3C77.8,34.4,77.8,34.3,77.9,34.3z"/>
	<path class="st0" d="M70.7,31.3c0.3-0.3,1.2-0.1,1.4,0.7c0.7,0.2,1.2-1,1.2-2c-0.1,0.1-0.2,0.2-0.9,0c0.1,0.3,0.9,1.4,0.2,1.3
		c-0.8-0.5-0.5-0.6-0.7-1c0,0.6-1.4-0.1-1.6,0.6l0.8,0.3C70.9,31.2,70.6,31.1,70.7,31.3z"/>
	<path class="st0" d="M74.3,31l0.3,0.2c-0.2-0.3-0.3-0.6-0.4-1.1c-0.5-0.2-0.7-0.1-0.8-0.1l1.1,1H74.3z"/>
	<path class="st0" d="M75.5,32c-0.5,0.1-1.1-0.2-1.1,0.4c0.6,0.6,0.7,0.2,1.2,0.4C74.5,31.9,76,33,75.5,32c0.2,0.2,0.4,0.4,0.6,0.5
		c-0.1-0.2-0.3-0.5-0.4-0.7l0,0l0,0l0,0c0,0.1,0,0.1,0,0l0,0C75.6,32,75.6,32,75.5,32c-0.2-0.4,0-0.1,0.2-0.1c0,0,0,0,0.1,0l0,0
		l-1.2-0.8C74.7,31.4,75,31.6,75.5,32z"/>
	<path class="st0" d="M78.1,38.8C78.1,38.7,78.1,38.7,78.1,38.8C78,38.7,78,38.6,78.1,38.8z"/>
	<path class="st0" d="M78,38.2c0.1,0.1,0.3,0,0.4,0.3c0,0.3-0.2,0.1-0.3,0.2c0.2,0.1,0.6,0.4,0.5-0.2l-0.1-0.1
		c-0.2-0.5-0.1-1.4,0-1.4C78.3,37.4,78.1,37.7,78,38.2z"/>
	<path class="st0" d="M76.8,35.1c0,0-0.2-0.2-0.4-0.4c-0.2-0.2-0.5-0.4-0.5-0.4L76,35l0.2-0.2C76.5,35.4,76.6,35.2,76.8,35.1z"/>
	<path class="st0" d="M73.3,29.6l0.4-0.2c0,0-0.2,0-0.5,0c-0.2,0-0.5,0-0.5,0L73.3,29.6z"/>
	<polygon class="st0" points="72,28.7 72.3,28.5 71.8,28.4 	"/>
	<path class="st0" d="M29.8,68l0.3,0.2C29.9,68.1,29.9,68,29.8,68z"/>
	<path class="st0" d="M28.8,66.1h-0.2C28.7,66.2,28.8,66.2,28.8,66.1z"/>
	<path class="st0" d="M36.2,27.2c-0.6-0.1-1.4-0.2-1.1,0.1l0.4,0.3C35.7,27.4,36,27.3,36.2,27.2z"/>
	<path class="st0" d="M24.3,48.5l0.1-0.1c-0.1-0.1-0.2-0.3-0.3-0.4C24.2,48.2,24.2,48.3,24.3,48.5z"/>
	<path class="st0" d="M26,49.2l-0.4,0.5C25.8,49.6,25.9,49.4,26,49.2z"/>
	<path class="st0" d="M38,76.1c0,0,0.1,0,0.3-0.1c0.1,0,0.3-0.1,0.3-0.1C38.1,75.6,38.2,76,38,76.1z"/>
	<path class="st0" d="M57.5,22.9c-0.4-0.2-0.8-0.4-1.1-0.4C56.9,22.8,57.3,23.2,57.5,22.9z"/>
	<path class="st0" d="M25.3,69.5c0.2,0.1,0.3,0.2,0.4,0.1C25.5,69.5,25.4,69.4,25.3,69.5z"/>
	<path class="st0" d="M55.2,22.4c0.1,0,0.1,0.1,0.2,0.1c0.3,0,0.7-0.1,1,0C56.1,22.2,55.6,22.1,55.2,22.4z"/>
	<path class="st0" d="M75.3,69.3C75.3,69.3,75.3,69.2,75.3,69.3C75.3,69.2,75.3,69.2,75.3,69.3z"/>
	<path class="st0" d="M83.9,58.4c0,0.1,0,0.4-0.1,0.6C83.9,58.9,83.9,58.7,83.9,58.4z"/>
	<path class="st0" d="M66.8,25.3C67.1,25.5,66.9,25.3,66.8,25.3L66.8,25.3z"/>
	<path class="st0" d="M67.4,27.6c-0.1,0-0.2,0-0.2,0.1C67.3,27.6,67.4,27.6,67.4,27.6z"/>
	<path class="st0" d="M52,25L52,25C52,25.1,52,25.1,52,25z"/>
	<path class="st0" d="M67.1,25.7c-0.1-0.1-0.2-0.2-0.3-0.3C66.9,25.5,67,25.6,67.1,25.7z"/>
	<path class="st0" d="M67.2,25.5c0.1,0.1,0.2,0.1,0.2,0.2C67.5,25.6,67.5,25.6,67.2,25.5z"/>
	<path class="st0" d="M66.4,25.2c0.2,0.1,0.3,0.2,0.5,0.3c0-0.1-0.1-0.1,0-0.1C66.7,25.3,66.6,25.3,66.4,25.2z"/>
	<path class="st0" d="M56.7,82L56.7,82C57,81.8,56.9,81.9,56.7,82z"/>
	<path class="st0" d="M33,35.7L33,35.7L33,35.7L33,35.7z"/>
	<path class="st0" d="M32.5,36.7c-0.1-0.7,0.1-0.8,0.4-1l-1.2-0.6c0,0,0.2,0.4,0.4,0.8C32.3,36.3,32.5,36.7,32.5,36.7z"/>
	<path class="st0" d="M32.9,72l-0.2-0.8c1,0.2,1.3,0.8,1.3-0.1c-0.5,0.4-1,0-1.5-0.5c-0.4-0.5-0.8-1-1.4-0.7v-0.5
		c0.1,0.1,0.1,0.1,0.2,0.2c0-1.1-1.2,0-1.7-1.1c-0.1-0.4-0.1-0.7,0.2-0.6L29,67.4c-0.1-0.2,0.1-0.3,0.2-0.1c0,0,0-0.1-0.1-0.2
		s-0.2-0.3-0.2-0.4c-0.2-0.3-0.3-0.6-0.3-0.6l0,0c-0.3-0.1-0.8-0.4-1-0.5c0-0.4,0.2,0.1,0.3,0c0,0-0.7-0.6-0.6-0.6
		c0.1-0.2,0.3-0.2,0.5-0.1s0.4,0.4,0.5,0.6c0.5-0.6,0.3-0.7,0.1-0.9c-0.2-0.2-0.6-0.4-0.5-1.3l0.4,0.6c0.6-0.7,0.1-1.1,0.3-2
		c-0.2,0.2-0.6,1.9-1.2,1.2c0-0.3-0.1-0.6-0.5-0.9c0.5-0.1,0.2-0.5,0.1-1l0.6-0.1c-0.3-0.5-0.6-0.4-1-0.7c-0.1-0.7,0.3-0.9,0.7-1.1
		c-0.1-1-0.7,0.9-1-0.3c0.1-0.9-0.3-1.4-0.7-2.5c0.2-0.6,0.4,0.1,0.6-0.2l-0.5-0.5c0-0.1,0.2-0.1,0.2-0.1c-0.2-0.5-0.6,0-0.9-0.7
		c-0.3-0.1-0.1-0.5,0.1-1c0.3-0.5,0.5-1,0.2-1.5c0.2-0.2,0.4,0.1,0.6,0.1c-0.5-1.3-0.4-1.1-0.9-2.2l0.5-0.8c-0.6,0.6-1-0.3-1.4-1.2
		c-0.3,0.2-0.5,0.4-0.6,0.5c0,0,0-0.3-0.1-0.6c0-0.3,0-0.6,0-0.6c0.1-0.1,0.3,0,0.5,0.3c0-0.1-0.1-0.2-0.1-0.3
		c0.3-0.4,0.6-0.1,0.9,0.3c-0.2,0.1-0.3,0.2-0.5,0.3c0.3,0.4,0.7,0.7,1.1,0.7c-0.1-0.1-0.1-0.2-0.1-0.4c0.1,0.1,0.2,0.2,0.2,0.1
		c0.1,0-0.1-0.2-0.2-0.4l0.8-0.1v0l0.8-1.3c-0.1-0.3-0.2-0.6-0.4-0.9c-0.1-0.3-0.2-0.6-0.3-1c-0.2-0.7-0.3-1.5,0-2.4
		c0.3,0.6,0.7,0.4,1.3,0.7c-0.8,0.2-0.2,1.4-0.6,2.1c0.2-0.4,0.5-0.2,0.5-0.1v-1.7c0.5,0.2,0.5-0.2,0.8-0.4C27,43.1,28,41.9,28,41.1
		c0.3,0.1,0.6,0.4,0.1,1.1c1-0.4-0.6-1.6,0.4-2c-0.1,0.2-0.2,0.2-0.1,0.4c0-0.5,0.8-1.4,0.9-1l-0.1,0.2c0.2-0.3,0.4-0.6,0.6-1
		s0.5-0.7,0.7-1.1c0.4-0.7,0.6-1.5,0.4-1.8c0.1,0.1,0.7,0.8,0.8,1c0,0-0.1-0.2-0.1-0.6c-0.1-0.3-0.1-0.8-0.2-1.2
		c-0.1-0.9-0.2-1.9-0.2-1.9c0.4,0.7,2.2,1.3,1.8,2.4c0.3-0.1,0.6-0.4,0.9-1c-0.2,0.1-1.1-0.4-1-0.6c1.2,0.1,0.7-0.1,1.9-0.2
		c-0.3,0.1-0.8-1-0.4-1.3c0.1,0.2,0.8,0.8,0.7,1c0,0,0-0.4,0.1-0.8c0.1-0.4,0.1-0.8,0.1-0.8c-0.1,0.3,0.6,0.8,1,0.9
		c-0.2-0.1,0.8-0.6,1-0.9L36.7,32c1.2-0.7,0.2-2.1,1.5-2.8c0,0.3,0.4,1.4,1,1.2c0-0.3-0.1-1.1,0.1-1.9c0.1-0.8,0.4-1.7,0.9-2.2
		l0.4,0.2c0,0,0.2-0.2,0.4-0.4c0.2-0.2,0.4-0.4,0.4-0.4c-0.2,0.5-0.4,1.4-0.7,2.2c-0.3,0.9-0.6,1.7-0.8,2.2c0.6,0,0.3,0.3,1-0.1
		c0.4,0.2-0.2,0.6-0.3,0.7l1.6-0.6c-0.2-0.3,0.1-0.6,0.3-0.9c0.3-0.3,0.5-0.5,0.4-0.8c0,0-0.1,0.1-0.2,0.2c-0.1,0.1-0.3,0.3-0.5,0.5
		c-0.4,0.4-0.7,0.7-0.7,0.7c-0.4-0.5,0.2-2.3,1.5-2.6c0.4,0.1,0.2,1.2,0.3,1.4c0.1-0.3,1-0.8,1.1-0.7L44,28.4c0.7,0,0.8-1.3,1.8-0.8
		c0.3,0,1,0.6,1,0.2c-0.6-0.6-1.3-2.9-1.1-3.5c0.1,0,1.8,0.3,2.2,0.7c0.6,0.5-0.5,1.5,0,2c0-0.2,0.2-0.4,0.3-0.5
		c0.3,0.1,0,0.6,0.6,0.4c0-0.7,1.4-0.2,0.2-0.6c0.6-0.3,0.7,0,1.5-0.1c-0.3-0.4,0.6-1.5,1.3-1.8c0,0.2,0.1,0.4,0.2,0.5
		c0.4,0,0.7,0,1,0s0.6,0.1,0.8,0.2c0.5,0.1,1,0.2,1.7,0.3c0.1,0.2,0.7,0.4,0.4,0.7c0.2-0.1,0.4-0.3,0.8-0.3c0.7,0.7-0.9,0-0.4,0.7
		c0.1-0.4,1.1-0.4,1.7-0.5c-0.1-0.6-1.3-0.3-1.9-0.2c0.1-0.8,1.2-1.6,2.7-1.7c1.2,0,0.4,0.6,0.6,0.5c1,0.3,1.5,0.1,2-0.1
		s0.9-0.4,1.7,0.3c0.5,0.8-0.3,1-0.3,1.4c-0.5-0.1-0.8-0.3-1-0.5c-0.3-0.2-0.5-0.4-0.8-0.4l0.7,0.4c-0.3,0.1-0.9,0.1-1.2-0.2
		c0.4,0.6,3.3,1.1,4.6,2.2c0.3,0,0.8,0,0.7-0.3l-0.5-0.2c-0.2-0.6,1.1-0.1,0.6-0.6c0.4,0,0.8,0,1.2,0.1c0.4,0.1,0.9,0.2,1.2,0.6
		l-0.1,0.6c0.1-0.2-0.4-0.7-0.7-0.6c0.5,0,0.9,1.5,1.7,1l-0.4-0.7c0.8,0.1,1.9,0,2.5,0.7c0-0.7-0.2-0.1-0.3-1c0,1-2-1.3-1.7,0
		c-0.2-1-0.8-0.9-1.2-1.9c-0.1,0.2,0.1,0.5-0.5,0.1c-0.1,0-0.2,0.1-0.2,0.1l0,0l0,0l0,0c0.1,0.2,0.2,0.3,0.2,0.4
		c-0.6,0.2-1.6-0.3-2.1-0.2c-0.4-0.3,0.3-0.1,0.1-0.4c0,0-0.2,0-0.3,0c-0.2,0-0.4,0.1-0.4,0.1c0.1-0.4-0.9-1.1,0.3-1l-0.9-0.4
		c-0.4-0.4-1.2-0.8-1.7-0.8c-0.4-0.2-1.3,0.2-0.8-0.1l-1.5-0.1V23c-0.7-0.2-1.5-0.1-2.3-0.2c-0.8,0-1.6-0.2-2.4-0.6
		c-0.5,0.1-1,0.2-1.9,0l-0.2-0.4c-0.6,0.1-2-0.3-2.2,0.1c-0.4-0.5-1.2-0.6-2-0.4S47.6,22,47,22l0.1,0.5c-0.8,0.1-1.5,0.5-2.4,0.9
		l0.2,0.4c-0.7,0.5-2.1,0.3-3.3,0.8c0-0.2,0.4-0.3,0.6-0.2c-0.5-0.1-0.9,0-1.3,0.1c-0.4,0.2-0.7,0.5-1,0.7c-0.6,0.6-1.2,1.1-2,1.1
		c-0.2,0.3-0.5,0.4-0.7,0.4c0,0,0,0,0.1-0.1c0,0-0.1,0-0.1,0.1c-0.2,0-0.4,0-0.5,0.1c0.2,0,0.4,0,0.5,0c-0.2,0.2-0.6,0.4-0.8,0.7
		L36,27.2c0,0,0,0-0.1,0.1c-0.4,0.1-0.1,0.4,0.2,0.5c-0.1,0.2-0.2,0.4-0.3,0.5c-0.7-0.4-0.7,0.8-1.5,0.4c0,0.2-0.3,0.6-0.7,1
		c-0.3,0.4-0.5,0.9-0.3,1.3c-0.1-0.1-0.2,0-0.1-0.2c-0.4,0.2-0.8,0.5-0.9,0.9l-0.6-0.3c0,0,0,0.3-0.1,0.6c0,0.3,0,0.6,0,0.6
		c-0.7,0.2-1,0.2-0.9-0.6c-0.4,1.5-0.6,1-0.8,2.4l-0.3-0.3c-0.2,0.4-0.2,1.2-0.6,1.2c-1.3,0.3-2.7,3.8-4.3,5.8
		c0.6,0,0.4,0.2,0.1,0.5s-0.6,0.6-0.2,0.8c-0.3,0-0.6,0.3-0.7-0.2c-0.2,1.3-1.1,1.7-0.6,2.8c-0.3,0.1-0.3-0.4-0.5-0.3
		c0,0.1,0.1,0.5-0.1,0.6s-0.2-0.2-0.2-0.5c-0.3,1.3,0.5,1.6,1.3,1.9c-0.5,0.5-0.6,0.9-0.1,1.4c-0.3,0.2-0.6,0.5-0.6-0.3
		c-0.1,0.4-0.8,2.7-0.1,2.8c-0.2,0.1-0.1,0.6,0,0.7c-0.1,1-0.2,1.1-0.1,2.1l0.1-0.3c0.7,0.4,0.2,0.8,0.3,1.6h-0.1
		c-0.4,1.8,0.2,0.8-0.2,2.6l0.5-0.2c1,0-0.4,1.6,0.2,2.6l0.2-0.4c0.4,0.5-1,1.8-1,2.5c-0.1,0.1-0.2-0.2-0.3-0.3
		c-0.2,1.7,0.7,0,1.1,1.1c-0.3,0.3-0.9,0-0.7,0.8c-0.1,0.5,1.8,1.8,1.6,2.9c0.1-0.3,0.3-0.6,0.7-0.2c0.4,0.7,0,2.4,1.1,2.7
		c0,0.1,0,0.2-0.1,0.2c0.5,0.4,1.3,1.5,1.9,1.6c-0.5,0.7,0.2,1.4,0.9,1.9c0.7,0.6,1.4,1,0.8,1.5l1.3,1.3L30.5,76
		c0.8,1,1.4,0.9,1.9,1c0.1,0.3-0.1,0.2-0.2,0.3c1.1,1.4,1.4,1.4,3,1.7L35,79.5c0.2,0,0.6,0.6,1.2,1.1c0.6,0.5,1.4,1.2,2.3,1.3
		c0,0-0.1,0.1-0.3,0.1c1,0.2,1.9,1,2.8,1.6c0.9,0.5,1.7,0.9,2.3,0.1l1.3-0.1c-1.5-0.5,0.4-0.7-0.1-1.1c0.6,0.1,1.4,0.9,0.7,0.8
		l-0.1-0.1C44.6,84,47,84,46.8,84.6c3.2,0.6,6.4,1.2,9.5,0.9L56,84.8l1.1-0.1c0.3,0.1,0.5,0.5-0.3,0.6c0.5,0.4,1.2-0.5,1.2-0.7
		c1.5,0.1-0.4,0.9,0,0.9l0.6-0.2l-0.2-0.1c0.4-0.4,0.4-0.6,1.3-0.8c0.6,0,0.4,0.4,0.6,0.3c0,0.1,0.1,0.1,0.3-0.1l1.3-0.3L61.4,84
		c0.5-0.4,1.2-0.3,0.4-0.8c0.6,0.4,1.8,0,2.9-0.4c1.1-0.5,2.1-1.1,2.4-1.1c0.6-0.7,1.2-1.2,2.1-1.6c-0.3,0-0.7-0.4,0-0.8
		c0.2,0.6,0.7,0.6,1.1,0.3c0.5-0.2,1-0.6,1.6-0.4c-0.5-0.1,0-0.5,0.4-0.9s0.7-0.9,0.1-0.9c0.6-0.4,0.4,0.4,1,0.2
		c0.5-0.8,1.3-1.3,2-2c0.8-0.7,1.7-1.3,2.2-2.3c-0.1-0.1-0.5,0-0.5-0.5l1.4-0.4c0.2-0.4-0.6-0.9,0.3-1.2c-0.2,0-0.5,0-0.4-0.2
		c1.5-1.5,2.4-3.6,3.1-5.6c0.3-1,0.7-2,1-3.1c0.2-0.5,0.4-1,0.6-1.5c0.3-0.5,0.4-1,0.7-1.5c-0.4,0.5-0.4,0.1-0.3-0.3
		c-0.1,0.3-0.4-0.1-0.7-0.1c0,0,0.2-0.4,0.5-0.8c0.1-0.2,0.2-0.4,0.3-0.6c0.1-0.2,0.1-0.3,0.1-0.3c-0.6-0.4,0.1-1.9-0.6-2.1l0.1,0.6
		c-0.7-0.8-1.7,0.9-2.7,0.7c0.2,0.2,0.2,0.4,0.1,0.7c-0.1,0.2-0.3,0.5-0.5,0.8c-0.4,0.5-0.7,1.1-0.2,1.8c-0.2,0.2-0.3-0.3-0.5-0.2
		c0.4,0.4,0.3,0.8,0,1.4l-0.1-0.1c-0.4,2-1.1,2.6-2.1,4.5h0.5c-0.3,0.4-0.4,0.4-0.6,0.6c0.4,0.8,0.6-1.2,1.1-0.4
		c-0.6,0.1-0.9,0.8-1.3,1.6c-0.4,0.7-0.9,1.4-1.4,1.3c-0.4,0.6,0.6,0.1,0.2,0.7h-0.3l0.2,0.4c-0.3,0.4-0.8,0.3-1,0.2
		c0.1-0.1,0.1-0.3,0.2-0.4c-0.7,0.3-0.9,1.4-1.1,1.5l0.6-0.4c-0.2,0.4-0.5,0.9-0.8,1.3c-0.4,0.4-0.7,0.8-1.1,1.2l-0.5,0.6
		c-0.2,0.2-0.4,0.4-0.6,0.6c-0.4,0.4-0.7,0.8-0.9,1.2l0.3,0.1c-0.9,1.3-1.1,0.5-2.3,1.7V77c-0.1,0.4-0.4,0.7-0.8,0.9
		c0.2-0.4-0.9,0-0.6-0.6c-1.1,1.2-0.5,0.7-1,2l-0.4-0.2c-0.2,0.5-0.1,0.6-0.8,1.1c0.5-0.6-0.7-0.3-0.2-1c-0.5,0-0.8,0.1-1.1,0.3
		c-0.3,0.1-0.5,0.3-0.7,0.5c-0.4,0.3-0.8,0.6-1.3,0.1c-0.4,1.2,1.6,0,1.2,0.4c0.5,0.2-0.4,0.9-0.9,1c-0.5,0.2-1.3-1-2.6-0.6
		c0.1,0,0.1-0.1,0.3-0.1c-0.5-0.1-0.9,0.6-1.6,0.3c-0.2,0.7-0.8,0.1-0.8,0.9l1.2-0.4c-0.7,0.3-1.2,1.3-2.5,1.1
		c0.1-0.2,0.4-0.4,0.6-0.6c-0.4-0.2-0.6,0.3-1,0.1c0-0.8,1.5-0.4,2.1-1.1c-0.4-0.3-1.3,0.8-1.1-0.1c-0.2,0.6-0.5,0.6-0.9,0.6
		s-0.8-0.1-1.2,0.3v-0.5c-0.1,0.1-0.4,0.3-0.7,0.3l0.5-0.6c-0.7,0.6-1.4-0.4-2.1-0.1c1.5,0.1,0.3,0.6,0.9,0.9c-1.9,0.6-1-1.3-3-1.2
		c0.3,0,1,0.3,0.5,0.5c-0.4-0.1-0.9-0.4-1.1-0.6c-1.3-0.1,0.1,0.5-0.5,0.7c-0.4-0.6-0.7,0.1-1.3,0.2L48,81c-1.4-0.6-0.6,0.9-1.9,0.2
		l0.7-0.5h-0.7l0.3-0.5c-0.8,0.2-1.1,0.1-1.8-0.3c0.1,0.4-0.4,0.8-1,0.6c-0.3-0.4,0.4-0.3-0.5-0.6c0.3-0.2,0.7-0.5,0.9,0.1
		c0.1-0.1,0.3-0.2,0.4-0.3C44,79,43.2,79,42.8,78.9c0.1,0.1,0.3,0.1,0.3,0.2c0,0-0.4,0-0.8,0.1c-0.4,0-0.8,0-0.8,0
		c-0.1-0.3,0.1-0.3,0.3-0.4c-0.3-0.1-0.5,0-0.9-0.1c0.3-0.3,0.4-0.7,1-0.6L40.6,78c0-0.2-0.4-0.7-0.2-0.8c-0.5-0.6-1.9-0.2-2.5-1
		c-0.1,0-0.2,0-0.4,0c-0.3-0.3-0.6-0.7-0.9-1c-0.3-0.3-0.7-0.6-1.3-0.8v-0.9c-0.7-0.4,0,1.2-1.2,0.5c-0.9-0.5,0.1-0.7,0-1.1
		c-0.6-0.1-1.7-0.3-1.9-1.3C32.6,71.6,32.7,71.9,32.9,72z M27.4,63.2c0.2,0.2,0.6,0.4,0.4,0.7C27.2,63.9,27.3,63.6,27.4,63.2z
		 M25.6,47.1c0.1,0.2,0,0.4-0.3,0.6C25.4,47.5,25.4,47.3,25.6,47.1z M63.3,24.3L63.3,24.3C62.8,24,63,24.1,63.3,24.3z M64.3,24.9
		c0.1,0,0.1-0.1,0.1-0.2c-0.1,0.1-0.4,0-0.6-0.1C63.8,24.8,63.9,24.9,64.3,24.9z M60.5,84.6l-0.2-0.1C60.7,84.3,60.6,84.4,60.5,84.6
		z"/>
	<path class="st0" d="M25.8,49.1c-0.1,0-0.2,0-0.3,0C25.6,49.2,25.7,49.2,25.8,49.1z"/>
	<path class="st0" d="M37.9,76.1L37.9,76.1C38,76.2,38,76.1,37.9,76.1L37.9,76.1z"/>
	<path class="st0" d="M48.3,27.3c-0.2,0-0.3-0.1-0.4-0.2C47.8,27.3,47.9,27.3,48.3,27.3z"/>
	<path class="st0" d="M69.9,26.8l-0.7-0.3c0.3,0.2,0.4,0.3,0.5,0.5C69.7,26.9,69.7,26.7,69.9,26.8z"/>
	<path class="st0" d="M72.9,32.8c0.1,0,0.2,0.1,0.3,0.2l0.1-0.2C72.9,32.5,72.6,32.4,72.9,32.8z"/>
	<path class="st0" d="M69.6,28.5c-0.2,0.4,0.3,0.4,0.7,0.7c0,0,0,0-0.1-0.1C70.7,28.7,70.2,28.6,69.6,28.5z"/>
	<path class="st0" d="M70.4,29.2c0.1,0.1,0.3,0.2,0.4,0.3C70.9,29.3,70.6,29.3,70.4,29.2z"/>
	<path class="st0" d="M65.7,25.2c0.2,0.2,0.3-0.4,0.4-0.2C66.5,24.6,64.4,24.9,65.7,25.2z"/>
	<polygon class="st0" points="69.2,29.8 69.3,29.3 68.9,29.5 	"/>
	<path class="st0" d="M66.2,27.7l0.6,0.4c0-0.1,0.1-0.1,0.3-0.1C66.7,27.9,66.3,27.5,66.2,27.7z"/>
	<path class="st0" d="M67.1,28.1c0.2,0.1,0.4,0.2,0.6,0.2C67.5,28.2,67.3,28.1,67.1,28.1z"/>
	<polygon class="st0" points="68.3,29.4 68.1,29.2 67.7,28.9 	"/>
	<path class="st0" d="M58.7,25h-0.8c-0.1,0.2,0.1,0.3,0.4,0.3C58.5,25.2,58.8,25.2,58.7,25z"/>
	<path class="st0" d="M60.7,26.9c-0.2-0.2-0.2-0.3-0.2-0.5L60.3,27L60.7,26.9z"/>
	<path class="st0" d="M58.5,26.5c-0.1,0.2-1.2,0.3-0.2,0.4C58.4,26.8,59.2,26.8,58.5,26.5z"/>
	<polygon class="st0" points="46.8,25.9 46.9,25.8 46.7,24.8 	"/>
	<path class="st0" d="M38.4,32c0.9-0.2-0.2-0.6,0.7-0.8c0.1-0.3-0.7,0.1-0.6-0.2C38.2,31.5,37.8,31.5,38.4,32z"/>
	<path class="st0" d="M38.5,31c0.1-0.1,0.1-0.2,0.2-0.3C38.5,30.9,38.5,31,38.5,31z"/>
	<polygon class="st0" points="84.7,56.1 84.9,55.4 84.6,55.8 	"/>
	<path class="st0" d="M84,54.8l0.7-0.1l-0.6-0.4C84.1,54.4,84.1,54.7,84,54.8z"/>
	<path class="st0" d="M28.1,61.4h-0.2c-0.1,0.1-0.1,0.3-0.1,0.5L28.1,61.4z"/>
	<polygon class="st0" points="30.7,68.2 30.6,68.1 30.3,68.6 	"/>
	<path class="st0" d="M35.1,72.6c-0.2-0.2-0.5-0.3-0.6-0.5C34.9,72.4,34.7,73.1,35.1,72.6z"/>
</g>
<g>
	<path class="st0" d="M99.5,53.9c0,0.4,0.4,0.3,0.5,0.3C99.8,53.5,99.4,53.9,99.5,53.9z"/>
	<polygon class="st0" points="97.9,47 98.1,47.1 97.5,46.1 	"/>
	<path class="st0" d="M96.5,40.6c-0.5,0.8,0.7,2.2,0.8,3.4l-0.1,0.2l0.7,0.4C97.3,43.3,96.5,41.6,96.5,40.6z"/>
	<path class="st0" d="M96.7,36.8c-0.2,0.3-0.5-0.6,0.2,0.8c0-0.1,0-0.1,0-0.2C96.9,37.3,96.8,37.1,96.7,36.8z"/>
	<path class="st0" d="M96.9,37.4C97.2,38.1,97,36.9,96.9,37.4L96.9,37.4z"/>
	<path class="st0" d="M95.5,34.5l0.6,0.7c0.1-0.2-0.3-1,0-0.8C95.6,33.6,95.5,33.9,95.5,34.5z"/>
	<path class="st0" d="M94.6,33.9l0.3,0.4C95,34.2,94.9,34.1,94.6,33.9z"/>
	<path class="st0" d="M95.6,35.1L95,34.3c0,0.2-0.3,0.3,0.3,0.4C95,34.7,95.3,34.8,95.6,35.1z"/>
	<path class="st0" d="M95.7,35.7c0.1,0.5,0.2,1.2-0.3,0.4c0.4,0.8,0.6,1.1,0.7,1C96.2,37,96.2,36.5,95.7,35.7z"/>
	<path class="st0" d="M95.6,40.5c0,0,0,0.2,0,0.3c0,0.2,0,0.4,0,0.4l0.4,0.5c-0.1-0.1-0.1-0.4-0.2-0.7
		C95.8,40.7,95.7,40.5,95.6,40.5z"/>
	<path class="st0" d="M93,29.2c-0.2,0-0.2,0.5-0.3,0.6l0.5,0.5C93.1,30,92.9,29.4,93,29.2z"/>
	<path class="st0" d="M92.7,29.8L92,29.1C92.4,29.9,92.6,30,92.7,29.8z"/>
	<polygon class="st0" points="93.9,34.1 95.1,35.4 93.7,33.8 	"/>
	<polygon class="st0" points="90.8,25.9 91.4,26.2 90.4,25.7 	"/>
	<path class="st0" d="M89.2,23.9c0.5,0.1,0-0.8,0.4-0.5c-0.5-0.5-1.1-0.8-1.7-1.1C88.4,22.7,88.8,23.1,89.2,23.9z"/>
	<path class="st0" d="M87.1,21.8c0.2,0.2,0.5,0.3,0.9,0.5C87.7,22.1,87.4,22,87.1,21.8z"/>
	<path class="st0" d="M91.1,27.6c0-0.1,0.1-0.4-0.1-0.9l-0.1,0.6C90.9,27.4,91,27.5,91.1,27.6z"/>
	<path class="st0" d="M90.8,27.3L90.8,27.3c-0.2-0.4-0.4-0.6-0.5-0.7C90.4,26.7,90.6,26.9,90.8,27.3z"/>
	<path class="st0" d="M91.1,27.7L91.1,27.7L91.1,27.7z"/>
	<path class="st0" d="M93,31.6c-0.5-0.4-1.4-1.3-1.1-0.1C92.4,31.7,92.2,31,93,31.6z"/>
	<path class="st0" d="M91,28.4l0.5,1c0.1-0.1,0.1-0.3,0.4-0.1C91.9,29.2,91,28.4,91,28.4z"/>
	<polygon class="st0" points="90.6,28.1 91,28.4 90.8,28.1 	"/>
	<path class="st0" d="M88,23.5c-0.5-0.2-0.8-0.6-1.2-1c0.4,0.5,0.8,1,1.2,1.5C88.1,23.9,88.5,24,88,23.5z"/>
	<path class="st0" d="M89.4,25.3L89.4,25.3C89.3,25.3,89.4,25.4,89.4,25.3z"/>
	<polygon class="st0" points="82.7,18.6 82.7,18.7 82.8,18.7 	"/>
	<path class="st0" d="M88,24.1c0.2,0.4,0.5,0.5,0.8,0.6c-0.3-0.2-0.5-0.5-0.8-0.8C87.9,24,87.9,24,88,24.1z"/>
	<path class="st0" d="M85.8,20.8c0.1,0.2,0.3,0.5,0.4,0.7C86.2,21.3,86,20.8,85.8,20.8z"/>
	<path class="st0" d="M89.3,25.1L89.3,25.1C89.4,24.9,89.3,25,89.3,25.1z"/>
	<path class="st0" d="M89.3,25.1c-0.2-0.2-0.4-0.2-0.6-0.3c0.2,0.2,0.4,0.4,0.6,0.5C89.3,25.2,89.3,25.1,89.3,25.1z"/>
	<path class="st0" d="M79.6,19.7c0.3-0.3,1.5,0.1,1.9,1.1c0.9,0.4,1.3-1,1.1-2.1c-0.1,0.1-0.2,0.2-1.2-0.2c0.2,0.4,1.4,1.9,0.6,1.6
		c-0.6-0.4-0.8-0.6-0.9-0.8c-0.1-0.2-0.1-0.4-0.3-0.6c0.1,0.7-1.8-0.5-2,0.3l1.1,0.5C79.9,19.5,79.5,19.4,79.6,19.7z"/>
	<path class="st0" d="M84.2,20.1l0.4,0.3c-0.3-0.4-0.5-0.7-0.8-1.4c-0.7-0.4-0.9-0.3-1-0.3l1.6,1.5L84.2,20.1z"/>
	<path class="st0" d="M86,21.7c-0.5,0-1.4-0.5-1.3,0.2c0.9,0.9,0.9,0.4,1.5,0.8C84.8,21.3,86.8,23,86,21.7c0.3,0.3,0.6,0.6,0.8,0.8
		c-0.2-0.3-0.4-0.6-0.6-0.9c0,0,0,0,0,0.1l0,0l0,0c0,0.1,0,0.1,0,0.1l0,0C86.1,21.7,86,21.7,86,21.7c-0.3-0.5,0-0.2,0.2,0
		c0,0,0,0,0.1,0l0,0l-1.7-1.3C84.8,20.7,85.3,21,86,21.7z"/>
	<path class="st0" d="M90.6,31.1c0-0.1,0-0.1,0.1-0.1C90.5,30.9,90.5,30.9,90.6,31.1z"/>
	<path class="st0" d="M90.4,30.2c0.1,0.1,0.3,0.1,0.5,0.5c0.1,0.4-0.2,0.1-0.3,0.2c0.2,0.2,0.8,0.7,0.5-0.2H91
		c-0.3-0.8-0.4-2-0.3-1.9C90.5,29.2,90.4,29.6,90.4,30.2z"/>
	<path class="st0" d="M88.3,25.9c0,0-0.1-0.1-0.2-0.2s-0.3-0.3-0.4-0.4C87.4,25,87,24.8,87,24.8l0.3,0.9l0.1-0.2
		C88,26.2,88.1,25.9,88.3,25.9z"/>
	<path class="st0" d="M82.7,18.3l0.5-0.2L82,18L82.7,18.3z"/>
	<polygon class="st0" points="80.8,17 81.1,16.7 80.5,16.5 	"/>
	<path class="st0" d="M17.1,75.5l0.3,0.3C17.3,75.6,17.2,75.5,17.1,75.5z"/>
	<path class="st0" d="M15.6,72.5h-0.2C15.5,72.6,15.6,72.7,15.6,72.5z"/>
	<path class="st0" d="M28.5,14.7c-0.8,0.1-1.9,0-1.5,0.4l0.4,0.2C27.8,15,28.2,14.8,28.5,14.7z"/>
	<path class="st0" d="M9.9,45.6c0.1-0.1,0.1-0.1,0.2-0.2C10,45.2,9.9,45,9.8,44.9C9.8,45.1,9.8,45.3,9.9,45.6z"/>
	<path class="st0" d="M11.6,46.4l-0.4,0.8C11.3,47.1,11.4,46.8,11.6,46.4z"/>
	<path class="st0" d="M29.7,88.3c0,0,0.2,0,0.3,0c0.2,0,0.3,0,0.3,0C29.7,87.7,29.9,88.1,29.7,88.3z"/>
	<path class="st0" d="M59.6,8.3C59,8.1,58.5,7.9,58,7.8C58.8,8.2,59.3,8.7,59.6,8.3z"/>
	<path class="st0" d="M12.4,76.6c0.2,0.2,0.4,0.3,0.5,0.2C12.7,76.6,12.5,76.5,12.4,76.6z"/>
	<path class="st0" d="M56.2,7.7c0.1,0,0.2,0.1,0.3,0.1c0.5,0,1-0.1,1.5,0C57.5,7.6,56.8,7.5,56.2,7.7z"/>
	<path class="st0" d="M87.5,77.5L87.5,77.5C87.5,77.4,87.5,77.4,87.5,77.5z"/>
	<path class="st0" d="M98.5,60.4c0,0.2-0.1,0.5-0.1,0.9C98.4,61.1,98.5,60.8,98.5,60.4z"/>
	<path class="st0" d="M73.1,12.1C73.6,12.3,73.2,12.1,73.1,12.1L73.1,12.1z"/>
	<path class="st0" d="M74.4,14.6c-0.1,0-0.2,0-0.3,0.1C74.2,14.6,74.3,14.6,74.4,14.6z"/>
	<path class="st0" d="M51.5,10.3C51.5,10.3,51.4,10.3,51.5,10.3C51.6,10.4,51.5,10.4,51.5,10.3z"/>
	<path class="st0" d="M73.7,12.6c-0.1-0.1-0.3-0.3-0.5-0.4C73.3,12.3,73.4,12.4,73.7,12.6z"/>
	<path class="st0" d="M73.7,12.3c0.1,0.1,0.3,0.2,0.4,0.2C74.1,12.5,74.1,12.5,73.7,12.3z"/>
	<path class="st0" d="M72.5,11.8c0.3,0.1,0.5,0.2,0.7,0.4c-0.1-0.1-0.1-0.1-0.1-0.1C73,12,72.8,11.9,72.5,11.8z"/>
	<path class="st0" d="M58.6,96.6C58.6,96.6,58.7,96.6,58.6,96.6C59.1,96.4,58.9,96.4,58.6,96.6z"/>
	<path class="st0" d="M22.2,25.7L22.2,25.7C22.2,25.6,22.2,25.7,22.2,25.7L22.2,25.7z"/>
	<path class="st0" d="M21.4,27.1c0-0.8,0.3-1.1,0.8-1.4l-1.3-0.5c0,0,0.1,0.5,0.2,0.9C21.3,26.6,21.4,27.1,21.4,27.1z"/>
	<path class="st0" d="M21.9,81.8l-0.4-1.1c1.4,0.5,1.8,1.4,1.5,0.3c-0.5,0.4-1.3-0.3-2-1.1c-0.6-0.8-1.3-1.6-1.9-1.3L19,77.9
		c0.1,0.2,0.2,0.2,0.3,0.3c-0.3-1.5-1.4-0.3-2.2-1.9c-0.2-0.6-0.3-1.1,0.1-0.8l-1-1c-0.2-0.4,0.1-0.4,0.3,0c0,0-0.1-0.1-0.2-0.3
		c-0.1-0.2-0.2-0.4-0.3-0.6c-0.3-0.5-0.5-0.9-0.5-0.9l0,0c-0.3-0.2-0.9-0.7-1.2-0.9c-0.1-0.6,0.3,0.2,0.3,0c0,0-0.8-0.9-0.8-1
		c0.1-0.3,0.3-0.2,0.5,0s0.5,0.6,0.7,1c0.4-0.8,0.2-0.9-0.1-1.3c-0.3-0.3-0.7-0.8-0.7-2l0.5,1c0.5-0.9-0.1-1.6,0-2.9
		c-0.1,0.3-0.3,2.7-1,1.6c0-0.4-0.2-0.8-0.6-1.4c0.5-0.1,0.2-0.8-0.1-1.6l0.6-0.1c-0.4-0.8-0.7-0.7-1.1-1.1c-0.2-1,0.2-1.3,0.6-1.6
		c-0.1-1.6-0.6,1.3-1-0.6c0-0.7-0.1-1.3-0.2-1.8c-0.2-0.6-0.5-1.2-0.7-2c0.2-1,0.4,0.1,0.6-0.2L11,56.7c0-0.2,0.2-0.1,0.2-0.1
		c-0.2-0.7-0.6,0-0.9-1.1c-0.3-0.1-0.2-0.7,0.1-1.5c0.3-0.7,0.6-1.5,0.2-2.3c0.2-0.3,0.4,0.2,0.6,0.1c-0.4-1.9-0.3-1.6-0.8-3.3
		l0.6-1.3c-0.6,0.9-1-0.4-1.3-1.7c-0.3,0.3-0.5,0.6-0.7,0.8c0,0,0-0.5,0-0.9c0-0.5,0-0.9,0-0.9c0.2-0.2,0.3,0,0.5,0.4
		c0-0.1,0-0.3-0.1-0.4c0.4-0.6,0.7-0.2,0.9,0.4c-0.2,0.2-0.4,0.4-0.5,0.5c0.3,0.5,0.7,1,1.1,1c0.1-0.1,0.1-0.3,0.1-0.6
		c0.1,0.1,0.2,0.2,0.2,0.2c0.1,0-0.1-0.3-0.1-0.6l0.8-0.2L11.7,45l1-2.1c-0.1-0.4-0.2-0.9-0.3-1.3c-0.1-0.4-0.1-0.9-0.1-1.4
		c0-1,0-2.1,0.3-3.4c0.2,0.8,0.7,0.5,1.3,0.7c-0.9,0.4-0.4,2-1,3.2c0.3-0.6,0.5-0.4,0.6-0.2l0.3-2.5c0.4,0.2,0.5-0.3,1-0.8
		c-1.1,0,0.2-1.9,0.3-2.9c0.3,0.1,0.5,0.5-0.1,1.5c1.3-0.8-0.4-2.1,0.9-2.9c-0.1,0.3-0.3,0.4-0.2,0.6c0.1-0.7,1.2-2.1,1.2-1.6
		l-0.1,0.3c0.3-0.4,0.6-0.9,0.9-1.5c0.4-0.5,0.8-1.1,1.1-1.6c0.7-1.1,1.1-2.1,0.9-2.5c0.1,0.1,0.6,0.8,0.7,1.1c0,0,0-0.3,0-0.7
		c0-0.4,0-1,0.1-1.5c0.1-1.1,0.2-2.3,0.2-2.3c0.3,0.7,2.4,1.1,1.6,2.5c0.4-0.3,0.8-0.6,1.4-1.5c-0.3,0.1-1.3-0.2-1.1-0.6
		c1.5-0.2,0.9-0.3,2.5-0.7c-0.5,0.2-0.8-1-0.2-1.5c0,0.2,0.8,0.8,0.7,1.1c0,0,0.2-0.5,0.3-1.1c0.2-0.5,0.4-1,0.4-1
		c-0.3,0.4,0.5,0.8,1.1,0.8c-0.3-0.1,1.3-0.9,1.6-1.3l-1,0.2c1.7-1.1,0.8-2.5,2.7-3.6c-0.1,0.3,0.2,1.6,1.2,1.1
		c0.1-0.4,0.2-1.3,0.5-2.2c0.3-0.9,0.9-1.9,1.7-2.5l0.5,0.1c0,0,0.3-0.2,0.6-0.5s0.6-0.5,0.6-0.5c-0.3,0.5-0.8,1.6-1.4,2.6
		c-0.6,1-1.1,2-1.6,2.6c0.8-0.1,0.4,0.2,1.4-0.3c0.5,0.1-0.4,0.7-0.6,0.9l2.5-1c-0.2-0.3,0.2-0.7,0.6-1c0.4-0.3,0.9-0.6,0.7-0.9
		c0,0-0.2,0.1-0.4,0.3c-0.2,0.1-0.5,0.4-0.8,0.6c-0.6,0.5-1.2,1-1.2,1c-0.2-0.3,0-0.9,0.4-1.5c0.2-0.3,0.5-0.7,0.9-0.9
		c0.4-0.3,0.8-0.5,1.3-0.6c0.6,0.1,0.1,1.2,0.2,1.4c0.1-0.3,1.6-1,1.8-1L39,14.8c0.5-0.1,0.9-0.4,1.3-0.8c0.4-0.3,0.8-0.5,1.6-0.4
		c0.4-0.1,1.5,0.5,1.5,0.1c-0.9-0.6-1.6-2.8-1.3-3.5c0.1,0,0.7,0,1.4,0.1c0.7,0,1.5,0.2,1.8,0.4c0.9,0.5-0.9,1.6-0.1,2
		c0-0.2,0.4-0.5,0.5-0.6c0.5,0.1-0.1,0.6,0.9,0.4c0.1-0.7,2.1-0.3,0.4-0.6c1-0.3,1.1-0.1,2.3-0.2c-0.4-0.4,1-1.5,2-1.8
		c-0.1,0.2,0.2,0.4,0.3,0.5c0.5,0,1,0,1.4,0s0.8,0.1,1.2,0.2c0.8,0.1,1.6,0.2,2.5,0.3c0.2,0.2,1.1,0.4,0.7,0.7
		c0.3-0.1,0.6-0.3,1.2-0.2c1.1,0.8-1.3-0.1-0.5,0.7c0.1-0.4,1.6-0.3,2.5-0.4c-0.2-0.6-2-0.4-2.8-0.3c0.1-0.8,1.7-1.5,3.9-1.5
		c1.7,0.1,0.6,0.7,0.9,0.6c1.5,0.5,2.3,0.3,2.9,0.1c0.7-0.1,1.3-0.3,2.5,0.5c0.8,0.9-0.3,1-0.2,1.5c-0.7-0.1-1.1-0.4-1.5-0.6
		c-0.4-0.2-0.8-0.4-1.2-0.6l1,0.5c-0.5,0.1-1.4,0-1.8-0.3c0.7,0.6,5,1.6,7,3c0.5,0,1.2,0.2,1-0.2l-0.7-0.3c-0.5-0.7,1.6,0.1,0.8-0.5
		c0.5,0.1,1.1,0.2,1.7,0.3c0.3,0.1,0.6,0.2,0.9,0.3c0.3,0.2,0.6,0.4,0.9,0.6l-0.1,0.7c0.1-0.2-0.6-0.8-1.1-0.9
		c0.7,0.1,1.5,1.9,2.5,1.5l-0.7-0.9c1,0.3,2.6,0.4,3.5,1.4c-0.1-0.9-0.3-0.1-0.7-1.3c0.2,1.2-2.9-1.8-2.3-0.3
		c-0.2-0.6-0.5-0.9-0.9-1.2s-0.7-0.6-1.2-1.2c-0.1,0.2,0.2,0.5-0.7,0c-0.1,0-0.2,0-0.3,0.1c0,0,0,0-0.1,0l0,0c-0.1,0-0.1,0,0,0
		c0.2,0.2,0.3,0.4,0.4,0.5c-0.7,0.2-2.3-0.6-2.9-0.6c-0.6-0.4,0.3-0.1,0.1-0.4c0,0-0.2,0-0.5,0c-0.2,0-0.5,0-0.5,0
		c0.1-0.4-1.4-1.3,0.2-1l-1.3-0.5c-0.7-0.5-1.8-1-2.5-1.1c-0.6-0.3-1.8,0.1-1.1-0.1l-2.2-0.3V9.1c-1-0.3-2.2-0.3-3.4-0.4
		c-1.2-0.1-2.3-0.3-3.5-0.7c-0.7,0.1-1.5,0.2-2.7,0l-0.2-0.4c-0.9,0.1-2.9-0.3-3.3,0.1c-0.3-0.2-0.7-0.4-1.2-0.4
		c-0.5-0.1-1.1,0-1.7,0.1C46.3,7.6,45,8,44.1,8v0.5c-1.1,0.2-2.2,0.6-3.5,1.2l0.2,0.4c-1.1,0.6-3.1,0.6-4.9,1.3
		c0.1-0.2,0.5-0.3,0.9-0.4c-0.6,0-1.2,0.1-1.8,0.3c-0.5,0.2-1,0.6-1.5,1c-1,0.7-1.9,1.4-3,1.6c-0.4,0.4-0.7,0.6-1.1,0.6l0.1-0.1
		c0,0-0.1,0.1-0.2,0.1c-0.2,0.1-0.5,0.1-0.7,0.2c0.2,0,0.5-0.1,0.6-0.1c-0.3,0.2-0.8,0.6-1.3,1l-0.5-0.3l-0.1,0.1
		c-0.6,0.2-0.3,0.4,0.2,0.6c-0.2,0.2-0.4,0.5-0.5,0.7c-0.8-0.4-1.1,1.1-2.1,0.9c0,0.3-0.6,0.8-1.1,1.3c-0.5,0.6-0.9,1.2-0.7,1.6
		c-0.1-0.1-0.3,0,0-0.2c-0.5,0.4-1.1,0.7-1.4,1.3l-0.6-0.3c0,0-0.1,0.4-0.2,0.8s-0.2,0.8-0.2,0.8c-0.8,0.4-1.3,0.5-1-0.5
		c-0.9,2-1,1.4-1.6,3.2l-0.3-0.3c-0.4,0.5-0.6,1.6-1,1.8c-1.6,0.6-4,5.7-6.1,8.8c0.7-0.1,0.4,0.2,0,0.7c-0.3,0.4-0.7,1-0.3,1.2
		c-0.3,0.1-0.7,0.5-0.7-0.1c-0.4,1.9-1.5,2.5-1,4c-0.3,0.1-0.3-0.5-0.5-0.4c0,0.2,0.1,0.6-0.1,0.8c-0.2,0.1-0.2-0.3-0.2-0.7
		C7.4,43.3,8.2,43.7,9,44c-0.3,0.4-0.5,0.8-0.5,1.1s0.1,0.6,0.3,1c-0.3,0.3-0.7,0.8-0.6-0.4c-0.1,0.6-1,4-0.3,4.1
		c-0.2,0.2-0.1,0.9,0,1.1c-0.1,1.5-0.2,1.6-0.2,3.1l0.1-0.4C8.4,54.2,7.9,54.8,8,56H7.9c-0.2,1.3-0.1,1.6-0.1,1.9
		C7.9,58,8,58.1,8,58.4c0,0.3,0,0.7-0.1,1.4l0.5-0.2c1.1,0.1-0.3,2.4,0.4,3.9L9,62.9c0.5,0.7-0.8,2.6-0.7,3.5c0,0.2-0.2-0.3-0.3-0.5
		c0,2.4,0.7,0.1,1.2,1.7c-0.2,0.4-1-0.1-0.7,1c0,0.3,0.5,1,1.1,1.8s1,1.8,1.1,2.6c0.1-0.4,0.2-0.8,0.7-0.2c0.6,1,0.5,3.4,1.7,3.9
		c0,0.2,0,0.2-0.1,0.3c0.7,0.7,1.8,2.3,2.5,2.5c-0.5,0.8,0.6,1.8,1.5,2.7c0.5,0.4,0.9,0.9,1.2,1.2c0.3,0.3,0.4,0.6,0.1,0.9l1.9,2
		l-0.2,0c0.5,0.7,1.1,1,1.5,1.3c0.4,0.2,0.8,0.3,1.1,0.4c0.2,0.4-0.1,0.3-0.2,0.3c1.7,2,2.1,2,4.2,2.7l-0.1,0.5
		c0.3,0.1,0.9,0.8,1.9,1.5c0.5,0.4,1,0.8,1.6,1.1c0.6,0.4,1.2,0.7,1.8,0.8c0,0-0.1,0.1-0.4,0.1c0.7,0.2,1.4,0.5,2.1,1
		c0.7,0.4,1.3,0.9,2,1.2c1.3,0.7,2.6,1.2,3.3,0.5c0,0,0.5,0.1,1,0.1s1,0,1,0c-2.3-0.7,0.6-0.7-0.3-1.2c0.9,0.1,2.2,1.1,1.1,0.9
		l-0.2-0.1c-0.7,0.8,2.8,1.1,2.6,1.6c4.7,0.9,9.4,1.5,14,1.1c0,0-0.1-0.2-0.3-0.3c-0.1-0.2-0.3-0.3-0.3-0.3l1.6-0.2
		c0.4,0.1,0.6,0.5-0.5,0.6c0.6,0.3,1.8-0.6,1.8-0.8c2.2,0-0.7,1,0,0.9l0.9-0.2H61c0.3-0.2,0.5-0.4,0.8-0.5s0.6-0.3,1.2-0.4
		c0.9-0.1,0.5,0.3,0.9,0.3c0,0.1,0.1,0,0.5-0.1l2-0.4l-0.9-0.4c0.8-0.5,1.8-0.5,0.7-0.8c0.8,0.3,2.5-0.3,4.2-0.9
		C72,95.9,73.5,95,74,95c0.2-0.2,0.5-0.4,0.7-0.6s0.5-0.4,0.7-0.6c0.5-0.4,1.1-0.7,1.8-1.1c-0.4,0.1-0.9-0.3,0.2-0.9
		c0.2,0.7,0.8,0.5,1.4,0.1c0.7-0.4,1.5-0.9,2.2-0.9c-0.6,0,0.1-0.6,0.8-1.1c0.6-0.6,1.1-1.2,0.3-1.1c0.9-0.6,0.4,0.3,1.2,0
		c0.4-0.5,0.9-1,1.4-1.5c0.3-0.2,0.5-0.5,0.8-0.7c0.3-0.3,0.5-0.5,0.8-0.8c1.1-1,2.4-2,3.2-3.4c-0.1-0.1-0.6,0.1-0.4-0.6l1.7-0.8
		c0.3-0.6-0.4-1,0.7-1.7c-0.2,0.1-0.5,0.1-0.3-0.2c2-2.4,3.4-5.3,4.5-8.3c0.5-1.5,1.1-3,1.5-4.5c0.2-0.8,0.5-1.5,0.8-2.3
		c0.3-0.7,0.5-1.5,0.9-2.3c-0.5,0.8-0.4,0.2-0.3-0.4c-0.1,0.4-0.4-0.1-0.7,0c0,0,0.3-0.6,0.5-1.3c0.1-0.3,0.3-0.6,0.4-0.9
		c0.1-0.2,0.1-0.4,0.1-0.4c-0.6-0.5,0.1-2.9-0.5-3.1l0.1,0.8c-0.7-1.1-1.7,1.4-2.7,1.2c0.2,0.3,0.2,0.7,0.1,1
		c-0.1,0.4-0.3,0.8-0.5,1.2c-0.4,0.8-0.8,1.7-0.3,2.8c-0.3,0.4-0.2-0.4-0.5-0.2c0.4,0.6,0.3,1.1-0.2,2.2l-0.1-0.1
		C94,66,93.7,67,93.1,68c-0.3,0.5-0.5,1-0.8,1.6s-0.6,1.2-1,1.9h0.5c-0.4,0.6-0.6,0.7-0.8,1c0.3,1.1,0.9-1.8,1.3-0.8
		c-0.7,0.2-1.2,1.4-1.8,2.5c-0.6,1.1-1.3,2.1-1.9,2.1c-0.6,0.9,0.6,0,0.1,1l-0.4,0.1l0.2,0.5c-0.4,0.6-1,0.7-1.2,0.5
		c0.1-0.1,0.2-0.4,0.3-0.6c-0.8,0.5-1.5,2.2-1.8,2.4l0.8-0.7c-0.4,0.6-0.8,1.3-1.4,2c-0.5,0.6-1.1,1.2-1.7,1.9
		c-0.3,0.3-0.6,0.6-0.8,0.9c-0.3,0.3-0.6,0.6-0.9,0.9c-0.6,0.6-1.1,1.2-1.5,1.8h0.3c-0.3,0.5-0.6,0.7-0.9,0.9
		c-0.3,0.2-0.5,0.3-0.7,0.4c-0.4,0.2-0.9,0.4-1.9,1.3v-0.1c-0.3,0.5-0.8,0.9-1.4,1.3c0.4-0.5-1.3,0.2-0.7-0.5
		c-1.9,1.6-0.8,1-1.9,2.5l-0.5-0.2c-0.3,0.5-0.3,0.7-1.4,1.4c0.8-0.7-1-0.2-0.1-1c-0.7,0.1-1.2,0.3-1.6,0.5
		c-0.5,0.2-0.8,0.4-1.2,0.6c-0.7,0.4-1.2,0.7-2,0.4c-0.8,1.4,2.3-0.2,1.8,0.2c0.7,0.1-0.7,1.1-1.5,1.3c-0.8,0.3-1.8-0.8-3.8-0.3
		c0.2,0,0.2-0.1,0.4-0.2c-0.4,0-0.8,0.2-1.1,0.3c-0.2,0.1-0.4,0.2-0.6,0.2c-0.2,0-0.4,0-0.7,0c-0.4,0.7-1.2,0.2-1.3,1l1.9-0.5
		c-1,0.4-1.9,1.4-3.8,1.3c0.1-0.2,0.6-0.5,1-0.6c-0.6-0.2-1,0.3-1.6,0.1c0.1-0.7,2.3-0.5,3.4-1.3c-0.6-0.2-2.1,0.9-1.6,0
		c-0.3,0.6-0.9,0.6-1.4,0.7c-0.6,0-1.2-0.1-1.9,0.4l0.1-0.5c-0.2,0.1-0.7,0.3-1.1,0.3l0.7-0.7c-1.1,0.6-2.2-0.3-3.2-0.1
		c1.1,0.1,1.3,0.2,1.2,0.4c0,0.2-0.2,0.4,0.2,0.6c-2.9,0.6-1.6-1.3-4.7-1.2c0.4,0,1.6,0.4,0.9,0.6c-0.6-0.1-1.3-0.4-1.7-0.7
		c-2-0.2,0.2,0.5-0.7,0.7c-0.6-0.7-1,0.1-2,0.1l0.1-0.5c-0.6-0.2-0.9-0.2-1.1-0.2c-0.2,0-0.3,0.1-0.4,0.2c-0.2,0.2-0.3,0.4-1.3,0
		l1-0.4l-1.1-0.1l0.4-0.5c-0.6,0-1,0-1.4-0.1s-0.7-0.2-1.3-0.5c0.2,0.4-0.4,0.8-1.4,0.4c-0.6-0.5,0.5-0.3-0.9-0.7
		c0.4-0.2,0.9-0.4,1.4,0.2c0.1-0.1,0.4-0.2,0.5-0.3c-0.6-0.6-1.8-0.7-2.3-0.9c0.2,0.1,0.4,0.2,0.5,0.3c0,0-0.6,0-1.1-0.1
		c-0.6-0.1-1.1-0.2-1.1-0.2c-0.2-0.3,0.1-0.3,0.4-0.3c-0.4-0.1-0.8-0.1-1.4-0.3c0.3-0.3,0.5-0.7,1.3-0.4l-2-0.5
		c-0.1-0.2-0.7-0.9-0.4-0.9c-0.8-0.8-2.8-0.7-3.8-1.8c-0.1,0-0.3,0-0.6-0.2c-0.5-0.5-1-1-1.5-1.4c-0.3-0.2-0.5-0.4-0.8-0.7
		c-0.3-0.2-0.6-0.4-1-0.6l-0.2-1.2c-1.1-0.8,0.4,1.5-1.4,0.2c-1.3-0.9,0-0.8-0.3-1.3c-0.8-0.3-2.2-0.8-2.7-2.3
		C21.4,81.2,21.6,81.5,21.9,81.8z M13.5,68.1c0.2,0.3,0.7,0.7,0.5,1.1C13.4,69,13.5,68.6,13.5,68.1z M11.4,43.4
		c0.1,0.3-0.1,0.6-0.4,1C11.1,44.1,11.2,43.7,11.4,43.4z M68.1,10.4L68.1,10.4C67.4,10,67.6,10.2,68.1,10.4z M69.6,11.2
		c0.2,0,0.2-0.1,0.2-0.2c-0.2,0.1-0.5,0-0.9-0.2C68.9,11,69.1,11.1,69.6,11.2z M64,98.9h-0.3C64.3,98.5,64.1,98.7,64,98.9z"/>
	<path class="st0" d="M11.4,46.3c-0.1,0.1-0.2,0.1-0.3,0.1C11.2,46.6,11.2,46.6,11.4,46.3z"/>
	<path class="st0" d="M29.6,88.3L29.6,88.3c0.1,0,0.1,0,0.1,0H29.6z"/>
	<path class="st0" d="M45.7,12.8c-0.3,0-0.5-0.1-0.6-0.2C45.1,12.8,45.2,12.9,45.7,12.8z"/>
	<path class="st0" d="M77.6,14.3l-1-0.4c0.4,0.2,0.5,0.4,0.7,0.6C77.4,14.4,77.3,14.1,77.6,14.3z"/>
	<path class="st0" d="M82.8,22c0.1,0.1,0.2,0.2,0.4,0.3l0.1-0.2C82.9,21.6,82.4,21.5,82.8,22z"/>
	<path class="st0" d="M77.6,16.1c-0.2,0.4,0.5,0.6,1.1,0.9c0,0-0.1,0-0.1-0.1C79.1,16.7,78.3,16.3,77.6,16.1z"/>
	<path class="st0" d="M78.8,17.2c0.2,0.1,0.4,0.2,0.5,0.4C79.5,17.4,79.2,17.3,78.8,17.2z"/>
	<path class="st0" d="M71.6,11.7c0.3,0.2,0.4-0.4,0.5-0.1C72.6,11.2,69.7,11.1,71.6,11.7z"/>
	<polygon class="st0" points="77.3,17.5 77.4,17 76.8,17.1 	"/>
	<path class="st0" d="M72.8,14.5l0.9,0.6c0-0.1,0.2-0.1,0.3,0C73.4,14.8,72.8,14.4,72.8,14.5z"/>
	<path class="st0" d="M74.1,15.1c0.3,0.2,0.6,0.4,0.8,0.4C74.7,15.4,74.3,15.2,74.1,15.1z"/>
	<polygon class="st0" points="76,16.9 75.7,16.6 75.1,16.2 	"/>
	<path class="st0" d="M61.5,10.6h-1.2c-0.1,0.2,0.2,0.3,0.6,0.3C61.2,10.8,61.7,10.8,61.5,10.6z"/>
	<path class="st0" d="M64.7,12.8c-0.3-0.2-0.3-0.3-0.4-0.5l-0.2,0.6L64.7,12.8z"/>
	<path class="st0" d="M61.4,12.1c-0.2,0.2-1.8,0.2-0.3,0.4C61.2,12.3,62.4,12.4,61.4,12.1z"/>
	<polygon class="st0" points="43.6,11.5 43.9,11.4 43.6,10.4 	"/>
	<path class="st0" d="M30.4,19.7c1.3-0.5-0.1-0.7,1.1-1.1c0.1-0.4-1,0.3-0.8,0C30.1,19.2,29.7,19.3,30.4,19.7z"/>
	<path class="st0" d="M30.7,18.5c0.1-0.1,0.2-0.2,0.3-0.4C30.8,18.4,30.7,18.5,30.7,18.5z"/>
	<polygon class="st0" points="99.4,56.9 99.6,56 99.2,56.6 	"/>
	<path class="st0" d="M98.7,55.1l0.7-0.2l-0.6-0.6C98.8,54.5,98.9,54.9,98.7,55.1z"/>
	<path class="st0" d="M14,65.4h-0.2c-0.1,0.2-0.1,0.4,0,0.8L14,65.4z"/>
	<polygon class="st0" points="18.2,76.1 18.2,75.9 17.9,76.5 	"/>
	<path class="st0" d="M24.9,83.1c-0.3-0.3-0.7-0.5-0.9-0.8C24.6,82.8,24.4,83.7,24.9,83.1z"/>
</g>
<g>
	<polygon class="st0" points="71.8,46.4 71.4,45.9 71.7,46.7 	"/>
	<path class="st0" d="M69.5,47.1c0.2,0.7,0.1,1.3,0.8,2.4L70,48.3c0.6,0.8,0.8,0.6,0.8,0.2l-0.2,0.2c0-0.1-0.4-0.7-0.4-0.8
		c0.6,0.2-0.1-1,0.8-0.2v0.1l-0.1-0.7c0.2,0.1,0.4,0.5,0.5,0.7c-0.1-0.6-0.2-1.1,0.1-1.3c-1.2-1.4,0.2,1.6-1,0.2v-0.1
		C70.5,47.3,69.5,46.5,69.5,47.1z"/>
	<path class="st0" d="M71.4,47.7L71.4,47.7C71.4,47.8,71.4,47.8,71.4,47.7z"/>
	<path class="st0" d="M59,52.5l0.1,0.2C59.1,52.7,59.1,52.6,59,52.5z"/>
	<path class="st0" d="M64.3,53.5L64.3,53.5C64.5,53.8,64.4,53.7,64.3,53.5z"/>
	<path class="st0" d="M46.6,54.1l0.2-0.4C46.6,54,46.5,54.1,46.6,54.1z"/>
	<path class="st0" d="M43.1,50L43.1,50L43.1,50z"/>
	<path class="st0" d="M40.8,55.8L40.5,56C40.7,55.9,40.8,55.8,40.8,55.8z"/>
	<path class="st0" d="M39.1,55.1c0-0.1,0-0.2,0-0.2C39,55,39,55.1,39.1,55.1z"/>
	<path class="st0" d="M43.2,50C43.1,50,43.1,50.1,43.2,50C43.1,50,43.2,50,43.2,50z"/>
	<path class="st0" d="M42.1,58.1l-0.6,0.7C41.7,58.6,41.9,58.3,42.1,58.1z"/>
	<path class="st0" d="M38.2,55.3c0.1-0.1,0.2-0.2,0.2-0.3C38.3,55.1,38.2,55.3,38.2,55.3z"/>
	<path class="st0" d="M69.3,47.3c0,0,0.1-0.1,0.1-0.2C69.2,47.1,69.2,47.2,69.3,47.3z"/>
	<path class="st0" d="M50.8,66.5c0,0.1,0,0.3-0.1,0.5C50.8,66.8,50.8,66.6,50.8,66.5z"/>
	<path class="st0" d="M44.5,61.4L44.5,61.4C44.4,61.4,44.4,61.5,44.5,61.4L44.5,61.4z"/>
	<path class="st0" d="M45.9,62.6c0,0-0.1,0.1-0.2,0.1C45.8,62.7,45.9,62.6,45.9,62.6z"/>
	<path class="st0" d="M42.9,61.2c-0.1,0-0.2,0.1-0.3,0.2L42.9,61.2z"/>
	<path class="st0" d="M42.7,59.7c-0.2,0.3-0.5,0.5-0.7,0.7c-0.1,0.5,0.8-0.2,0.4,0.6l0.2-0.4c0.6-0.4,1-0.2,0.5,0.6l-0.3,0.2
		c0.7-0.4-0.1,0.8,0.4,0.4c0.2-0.4,0.5-0.5,0.7-0.8l0.9-0.2L44,61.6l0.5-0.1c0.3-0.4,0,0.5,0.8-0.3c-0.2,0.4-0.7,0.7-1.1,1
		c0.4-0.2,0,0.2,0.6-0.2l-0.7,0.9l0.8-0.3c-0.1,0.1-0.1,0.1-0.2,0.2c0.4-0.3,0.4-0.1,0.4,0s0.3,0.3,0.9-0.2c-0.1,0-0.1,0.1-0.1,0.1
		c0.7-0.5,0.6,0.3,0.7,0.6c0.4,0,0.7-0.8,1-1.2c0.3,0.8,0.3,0.6,1.3-0.3c-0.2,0.8-0.5,1.3-0.8,1.7s-0.6,0.8-0.6,1.5
		c0.4-0.6,0.9-0.9,1.3-0.9c0.1,0.8,0.5,1.7,0.6,3.2l0.2-1.2l0.5-0.2c0,0-0.1,0.4-0.2,0.7c-0.1,0.4-0.2,0.7-0.2,0.7
		c0.1-0.3,0.3-0.6,0.5-1c0-0.1,0.1-0.3,0.1-0.4c0.5-1.3,0.1,2.3,0.6,0.3c0,0.1,0,0.2,0,0.3c0.1-0.9,0.5-0.9,0.8-1.4v1.4l-0.3-0.1
		c0.2,1.2,0.5-0.5,0.7-0.6c0.2-0.6-0.1-1.6,0-2.1c0.1,0,0.1-0.4,0.3-0.1c0.3,0.3,0.3,1.5,0.3,2.1c0-1.4,0.1-1.3,0.3-2.1
		c0.2,0.6,0.2,0.8,0.2,1c0.1-0.2,0.1-0.5-0.1-1.1l0.4,0.6c0.4,0.3,0.4-0.3,0.2-1c-0.1-0.7-0.3-1.4,0-1.3c0.2,0.6,0.3-0.4,0.8,0.2
		c0,0.2,1,1.4,1.3,2.1c0.5,0.2-0.6-1.3-0.6-1.6l0.7,1.3c-0.1-0.7-0.4-0.7-0.4-1.2c0.2,0.4,0.3,0.3,0.4,0.8c0.4-0.1,0.2-0.1,0.6-0.2
		L55.7,62c0-0.2,0.4,0.3,0.5,0.5c0,0-0.1,0,0,0.2c0.8,1-0.2-0.7,0.5,0.2c-0.3-0.4-0.6-0.9-0.6-1c0.4,0.8,0.6,0.6,0.8,0.9
		c-0.4-0.5,0.1-0.4-0.4-1.2c0.5,0.5,0.3,0.6,0.6,1c-0.5-1,0.4-0.4,0.1-1c0.1,0.1,0.1,0.1,0.1,0.2c-0.2-0.7-0.1-0.9-0.4-1.9l0.4,0.8
		c0.5,0.1-0.8-1.6-0.5-1.7c0.6,1,0.3-0.3,0.9,0.8c-0.2-0.6-0.2-1-0.7-1.9c0.5,0.5,0.6,1.5,1,1.7l0-0.9l0.4,0.5
		c-0.2-0.4-0.1-0.5-0.3-0.9c0.4,0.6,0.8,1,1.1,1.5c0-0.3,0.6,0.2,0.3-0.4l0.2,0.3c-0.6-1.3,0.2-0.5-0.5-1.7l0.5,0.6
		c0.1-0.2-0.7-1.5-0.8-1.8c0-0.1,0-0.3,0.2-0.2c0.3,0.9,0.7,0.9,1.1,1.3c0.1,0,0.3-0.3,0-1c0.3,0.7,0.7,1.2,0.5,1.4
		c0.9,1.1,0.1-0.5,0.5-0.5l0.4,0.6c0.1-0.6-0.5-1.5-1-2.6c0.5,0.7,0.6,0.9,0.9,1.6c0.5,0.3,0.5-0.4,0.8-0.5c0.4,0.4,0.5,0.8,0.6,1
		c-0.1-0.7,0.6-0.2,0-1.6c0.3,0.5,0.3,0.3,0.5,0.4c-0.2-0.3-0.4-0.6-0.3-0.6c-0.2-0.6-0.1-1.3,0.3-1l0.2,0.4
		c0.5-0.1-0.6-2.3,0.4-1.7c0.2,0.2,0.6,1.1,0.7,0.9c-0.2-0.5-0.8-1.4-0.5-1.3l0.5,0.8l-0.4-0.9c-0.5-0.6-0.6-0.2-0.9-1.1
		c0.7,0.6-0.3-0.8,0.5-0.1c0,0.1,0.3,0.8,0.5,1.1c1.1,0.6,0.2-1.2,1.3-0.5c-0.2-0.8,0.1-1.1-0.1-1.8c0.5,0.8,1,1.5,1.3,2.2
		c0.3,0-0.8-1.9,0.1-0.8c-0.6-1.2,0.1-1.1-0.8-2.6c0.2,0.3,0.2-0.1,0.6,0.9c0-0.7,1.2,1.1,1.4,1c0-0.1-0.7-0.9-0.6-1.1
		c0.1,0.1,0.2,0.2,0.2,0.3l-0.2-0.4c0.3,0.3,0.4,0.8,0.7,1.2c0.4,0.2-0.2-1.1,0-1.4l0.1,0.3l0.3-0.1v0.1l-0.1-0.7l0.2,0.4
		c0-0.1-0.2-0.4-0.1-0.5l0.3,0.5c-0.4-0.8-0.4-1.4-0.3-1.5l0.2,0.2l-0.3-1.2c0.5,0.4,0.5,1.3,0.6,0.7l0.6,1.1c0-0.5,0.4,0,0.3-0.5
		c-0.4-0.5-0.5-0.3-0.7-0.8c0.9,1,0.1-0.5,0-1.1c-0.1,0.1-0.1,0.1,0.2,0.7c-0.1,0-0.4-0.5-0.5-0.5l0.2,0.7l-0.5-0.7l0.1,0.7
		c-0.5-0.8-0.3,0-0.7-0.9c0.1,0.4-0.4-0.1,0,0.8c-0.4-0.4-0.2-0.7-0.4-0.7c-0.2,1.1-1,1.4-1.8,1.5l-0.2-0.4c0.2,0.4,0.3,0.7,0.4,1.1
		c-0.5-0.6-1.5-1.1-0.9,0.2c-0.1-0.1-0.1-0.3-0.2-0.4c-0.1,0.3-1.1-0.3-1.3,0c0.7,1.4-1-0.5,0,1.3l-0.2-0.4c0.4,0.4,0.6,1.3,0.9,1.8
		c-0.8-1.1-0.6-0.9-1.3-1.8l0.4,0.3L63,49.5c1.1,2.7-1.4-0.6-0.6,1.3c0-0.1-0.1-0.3-0.2-0.4c-0.5-0.4,0.1,0.8,0.2,1.2
		c-0.3-0.5-0.4-0.8-0.6-1.2c-0.5-0.2-0.2,1.4-1,0.9c0.3,0.7,0.6,0.8,0.8,1.4c-0.2-0.1-0.6-0.6-0.7-1c-1-1-0.4,1.3-1.5,0.5
		c0.2,0.8,0.6,1.1,0.5,1.7c-0.2-0.5-1.1-1.5-0.9-1.7L58.7,52c-0.4,0.1-1,0.2-0.3,1.7c-0.7-1-0.2-0.2-0.7-0.6c0,0.1,0.1,0.2,0.2,0.2
		c0.4,1-0.2,0.1-0.2,0.3l-0.1-0.2l0.2,0.8c-0.1-0.1-0.3-0.3-0.5-0.6l0.5,0.7c-0.1,0.1-0.6-0.9-0.7-0.6l0.4,0.5
		c-0.3-0.3,0,0.6-0.5-0.2c-0.1-0.2,0-0.1,0-0.1c-0.9-1-0.2,0.6-0.7,0.2l0.8,1.1c0,0.5-0.3-0.2-0.5-0.6c-0.1,0.1-0.4-0.3-0.6-0.3
		c0.1,0.3,0.2,0.5,0.4,0.8L56,54.9l-0.3-0.7c0.8,1.9-0.8,0.2,0,1.9c-0.3-0.3-0.4-0.8-0.5-0.9c-0.8-0.5,0,1.6-0.8,0.9
		c-1-0.5-0.9,0.6-1.8,0.3l0.2,0.3h-0.5c0.4,0.8-0.1,0.6,0.3,1.5c-0.1-0.3-0.4-0.6-0.5-0.8c-0.1,0.2,0,0.6-0.4,0.3l-0.1-0.3
		c-0.2-0.1-0.2-0.2,0,0.6c0,0.1-0.2-0.5-0.4-1c0,0,0.1,0.3,0.2,1c0-0.2-0.1-0.3-0.2-0.7l0.1,1c0-0.1-0.1-0.8-0.2-1
		c0.1,0.6,0,0.7,0,0.6c0-0.1-0.1-0.3-0.1-0.3v0.5c0,0.4,0-0.3,0-0.9c0-0.2,0-0.1,0,0.2c-0.1,0.5-0.3,1.4-0.3,1.1
		c0.2-0.9,0.2-0.8,0.1-0.7c0,0.1-0.1,0.1,0.2-0.8c-0.2,0.5,0.1-0.3-0.4,0.7c0.1-0.2,0.1-0.2,0.1-0.3c0.3-0.6,0.1-0.2-0.3,0.2
		l0.3-0.5c-0.7,1-0.6,0.6-1.5,1.4c0.2-0.2,0.4-0.3,0.5-0.5c0.8-0.8-0.5,0.2-0.5-0.1c0.2-0.2,0.4-0.5,0.6-0.6
		c0.5-1.3-1.7-0.4-1.6-1.6c-0.1-0.2-0.8,1-1,0.7c0.4-0.5,1-0.8,1-1.1c-0.6,0.4-0.5,0.3-0.6,0.1c0.3-0.3,0.5-0.5,0.8-0.6
		c0.3-0.4-1,0.4-0.4-0.5c-0.3,0.3-0.4,0.4-0.6,0.5c-1,0.5,0.3-1.2-0.2-0.8c0,0-0.2,0-0.2,0.2c-0.1-0.1-0.1-0.3,0.4-0.7
		c-0.3,0.2-0.7,0.5-0.8,0.5l0.5-0.5c-0.1,0.1-0.5,0.3-0.6,0.4l-0.2,0.4c0.3-0.5-0.8,0.3,0.1-0.6h0.1l0.3-0.6
		c-0.4,0.3-0.9,0.6-0.9,0.4c0.9-1-0.1-0.5-0.1-0.7l0.3-0.3c-0.6,0.4-0.7-0.1-0.8,0.1c-0.1-0.1,0-0.5,0.3-0.7
		c-0.3,0.1-0.5-0.1-1.1,0.4l0.6-1c-1.3,1.1,0.1-0.8-1.2,0.5c0.1-0.3,0.4-0.6,0.6-0.9c-0.8,0.5-0.8,0.2-0.8,0l0.1-0.1
		c0-0.2-0.9,0.2-1.1,0.1l0.9-1c-0.2,0-1,0.8-0.9,0.5c0.1-0.2,0.2-0.2,0.3-0.2c-0.3,0.1-0.2-0.3,0-0.6c-0.9,0.5-0.7,0.2-1.6,0.8
		c0.7-1,0.6-0.2,1.3-1.1c0.2-0.7-0.5-0.4-1.1-0.2c0.2-0.2,0.3-0.3,0.6-0.5c0,0-2.8,1.9-3.7,2.9c-0.7,0.6-1.1,0.9-1.5,1.6
		c0.4-0.3,1.1-0.6,0.4,0.2l0.7-0.7c0.6,0-1.4,1.4-1,1.7l0.2-0.3c0.1,0,0.6-0.4,0.4-0.1c-0.2,0.2-0.3,0.3-0.5,0.4l1.2-0.6
		c-0.4,0.4-0.6,0.6-1,0.8c0.3,0.2,1.2-1.3,1.2-0.7c-0.2,0.4-0.4,0.4-0.7,0.6c-0.4,0.7,0.2,0.3,0.7,0.1c-0.6,0.6-0.6,0.4-0.9,0.9
		c0.3-0.3,0.8-0.9,1-0.8c-0.7,0.6-0.3,0.4-0.3,0.6c0.2-0.2,0.5-0.5,0.6-0.6s-0.1,0.2,0,0.3l0.5-0.7c0.7-0.4-0.1,0.6-0.2,0.9
		c-0.1,0.1-0.2,0.2-0.3,0.2c-0.1,0.4-0.5,1,0.2,0.6L39.1,56c0.9-0.3,0.9-1.1,1.8-1.3c0,0.2-2,1.9-1.1,1.5c0.4-0.6,1.4-1.1,1.8-1.2
		l-1.3,1c0,0.1,0.5-0.1,0.4,0l0.3-0.3c1-1,0.1,0.3,0.8-0.2c-1.5,1.2-1.2,1-2.6,2.3c0.8-0.6,1.6-1.2,1.7-0.9l-1.2,0.9
		c0,0.5,1.9-0.7,2.9-1.4c-0.8,0.7-1,1.1-1.8,1.6l0.4,0.1l-0.9,0.8c1-0.8,0.5-0.1,1.6-1.2c-0.2,0.1-0.3,0.3-0.3,0.2
		c0.3-0.3,1.1-1,1.2-0.8c-0.2,0.4-0.5,0.4-0.8,0.7c0.5-0.4-0.2,0.4,0.2,0.1l0.4-0.6c0.7-0.6,0.2,0.1,0.6-0.1c-0.4,0.2-0.7,0.6-1.1,1
		l0.1-0.1c0.1,0,0.6-0.4,0.3,0.1l-1,0.8l0.8-0.6c-0.1,0.1-0.4,0.5-0.6,0.6c-0.3,0.8,1.9-1.9,1.5-0.7c-0.3,0.3-0.6,0.5-0.5,0.2
		c-0.6,0.5-0.9,0.9-1,1.2l-0.1,0.1C41.8,59.9,42,60.2,42.7,59.7z"/>
	<path class="st0" d="M41.6,59.7c-0.1-0.1-0.2-0.2-0.3-0.1C41.1,59.8,41.1,60.2,41.6,59.7z"/>
	<path class="st0" d="M62.7,57.9L62.7,57.9L62.7,57.9z"/>
	<path class="st0" d="M63.5,57c-0.1-0.1-0.1-0.2-0.2-0.2C63.4,57,63.5,57.2,63.5,57z"/>
	<path class="st0" d="M53.1,64.6L53.1,64.6L53.1,64.6z"/>
	<path class="st0" d="M59.6,60.9c-0.1-0.4-0.3-0.7-0.5-1C59.1,60,59.2,60.3,59.6,60.9z"/>
	<path class="st0" d="M57.5,61.6c0,0.1,0,0.1,0.1,0.2C57.5,61.7,57.5,61.7,57.5,61.6z"/>
	<path class="st0" d="M52.8,65.6c0.1-0.5,0.3-0.6,0.3-1C53,64.9,52.7,64.7,52.8,65.6z"/>
	<polygon class="st0" points="63.9,55.1 64.1,55.7 64,55.2 	"/>
	<path class="st0" d="M63.2,56c-0.1-0.1-0.1,0.3,0.2,0.6C63.3,56.3,63.2,56.2,63.2,56z"/>
	<polygon class="st0" points="59.4,57.7 59.8,58.3 59.6,57.8 	"/>
</g>
</svg>
