<?xml version="1.0" encoding="utf-8"?>
<!-- Generator: Adobe Illustrator 19.2.1, SVG Export Plug-In . SVG Version: 6.00 Build 0)  -->
<svg version="1.1" id="Calque_1" xmlns="http://www.w3.org/2000/svg" xmlns:xlink="http://www.w3.org/1999/xlink" x="0px" y="0px"
	 viewBox="0 0 107.5 107.4" style="enable-background:new 0 0 107.5 107.4;" xml:space="preserve">
<style type="text/css">
	.stIconeParcour{fill:#FFFFFF;}
</style>
<g>
	<path class="stIconeParcour" d="M53.7,3.6c-10.4,0-20.6,3.2-29,9.2C16.4,18.7,10,27,6.5,36.5c-3.6,9.9-4,20.8-1.2,30.9
		c2.8,9.8,8.6,18.6,16.4,25.1c7.9,6.5,17.8,10.5,28,11.3c10.4,0.8,20.9-1.7,29.9-7.1c8.7-5.2,15.6-13.1,19.8-22.3
		c4.3-9.6,5.5-20.4,3.5-30.7c-2-10-7.1-19.2-14.5-26.2c-7.4-7-16.9-11.8-27-13.3C58.8,3.8,56.2,3.6,53.7,3.6z M84.6,87.7
		c-9.7,8.8-22.9,13.2-36,11.8c-12.1-1.3-23.4-7.6-31-17.1c-7.3-9.1-10.8-20.9-9.7-32.6c1.2-13.5,8.4-25.9,19.5-33.7
		C38.5,8.4,52.7,5.9,65.8,9.5c1.6,0.4,3.1,1,4.7,1.5l0,0c12.8,5,22.8,15.8,27,28.8c1.2,3.9,1.9,7.9,2.1,12l0,0
		C100.1,65.3,94.6,78.6,84.6,87.7C84.2,88.2,93.8,79.3,84.6,87.7z"/>
	<path class="stIconeParcour" d="M32.2,15.5c-0.1,2-0.5,4.2-1.2,6c2.9,1.8,7.9,4.6,7.9,4.6s0,3.9-1.1,6.3c1.1,1.3,2.5,2.6,2.5,2.6
		S57,24.7,50.2,10C43.7,10.5,37.6,12.4,32.2,15.5C32.1,17.4,37.6,12.4,32.2,15.5z"/>
	<path class="stIconeParcour" d="M85,45.3c0,0,5.3,6.8,6.2,9.3c2.1,0.2,4.7-0.2,6.5-1c0-2.1-0.2-4.1-0.5-6.1c-0.3,0.1-2.6,1.1-3.1,1
		c-0.8-1.5-2.6-4.8-2.1-5.9c1.5,0.3,3.1,0.8,4.6,1.4C93.3,29.6,83,17.9,69.4,12.7c-1.9,3.2-3.8,8.3-3.9,10.9
		c0.9,0.2,2.4,0.6,2.4,0.6s3-4.2,4-4.9c2.2,0.9,2.9,1.8,2.9,1.8s-4.3,5.9-7.7,8c-2.8,0.6-5,0.8-5,0.8s3,2.4,3.3,3.8
		c-1.8,0.8-5,1.3-5,1.3l1.3,4.9c0,0,5.6-0.1,6.7-1C68,37,66.7,35,66.7,35l4.2-1.8c0,0,3.5,3.7,3.8,4.2c2.8,0.8,8.1,1.2,8.1,1.2v2.3
		c0,0-4.1,3.3-5.4,3.7c-2.2-0.7-4.8-2.2-4.8-2.8c-1.9-0.2-9.7,0.3-10.6,0.9c-1.1,1.9-5.3,10.6-5.3,12.1c2.3,3.4,7.3,6.4,7.3,6.4
		l9.6-1.6c0,0,2,11.8-0.1,19c1.9,4.6,3.8,8.7,5.3,11.2c3.2-2.3,6.1-4.9,8.7-7.9l0.2-0.6l0.6-0.3c0.7-0.9,1.4-1.8,2-2.7
		c1.7-4.2,5.2-14,5.9-21.1c-2.5-0.5-6.6-0.6-6.6-0.6s-6.6-6.7-6.1-10.4C84.4,45.7,85,45.3,85,45.3z"/>
	<path class="stIconeParcour" d="M44.6,63.7c-0.9-0.2-6.4-3.8-11-6.3c-1.3,0.5-5.2,2.7-5.2,2.7l-4.3-1.6c0,0,0.9-1.8,2-3.6
		c-1.7,0-4.3-0.3-5.1-2.2c-0.5-1.4,0.2-3,1-4.1c0.9-1.2,2.2-2.3,3.7-2.2c1.6,0.1,2.6,1.4,2.9,2.9l1.2-1.5c0,0-0.2-0.6-1.4-2.5
		c2.2-7,5.8-12.5,5.8-12.5s-3.7-2.5-6.7-4.3c-0.2,0.6-2.8,5.3-2.8,5.3s-2.6-1.4-5.2-3.9c1.1-3.2,4.9-7.9,4.9-7.9L24,21.4
		C15.6,29,10.2,39.9,9.7,52c5.1,7.5,16.2,9.7,18.1,9.8c-0.3,1.7-2.2,5.1-5.1,9.7c0.2,2.5,4.8,7.2,10.2,11.7c0,2.1-1.2,5.6-2.3,8.2
		c3.2,1.9,6.6,3.5,10.2,4.6c14.7-20.3,9.8-31.2,9.8-31.2S47.6,64.3,44.6,63.7C43.7,63.5,47.6,64.3,44.6,63.7z"/>
</g>
</svg>
