<svg id="Calque_1" data-name="Calque 1" xmlns="http://www.w3.org/2000/svg" viewBox="0 0 127.74 130.75"><defs><style>.cls-1,.cls-2{fill:none;stroke:#e30613;stroke-miterlimit:10;}.cls-2{stroke-dasharray:2 2;}.cls-3{fill:#e30613;}.cls-4{fill:#948ba4;}.cls-5,.cls-6{fill:#fff;}.cls-6{font-size:25px;font-family:Circula;}.cls-7{fill:#95c11f;}.cls-8{fill:#00a19a;}.cls-9{fill:#f39200;}</style></defs><title>logo-cl</title><path class="cls-1" d="M62.85,122.47h-1"/><path class="cls-2" d="M59.85,122.39A56.86,56.86,0,0,1,10.7,88.29"/><path class="cls-1" d="M10.31,87.36l-0.37-.93"/><circle class="cls-3" cx="10.01" cy="86.5" r="1.88" transform="translate(-31.5 9.96) rotate(-21.87)"/><path class="cls-4" d="M87.91,112.34a53,53,0,0,1-18.37,5.77,7.61,7.61,0,0,0-6.69,7.55v0.51a1.54,1.54,0,0,0,1.56,1.54,61.54,61.54,0,0,0,27.69-7.34Z"/><path class="cls-4" d="M114.22,98.1l-0.16-.1a8.22,8.22,0,0,0-10.57,1.78,52.8,52.8,0,0,1-13.84,11.59l4.19,8a62.54,62.54,0,0,0,20.78-19.54A1.26,1.26,0,0,0,114.22,98.1Z"/><rect class="cls-5" x="92.54" y="110.18" width="3.81" height="3.81" rx="0.8" ry="0.8" transform="translate(-47.12 74.12) rotate(-34.87)"/><rect class="cls-5" x="96.54" y="107.26" width="3.81" height="3.81" rx="0.8" ry="0.8" transform="translate(-45.94 81.61) rotate(-37.15)"/><path class="cls-5" d="M102.54,99.5h4.16a3.4,3.4,0,0,1,3.4,3.4v0a0.41,0.41,0,0,1-.41.41h-7.14a0.76,0.76,0,0,1-.76-0.76v-2.28A0.76,0.76,0,0,1,102.54,99.5Z" transform="translate(-40.42 110.65) rotate(-47.36)"/><path class="cls-5" d="M66.73,119.08h7.14a0.41,0.41,0,0,1,.41.41v0a3.4,3.4,0,0,1-3.4,3.4H66.73a0.76,0.76,0,0,1-.76-0.76v-2.28A0.76,0.76,0,0,1,66.73,119.08Z" transform="translate(159.07 228.9) rotate(170.61)"/><rect class="cls-5" x="84.14" y="114.81" width="3.81" height="3.81" rx="0.8" ry="0.8" transform="translate(-38.14 41.85) rotate(-22.52)"/><rect class="cls-5" x="79.22" y="116.74" width="3.81" height="3.81" rx="0.8" ry="0.8" transform="translate(-33.54 31.99) rotate(-18.56)"/><text class="cls-6" transform="translate(9.03 73.05)">Cité-langage</text><path class="cls-7" d="M1.88,51.43a63.54,63.54,0,0,1,124,0h1.88A65.38,65.38,0,0,0,0,51.43H1.88Z"/><path class="cls-7" d="M125.86,79.32a63.54,63.54,0,0,1-124,0H0a65.38,65.38,0,0,0,127.74,0h-1.88Z"/><path class="cls-8" d="M20.08,51.43a46,46,0,0,1,87.58,0h4.44a50.21,50.21,0,0,0-96.46,0h4.44Z"/><path class="cls-8" d="M107.66,79.32a46,46,0,0,1-87.58,0H15.64a50.21,50.21,0,0,0,96.46,0h-4.44Z"/><path class="cls-9" d="M42.4,27a18,18,0,0,1-1.23,6.08c2.94,1.78,7.89,4.64,7.89,4.64A19.78,19.78,0,0,1,48,44c1.14,1.32,2.53,2.63,2.53,2.63s16.74-10.35,9.9-25A43.87,43.87,0,0,0,42.4,27Z"/><path class="cls-9" d="M22.19,51.43H40.78a53.72,53.72,0,0,1,3.79-7.15s-3.71-2.48-6.65-4.33c-0.15.62-2.79,5.34-2.79,5.34a24.34,24.34,0,0,1-5.18-3.95c1.08-3.25,4.87-7.89,4.87-7.89l-0.63-.54A43.88,43.88,0,0,0,22.19,51.43Z"/><path class="cls-9" d="M84.37,49A52.87,52.87,0,0,0,92,50.16v1.27h13.57a43.76,43.76,0,0,0-26-27.16c-1.91,3.2-3.82,8.28-4,11,0.93,0.15,2.39.58,2.39,0.58s3-4.16,4-4.85a6.88,6.88,0,0,1,2.86,1.79s-4.26,5.89-7.66,8a38.12,38.12,0,0,1-5,.78s3,2.4,3.33,3.79a27.8,27.8,0,0,1-5,1.32l1.3,4.83h1.37c1.72-.09,4.56-0.32,5.3-1a10.3,10.3,0,0,0-1.55-3.87l4.18-1.78S84.14,48.54,84.37,49Z"/><path class="cls-9" d="M84.6,79.32c0.22,3.8.16,8.41-.9,11.92,1.78,4.18,3.45,8,4.88,10.53a43.71,43.71,0,0,0,12.65-13.2c0.93-2.49,2.09-5.81,3.06-9.25H84.6Z"/><path class="cls-9" d="M35.2,79.32C34.54,80.44,33.79,81.65,33,83c0.23,2.48,4.8,7.2,10.21,11.68,0,2.14-1.25,5.61-2.29,8.23a43.73,43.73,0,0,0,10.23,4.57c10.18-14,11-23.58,10.47-28.13H35.2Z"/></svg>