<?xml version="1.0" encoding="utf-8"?>
<!-- Generator: Adobe Illustrator 20.0.0, SVG Export Plug-In . SVG Version: 6.00 Build 0)  -->
<svg version="1.1" xmlns="http://www.w3.org/2000/svg" xmlns:xlink="http://www.w3.org/1999/xlink" x="0px" y="0px"
	 viewBox="0 0 161.9 160.5" style="enable-background:new 0 0 161.9 160.5;" xml:space="preserve">
<style type="text/css">
	.st0{fill:#E8900C;}
	.st1{fill:#F6F6F6;}
</style>
<g id="Calque_1">
</g>
<g id="Calque_2">
	<rect x="5.1" y="4.7" class="st0" width="151.7" height="151.7"/>
	<path class="st1" d="M133.4,96.9c-0.1-1.3-0.5-2.4-1.5-3.3c-1.9-1.9-6.7-2.9-13.3-3c-4.9-0.1-10.8,0.4-17.3,1.3
		c-2.9-1.7-6-3.5-8.5-5.8c-6.2-5.8-11.5-13.9-14.7-23c0.2-0.9,0.4-1.7,0.6-2.6c0.9-4.1,1.5-17.5,1.5-17.5s-2.6,10.1-3,11.6
		c-0.3,1-0.6,2-1,3.1c-2-6.9-3-13.6-3-18.7c0-1.4,0.1-4.2,0.5-6.4c0.2-1.6,0.8-2.4,1.4-2.8c1.2,0.3,2.5,2.1,3.9,5.1
		c1.2,2.6,1.1,5.6,1.1,7.5c0,0,1.3-4.6,1-7.4c-0.2-1.6-1.7-5.9-5.1-5.8H76l-1.5,0c-2.4,0-4.7,1.2-5.2,3.1c-2,7.5,0.2,19.1,4,33.6
		l-1.1,2.8c-2.9,7.1-6.5,14.1-9.7,20.4c-13.2,25.8-23.5,39.7-30.3,40.7l0-0.3C32,126.3,37.9,118,46,111.4c0.8-0.7,4.4-4.1,4.4-4.1
		s-4.8,2.6-5.9,3.2c-10.1,6-15.1,12.1-15.9,16.1c-0.2,1.2-0.1,2.7,1,3.3l2.6,1.3c7,3.5,15.7-5.7,27.1-25.9
		c11.7-3.8,26.3-7.4,39.6-9.4c11.9,6.8,25.5,10,30.8,8.6c1-0.3,2-1,2.6-1.8c0.4-0.7,1-3.3,1-3.3s-1,1.3-1.8,1.7
		c-3.3,1.6-13.8-1-24.5-6.3c9.3-1,17-1,21.2,0.3c5.3,1.7,5.3,3.4,5.2,3.7C133.2,98.6,133.5,97.4,133.4,96.9z M60.3,102.8
		c2-3.5,4.1-7.4,6.3-11.5c4.3-8.1,6.9-14.3,9-20.2C79.1,78,83.8,84.6,90,89.8c1.4,1.2,2.9,2.3,4.4,3.3
		C83.1,95.2,71.3,98.2,60.3,102.8z"/>
</g>
</svg>
