<?xml version="1.0" encoding="utf-8"?>
<!-- Generator: Adobe Illustrator 20.0.0, SVG Export Plug-In . SVG Version: 6.00 Build 0)  -->
<svg version="1.1" id="Calque_1" xmlns="http://www.w3.org/2000/svg" xmlns:xlink="http://www.w3.org/1999/xlink" x="0px" y="0px"
	 viewBox="0 0 161.9 160.5" style="enable-background:new 0 0 161.9 160.5;" xml:space="preserve">
<style type="text/css">
	.st0{fill:#F39200;}
</style>
<path class="st0" d="M48.9,120.6c-2.5,0-4.7-1.1-6.3-3.3c-2.7-3.7-2.4-7.9,1-11.8c5.2-6.1,16.8-10.7,26.4-13.8
	c0.9-1.7,1.9-3.4,2.8-5.1c2.9-5.6,5.3-11.1,7-16.1c-5.4-6.5-11.1-14.9-10.6-21c0.2-2.1,1.4-7.1,9.4-7.1c5.1,0,8.6,2.9,9.7,8.1
	s-0.2,12.1-2.2,18.7c1.6,1.8,3.4,3.7,5.2,5.6c3.8,3.8,7.6,7.2,11.3,10.1c8.7-0.9,16.5-0.7,20.8,1.5c3,1.5,4.4,4.1,3.7,7.1
	c-1,4.4-4.5,6.5-9.4,5.7c-4.8-0.8-10.8-4.2-16.7-8.6c-5.1,0.6-10.8,1.6-16.6,2.9c-3.7,0.8-7.3,1.8-10.6,2.8
	c-6.1,10.2-13.8,20.3-20.6,23.3C51.7,120.3,50.3,120.6,48.9,120.6z M65.5,99.1c-8.5,3.2-14.8,6.7-17.6,10c-2,2.4-1.6,3.8-0.7,5
	c0.6,0.9,1.4,1.6,3.7,0.6C54.8,112.8,60.2,107,65.5,99.1z M109.9,90c3.4,2.1,6.4,3.4,8.6,3.7c2.6,0.4,2.9-0.6,3.1-1.5
	c0.1-0.2,0.1-0.4-0.8-0.9C118.9,90.3,115,89.9,109.9,90z M84,75.2c-2.3,6.1-4.9,11.3-6.2,13.9c-0.1,0.1-0.1,0.3-0.2,0.4
	c2.3-0.6,4.2-1.1,5.6-1.4c3.8-0.9,7.8-1.6,11.9-2.3c-2.7-2.3-5.3-4.8-7.7-7.1C86.5,77.9,85.4,76.7,84,75.2z M78.7,48
	c-3.8,0-3.9,1.3-3.9,1.9c-0.2,2.9,2.5,8.1,7,14.1c1.3-5.1,1.7-9.4,1.1-12.3C82.3,49,81.1,48,78.7,48z"/>
<path class="st0" d="M138.8,35l-25.3-24.9L112.3,9h-1.6H27h-4v4v134v4h4h109h4v-4V37.9v-1.7L138.8,35z M112,14.1L135,37h-23V14.1z
	 M27,147V13h83v24.9l1,1.1h25v108H27z"/>
</svg>
