<?xml version="1.0" encoding="utf-8"?>
<!-- Generator: Adobe Illustrator 20.0.0, SVG Export Plug-In . SVG Version: 6.00 Build 0)  -->
<svg version="1.1" id="Calque_1" xmlns="http://www.w3.org/2000/svg" xmlns:xlink="http://www.w3.org/1999/xlink" x="0px" y="0px"
	 viewBox="0 0 273 272" style="enable-background:new 0 0 273 272;" xml:space="preserve">
<style type="text/css">
	.st0{fill:#F39200;}
	.st1{fill:#FDD39D;}
	.st2{fill:#FFFFFF;}
	.st3{fill:#00A19A;}
	.st4{fill:none;stroke:#FFFFFF;stroke-miterlimit:10;}
</style>
<g>
	<rect x="6.9" y="6.3" class="st0" width="259.6" height="259.6"/>
</g>
<polygon class="st1" points="139.2,136.2 62.7,266 6.9,266 "/>
<polyline class="st1" points="137.4,132.5 201,266 132.2,266 "/>
<polyline class="st1" points="142.9,122.2 268,201 267.3,265.9 "/>
<polygon class="st1" points="136.3,138.6 6.6,62.1 6.6,6.3 "/>
<polygon class="st1" points="135.8,131.5 6.6,189.3 6.6,133.5 "/>
<polygon class="st1" points="136,135.5 212.5,5.7 268.3,5.7 "/>
<polygon class="st1" points="141.1,131.5 82.1,6.1 144.9,6.1 "/>
<polyline class="st1" points="142.9,132.1 268,70.3 267.2,135.1 "/>
<polygon class="st2" points="136.7,18.7 174.8,96 260,108.4 198.3,168.5 212.9,253.4 136.7,213.3 60.4,253.4 75,168.5 13.3,108.4 
	98.5,96 "/>
<g>
	<path d="M129.9,244c-2.9,0-5.8-0.9-8.4-2.3l-53.8-27.8c-9-4.6-12.5-15.8-7.9-24.7l65.6-127.5c3.2-6.1,9.4-10,16.3-10
		c2.9,0,5.8,0.7,8.4,2l47,24.2c0.9-1.8,2.7-5.2,6.1-11.9c0.9-1.8,2.8-3,4.9-3c0.9,0,1.7,0.2,2.5,0.6l3.8,2c1.3,0.7,2.2,1.8,2.7,3.2
		c0.4,1.4,0.3,2.9-0.3,4.2c-0.5,1-4.6,9.4-6.9,13.2c4.5,5.6,5.4,13.4,2,19.9l-65.6,127.7C143,240,136.8,244,129.9,244
		C129.9,244,129.9,244,129.9,244z"/>
	<path class="st3" d="M141.7,53.7c2.5,0,5.1,0.6,7.5,1.8L198,80.6c0-0.1,7-13.7,7-13.7c0.6-1.2,1.8-1.9,3.1-1.9
		c0.5,0,1.1,0.1,1.6,0.4l3.8,2c1.7,0.9,2.4,3,1.5,4.7c0,0-5.8,11.8-7.6,14.3c4.7,4.9,6,12.4,2.7,18.8l-65.6,127.5
		c-2.9,5.6-8.6,8.9-14.5,8.9c-2.5,0-5.1-0.6-7.5-1.8l-53.8-27.7c-8-4.1-11.2-14-7-22l65.6-127.5C130.1,56.9,135.8,53.7,141.7,53.7
		 M141.7,49.7C141.7,49.7,141.7,49.7,141.7,49.7c-7.7,0-14.6,4.2-18.1,11L58,188.2c-5.1,10-1.2,22.3,8.8,27.4l53.8,27.7
		c2.9,1.5,6.1,2.3,9.3,2.3c7.7,0,14.6-4.2,18.1-11L213.6,107c3.5-6.8,2.9-14.8-1.4-20.9c2.3-4.1,5.5-10.6,6.3-12.2
		c1.8-3.6,0.4-8.1-3.2-10l-3.8-2c-1-0.5-2.2-0.8-3.4-0.8c-2.8,0-5.4,1.5-6.6,4c-2.5,4.9-4.1,8.1-5.2,10.1L151,52
		C148.2,50.5,144.9,49.7,141.7,49.7L141.7,49.7L141.7,49.7z"/>
</g>
<g>
	<polygon class="st2" points="145.9,77.4 135.3,77.9 140.2,68.5 	"/>
	<path class="st2" d="M135.2,85c-5.7-3-8-10-5-15.8c3-5.7,10-8,15.8-5c5.7,3,8,10,5,15.8S140.9,88,135.2,85z M144.6,66.8
		c-4.3-2.2-9.7-0.5-11.9,3.8c-2.2,4.3-0.5,9.7,3.8,11.9c4.3,2.2,9.7,0.5,11.9-3.8C150.6,74.3,148.9,69,144.6,66.8z"/>
</g>
<g>
	<polygon class="st2" points="171.7,90.7 161.2,91.2 166,81.8 	"/>
	<path class="st2" d="M161.1,98.3c-5.7-3-8-10-5-15.8c3-5.7,10-8,15.8-5s8,10,5,15.8C173.9,99,166.8,101.3,161.1,98.3z M170.5,80.1
		c-4.3-2.2-9.7-0.5-11.9,3.8c-2.2,4.3-0.5,9.7,3.8,11.9s9.7,0.5,11.9-3.8C176.5,87.7,174.8,82.3,170.5,80.1z"/>
</g>
<g>
	<polygon class="st2" points="197.6,104 187,104.5 191.9,95.1 	"/>
	<path class="st2" d="M186.9,111.7c-5.7-3-8-10-5-15.8c3-5.7,10-8,15.8-5c5.7,3,8,10,5,15.8C199.7,112.3,192.7,114.6,186.9,111.7z
		 M196.3,93.4c-4.3-2.2-9.7-0.5-11.9,3.8c-2.2,4.3-0.5,9.7,3.8,11.9s9.7,0.5,11.9-3.8C202.4,101,200.7,95.6,196.3,93.4z"/>
</g>
<g>
	<polygon class="st2" points="131,106.3 120.4,106.8 125.3,97.4 	"/>
	<path class="st2" d="M120.3,114c-5.7-3-8-10-5-15.8c3-5.7,10-8,15.8-5c5.7,3,8,10,5,15.8S126,116.9,120.3,114z M129.7,95.7
		c-4.3-2.2-9.7-0.5-11.9,3.8s-0.5,9.7,3.8,11.9c4.3,2.2,9.7,0.5,11.9-3.8C135.7,103.3,134,97.9,129.7,95.7z"/>
</g>
<g>
	<polygon class="st2" points="156.9,119.6 146.3,120.1 151.1,110.7 	"/>
	<path class="st2" d="M146.2,127.3c-5.7-3-8-10-5-15.8c3-5.7,10-8,15.8-5c5.7,3,8,10,5,15.8S151.9,130.2,146.2,127.3z M155.6,109
		c-4.3-2.2-9.7-0.5-11.9,3.8c-2.2,4.3-0.5,9.7,3.8,11.9s9.7,0.5,11.9-3.8C161.6,116.6,159.9,111.3,155.6,109z"/>
</g>
<g>
	<polygon class="st2" points="182.7,132.9 172.1,133.4 177,124 	"/>
	<path class="st2" d="M172,140.6c-5.7-3-8-10-5-15.8s10-8,15.8-5c5.7,3,8,10,5,15.8S177.8,143.5,172,140.6z M181.4,122.3
		c-4.3-2.2-9.7-0.5-11.9,3.8c-2.2,4.3-0.5,9.7,3.8,11.9c4.3,2.2,9.7,0.5,11.9-3.8C187.5,129.9,185.8,124.6,181.4,122.3z"/>
</g>
<g>
	<polygon class="st2" points="116.1,135.2 105.5,135.7 110.4,126.3 	"/>
	<path class="st2" d="M105.4,142.9c-5.7-3-8-10-5-15.8s10-8,15.8-5s8,10,5,15.8C118.2,143.6,111.1,145.8,105.4,142.9z M114.8,124.7
		c-4.3-2.2-9.7-0.5-11.9,3.8s-0.5,9.7,3.8,11.9c4.3,2.2,9.7,0.5,11.9-3.8S119.1,126.9,114.8,124.7z"/>
</g>
<g>
	<polygon class="st2" points="142,148.6 131.4,149.1 136.2,139.7 	"/>
	<path class="st2" d="M131.3,156.2c-5.7-3-8-10-5-15.8c3-5.7,10-8,15.8-5s8,10,5,15.8S137,159.2,131.3,156.2z M140.7,138
		c-4.3-2.2-9.7-0.5-11.9,3.8c-2.2,4.3-0.5,9.7,3.8,11.9c4.3,2.2,9.7,0.5,11.9-3.8C146.7,145.5,145,140.2,140.7,138z"/>
</g>
<g>
	<polygon class="st2" points="167.8,161.9 157.3,162.4 162.1,153 	"/>
	<path class="st2" d="M157.1,169.5c-5.7-3-8-10-5-15.8c3-5.7,10-8,15.8-5s8,10,5,15.8C169.9,170.2,162.9,172.5,157.1,169.5z
		 M166.5,151.3c-4.3-2.2-9.7-0.5-11.9,3.8c-2.2,4.3-0.5,9.7,3.8,11.9c4.3,2.2,9.7,0.5,11.9-3.8C172.6,158.8,170.9,153.5,166.5,151.3
		z"/>
</g>
<g>
	<polygon class="st2" points="101.9,162.9 91.3,163.4 96.1,154 	"/>
	<path class="st2" d="M91.2,170.5c-5.7-3-8-10-5-15.8c3-5.7,10-8,15.8-5c5.7,3,8,10,5,15.8C104,171.2,96.9,173.5,91.2,170.5z
		 M100.6,152.3c-4.3-2.2-9.7-0.5-11.9,3.8s-0.5,9.7,3.8,11.9c4.3,2.2,9.7,0.5,11.9-3.8S104.9,154.5,100.6,152.3z"/>
</g>
<g>
	<polygon class="st2" points="127.7,176.2 117.2,176.7 122,167.3 	"/>
	<path class="st2" d="M117,183.9c-5.7-3-8-10-5-15.8c3-5.7,10-8,15.8-5s8,10,5,15.8S122.8,186.8,117,183.9z M126.4,165.6
		c-4.3-2.2-9.7-0.5-11.9,3.8c-2.2,4.3-0.5,9.7,3.8,11.9c4.3,2.2,9.7,0.5,11.9-3.8C132.5,173.2,130.8,167.8,126.4,165.6z"/>
</g>
<g>
	<polygon class="st2" points="153.6,189.5 143,190 147.9,180.6 	"/>
	<path class="st2" d="M142.9,197.2c-5.7-3-8-10-5-15.8c3-5.7,10-8,15.8-5s8,10,5,15.8C155.7,197.9,148.6,200.1,142.9,197.2z
		 M152.3,178.9c-4.3-2.2-9.7-0.5-11.9,3.8c-2.2,4.3-0.5,9.7,3.8,11.9c4.3,2.2,9.7,0.5,11.9-3.8C158.3,186.5,156.6,181.2,152.3,178.9
		z"/>
</g>
<rect x="99.1" y="201.5" transform="matrix(0.8891 0.4577 -0.4577 0.8891 106.6028 -25.0843)" class="st2" width="11.9" height="11.9"/>
<g>
	
		<rect x="123.3" y="211.9" transform="matrix(0.8891 0.4577 -0.4577 0.8891 113.6105 -33.1852)" class="st2" width="3.9" height="11.9"/>
	
		<rect x="129.9" y="215.3" transform="matrix(0.8891 0.4577 -0.4577 0.8891 115.887 -35.8167)" class="st2" width="3.9" height="11.9"/>
</g>
<polygon class="st2" points="86.1,197.9 74.1,198.5 79.6,187.9 "/>
<line class="st4" x1="78.2" y1="176.4" x2="145.6" y2="211.1"/>
<path d="M266.4,6.3v259.6H6.9V6.3H266.4 M269.4,3.3h-3H6.9h-3v3v259.6v3h3h259.6h3v-3V6.3V3.3L269.4,3.3z"/>
</svg>
