<?xml version="1.0" encoding="utf-8"?>
<!-- Generator: Adobe Illustrator 20.0.0, SVG Export Plug-In . SVG Version: 6.00 Build 0)  -->
<svg version="1.1" id="Calque_1" xmlns="http://www.w3.org/2000/svg" xmlns:xlink="http://www.w3.org/1999/xlink" x="0px" y="0px"
	 viewBox="0 0 384 285" style="enable-background:new 0 0 384 285;" xml:space="preserve">
<style type="text/css">
	.st0{fill:#FFFFFF;}
	.st1{fill:#F39200;}
	.st2{fill:none;stroke:#00A19A;stroke-width:5;stroke-miterlimit:10;}
	.st3{fill:#2B3180;}
</style>
<rect x="69.6" y="33.1" class="st0" width="161.8" height="177"/>
<polygon class="st1" points="166.8,77.2 141.9,91.6 141.9,62.8 "/>
<circle class="st2" cx="150.5" cy="77.2" r="27.9"/>
<polygon class="st1" points="166.8,163.8 141.9,178.1 141.9,149.4 "/>
<circle class="st2" cx="150.5" cy="163.8" r="27.9"/>
<path class="st3" d="M224.6,30H76.4c-4.9,0-8.9,4-8.9,8.9v165.5c0,4.9,4,8.9,8.9,8.9h148.2c4.9,0,8.9-4,8.9-8.9V38.9
	C233.5,34,229.5,30,224.6,30z M85.5,202.4c0,2.4-2,4.4-4.4,4.4h-4.4c-2.4,0-4.4-2-4.4-4.4v-15.6c0-2.4,2-4.4,4.4-4.4h4.4
	c2.4,0,4.4,2,4.4,4.4V202.4z M85.5,173.3c0,2.4-2,4.4-4.4,4.4h-4.4c-2.4,0-4.4-2-4.4-4.4v-15.6c0-2.4,2-4.4,4.4-4.4h4.4
	c2.4,0,4.4,2,4.4,4.4V173.3z M85.5,143.8c0,2.4-2,4.4-4.4,4.4h-4.4c-2.4,0-4.4-2-4.4-4.4v-15.6c0-2.4,2-4.4,4.4-4.4h4.4
	c2.4,0,4.4,2,4.4,4.4V143.8z M85.5,114.1c0,2.4-2,4.4-4.4,4.4h-4.4c-2.4,0-4.4-2-4.4-4.4V98.5c0-2.4,2-4.4,4.4-4.4h4.4
	c2.4,0,4.4,2,4.4,4.4V114.1z M85.5,85c0,2.4-2,4.4-4.4,4.4h-4.4c-2.4,0-4.4-2-4.4-4.4V69.4c0-2.4,2-4.4,4.4-4.4h4.4
	c2.4,0,4.4,2,4.4,4.4V85z M85.5,55.5c0,2.4-2,4.4-4.4,4.4h-4.4c-2.4,0-4.4-2-4.4-4.4V39.9c0-2.4,2-4.4,4.4-4.4h4.4
	c2.4,0,4.4,2,4.4,4.4V55.5z M209.7,202.9H91.2v-78.2h118.5V202.9z M209.7,116.3H91.2V38.1h118.5V116.3z M228.5,202.4
	c0,2.4-2,4.4-4.4,4.4h-4.4c-2.4,0-4.4-2-4.4-4.4v-15.6c0-2.4,2-4.4,4.4-4.4h4.4c2.4,0,4.4,2,4.4,4.4V202.4z M228.5,173.3
	c0,2.4-2,4.4-4.4,4.4h-4.4c-2.4,0-4.4-2-4.4-4.4v-15.6c0-2.4,2-4.4,4.4-4.4h4.4c2.4,0,4.4,2,4.4,4.4V173.3z M228.5,143.8
	c0,2.4-2,4.4-4.4,4.4h-4.4c-2.4,0-4.4-2-4.4-4.4v-15.6c0-2.4,2-4.4,4.4-4.4h4.4c2.4,0,4.4,2,4.4,4.4V143.8z M228.5,114.1
	c0,2.4-2,4.4-4.4,4.4h-4.4c-2.4,0-4.4-2-4.4-4.4V98.5c0-2.4,2-4.4,4.4-4.4h4.4c2.4,0,4.4,2,4.4,4.4V114.1z M228.5,85
	c0,2.4-2,4.4-4.4,4.4h-4.4c-2.4,0-4.4-2-4.4-4.4V69.4c0-2.4,2-4.4,4.4-4.4h4.4c2.4,0,4.4,2,4.4,4.4V85z M228.5,55.5
	c0,2.4-2,4.4-4.4,4.4h-4.4c-2.4,0-4.4-2-4.4-4.4V39.9c0-2.4,2-4.4,4.4-4.4h4.4c2.4,0,4.4,2,4.4,4.4V55.5z"/>
<rect x="152.9" y="81.6" class="st0" width="161.8" height="177"/>
<polygon class="st1" points="249.8,125.3 224.9,139.7 224.9,110.9 "/>
<circle class="st2" cx="233.5" cy="125.3" r="27.9"/>
<polygon class="st1" points="249.8,211.9 224.9,226.3 224.9,197.5 "/>
<circle class="st2" cx="233.5" cy="211.9" r="27.9"/>
<g>
	<path class="st3" d="M159.4,263.9c-6.3,0-11.4-5.1-11.4-11.4V87c0-6.3,5.1-11.4,11.4-11.4h148.2c6.3,0,11.4,5.1,11.4,11.4v165.5
		c0,6.3-5.1,11.4-11.4,11.4H159.4z M302.8,233.1c-1,0-1.9,0.8-1.9,1.9v15.6c0,1,0.8,1.9,1.9,1.9h4.4c1,0,1.9-0.8,1.9-1.9V235
		c0-1-0.8-1.9-1.9-1.9H302.8z M159.8,233.1c-1,0-1.9,0.8-1.9,1.9v15.6c0,1,0.8,1.9,1.9,1.9h4.4c1,0,1.9-0.8,1.9-1.9V235
		c0-1-0.8-1.9-1.9-1.9H159.8z M290.3,248.5v-73.2H176.8v73.2H290.3z M302.8,203.9c-1,0-1.9,0.8-1.9,1.9v15.6c0,1,0.8,1.9,1.9,1.9
		h4.4c1,0,1.9-0.8,1.9-1.9v-15.6c0-1-0.8-1.9-1.9-1.9H302.8z M159.8,203.9c-1,0-1.9,0.8-1.9,1.9v15.6c0,1,0.8,1.9,1.9,1.9h4.4
		c1,0,1.9-0.8,1.9-1.9v-15.6c0-1-0.8-1.9-1.9-1.9H159.8z M302.8,174.5c-1,0-1.9,0.8-1.9,1.9V192c0,1,0.8,1.9,1.9,1.9h4.4
		c1,0,1.9-0.8,1.9-1.9v-15.6c0-1-0.8-1.9-1.9-1.9H302.8z M159.8,174.5c-1,0-1.9,0.8-1.9,1.9V192c0,1,0.8,1.9,1.9,1.9h4.4
		c1,0,1.9-0.8,1.9-1.9v-15.6c0-1-0.8-1.9-1.9-1.9H159.8z M302.8,144.8c-1,0-1.9,0.8-1.9,1.9v15.6c0,1,0.8,1.9,1.9,1.9h4.4
		c1,0,1.9-0.8,1.9-1.9v-15.6c0-1-0.8-1.9-1.9-1.9H302.8z M159.8,144.8c-1,0-1.9,0.8-1.9,1.9v15.6c0,1,0.8,1.9,1.9,1.9h4.4
		c1,0,1.9-0.8,1.9-1.9v-15.6c0-1-0.8-1.9-1.9-1.9H159.8z M290.3,161.9V88.7H176.8v73.2H290.3z M302.8,115.6c-1,0-1.9,0.8-1.9,1.9
		v15.6c0,1,0.8,1.9,1.9,1.9h4.4c1,0,1.9-0.8,1.9-1.9v-15.6c0-1-0.8-1.9-1.9-1.9C307.2,115.6,302.8,115.6,302.8,115.6z M159.8,115.6
		c-1,0-1.9,0.8-1.9,1.9v15.6c0,1,0.8,1.9,1.9,1.9h4.4c1,0,1.9-0.8,1.9-1.9v-15.6c0-1-0.8-1.9-1.9-1.9
		C164.2,115.6,159.8,115.6,159.8,115.6z M302.8,86.2c-1,0-1.9,0.8-1.9,1.9v15.6c0,1,0.8,1.9,1.9,1.9h4.4c1,0,1.9-0.8,1.9-1.9V88
		c0-1-0.8-1.9-1.9-1.9L302.8,86.2L302.8,86.2z M159.8,86.2c-1,0-1.9,0.8-1.9,1.9v15.6c0,1,0.8,1.9,1.9,1.9h4.4c1,0,1.9-0.8,1.9-1.9
		V88c0-1-0.8-1.9-1.9-1.9L159.8,86.2L159.8,86.2z"/>
	<path class="st0" d="M307.6,78.1c4.9,0,8.9,4,8.9,8.9v165.5c0,4.9-4,8.9-8.9,8.9H159.4c-4.9,0-8.9-4-8.9-8.9V87
		c0-4.9,4-8.9,8.9-8.9H307.6 M302.8,108h4.4c2.4,0,4.4-2,4.4-4.4V88c0-2.4-2-4.4-4.4-4.4h-4.4c-2.4,0-4.4,2-4.4,4.4v15.6
		C298.5,106,300.4,108,302.8,108 M159.8,108h4.4c2.4,0,4.4-2,4.4-4.4V88c0-2.4-2-4.4-4.4-4.4h-4.4c-2.4,0-4.4,2-4.4,4.4v15.6
		C155.5,106,157.4,108,159.8,108 M174.3,164.4h118.5V86.2H174.3V164.4 M302.8,137.5h4.4c2.4,0,4.4-2,4.4-4.4v-15.6
		c0-2.4-2-4.4-4.4-4.4h-4.4c-2.4,0-4.4,2-4.4,4.4v15.6C298.5,135.5,300.4,137.5,302.8,137.5 M159.8,137.5h4.4c2.4,0,4.4-2,4.4-4.4
		v-15.6c0-2.4-2-4.4-4.4-4.4h-4.4c-2.4,0-4.4,2-4.4,4.4v15.6C155.5,135.5,157.4,137.5,159.8,137.5 M302.8,166.6h4.4
		c2.4,0,4.4-2,4.4-4.4v-15.6c0-2.4-2-4.4-4.4-4.4h-4.4c-2.4,0-4.4,2-4.4,4.4v15.6C298.5,164.6,300.4,166.6,302.8,166.6 M159.8,166.6
		h4.4c2.4,0,4.4-2,4.4-4.4v-15.6c0-2.4-2-4.4-4.4-4.4h-4.4c-2.4,0-4.4,2-4.4,4.4v15.6C155.5,164.6,157.4,166.6,159.8,166.6
		 M302.8,196.3h4.4c2.4,0,4.4-2,4.4-4.4v-15.6c0-2.4-2-4.4-4.4-4.4h-4.4c-2.4,0-4.4,2-4.4,4.4V192
		C298.5,194.3,300.4,196.3,302.8,196.3 M159.8,196.3h4.4c2.4,0,4.4-2,4.4-4.4v-15.6c0-2.4-2-4.4-4.4-4.4h-4.4c-2.4,0-4.4,2-4.4,4.4
		V192C155.5,194.3,157.4,196.3,159.8,196.3 M174.3,251h118.5v-78.2H174.3V251 M302.8,225.8h4.4c2.4,0,4.4-2,4.4-4.4v-15.6
		c0-2.4-2-4.4-4.4-4.4h-4.4c-2.4,0-4.4,2-4.4,4.4v15.6C298.5,223.8,300.4,225.8,302.8,225.8 M159.8,225.8h4.4c2.4,0,4.4-2,4.4-4.4
		v-15.6c0-2.4-2-4.4-4.4-4.4h-4.4c-2.4,0-4.4,2-4.4,4.4v15.6C155.5,223.8,157.4,225.8,159.8,225.8 M302.8,254.9h4.4
		c2.4,0,4.4-2,4.4-4.4V235c0-2.4-2-4.4-4.4-4.4h-4.4c-2.4,0-4.4,2-4.4,4.4v15.6C298.5,253,300.4,254.9,302.8,254.9 M159.8,254.9h4.4
		c2.4,0,4.4-2,4.4-4.4V235c0-2.4-2-4.4-4.4-4.4h-4.4c-2.4,0-4.4,2-4.4,4.4v15.6C155.5,253,157.4,254.9,159.8,254.9 M307.6,73.1
		H159.4c-7.7,0-13.9,6.3-13.9,13.9v165.5c0,7.7,6.3,13.9,13.9,13.9h148.2c7.7,0,13.9-6.3,13.9-13.9V87
		C321.5,79.4,315.3,73.1,307.6,73.1L307.6,73.1z M303.5,88.7h3.1V103h-3.1V88.7L303.5,88.7z M160.5,88.7h3.1V103h-3.1V88.7
		L160.5,88.7z M179.3,91.2h108.5v68.2H179.3V91.2L179.3,91.2z M303.5,118.1h3.1v14.3h-3.1V118.1L303.5,118.1z M160.5,118.1h3.1v14.3
		h-3.1V118.1L160.5,118.1z M303.5,147.3h3.1v14.3h-3.1V147.3L303.5,147.3z M160.5,147.3h3.1v14.3h-3.1V147.3L160.5,147.3z
		 M303.5,177h3.1v14.3h-3.1V177L303.5,177z M160.5,177h3.1v14.3h-3.1V177L160.5,177z M179.3,177.8h108.5V246H179.3V177.8
		L179.3,177.8z M303.5,206.4h3.1v14.3h-3.1V206.4L303.5,206.4z M160.5,206.4h3.1v14.3h-3.1V206.4L160.5,206.4z M303.5,235.6h3.1
		v14.3h-3.1V235.6L303.5,235.6z M160.5,235.6h3.1v14.3h-3.1V235.6L160.5,235.6z"/>
</g>
</svg>
