<?xml version="1.0" encoding="utf-8"?>
<!-- Generator: Adobe Illustrator 20.0.0, SVG Export Plug-In . SVG Version: 6.00 Build 0)  -->
<svg version="1.1" id="Calque_1" xmlns="http://www.w3.org/2000/svg" xmlns:xlink="http://www.w3.org/1999/xlink" x="0px" y="0px"
	 viewBox="0 0 384 285" style="enable-background:new 0 0 384 285;" xml:space="preserve">
<style type="text/css">
	.st0{fill:none;stroke:#F9B03C;stroke-width:5;stroke-miterlimit:10;}
	.st1{fill:#F9B03C;}
	.st2{fill:#FFFFFF;stroke:#020203;stroke-width:3;stroke-miterlimit:10;}
	.st3{fill:none;stroke:#302D7D;stroke-width:5;stroke-miterlimit:10;}
	.st4{fill:#302D7D;}
	.st5{fill:none;stroke:#51AF54;stroke-width:5;stroke-miterlimit:10;}
	.st6{fill:#51AF54;}
	.st7{fill:none;stroke:#8359A0;stroke-width:5;stroke-miterlimit:10;}
	.st8{fill:#8359A0;}
	.st9{fill:none;stroke:#EE7AAA;stroke-width:5;stroke-miterlimit:10;}
	.st10{fill:#EE7AAA;}
	.st11{fill:none;stroke:#C02A2E;stroke-width:5;stroke-miterlimit:10;}
	.st12{fill:#C02A2E;}
	.st13{fill:none;stroke:#2DABE3;stroke-width:5;stroke-miterlimit:10;}
	.st14{fill:#2DABE3;}
</style>
<polyline id="parcours-G-trace" class="st0" points="172.5,162.8 85.2,75.5 41.6,75.5 "/>
<circle id="parcours-G-station-2-0" class="st1" cx="172.4" cy="162.8" r="5.6"/>
<circle id="parcours-G-station-0-3" class="st2" cx="129.1" cy="119.7" r="5.6"/>
<circle id="parcours-G-station-0-5" class="st1" cx="85" cy="76.1" r="5.6"/>
<circle id="parcours-G-station-3-3" class="st1" cx="41.4" cy="75.5" r="5.6"/>
<path id="parcours-F-trace_1_" class="st3" d="M172.2,32.2l0.3,43.3c0,1.3-44.5,44.5-45.3,45.4L41.8,207"/>
<circle id="parcours-F-station-2-3_1_" class="st4" cx="41.8" cy="207" r="5.6"/>
<circle id="parcours-F-station-2-2_1_" class="st4" cx="85" cy="163.4" r="5.6"/>
<circle id="parcours-F-station-0-3_1_" class="st2" cx="129.1" cy="119.7" r="10.3"/>
<circle id="parcours-F-station-2-1_1_" class="st4" cx="172.5" cy="76.1" r="5.6"/>
<circle id="parcours-F-station-0-0" class="st2" cx="172.7" cy="32.4" r="5.6"/>
<polyline id="parcours-E--trace" class="st5" points="122.9,249.7 172.2,249.6 259.7,249.9 "/>
<circle id="parcours-E-station-1-1" class="st2" cx="129.1" cy="249.7" r="5.6"/>
<circle id="parcours-E-station-2-5" class="st2" cx="172.5" cy="250.1" r="5.6"/>
<circle id="parcours-E-station-2-7" class="st6" cx="215.6" cy="249.9" r="5.6"/>
<circle id="parcours-E-station-2-6" class="st6" cx="259.7" cy="249.9" r="5.6"/>
<path id="parcours-D-trace_1_" class="st7" d="M172.2,249.3l41.8-41.5c1.2-1.2,2.8-1.8,4.4-1.8h41.1"/>
<circle id="parcours-D-station-2-5_1_" class="st2" cx="172.5" cy="250.1" r="10.3"/>
<circle id="parcours-D-station-1-4_1_" class="st8" cx="215.6" cy="205.9" r="5.6"/>
<circle id="parcours-D-station-2-4_1_" class="st8" cx="259.7" cy="205.9" r="5.6"/>
<polyline id="parcours-C-trace" class="st9" points="259.7,32.1 259.9,75.5 259.9,119.2 347.2,206.5 "/>
<circle id="parcours-C-station-3-2" class="st10" cx="347.2" cy="206.7" r="5.6"/>
<circle id="parcours-C-station-3-1" class="st10" cx="303.3" cy="163" r="5.6"/>
<circle id="parcours-C-station-0-4" class="st2" cx="259.7" cy="119" r="5.6"/>
<circle id="parcours-C-station-3-0" class="st10" cx="259.7" cy="75.3" r="5.6"/>
<circle id="parcours-C-station-3-4" class="st2" cx="259.7" cy="31.6" r="5.6"/>
<line id="parcours-B-trace" class="st11" x1="303.5" y1="32.1" x2="128.7" y2="31.6"/>
<circle id="parcours-B-station-0-6" class="st12" cx="128.7" cy="31.6" r="5.6"/>
<circle id="parcours-B-station-3-4" class="st2" cx="259.7" cy="31.6" r="10.3"/>
<circle id="parcours-B-station-0-2_1_" class="st12" cx="303.5" cy="32.1" r="5.6"/>
<circle id="parcours-B-station-0-0" class="st2" cx="172.7" cy="32.4" r="10.3"/>
<circle id="parcours-B-station-0-1_2_" class="st12" cx="216" cy="32" r="5.6"/>
<polyline id="parcours-A-trace" class="st13" points="303.5,75.5 259.9,119.2 128.9,250.1 41.2,250.1 "/>
<circle id="parcours-A-station-2-8" class="st14" cx="216" cy="162.8" r="5.6"/>
<circle id="parcours-A-station-1-2" class="st14" cx="41.2" cy="250.1" r="5.6"/>
<circle id="parcours-A-station-1-3" class="st14" cx="85.2" cy="250.3" r="5.6"/>
<circle class="st2" cx="129.1" cy="249.7" r="10.3"/>
<circle id="parcours-A-station-0-7" class="st14" cx="172.5" cy="206.5" r="5.6"/>
<circle class="st2" cx="259.7" cy="119" r="10.3"/>
<circle id="parcours-A-station-1-0" class="st14" cx="303.5" cy="75.3" r="5.6"/>
</svg>
