<?xml version="1.0" encoding="utf-8"?>
<!-- Generator: Adobe Illustrator 20.1.0, SVG Export Plug-In . SVG Version: 6.00 Build 0)  -->
<svg version="1.1" id="Calque_1" xmlns="http://www.w3.org/2000/svg" xmlns:xlink="http://www.w3.org/1999/xlink" x="0px" y="0px"
	 viewBox="0 0 384 285" style="enable-background:new 0 0 384 285;" xml:space="preserve">
<style type="text/css">
	.st0{fill:none;stroke:#F9B03C;stroke-width:5;stroke-miterlimit:10;}
	.st1{fill:#F9B03C;}
	.st2{fill:#FFFFFF;stroke:#020203;stroke-width:3;stroke-miterlimit:10;}
	.st3{fill:none;stroke:#6D73B5;stroke-width:5;stroke-miterlimit:10;}
	.st4{fill:#6D73B5;}
	.st5{fill:none;stroke:#95519B;stroke-width:5;stroke-miterlimit:10;}
	.st6{fill:#95519B;}
	.st7{fill:none;stroke:#77B82D;stroke-width:5;stroke-miterlimit:10;}
	.st8{fill:#76B830;}
	.st9{fill:none;stroke:#EE7AAA;stroke-width:5;stroke-miterlimit:10;}
	.st10{fill:#EE7AAA;}
	.st11{fill:none;stroke:#C02A2E;stroke-width:5;stroke-miterlimit:10;}
	.st12{fill:#C02A2E;}
	.st13{fill:none;stroke:#2DABE3;stroke-width:5;stroke-miterlimit:10;}
	.st14{fill:#2DABE3;}
</style>
<polyline id="parcours-G-trace" class="st0" points="165.5,159.8 78.2,72.5 34.6,72.5 "/>
<circle id="parcours-G-station-2-0" class="st1" cx="165.4" cy="159.8" r="5.6"/>
<circle id="parcours-G-station-0-3" class="st2" cx="122.1" cy="116.7" r="5.6"/>
<circle id="parcours-G-station-0-5" class="st1" cx="78" cy="73.1" r="5.6"/>
<circle id="parcours-G-station-3-3" class="st1" cx="34.4" cy="72.5" r="5.6"/>
<path id="parcours-F-trace_1_" class="st3" d="M165.2,29.2l0.3,43.3c0,1.3-44.5,44.5-45.3,45.4L34.8,204"/>
<circle id="parcours-F-station-2-3_1_" class="st4" cx="34.8" cy="204" r="5.6"/>
<circle id="parcours-F-station-2-2_1_" class="st4" cx="78" cy="160.4" r="5.6"/>
<circle id="parcours-F-station-0-3_1_" class="st2" cx="122.1" cy="116.7" r="10.3"/>
<circle id="parcours-F-station-2-1_1_" class="st4" cx="165.5" cy="73.1" r="5.6"/>
<circle id="parcours-F-station-0-0" class="st2" cx="165.7" cy="29.4" r="5.6"/>
<polyline id="parcours-E--trace" class="st5" points="115.9,246.7 165.2,246.6 252.7,246.9 "/>
<circle id="parcours-E-station-1-1" class="st2" cx="122.1" cy="246.7" r="5.6"/>
<circle id="parcours-E-station-2-5" class="st2" cx="165.5" cy="247.1" r="5.6"/>
<circle id="parcours-E-station-2-7" class="st6" cx="208.6" cy="246.9" r="5.6"/>
<circle id="parcours-E-station-2-6" class="st6" cx="252.7" cy="246.9" r="5.6"/>
<path id="parcours-D-trace_1_" class="st7" d="M165.2,246.3l41.8-41.5c1.2-1.2,2.8-1.8,4.4-1.8h41.1"/>
<circle id="parcours-D-station-2-5_1_" class="st2" cx="165.5" cy="247.1" r="10.3"/>
<circle id="parcours-D-station-1-4_1_" class="st8" cx="208.6" cy="202.9" r="5.6"/>
<circle id="parcours-D-station-2-4_1_" class="st8" cx="252.7" cy="202.9" r="5.6"/>
<polyline id="parcours-C-trace" class="st9" points="252.7,29.1 252.9,72.5 252.9,116.2 340.2,203.5 "/>
<circle id="parcours-C-station-3-2" class="st10" cx="340.2" cy="203.7" r="5.6"/>
<circle id="parcours-C-station-3-1" class="st10" cx="296.3" cy="160" r="5.6"/>
<circle id="parcours-C-station-0-4" class="st2" cx="252.7" cy="116" r="5.6"/>
<circle id="parcours-C-station-3-0" class="st10" cx="252.7" cy="72.3" r="5.6"/>
<circle id="parcours-C-station-3-4" class="st2" cx="252.7" cy="28.6" r="5.6"/>
<line id="parcours-B-trace" class="st11" x1="296.5" y1="29.1" x2="121.7" y2="28.6"/>
<circle id="parcours-B-station-0-6" class="st12" cx="121.7" cy="28.6" r="5.6"/>
<circle id="parcours-B-station-3-4" class="st2" cx="252.7" cy="28.6" r="10.3"/>
<circle id="parcours-B-station-0-2_1_" class="st12" cx="296.5" cy="29.1" r="5.6"/>
<circle id="parcours-B-station-0-0" class="st2" cx="165.7" cy="29.4" r="10.3"/>
<circle id="parcours-B-station-0-1_2_" class="st12" cx="209" cy="29" r="5.6"/>
<polyline id="parcours-A-trace" class="st13" points="296.5,72.5 252.9,116.2 121.9,247.1 34.2,247.1 "/>
<circle id="parcours-A-station-2-8" class="st14" cx="209" cy="159.8" r="5.6"/>
<circle id="parcours-A-station-1-2" class="st14" cx="34.2" cy="247.1" r="5.6"/>
<circle id="parcours-A-station-1-3" class="st14" cx="78.2" cy="247.3" r="5.6"/>
<circle class="st2" cx="122.1" cy="246.7" r="10.3"/>
<circle id="parcours-A-station-0-7" class="st14" cx="165.5" cy="203.5" r="5.6"/>
<circle class="st2" cx="252.7" cy="116" r="10.3"/>
<circle id="parcours-A-station-1-0" class="st14" cx="296.5" cy="72.3" r="5.6"/>
</svg>
