<?xml version="1.0" encoding="utf-8"?>
<!-- Generator: Adobe Illustrator 20.0.0, SVG Export Plug-In . SVG Version: 6.00 Build 0)  -->
<svg version="1.1" id="Calque_2" xmlns="http://www.w3.org/2000/svg" xmlns:xlink="http://www.w3.org/1999/xlink" x="0px" y="0px"
	 viewBox="0 0 273 272" style="enable-background:new 0 0 273 272;" xml:space="preserve">
<style type="text/css">
	.st0{fill:#F39200;}
	.st1{fill:#FDD39D;}
	.st2{fill:none;}
	.st3{fill:#FFFFFF;}
	.st4{opacity:0.5;}
	.st5{fill:#F8AF3B;}
	.st6{fill:#C1292E;}
	.st7{fill:#3FBBED;}
	.st8{fill:#50B055;}
	.st9{fill:#EE7AAA;}
	.st10{fill:#8458A0;}
	.st11{fill:#6874b7;}
</style>
<g>
	<rect x="7.1" y="6.3" class="st0" width="259.6" height="259.6"/>
</g>
<polygon class="st1" points="94,153.5 64.7,153.5 101.4,33.8 108.8,23.3 111.3,33.8 "/>
<polygon class="st1" points="66.6,67.4 68.2,63.5 57.7,63.5 55.9,67.4 48.2,67.4 5.4,153.5 43.5,153.5 74.3,67.4 "/>
<polygon class="st1" points="140.7,69.3 140.7,63.5 132.4,63.5 133.8,33.3 131,33.3 131.3,29.9 128.6,27.5 128.8,26 125.8,26 
	125.7,27.5 122.6,29.9 122.2,33.3 119.4,33.3 115.1,63.5 111.9,63.5 97.7,153.5 102.5,153.5 128.2,153.5 134.4,153.5 140.6,153.5 
	148.3,153.5 146,69.3 "/>
<polygon class="st1" points="161.5,43.2 161,39 158.7,39 158.9,40.7 154.4,40.7 154.3,39 152,39 152.3,43.2 148.8,43.2 154.2,153.5 
	181.6,153.5 165.1,43.2 "/>
<g>
	<polygon class="st1" points="195.3,32.3 195.7,30.9 166.1,30.9 167.3,32.3 	"/>
	<polygon class="st1" points="167.4,33.3 188.4,153.5 238.9,153.5 195.6,33.3 	"/>
</g>
<g>
	<polygon class="st2" points="242.9,153.5 214.8,78.3 225.5,78.3 223.3,73.3 228.3,73.3 220.5,55.6 229,73.3 233.4,73.3 235.9,78.3 
		238.9,78.3 266.6,134.1 266.6,6.3 7.1,6.3 7.1,265.9 266.6,265.9 266.6,153.5 	"/>
	<polygon class="st1" points="235.9,78.3 233.4,73.3 229,73.3 220.5,55.6 228.3,73.3 223.3,73.3 225.5,78.3 214.8,78.3 242.9,153.5 
		266.6,153.5 266.6,134.1 238.9,78.3 	"/>
</g>
<g>
	<polygon class="st2" points="252.6,135.3 244.6,135.3 246.2,139.5 254.4,139.5 	"/>
	<polygon class="st2" points="247.3,142.3 249.1,146.9 257.5,146.9 255.6,142.3 	"/>
	<path class="st2" d="M11,125.1L7.7,132l9.6-3.2l12-26.5h51l-10.7,44.6h8.8l3.9-18.5h6.9l0.1-0.8l8-3.1l7,3.1l-0.1,0.8h5.2l1.1-10.5
		h46.6l2.1,29h8l-4.7-46.2h68.6l12.4,31.9h8l-0.2-0.5l14.5-7l0.9,1.8V6.3H7.1v120.1L11,125.1z M179.5,68l1.9,8h19.1l-2.1-8l2.6,8
		h2.5l0.3,1h-25.4l-0.2-1h2.5L179.5,68z M206.1,92.5h-22.4L180.9,78h21L206.1,92.5z M170.2,93.5h13.7h22.5h13.7l1,2.9h7.5l0.4,1
		h-65.9l-0.1-1h7.5L170.2,93.5z M234.3,98.3l-0.9,1.6h-2.5h-68.4h-2.5l-1.7-1.6H234.3z M123.4,114.4h26l0.1,2.8h-26.3L123.4,114.4z
		 M69.8,101.6h-11l0.7-2.1h10.9L69.8,101.6z M58.4,98h14l-0.3,1H58.1L58.4,98z"/>
	<path class="st3" d="M251.3,132.1l0.2,0.5h-8l-12.4-31.9h-68.6l4.7,46.2h-8l-2.1-29h-46.6l-1.1,10.5h-5.2l0.1-0.8l-7-3.1l-8,3.1
		l-0.1,0.8h-6.9l-3.9,18.5h-8.8l10.7-44.6h-51l-12,26.5L7.7,132l3.3-6.8l-3.9,1.3v139.4h259.6v-139l-0.9-1.8L251.3,132.1z
		 M244.6,135.3h8.1l1.8,4.2h-8.2L244.6,135.3z M249.1,146.9l-1.8-4.6h8.3l1.9,4.6H249.1z"/>
	<polygon class="st3" points="149.5,114.4 123.4,114.4 123.3,117.2 149.6,117.2 	"/>
	<polygon class="st3" points="58.8,101.6 69.8,101.6 70.4,99.5 59.5,99.5 	"/>
	<polygon class="st3" points="72.4,98 58.4,98 58.1,98.9 72.2,98.9 	"/>
	<polygon class="st3" points="162.5,99.9 230.8,99.9 233.4,99.9 234.3,98.3 158.2,98.3 159.9,99.9 	"/>
	<polygon class="st3" points="163.2,97.5 229.1,97.5 228.7,96.5 221.2,96.5 220.2,93.5 206.4,93.5 183.9,93.5 170.2,93.5 
		170.6,96.5 163.1,96.5 	"/>
	<polygon class="st3" points="180.9,78 183.7,92.5 206.1,92.5 201.9,78 	"/>
	<polygon class="st3" points="178.4,77.1 203.9,77.1 203.6,76.1 201,76.1 198.4,68 200.5,76.1 181.3,76.1 179.5,68 180.8,76.1 
		178.2,76.1 	"/>
</g>
<polygon class="st3" points="240.7,15 242.5,23.9 247.8,16.5 245.9,25.4 253.7,20.8 248.3,28.1 257.4,27.1 249.4,31.6 258.2,34.4 
	249,35.3 255.9,41.3 247.2,38.4 251,46.7 244.3,40.6 244.3,49.7 240.7,41.3 237,49.7 237.1,40.6 230.4,46.7 234.2,38.4 225.5,41.3 
	232.3,35.3 223.2,34.4 232,31.6 224,27.1 233.1,28.1 227.6,20.8 235.5,25.4 233.6,16.5 238.9,23.9 "/>
<g class="st4">
	<path class="st5" d="M268.8,159.2c0,4.6-105.7,47.7-263.1,69l0-27.9c132.9-18.8,209-32.9,263-50.4
		C268.7,150,268.8,154.6,268.8,159.2z"/>
	<path class="st6" d="M268.6,148.3c-94.2,25.7-163.4,34.2-263,47.1l0-28.4c39.6-1.5,123-12.3,262.9-27.9L268.6,148.3z"/>
	<path class="st7" d="M268.5,137.5L5.6,162.8l0-27.7c37.3-3.4,116-3.7,262.8-6.8L268.5,137.5z"/>
	<polygon class="st8" points="268.3,126.7 5.6,130.2 5.5,102.6 268.2,117.5 	"/>
	<polygon class="st9" points="268.1,115.9 5.5,97.8 5.5,70.3 268,106.7 	"/>
	<path class="st10" d="M268,105.1L5.5,65.4l0-27.4c65.8,12.1,170.8,31.8,262.4,57.9L268,105.1z"/>
	<path class="st11" d="M267.8,94.3C170.8,65.9,69.5,45.6,5.4,33.2l0-27.3c58.7,14.3,145.3,37.8,262.3,79.3L267.8,94.3z"/>
</g>
<g>
	<polygon points="192.8,88 192.5,69.1 231.1,81 236.1,89.5 230.8,95.6 	"/>
	<path class="st3" d="M193,69.8l37.8,11.7l4.7,8l-4.8,5.6l-37.4-7.5L193,69.8 M191.9,68.4l0,1.4l0.3,17.8l0,0.8l0.8,0.2l37.4,7.5
		l0.6,0.1l0.4-0.4l4.8-5.6l0.5-0.5l-0.4-0.6l-4.7-8l-0.2-0.3l-0.4-0.1l-37.8-11.7L191.9,68.4L191.9,68.4z"/>
</g>
<g>
	<polygon points="193.1,110.4 192.8,92.1 214.2,95.7 220.6,104.4 214.2,111.7 	"/>
	<path class="st3" d="M193.3,92.6l20.6,3.5l6,8.3l-6,6.8l-20.3-1.3L193.3,92.6 M192.3,91.5l0,1.2l0.3,17.3l0,0.9l0.9,0.1l20.3,1.3
		l0.5,0l0.3-0.4l6-6.8l0.5-0.6l-0.5-0.6l-6-8.3l-0.2-0.3l-0.4-0.1l-20.6-3.5L192.3,91.5L192.3,91.5z"/>
</g>
<g>
	<polygon points="193.6,135.8 220.2,133.1 226,139.7 220.3,147.9 193.8,153.2 	"/>
	<path class="st3" d="M220,133.6l5.4,6.1l-5.4,7.7l-25.6,5.2l-0.3-16.4L220,133.6 M220.4,132.6l-0.5,0.1l-25.9,2.6l-0.9,0.1l0,0.9
		l0.3,16.4l0,1.2l1.2-0.2l25.6-5.2l0.4-0.1l0.2-0.3l5.4-7.7l0.5-0.6l-0.5-0.6l-5.4-6.1L220.4,132.6L220.4,132.6z"/>
</g>
<g>
	<polygon points="193.2,114.9 225.7,115.8 231.1,123 225.7,130.3 193.5,132.8 	"/>
	<path class="st3" d="M193.7,115.4l31.7,0.9l5,6.7l-5.1,6.9l-31.4,2.4L193.7,115.4 M192.7,114.4l0,1l0.3,16.8l0,1.1l1.1-0.1
		l31.4-2.4l0.5,0l0.3-0.4l5.1-6.9l0.4-0.6l-0.4-0.6l-5-6.7l-0.3-0.4l-0.5,0l-31.7-0.9L192.7,114.4L192.7,114.4z"/>
</g>
<g>
	<polygon points="120,89.9 99.6,73.1 118.6,63.2 182.2,78.3 182.7,98 	"/>
	<path class="st3" d="M118.7,63.7l63.1,15l0.4,18.8l-61.9-8.1l-19.7-16.2L118.7,63.7 M118.5,62.6l-0.3,0.2l-18.1,9.5L98.7,73l1.2,1
		l19.7,16.2l0.2,0.2l0.3,0l61.9,8.1l1.2,0.2l0-1.2l-0.4-18.8l0-0.8l-0.8-0.2l-63.1-15L118.5,62.6L118.5,62.6z"/>
</g>
<g>
	<polygon points="82.6,120.3 55,104.1 80.1,90.3 182.7,101.2 183.2,120.4 	"/>
	<path class="st3" d="M80.2,90.8l102,10.8l0.4,18.3l-99.9-0.1L56,104.1L80.2,90.8 M80,89.8l-0.3,0.2l-24.2,13.3L54,104l1.5,0.9
		l26.7,15.7l0.2,0.1l0.3,0l99.9,0.1l1,0l0-1l-0.4-18.3l0-0.9l-0.9-0.1l-102-10.8L80,89.8L80,89.8z"/>
</g>
<g>
	<polygon points="104.5,138.9 122.3,125 183.3,123.6 183.7,142.3 123.9,149.9 	"/>
	<path class="st3" d="M182.8,124.1l0.4,17.7l-59.2,7.5l-18.6-10.5l17.1-13.3L182.8,124.1 M183.8,123.1l-1,0l-60.3,1.4l-0.3,0
		l-0.3,0.2l-17.1,13.3l-1.2,0.9l1.3,0.7l18.6,10.5l0.3,0.2l0.3,0l59.2-7.5l0.9-0.1l0-0.9l-0.4-17.7L183.8,123.1L183.8,123.1z"/>
</g>
<g>
	<path d="M4.9,267.1v-33.3l0.5,0c61.8-3.6,120.2-13.2,173.6-28.3l0.1-1.4l8.8-8.6l-2.9-137.2l5.2,1.9l2.5,133.7l7.7,2.8l-0.1,2.4
		c22.9-7.3,45.3-15.8,66.7-25.2l0.7-0.3v93.6H4.9z"/>
	<path class="st3" d="M185.4,59l4.2,1.5l2.5,133.7l7.7,2.8l-0.1,2.8c22.8-7.3,45.3-15.7,67.4-25.5v92.3H5.4l0-32.3
		c59.8-3.5,118-12.5,174-28.4l0.1-1.5l8.8-8.6L185.4,59 M184.4,57.6l0,1.5l2.9,136.3l-8.5,8.3l-0.3,0.3l0,0.4l-0.1,0.8
		C125.3,220.2,67,229.6,5.4,233.3l-0.9,0.1v0.9l0,32.3v1h1h261.7h1v-1v-92.3v-1.5l-1.4,0.6c-21.1,9.4-43.3,17.8-65.9,25l0.1-1.4
		l0-0.7l-0.7-0.2l-7-2.5l-2.5-133l0-0.7l-0.7-0.2l-4.2-1.5L184.4,57.6L184.4,57.6z"/>
</g>
<g>
	<path d="M217.4,69c-0.2,0-0.5-0.1-0.8-0.2l-27.2-10.1c-0.8-0.3-1.4-1.1-1.4-1.8l-0.2-11.4c0-0.3,0.1-0.6,0.3-0.8
		c0.2-0.2,0.5-0.3,0.8-0.3c0.2,0,0.4,0.1,0.7,0.2l20.2,9.1c5.7,2.6,9.6,11.3,9,14.1C218.6,68.6,218.1,69,217.4,69z"/>
	<path class="st3" d="M188.9,44.9c0.1,0,0.3,0,0.5,0.1l20.2,9.1c6.5,2.9,10.8,14.4,7.8,14.4c-0.2,0-0.4,0-0.6-0.1l-27.2-10.1
		c-0.6-0.2-1.1-0.8-1.1-1.4l-0.2-11.4C188.3,45.1,188.5,44.9,188.9,44.9 M188.9,43.9L188.9,43.9c-0.4,0-0.9,0.2-1.1,0.5
		c-0.3,0.3-0.5,0.7-0.4,1.2l0.2,11.4c0,1,0.8,1.9,1.7,2.3l27.2,10.1c0.3,0.1,0.7,0.2,0.9,0.2c1,0,1.7-0.6,1.9-1.6
		c0.7-3.4-3.7-12.1-9.3-14.7l-20.2-9.1C189.4,44,189.1,43.9,188.9,43.9L188.9,43.9z"/>
</g>
<path class="st3" d="M199.8,55.9L199.8,55.9c1.2,0.5,2.1-0.1,2.1-1.2l0-1c0-1.2-1-2.5-2.1-3l0,0c-1.2-0.5-2.1,0-2.1,1.2l0,1
	C197.6,54.1,198.6,55.4,199.8,55.9z"/>
<path class="st3" d="M206.5,58.7l6.2,2.6c0.5,0.2,1-0.1,1-0.6v0c0-2-1.6-4.4-3.5-5.2l-3.8-1.7c-0.6-0.3-1.1,0-1.1,0.6l0,2.8
	C205.5,57.8,206,58.5,206.5,58.7z"/>
<path class="st3" d="M194.4,53.7L194.4,53.7c1.2,0.5,2.2,0,2.2-1.2l0-1c0-1.2-1-2.6-2.3-3.2l0,0c-1.3-0.6-2.3,0-2.3,1.2l0,1
	C192.1,51.8,193.1,53.2,194.4,53.7z"/>
<g>
	<path d="M185.1,57.1c-0.2,0-0.4,0-0.6-0.1l-43.1-16c-3.3-1.2-4.9-3.5-4.5-6.2c0.6-3.5,5-7,11.3-7c2.6,0,5.3,0.6,8,1.8l28.4,12.8
		c0.8,0.4,1.4,1.2,1.4,2l0.2,11.6c0,0.3-0.1,0.6-0.3,0.9C185.8,56.9,185.5,57.1,185.1,57.1L185.1,57.1z"/>
	<path class="st3" d="M148.3,28.2c2.4,0,5,0.5,7.8,1.8l28.4,12.8c0.6,0.3,1.1,1,1.1,1.5l0.2,11.6c0,0.4-0.3,0.7-0.7,0.7
		c-0.1,0-0.3,0-0.4-0.1l-43.1-16C133.2,37.4,138.4,28.2,148.3,28.2 M148.3,27.2c-6.5,0-11.1,3.8-11.8,7.5c-0.5,2.9,1.3,5.4,4.8,6.7
		l43.1,16c0.3,0.1,0.5,0.1,0.8,0.1c0.5,0,0.9-0.2,1.2-0.5c0.3-0.3,0.5-0.7,0.5-1.2l-0.2-11.6c0-1-0.8-2-1.7-2.4l-28.4-12.8
		C153.7,27.9,151,27.2,148.3,27.2L148.3,27.2z"/>
</g>
<path class="st3" d="M172,44.5L172,44.5c-1.6-0.7-3-2.4-3.1-3.8l0-1.2c0-1.4,1.3-2,2.9-1.2v0c1.6,0.7,2.9,2.4,3,3.8l0,1.2
	C174.9,44.6,173.7,45.2,172,44.5z"/>
<path class="st3" d="M161.7,40.3L150,35.5c-1.1-0.5-2.1-1.5-2.1-2.4v0c-0.1-3,3-4.1,6.8-2.4l6.8,3c1,0.4,1.8,1.4,1.8,2.2l0.1,3.6
	C163.5,40.4,162.7,40.7,161.7,40.3z"/>
<path class="st3" d="M179,47.4L179,47.4c-1.5-0.6-2.8-2.2-2.8-3.6l0-1.1c0-1.4,1.2-1.9,2.7-1.2l0,0c1.5,0.7,2.7,2.3,2.8,3.6l0,1.1
	C181.7,47.4,180.5,48,179,47.4z"/>
<path d="M266.6,6.3v259.6H7.1V6.3H266.6 M269.6,3.3h-3H7.1h-3v3v259.6v3h3h259.6h3v-3V6.3V3.3L269.6,3.3z"/>
</svg>
