<svg xmlns="http://www.w3.org/2000/svg" viewBox="0 0 594.02 418.79"><defs><style>.cls-1,.cls-10,.cls-12,.cls-15,.cls-17,.cls-5,.cls-8{fill:none;stroke-width:5px;}.cls-1{stroke:#f8af3c;}.cls-1,.cls-10,.cls-12,.cls-15,.cls-17,.cls-3,.cls-5,.cls-8{stroke-miterlimit:10;}.cls-2{fill:#f8af3c;}.cls-3,.cls-4{fill:#fff;}.cls-3{stroke:#000;stroke-width:3px;}.cls-5{stroke:#6874b7;}.cls-6{fill:#6874b7;}.cls-7{fill:#312782;}.cls-8{stroke:#83589f;}.cls-9{fill:#83589f;}.cls-10{stroke:#4fae54;}.cls-11{fill:#4fae54;}.cls-12{stroke:#ff7bac;}.cls-13{fill:#ff7bac;}.cls-14{fill:#ed7aa9;}.cls-15{stroke:#c0282d;}.cls-16{fill:#c0282d;}.cls-17{stroke:#29abe2;}.cls-18{fill:#29abe2;}.cls-19{fill:#3eb9eb;}</style></defs><title>Plan de travail 1</title><g id="parcours-G"><polyline id="parcours-G-trace" class="cls-1" points="261.02 263 117.02 119 45.02 119"/><circle id="parcours-G-station-2-0" class="cls-2" cx="260.71" cy="263" r="9.31"/><circle id="parcours-G-station-0-3" class="cls-3" cx="189.34" cy="191.94" r="9.31"/><circle id="parcours-G-station-0-5" class="cls-2" cx="116.71" cy="119.94" r="9.31"/><circle id="parcours-G-station-3-3" class="cls-2" cx="44.71" cy="119" r="9.31"/><rect id="parcours-G-masque" class="cls-4" y="71.02" width="120.74" height="27"/><g id="parcours-G-texte"><path class="cls-2" d="M33.9,81.95V73.37h1.82v7.08H39.2v1.5Z"/><path class="cls-2" d="M43.52,82.07A3.39,3.39,0,0,1,41,81.19a3.31,3.31,0,0,1-.89-2.48A3.64,3.64,0,0,1,41,76.17a2.93,2.93,0,0,1,2.28-.9,2.89,2.89,0,0,1,2.17.79,3,3,0,0,1,.77,2.19v.87H42a1.72,1.72,0,0,0,.45,1.19,1.59,1.59,0,0,0,1.19.43,4.92,4.92,0,0,0,1.12-.12,5.58,5.58,0,0,0,1.1-.39V81.6a4.22,4.22,0,0,1-1,.35A6.39,6.39,0,0,1,43.52,82.07Zm-.25-5.53a1.14,1.14,0,0,0-.89.36,1.67,1.67,0,0,0-.37,1h2.51a1.49,1.49,0,0,0-.35-1A1.17,1.17,0,0,0,43.27,76.54Z"/><path class="cls-2" d="M52.23,80a1.81,1.81,0,0,1-.7,1.54,3.47,3.47,0,0,1-2.1.53,6.51,6.51,0,0,1-1.22-.1,4.59,4.59,0,0,1-.94-.28V80.21a6.24,6.24,0,0,0,1.12.39,4.56,4.56,0,0,0,1.1.16q1,0,1-.56a.47.47,0,0,0-.13-.34,1.88,1.88,0,0,0-.45-.3c-.21-.11-.49-.24-.85-.39a5.32,5.32,0,0,1-1.11-.59,1.66,1.66,0,0,1-.52-.62,2,2,0,0,1-.16-.86,1.56,1.56,0,0,1,.68-1.35,3.3,3.3,0,0,1,1.92-.48,5.45,5.45,0,0,1,2.31.52l-.54,1.29a9.82,9.82,0,0,0-.92-.35,2.9,2.9,0,0,0-.87-.13q-.79,0-.79.43a.5.5,0,0,0,.26.42A6.87,6.87,0,0,0,50.4,78a5.18,5.18,0,0,1,1.13.58,1.72,1.72,0,0,1,.53.62A1.92,1.92,0,0,1,52.23,80Z"/><path class="cls-2" d="M58.54,81.95H56.75V72.82h1.79Z"/><path class="cls-2" d="M64.58,81.95l-.35-.89h0a2.65,2.65,0,0,1-.93.79,3,3,0,0,1-1.25.22,2,2,0,0,1-1.49-.54A2.07,2.07,0,0,1,60,80a1.73,1.73,0,0,1,.73-1.54,4.23,4.23,0,0,1,2.2-.55l1.14,0v-.29a.89.89,0,0,0-1-1,4.66,4.66,0,0,0-1.85.48l-.59-1.21a5.34,5.34,0,0,1,2.51-.59,3.13,3.13,0,0,1,2,.58,2.13,2.13,0,0,1,.7,1.75v4.37Zm-.53-3-.69,0a2.22,2.22,0,0,0-1.16.28.89.89,0,0,0-.38.79q0,.76.87.76a1.38,1.38,0,0,0,1-.36,1.26,1.26,0,0,0,.37-1Z"/><path class="cls-2" d="M73.73,81.95H71.94V78.12a1.84,1.84,0,0,0-.25-1.07.92.92,0,0,0-.8-.35,1.21,1.21,0,0,0-1.09.5,3.11,3.11,0,0,0-.33,1.66v3.09H67.67V75.39H69l.24.84h.1a1.89,1.89,0,0,1,.82-.72,2.81,2.81,0,0,1,1.19-.24,2.29,2.29,0,0,1,1.74.62,2.48,2.48,0,0,1,.59,1.79Z"/><path class="cls-2" d="M81.28,75.39v.91l-1,.26a1.79,1.79,0,0,1,.28,1,2,2,0,0,1-.74,1.65,3.2,3.2,0,0,1-2,.59l-.32,0-.26,0a.6.6,0,0,0-.28.47q0,.39,1,.39H79a2.54,2.54,0,0,1,1.65.46,1.66,1.66,0,0,1,.57,1.36,2,2,0,0,1-1,1.78,5,5,0,0,1-2.76.63,3.82,3.82,0,0,1-2.1-.48A1.52,1.52,0,0,1,74.67,83,1.4,1.4,0,0,1,75,82a2.1,2.1,0,0,1,1.09-.57,1.2,1.2,0,0,1-.48-.38.95.95,0,0,1,0-1.19,2.51,2.51,0,0,1,.63-.49,1.76,1.76,0,0,1-.82-.72,2.18,2.18,0,0,1-.3-1.16,2.05,2.05,0,0,1,.7-1.66,3,3,0,0,1,2-.59,5.22,5.22,0,0,1,.65,0l.48.07Zm-5.06,7.49a.65.65,0,0,0,.36.58,2,2,0,0,0,1,.21,3.52,3.52,0,0,0,1.51-.26.8.8,0,0,0,.55-.72.51.51,0,0,0-.32-.51,2.64,2.64,0,0,0-1-.14h-.93a1.4,1.4,0,0,0-.82.23A.72.72,0,0,0,76.22,82.88Zm.65-5.34a1.33,1.33,0,0,0,.24.85.88.88,0,0,0,.74.31.87.87,0,0,0,.74-.31,1.37,1.37,0,0,0,.23-.85q0-1.19-1-1.19T76.87,77.54Z"/><path class="cls-2" d="M87,81.95l-.24-.84h-.09a1.89,1.89,0,0,1-.82.71,2.78,2.78,0,0,1-1.2.25,2.29,2.29,0,0,1-1.74-.62,2.49,2.49,0,0,1-.59-1.78V75.39h1.79v3.83a1.84,1.84,0,0,0,.25,1.07.92.92,0,0,0,.8.35,1.21,1.21,0,0,0,1.09-.5,3.11,3.11,0,0,0,.33-1.66V75.39h1.79v6.56Z"/><path class="cls-2" d="M93.23,82.07a3.39,3.39,0,0,1-2.48-.87,3.31,3.31,0,0,1-.89-2.48,3.64,3.64,0,0,1,.82-2.55,2.93,2.93,0,0,1,2.28-.9,2.89,2.89,0,0,1,2.17.79,3,3,0,0,1,.77,2.19v.87H91.68a1.72,1.72,0,0,0,.45,1.19,1.59,1.59,0,0,0,1.19.43,4.92,4.92,0,0,0,1.12-.12,5.58,5.58,0,0,0,1.1-.39V81.6a4.22,4.22,0,0,1-1,.35A6.39,6.39,0,0,1,93.23,82.07ZM93,76.54a1.14,1.14,0,0,0-.89.36,1.67,1.67,0,0,0-.37,1h2.51a1.49,1.49,0,0,0-.35-1A1.17,1.17,0,0,0,93,76.54Z"/><path class="cls-2" d="M101.94,80a1.81,1.81,0,0,1-.7,1.54,3.47,3.47,0,0,1-2.1.53,6.51,6.51,0,0,1-1.22-.1,4.59,4.59,0,0,1-.94-.28V80.21a6.24,6.24,0,0,0,1.12.39,4.56,4.56,0,0,0,1.1.16q1,0,1-.56a.47.47,0,0,0-.13-.34,1.88,1.88,0,0,0-.45-.3c-.21-.11-.49-.24-.85-.39a5.32,5.32,0,0,1-1.11-.59,1.66,1.66,0,0,1-.52-.62A2,2,0,0,1,97,77.1a1.56,1.56,0,0,1,.68-1.35,3.3,3.3,0,0,1,1.92-.48,5.45,5.45,0,0,1,2.31.52l-.54,1.29a9.82,9.82,0,0,0-.92-.35,2.9,2.9,0,0,0-.87-.13q-.79,0-.79.43a.5.5,0,0,0,.26.42,6.87,6.87,0,0,0,1.12.52,5.18,5.18,0,0,1,1.13.58,1.72,1.72,0,0,1,.53.62A1.92,1.92,0,0,1,101.94,80Z"/><path class="cls-2" d="M35.84,96.49a2.13,2.13,0,0,1-1.82-.9,5,5,0,0,1,0-5,2.18,2.18,0,0,1,1.85-.9,2.14,2.14,0,0,1,1.89,1h.06a7.34,7.34,0,0,1-.13-1.31v-2.1h1.8v9.13H38.12l-.35-.85H37.7A2,2,0,0,1,35.84,96.49Zm.63-1.43a1.22,1.22,0,0,0,1-.4,2.32,2.32,0,0,0,.35-1.36v-.19a2.69,2.69,0,0,0-.33-1.51,1.21,1.21,0,0,0-1.06-.46,1.05,1.05,0,0,0-.93.51,2.72,2.72,0,0,0-.33,1.48,2.57,2.57,0,0,0,.33,1.45A1.09,1.09,0,0,0,36.46,95.06Z"/><path class="cls-2" d="M45.53,96.37l-.35-.89h0a2.65,2.65,0,0,1-.93.79,3,3,0,0,1-1.25.22,2,2,0,0,1-1.49-.54,2.07,2.07,0,0,1-.54-1.54,1.73,1.73,0,0,1,.73-1.54,4.23,4.23,0,0,1,2.2-.55l1.14,0V92a.89.89,0,0,0-1-1,4.66,4.66,0,0,0-1.85.48l-.59-1.21a5.34,5.34,0,0,1,2.51-.59,3.13,3.13,0,0,1,2,.58,2.13,2.13,0,0,1,.7,1.75v4.37Zm-.53-3-.69,0a2.22,2.22,0,0,0-1.16.28.89.89,0,0,0-.38.79q0,.76.87.76a1.38,1.38,0,0,0,1-.36,1.26,1.26,0,0,0,.37-1Z"/><path class="cls-2" d="M54.68,96.37H52.89V92.54a1.84,1.84,0,0,0-.25-1.07.92.92,0,0,0-.8-.35,1.21,1.21,0,0,0-1.09.5,3.11,3.11,0,0,0-.33,1.66v3.09H48.62V89.81H50l.24.84h.1a1.89,1.89,0,0,1,.82-.72,2.81,2.81,0,0,1,1.19-.24,2.29,2.29,0,0,1,1.74.62,2.48,2.48,0,0,1,.59,1.79Z"/><path class="cls-2" d="M61.1,94.42A1.81,1.81,0,0,1,60.4,96a3.47,3.47,0,0,1-2.1.53,6.51,6.51,0,0,1-1.22-.1,4.59,4.59,0,0,1-.94-.28V94.63a6.24,6.24,0,0,0,1.12.39,4.56,4.56,0,0,0,1.1.16q1,0,1-.56a.47.47,0,0,0-.13-.34,1.88,1.88,0,0,0-.45-.3c-.21-.11-.49-.24-.85-.39A5.32,5.32,0,0,1,56.8,93a1.66,1.66,0,0,1-.52-.62,2,2,0,0,1-.16-.86,1.56,1.56,0,0,1,.68-1.35,3.3,3.3,0,0,1,1.92-.48A5.45,5.45,0,0,1,61,90.2l-.54,1.29a9.82,9.82,0,0,0-.92-.35A2.9,2.9,0,0,0,58.7,91q-.79,0-.79.43a.5.5,0,0,0,.26.42,6.87,6.87,0,0,0,1.12.52A5.18,5.18,0,0,1,60.4,93a1.72,1.72,0,0,1,.53.62A1.92,1.92,0,0,1,61.1,94.42Z"/><path class="cls-2" d="M67.41,96.37H65.62V87.24h1.79Z"/><path class="cls-2" d="M72.26,96.49a3.39,3.39,0,0,1-2.48-.87,3.31,3.31,0,0,1-.89-2.48,3.64,3.64,0,0,1,.82-2.55,2.93,2.93,0,0,1,2.28-.9,2.89,2.89,0,0,1,2.17.79,3,3,0,0,1,.77,2.19v.87H70.7a1.72,1.72,0,0,0,.45,1.19,1.59,1.59,0,0,0,1.19.43A4.92,4.92,0,0,0,73.46,95a5.58,5.58,0,0,0,1.1-.39V96a4.22,4.22,0,0,1-1,.35A6.39,6.39,0,0,1,72.26,96.49ZM72,91a1.14,1.14,0,0,0-.89.36,1.67,1.67,0,0,0-.37,1h2.51a1.49,1.49,0,0,0-.35-1A1.17,1.17,0,0,0,72,91Z"/><path class="cls-2" d="M85.39,96.37H83.6V92.54a1.93,1.93,0,0,0-.24-1.07.83.83,0,0,0-.75-.35,1.08,1.08,0,0,0-1,.5,3.31,3.31,0,0,0-.31,1.66v3.09H79.51V89.81h1.37l.24.84h.1a1.81,1.81,0,0,1,.76-.71,2.47,2.47,0,0,1,1.14-.26,2.06,2.06,0,0,1,2,1h.16a1.77,1.77,0,0,1,.78-.71,2.59,2.59,0,0,1,1.16-.25,2.29,2.29,0,0,1,1.69.57,2.51,2.51,0,0,1,.57,1.83v4.28h-1.8V92.54a1.93,1.93,0,0,0-.24-1.07.83.83,0,0,0-.75-.35,1.11,1.11,0,0,0-1,.47,2.66,2.66,0,0,0-.33,1.49Z"/><path class="cls-2" d="M97.28,93.08a3.53,3.53,0,0,1-.85,2.51,3.06,3.06,0,0,1-2.35.9,3.28,3.28,0,0,1-1.67-.41,2.75,2.75,0,0,1-1.11-1.19,4,4,0,0,1-.39-1.81,3.51,3.51,0,0,1,.84-2.5,3.08,3.08,0,0,1,2.36-.89,3.31,3.31,0,0,1,1.67.41,2.75,2.75,0,0,1,1.11,1.18A4,4,0,0,1,97.28,93.08Zm-4.54,0a2.76,2.76,0,0,0,.32,1.47,1.14,1.14,0,0,0,1,.5,1.13,1.13,0,0,0,1-.5,2.8,2.8,0,0,0,.31-1.48,2.71,2.71,0,0,0-.32-1.46,1.35,1.35,0,0,0-2.07,0A2.71,2.71,0,0,0,92.74,93.08Z"/><path class="cls-2" d="M104.81,96.37H103V92.54a1.84,1.84,0,0,0-.25-1.07.92.92,0,0,0-.8-.35,1.21,1.21,0,0,0-1.09.5,3.11,3.11,0,0,0-.33,1.66v3.09H98.76V89.81h1.37l.24.84h.1a1.89,1.89,0,0,1,.82-.72,2.81,2.81,0,0,1,1.19-.24,2.29,2.29,0,0,1,1.74.62,2.48,2.48,0,0,1,.59,1.79Z"/><path class="cls-2" d="M108.73,96.49a2.13,2.13,0,0,1-1.82-.9,5,5,0,0,1,0-5,2.18,2.18,0,0,1,1.85-.9,2.14,2.14,0,0,1,1.89,1h.06a7.34,7.34,0,0,1-.13-1.31v-2.1h1.8v9.13H111l-.35-.85h-.08A2,2,0,0,1,108.73,96.49Zm.63-1.43a1.22,1.22,0,0,0,1-.4,2.32,2.32,0,0,0,.35-1.36v-.19a2.69,2.69,0,0,0-.33-1.51,1.21,1.21,0,0,0-1.06-.46,1.05,1.05,0,0,0-.93.51,2.72,2.72,0,0,0-.33,1.48,2.57,2.57,0,0,0,.33,1.45A1.09,1.09,0,0,0,109.36,95.06Z"/><path class="cls-2" d="M117.23,96.49a3.39,3.39,0,0,1-2.48-.87,3.31,3.31,0,0,1-.89-2.48,3.64,3.64,0,0,1,.82-2.55,2.93,2.93,0,0,1,2.28-.9,2.89,2.89,0,0,1,2.17.79,3,3,0,0,1,.77,2.19v.87h-4.23a1.72,1.72,0,0,0,.45,1.19,1.59,1.59,0,0,0,1.19.43,4.92,4.92,0,0,0,1.12-.12,5.58,5.58,0,0,0,1.1-.39V96a4.22,4.22,0,0,1-1,.35A6.39,6.39,0,0,1,117.23,96.49ZM117,91a1.14,1.14,0,0,0-.89.36,1.67,1.67,0,0,0-.37,1h2.51a1.49,1.49,0,0,0-.35-1A1.17,1.17,0,0,0,117,91Z"/></g><g id="parcours-G-icone"><path class="cls-2" d="M12.9,71.65a12.84,12.84,0,1,0,2,.15A12.91,12.91,0,0,0,12.9,71.65Zm7.95,21.58A11.79,11.79,0,1,1,17.2,73.55h0A11.77,11.77,0,0,1,24.67,84h0a11.85,11.85,0,0,1-3.82,9.21Z"/><path class="cls-2" d="M7.39,74.69a4.61,4.61,0,0,1-.32,1.54c.75.46,2,1.19,2,1.19A5.07,5.07,0,0,1,8.83,79c.29.34.65.67.65.67s4.29-2.65,2.54-6.42a11.19,11.19,0,0,0-4.63,1.4C7.37,75.2,8.78,73.91,7.39,74.69Z"/><path class="cls-2" d="M20.93,82.35a15.57,15.57,0,0,1,1.59,2.38,3.49,3.49,0,0,0,1.65-.27,11.31,11.31,0,0,0-.12-1.55,2.86,2.86,0,0,1-.8.25c-.2-.4-.65-1.23-.54-1.51a7,7,0,0,1,1.17.35,11.31,11.31,0,0,0-7-8,7.87,7.87,0,0,0-1,2.8c.24,0,.61.15.61.15a10.07,10.07,0,0,1,1-1.25,1.76,1.76,0,0,1,.73.46,9.72,9.72,0,0,1-2,2,9.77,9.77,0,0,1-1.29.2s.77.62.85,1a7.13,7.13,0,0,1-1.27.34L14.93,81a5.07,5.07,0,0,0,1.71-.26,2.64,2.64,0,0,0-.4-1l1.07-.46s.91,1,1,1.07a14.41,14.41,0,0,0,2.08.3v.59a9.73,9.73,0,0,1-1.38,1c-.56-.18-1.22-.58-1.22-.71a11.23,11.23,0,0,0-2.71.24,17.84,17.84,0,0,0-1.37,3.1,7.2,7.2,0,0,0,1.88,1.65L18,86a13.6,13.6,0,0,1,0,4.88,26.23,26.23,0,0,0,1.35,2.87,11.37,11.37,0,0,0,2.22-2l0-.16.14-.08c.18-.22.35-.45.51-.69a23.33,23.33,0,0,0,1.51-5.4,14.91,14.91,0,0,0-1.69-.16s-1.69-1.71-1.57-2.68A2.43,2.43,0,0,0,20.93,82.35Z"/><path class="cls-2" d="M10.57,87.05c-.22,0-1.65-1-2.82-1.61-.34.14-1.33.69-1.33.69l-1.09-.42s.24-.45.52-.93c-.45,0-1.11-.07-1.3-.56a1.16,1.16,0,0,1,.26-1,1.2,1.2,0,0,1,1-.57.87.87,0,0,1,.75.73l.3-.4a4.56,4.56,0,0,0-.36-.64,14,14,0,0,1,1.49-3.2S7,78.48,6.24,78c0,.16-.71,1.37-.71,1.37a6.24,6.24,0,0,1-1.33-1,8.72,8.72,0,0,1,1.25-2l-.15-.13a11.25,11.25,0,0,0-3.66,7.85c1.3,1.93,4.16,2.49,4.64,2.5A9.78,9.78,0,0,1,5,89c.06.64,1.23,1.85,2.62,3A7.47,7.47,0,0,1,7,94.13a11.22,11.22,0,0,0,2.62,1.18c3.78-5.21,2.51-8,2.51-8a14.32,14.32,0,0,1-1.57-.26C10.35,87,11.34,87.23,10.57,87.05Z"/></g></g><g id="parcours-F"><path id="parcours-F-trace" class="cls-5" d="M260.52,47.63,261,119c0,2.07-73.32,73.45-74.79,74.92l-140.9,142"/><circle id="parcours-F-station-2-3" class="cls-6" cx="45.34" cy="335.94" r="9.31"/><circle id="parcours-F-station-2-2" class="cls-6" cx="116.71" cy="263.94" r="9.31"/><circle id="parcours-F-station-0-3" class="cls-3" cx="189.34" cy="191.94" r="9.31"/><circle id="parcours-F-station-2-1" class="cls-6" cx="261.02" cy="119.94" r="9.31"/><circle id="parcours-F-station-0-0" class="cls-3" cx="261.34" cy="47.94" r="9.31"/><rect id="parcours-F-masque" class="cls-4" x="207.35" y="2" width="144" height="27"/><g id="parcours-F-texte"><path class="cls-7" d="M233.66,26.91V18.33h1.82v7.08H239v1.5Z"/><path class="cls-7" d="M244.48,26.91l-.35-.89h0a2.65,2.65,0,0,1-.93.79,3,3,0,0,1-1.25.22,2,2,0,0,1-1.49-.54,2.07,2.07,0,0,1-.54-1.54,1.73,1.73,0,0,1,.73-1.54,4.23,4.23,0,0,1,2.2-.55l1.14,0v-.29a.89.89,0,0,0-1-1,4.66,4.66,0,0,0-1.85.48l-.59-1.21a5.34,5.34,0,0,1,2.51-.59,3.13,3.13,0,0,1,2,.58,2.13,2.13,0,0,1,.7,1.75v4.37Zm-.53-3-.69,0a2.22,2.22,0,0,0-1.16.28.89.89,0,0,0-.38.79q0,.76.87.76a1.38,1.38,0,0,0,1-.36,1.26,1.26,0,0,0,.37-1Z"/><path class="cls-7" d="M253.63,26.91h-1.79V23.08a1.84,1.84,0,0,0-.25-1.07.92.92,0,0,0-.8-.35,1.21,1.21,0,0,0-1.09.5,3.11,3.11,0,0,0-.33,1.66v3.09h-1.79V20.35h1.37l.24.84h.1a1.89,1.89,0,0,1,.82-.72,2.81,2.81,0,0,1,1.19-.24,2.29,2.29,0,0,1,1.74.62,2.48,2.48,0,0,1,.59,1.79Z"/><path class="cls-7" d="M261.18,20.35v.91l-1,.26a1.79,1.79,0,0,1,.28,1,2,2,0,0,1-.74,1.65,3.2,3.2,0,0,1-2,.59l-.32,0-.26,0a.6.6,0,0,0-.28.47q0,.39,1,.39h1.12a2.54,2.54,0,0,1,1.65.46,1.66,1.66,0,0,1,.57,1.36,2,2,0,0,1-1,1.78,5,5,0,0,1-2.76.63,3.82,3.82,0,0,1-2.1-.48,1.52,1.52,0,0,1-.72-1.34,1.4,1.4,0,0,1,.37-1,2.1,2.1,0,0,1,1.09-.57,1.2,1.2,0,0,1-.48-.38.95.95,0,0,1,0-1.19,2.51,2.51,0,0,1,.63-.49,1.76,1.76,0,0,1-.82-.72,2.18,2.18,0,0,1-.3-1.16,2.05,2.05,0,0,1,.7-1.66,3,3,0,0,1,2-.59,5.22,5.22,0,0,1,.65,0l.48.07Zm-5.06,7.49a.65.65,0,0,0,.36.58,2,2,0,0,0,1,.21,3.52,3.52,0,0,0,1.51-.26.8.8,0,0,0,.55-.72.51.51,0,0,0-.32-.51,2.64,2.64,0,0,0-1-.14h-.93a1.4,1.4,0,0,0-.82.23A.72.72,0,0,0,256.12,27.84Zm.65-5.34a1.33,1.33,0,0,0,.24.85.88.88,0,0,0,.74.31.87.87,0,0,0,.74-.31,1.37,1.37,0,0,0,.23-.85q0-1.19-1-1.19T256.77,22.5Z"/><path class="cls-7" d="M266.91,26.91l-.24-.84h-.09a1.89,1.89,0,0,1-.82.71,2.78,2.78,0,0,1-1.2.25,2.29,2.29,0,0,1-1.74-.62,2.49,2.49,0,0,1-.59-1.78V20.35H264v3.83a1.84,1.84,0,0,0,.25,1.07.92.92,0,0,0,.8.35,1.21,1.21,0,0,0,1.09-.5,3.11,3.11,0,0,0,.33-1.66V20.35h1.79v6.56Z"/><path class="cls-7" d="M273.13,27a3.39,3.39,0,0,1-2.48-.87,3.31,3.31,0,0,1-.89-2.48,3.64,3.64,0,0,1,.82-2.55,2.93,2.93,0,0,1,2.28-.9A2.89,2.89,0,0,1,275,21a3,3,0,0,1,.77,2.19v.87h-4.23a1.72,1.72,0,0,0,.45,1.19,1.59,1.59,0,0,0,1.19.43,4.92,4.92,0,0,0,1.12-.12,5.58,5.58,0,0,0,1.1-.39v1.39a4.22,4.22,0,0,1-1,.35A6.39,6.39,0,0,1,273.13,27Zm-.25-5.53a1.14,1.14,0,0,0-.89.36,1.67,1.67,0,0,0-.37,1h2.51a1.49,1.49,0,0,0-.35-1A1.17,1.17,0,0,0,272.88,21.5Z"/><path class="cls-7" d="M281.84,25a1.81,1.81,0,0,1-.7,1.54A3.47,3.47,0,0,1,279,27a6.51,6.51,0,0,1-1.22-.1,4.59,4.59,0,0,1-.94-.28V25.17a6.24,6.24,0,0,0,1.12.39,4.56,4.56,0,0,0,1.1.16q1,0,1-.56a.47.47,0,0,0-.13-.34,1.88,1.88,0,0,0-.45-.3c-.21-.11-.49-.24-.85-.39a5.32,5.32,0,0,1-1.11-.59,1.66,1.66,0,0,1-.52-.62,2,2,0,0,1-.16-.86,1.56,1.56,0,0,1,.68-1.35,3.3,3.3,0,0,1,1.92-.48,5.45,5.45,0,0,1,2.31.52L281.23,22a9.82,9.82,0,0,0-.92-.35,2.9,2.9,0,0,0-.87-.13q-.79,0-.79.43a.5.5,0,0,0,.26.42,6.87,6.87,0,0,0,1.12.52,5.18,5.18,0,0,1,1.13.58,1.72,1.72,0,0,1,.53.62A1.92,1.92,0,0,1,281.84,25Z"/><path class="cls-7" d="M289.33,27a3.39,3.39,0,0,1-2.48-.87,3.31,3.31,0,0,1-.89-2.48,3.64,3.64,0,0,1,.82-2.55,2.93,2.93,0,0,1,2.28-.9,2.89,2.89,0,0,1,2.17.79,3,3,0,0,1,.77,2.19v.87h-4.23a1.72,1.72,0,0,0,.45,1.19,1.59,1.59,0,0,0,1.19.43,4.92,4.92,0,0,0,1.12-.12,5.58,5.58,0,0,0,1.1-.39v1.39a4.22,4.22,0,0,1-1,.35A6.39,6.39,0,0,1,289.33,27Zm-.25-5.53a1.14,1.14,0,0,0-.89.36,1.67,1.67,0,0,0-.37,1h2.51a1.49,1.49,0,0,0-.35-1A1.17,1.17,0,0,0,289.08,21.5Z"/><path class="cls-7" d="M296.22,25.6a3.89,3.89,0,0,0,1.13-.21v1.33a4,4,0,0,1-1.64.3,2,2,0,0,1-1.56-.54,2.36,2.36,0,0,1-.49-1.63V21.69h-.86v-.76l1-.6L294.3,19h1.14v1.4h1.84v1.34h-1.84v3.16a.7.7,0,0,0,.21.56A.84.84,0,0,0,296.22,25.6Z"/><path class="cls-7" d="M306.38,25a1.81,1.81,0,0,1-.7,1.54,3.47,3.47,0,0,1-2.1.53,6.51,6.51,0,0,1-1.22-.1,4.59,4.59,0,0,1-.94-.28V25.17a6.24,6.24,0,0,0,1.12.39,4.56,4.56,0,0,0,1.1.16q1,0,1-.56a.47.47,0,0,0-.13-.34,1.88,1.88,0,0,0-.45-.3c-.21-.11-.49-.24-.85-.39a5.32,5.32,0,0,1-1.11-.59,1.66,1.66,0,0,1-.52-.62,2,2,0,0,1-.16-.86,1.56,1.56,0,0,1,.68-1.35,3.3,3.3,0,0,1,1.92-.48,5.45,5.45,0,0,1,2.31.52L305.77,22a9.82,9.82,0,0,0-.92-.35,2.9,2.9,0,0,0-.87-.13q-.79,0-.79.43a.5.5,0,0,0,.26.42,6.87,6.87,0,0,0,1.12.52,5.18,5.18,0,0,1,1.13.58,1.72,1.72,0,0,1,.53.62A1.92,1.92,0,0,1,306.38,25Z"/><path class="cls-7" d="M313.74,23.62a3.53,3.53,0,0,1-.85,2.51,3.06,3.06,0,0,1-2.35.9,3.28,3.28,0,0,1-1.67-.41,2.75,2.75,0,0,1-1.11-1.19,4,4,0,0,1-.39-1.81,3.51,3.51,0,0,1,.84-2.5,3.08,3.08,0,0,1,2.36-.89,3.31,3.31,0,0,1,1.67.41,2.75,2.75,0,0,1,1.11,1.18A4,4,0,0,1,313.74,23.62Zm-4.54,0a2.76,2.76,0,0,0,.32,1.47,1.14,1.14,0,0,0,1,.5,1.13,1.13,0,0,0,1-.5,2.8,2.8,0,0,0,.31-1.48,2.71,2.71,0,0,0-.32-1.46,1.35,1.35,0,0,0-2.07,0A2.71,2.71,0,0,0,309.2,23.62Z"/><path class="cls-7" d="M317.88,27q-3.06,0-3.06-3.36a3.59,3.59,0,0,1,.83-2.56,3.13,3.13,0,0,1,2.39-.88,4.55,4.55,0,0,1,2,.45l-.53,1.39q-.42-.17-.79-.28a2.54,2.54,0,0,0-.73-.11q-1.4,0-1.4,2t1.4,1.92a3.17,3.17,0,0,0,1-.14,3.44,3.44,0,0,0,.88-.43v1.53a2.89,2.89,0,0,1-.88.38A4.94,4.94,0,0,1,317.88,27Z"/><path class="cls-7" d="M321.32,18.65q0-.87,1-.87t1,.87a.85.85,0,0,1-.24.65,1,1,0,0,1-.73.23Q321.32,19.53,321.32,18.65Zm1.87,8.26H321.4V20.35h1.79Z"/><path class="cls-7" d="M328,27a3.39,3.39,0,0,1-2.48-.87,3.31,3.31,0,0,1-.89-2.48,3.64,3.64,0,0,1,.82-2.55,2.93,2.93,0,0,1,2.28-.9,2.89,2.89,0,0,1,2.17.79,3,3,0,0,1,.77,2.19v.87h-4.23a1.72,1.72,0,0,0,.45,1.19,1.59,1.59,0,0,0,1.19.43,4.92,4.92,0,0,0,1.12-.12,5.58,5.58,0,0,0,1.1-.39v1.39a4.22,4.22,0,0,1-1,.35A6.39,6.39,0,0,1,328,27Zm-.25-5.53a1.14,1.14,0,0,0-.89.36,1.67,1.67,0,0,0-.37,1H329a1.49,1.49,0,0,0-.35-1A1.17,1.17,0,0,0,327.78,21.5Zm-1-1.87v-.16a16.49,16.49,0,0,0,1.38-1.77h2v.12q-.31.31-1,.91t-1.15.89Z"/><path class="cls-7" d="M334.93,25.6a3.89,3.89,0,0,0,1.13-.21v1.33a4,4,0,0,1-1.64.3,2,2,0,0,1-1.56-.54,2.36,2.36,0,0,1-.49-1.63V21.69h-.86v-.76l1-.6L333,19h1.14v1.4H336v1.34h-1.84v3.16a.7.7,0,0,0,.21.56A.84.84,0,0,0,334.93,25.6Z"/><path class="cls-7" d="M340.35,27a3.39,3.39,0,0,1-2.48-.87,3.31,3.31,0,0,1-.89-2.48,3.64,3.64,0,0,1,.82-2.55,2.93,2.93,0,0,1,2.28-.9,2.89,2.89,0,0,1,2.17.79,3,3,0,0,1,.77,2.19v.87H338.8a1.72,1.72,0,0,0,.45,1.19,1.59,1.59,0,0,0,1.19.43,4.92,4.92,0,0,0,1.12-.12,5.58,5.58,0,0,0,1.1-.39v1.39a4.22,4.22,0,0,1-1,.35A6.39,6.39,0,0,1,340.35,27Zm-.25-5.53a1.14,1.14,0,0,0-.89.36,1.67,1.67,0,0,0-.37,1h2.51a1.49,1.49,0,0,0-.35-1A1.17,1.17,0,0,0,340.1,21.5Zm-1-1.87v-.16a16.49,16.49,0,0,0,1.38-1.77h2v.12q-.31.31-1,.91t-1.15.89Z"/><path class="cls-7" d="M349.06,25a1.81,1.81,0,0,1-.7,1.54,3.47,3.47,0,0,1-2.1.53,6.51,6.51,0,0,1-1.22-.1,4.59,4.59,0,0,1-.94-.28V25.17a6.24,6.24,0,0,0,1.12.39,4.56,4.56,0,0,0,1.1.16q1,0,1-.56a.47.47,0,0,0-.13-.34,1.88,1.88,0,0,0-.45-.3c-.21-.11-.49-.24-.85-.39a5.32,5.32,0,0,1-1.11-.59,1.66,1.66,0,0,1-.52-.62,2,2,0,0,1-.16-.86,1.56,1.56,0,0,1,.68-1.35,3.3,3.3,0,0,1,1.92-.48,5.45,5.45,0,0,1,2.31.52L348.45,22a9.82,9.82,0,0,0-.92-.35,2.9,2.9,0,0,0-.87-.13q-.79,0-.79.43a.5.5,0,0,0,.26.42,6.87,6.87,0,0,0,1.12.52,5.18,5.18,0,0,1,1.13.58,1.72,1.72,0,0,1,.53.62A1.92,1.92,0,0,1,349.06,25Z"/></g><g id="parcours-F-icone"><circle class="cls-7" cx="217.11" cy="17.41" r="2.55"/><path class="cls-7" d="M220.71,27.76c0-.08,0-.16,0-.25v-4a2.78,2.78,0,0,0-2.77-2.77h-1.67a2.78,2.78,0,0,0-2.77,2.77v4c0,.08,0,.16,0,.25Z"/><path class="cls-7" d="M217.95,20.71a2.78,2.78,0,0,1,2.77,2.77v4c0,.08,0,.16,0,.25h-7.19c0-.08,0-.16,0-.25v-4a2.78,2.78,0,0,1,2.77-2.77h1.67"/><circle class="cls-7" cx="224.53" cy="16.18" r="1.89"/><path class="cls-7" d="M227.2,23.86c0-.06,0-.12,0-.18v-3a2.07,2.07,0,0,0-2.06-2.06h-1.24a2.07,2.07,0,0,0-2.06,2.06v3c0,.06,0,.12,0,.18Z"/><path class="cls-7" d="M225.15,18.63a2.07,2.07,0,0,1,2.06,2.06v3c0,.06,0,.12,0,.18h-5.34c0-.06,0-.12,0-.18v-3a2.07,2.07,0,0,1,2.06-2.06h1.24"/><circle class="cls-7" cx="209.7" cy="16.18" r="1.89"/><path class="cls-7" d="M212.37,23.86c0-.06,0-.12,0-.18v-3a2.07,2.07,0,0,0-2.06-2.06h-1.24A2.07,2.07,0,0,0,207,20.69v3c0,.06,0,.12,0,.18Z"/><path class="cls-7" d="M226.21,7a4.87,4.87,0,0,0-2.83-4.11,8.29,8.29,0,0,0-6.21-.52A6.77,6.77,0,0,0,214.6,3.8a5.12,5.12,0,0,0-.87,1,4.42,4.42,0,0,0-.28.52c-.06.14-.06.18-.19.22a3.12,3.12,0,0,1-.49,0c-1.82.2-3.78,1.28-4.29,3.16-.61,2.27,1.28,4.13,3.32,4.68-.1.4-.57.54-.41,1s.68.49,1.08.31a2.58,2.58,0,0,0,1-.8c.06-.08.11-.23.19-.28a.68.68,0,0,1,.34-.06,6.36,6.36,0,0,0,.72-.1,5.55,5.55,0,0,0,2.43-1.12,4.52,4.52,0,0,0,.45-.43s.12-.18.17-.2a1.61,1.61,0,0,1,.45.09c.27,0,.54.08.81.1a5.11,5.11,0,0,1,.79,0c.14,0,.13.09.19.23s.1.2.15.3a3,3,0,0,0,.4.54,2.88,2.88,0,0,0,1.25.78,1.66,1.66,0,0,1-.63-1,3.42,3.42,0,0,1-.09-.66q0-.1,0-.19t.1-.11a1.34,1.34,0,0,1,.29-.06,7.37,7.37,0,0,0,2.43-1A4.67,4.67,0,0,0,226.21,7Zm-12.73,6c-.15,0-.15,0-.23.07a1.66,1.66,0,0,0-.11.23,2.1,2.1,0,0,1-.27.38,2,2,0,0,1-.89.57,1.38,1.38,0,0,0,.49-1.1c0-.11,0-.19,0-.25a1,1,0,0,0-.29-.06,5.32,5.32,0,0,1-.65-.2,4.24,4.24,0,0,1-1.89-1.35,2.82,2.82,0,0,1,.33-3.78,5.35,5.35,0,0,1,4.86-1.19c1.72.4,3.52,1.84,3.12,3.79S215.28,13,213.48,13Z"/></g></g><g id="parcours-E"><polyline id="parcours-E--trace" class="cls-8" points="179.08 406.37 260.39 406.06 404.71 406.69"/><circle id="parcours-E-station-1-1" class="cls-3" cx="189.34" cy="406.37" r="9.31"/><circle id="parcours-E-station-2-5" class="cls-3" cx="261.02" cy="407" r="9.31"/><circle id="parcours-E-station-2-7" class="cls-9" cx="332.08" cy="406.69" r="9.31"/><circle id="parcours-E-station-2-6" class="cls-9" cx="404.71" cy="406.69" r="9.31"/><rect id="parcours-E-masque" class="cls-4" x="423.02" y="389" width="101.82" height="28.35"/><g id="parcours-E-texte"><path class="cls-9" d="M454.78,403.61V395h1.82v7.08h3.48v1.5Z"/><path class="cls-9" d="M464.4,403.72a3.39,3.39,0,0,1-2.48-.87,3.31,3.31,0,0,1-.89-2.48,3.64,3.64,0,0,1,.82-2.55,2.93,2.93,0,0,1,2.28-.9,2.89,2.89,0,0,1,2.17.79,3,3,0,0,1,.77,2.19v.87h-4.23a1.72,1.72,0,0,0,.45,1.19,1.59,1.59,0,0,0,1.19.43,4.92,4.92,0,0,0,1.12-.12,5.58,5.58,0,0,0,1.1-.39v1.39a4.22,4.22,0,0,1-1,.35A6.39,6.39,0,0,1,464.4,403.72Zm-.25-5.53a1.14,1.14,0,0,0-.89.36,1.67,1.67,0,0,0-.37,1h2.51a1.49,1.49,0,0,0-.35-1A1.17,1.17,0,0,0,464.15,398.19Z"/><path class="cls-9" d="M473.11,401.66a1.81,1.81,0,0,1-.7,1.54,3.47,3.47,0,0,1-2.1.53,6.51,6.51,0,0,1-1.22-.1,4.59,4.59,0,0,1-.94-.28v-1.48a6.24,6.24,0,0,0,1.12.39,4.56,4.56,0,0,0,1.1.16q1,0,1-.56a.47.47,0,0,0-.13-.34,1.88,1.88,0,0,0-.45-.3c-.21-.11-.49-.24-.85-.39a5.32,5.32,0,0,1-1.11-.59,1.66,1.66,0,0,1-.52-.62,2,2,0,0,1-.16-.86,1.56,1.56,0,0,1,.68-1.35,3.3,3.3,0,0,1,1.92-.48,5.45,5.45,0,0,1,2.31.52l-.54,1.29a9.82,9.82,0,0,0-.92-.35,2.9,2.9,0,0,0-.87-.13q-.79,0-.79.43a.5.5,0,0,0,.26.42,6.87,6.87,0,0,0,1.12.52,5.18,5.18,0,0,1,1.13.58,1.72,1.72,0,0,1,.53.62A1.92,1.92,0,0,1,473.11,401.66Z"/><path class="cls-9" d="M479.42,403.61h-1.79v-9.13h1.79Z"/><path class="cls-9" d="M485.47,403.61l-.35-.89h0a2.65,2.65,0,0,1-.93.79,3,3,0,0,1-1.25.22,2,2,0,0,1-1.49-.54,2.07,2.07,0,0,1-.54-1.54,1.73,1.73,0,0,1,.73-1.54,4.23,4.23,0,0,1,2.2-.55l1.14,0v-.29a.89.89,0,0,0-1-1,4.66,4.66,0,0,0-1.85.48l-.59-1.21a5.34,5.34,0,0,1,2.51-.59,3.13,3.13,0,0,1,2,.58,2.13,2.13,0,0,1,.7,1.75v4.37Zm-.53-3-.69,0a2.22,2.22,0,0,0-1.16.28.89.89,0,0,0-.38.79q0,.76.87.76a1.38,1.38,0,0,0,1-.36,1.26,1.26,0,0,0,.37-1Z"/><path class="cls-9" d="M494.62,403.61h-1.79v-3.83a1.84,1.84,0,0,0-.25-1.07.92.92,0,0,0-.8-.35,1.21,1.21,0,0,0-1.09.5,3.11,3.11,0,0,0-.33,1.66v3.09h-1.79V397h1.37l.24.84h.1a1.89,1.89,0,0,1,.82-.72,2.81,2.81,0,0,1,1.19-.24,2.29,2.29,0,0,1,1.74.62,2.48,2.48,0,0,1,.59,1.79Z"/><path class="cls-9" d="M502.17,397V398l-1,.26a1.79,1.79,0,0,1,.28,1,2,2,0,0,1-.74,1.65,3.2,3.2,0,0,1-2,.59l-.32,0-.26,0a.6.6,0,0,0-.28.47q0,.39,1,.39h1.12a2.54,2.54,0,0,1,1.65.46,1.66,1.66,0,0,1,.57,1.36,2,2,0,0,1-1,1.78,5,5,0,0,1-2.76.63,3.82,3.82,0,0,1-2.1-.48,1.52,1.52,0,0,1-.72-1.34,1.4,1.4,0,0,1,.37-1,2.1,2.1,0,0,1,1.09-.57,1.2,1.2,0,0,1-.48-.38.95.95,0,0,1,0-1.19,2.51,2.51,0,0,1,.63-.49,1.76,1.76,0,0,1-.82-.72,2.18,2.18,0,0,1-.3-1.16,2.05,2.05,0,0,1,.7-1.66,3,3,0,0,1,2-.59,5.22,5.22,0,0,1,.65,0l.48.07Zm-5.06,7.49a.65.65,0,0,0,.36.58,2,2,0,0,0,1,.21,3.52,3.52,0,0,0,1.51-.26.8.8,0,0,0,.55-.72.51.51,0,0,0-.32-.51,2.64,2.64,0,0,0-1-.14h-.93a1.4,1.4,0,0,0-.82.23A.72.72,0,0,0,497.1,404.53Zm.65-5.34a1.33,1.33,0,0,0,.24.85.88.88,0,0,0,.74.31.87.87,0,0,0,.74-.31,1.37,1.37,0,0,0,.23-.85q0-1.19-1-1.19T497.76,399.19Z"/><path class="cls-9" d="M507.9,403.61l-.24-.84h-.09a1.89,1.89,0,0,1-.82.71,2.78,2.78,0,0,1-1.2.25,2.29,2.29,0,0,1-1.74-.62,2.49,2.49,0,0,1-.59-1.78V397H505v3.83a1.84,1.84,0,0,0,.25,1.07.92.92,0,0,0,.8.35,1.21,1.21,0,0,0,1.09-.5,3.11,3.11,0,0,0,.33-1.66V397h1.79v6.56Z"/><path class="cls-9" d="M514.12,403.72a3.39,3.39,0,0,1-2.48-.87,3.31,3.31,0,0,1-.89-2.48,3.64,3.64,0,0,1,.82-2.55,2.93,2.93,0,0,1,2.28-.9,2.89,2.89,0,0,1,2.17.79,3,3,0,0,1,.77,2.19v.87h-4.23A1.72,1.72,0,0,0,513,402a1.59,1.59,0,0,0,1.19.43,4.92,4.92,0,0,0,1.12-.12,5.58,5.58,0,0,0,1.1-.39v1.39a4.22,4.22,0,0,1-1,.35A6.39,6.39,0,0,1,514.12,403.72Zm-.25-5.53a1.14,1.14,0,0,0-.89.36,1.67,1.67,0,0,0-.37,1h2.51a1.49,1.49,0,0,0-.35-1A1.17,1.17,0,0,0,513.87,398.19Z"/><path class="cls-9" d="M522.83,401.66a1.81,1.81,0,0,1-.7,1.54,3.47,3.47,0,0,1-2.1.53,6.51,6.51,0,0,1-1.22-.1,4.59,4.59,0,0,1-.94-.28v-1.48a6.24,6.24,0,0,0,1.12.39,4.56,4.56,0,0,0,1.1.16q1,0,1-.56a.47.47,0,0,0-.13-.34,1.88,1.88,0,0,0-.45-.3c-.21-.11-.49-.24-.85-.39a5.32,5.32,0,0,1-1.11-.59,1.66,1.66,0,0,1-.52-.62,2,2,0,0,1-.16-.86,1.56,1.56,0,0,1,.68-1.35,3.3,3.3,0,0,1,1.92-.48,5.45,5.45,0,0,1,2.31.52l-.54,1.29a9.82,9.82,0,0,0-.92-.35,2.9,2.9,0,0,0-.87-.13q-.79,0-.79.43a.5.5,0,0,0,.26.42,6.87,6.87,0,0,0,1.12.52,5.18,5.18,0,0,1,1.13.58,1.72,1.72,0,0,1,.53.62A1.92,1.92,0,0,1,522.83,401.66Z"/><path class="cls-9" d="M456.87,417.35a3.39,3.39,0,0,1-2.48-.87,3.31,3.31,0,0,1-.89-2.48,3.64,3.64,0,0,1,.82-2.55,2.93,2.93,0,0,1,2.28-.9,2.89,2.89,0,0,1,2.17.79,3,3,0,0,1,.77,2.19v.87h-4.23a1.72,1.72,0,0,0,.45,1.19A1.59,1.59,0,0,0,457,416a4.92,4.92,0,0,0,1.12-.12,5.58,5.58,0,0,0,1.1-.39v1.39a4.22,4.22,0,0,1-1,.35A6.39,6.39,0,0,1,456.87,417.35Zm-.25-5.53a1.14,1.14,0,0,0-.89.36,1.67,1.67,0,0,0-.37,1h2.51a1.49,1.49,0,0,0-.35-1A1.17,1.17,0,0,0,456.62,411.82Z"/><path class="cls-9" d="M463.77,415.92a3.89,3.89,0,0,0,1.13-.21v1.33a4,4,0,0,1-1.64.3,2,2,0,0,1-1.56-.54,2.36,2.36,0,0,1-.49-1.63V412h-.86v-.76l1-.6.52-1.39H463v1.4h1.84V412H463v3.16a.7.7,0,0,0,.21.56A.84.84,0,0,0,463.77,415.92Z"/><path class="cls-9" d="M471.14,417.23h-1.79V408.1h1.79Z"/><path class="cls-9" d="M477.18,417.23l-.35-.89h0a2.65,2.65,0,0,1-.93.79,3,3,0,0,1-1.25.22,2,2,0,0,1-1.49-.54,2.07,2.07,0,0,1-.54-1.54,1.73,1.73,0,0,1,.73-1.54,4.23,4.23,0,0,1,2.2-.55l1.14,0v-.29a.89.89,0,0,0-1-1,4.66,4.66,0,0,0-1.85.48l-.59-1.21a5.34,5.34,0,0,1,2.51-.59,3.13,3.13,0,0,1,2,.58,2.13,2.13,0,0,1,.7,1.75v4.37Zm-.53-3-.69,0a2.22,2.22,0,0,0-1.16.28.89.89,0,0,0-.38.79q0,.76.87.76a1.38,1.38,0,0,0,1-.36,1.26,1.26,0,0,0,.37-1Z"/><path class="cls-9" d="M489.45,417.23h-1.79V413.4a1.84,1.84,0,0,0-.25-1.07.92.92,0,0,0-.8-.35,1.21,1.21,0,0,0-1.09.5,3.11,3.11,0,0,0-.33,1.66v3.09H483.4v-6.56h1.37l.24.84h.1a1.89,1.89,0,0,1,.82-.72,2.81,2.81,0,0,1,1.19-.24,2.29,2.29,0,0,1,1.74.62,2.48,2.48,0,0,1,.59,1.79Z"/><path class="cls-9" d="M497.26,413.94a3.53,3.53,0,0,1-.85,2.51,3.06,3.06,0,0,1-2.35.9,3.28,3.28,0,0,1-1.67-.41,2.75,2.75,0,0,1-1.11-1.19,4,4,0,0,1-.39-1.81,3.51,3.51,0,0,1,.84-2.5,3.08,3.08,0,0,1,2.36-.89,3.31,3.31,0,0,1,1.67.41,2.75,2.75,0,0,1,1.11,1.18A4,4,0,0,1,497.26,413.94Zm-4.54,0a2.76,2.76,0,0,0,.32,1.47,1.14,1.14,0,0,0,1,.5,1.13,1.13,0,0,0,1-.5,2.8,2.8,0,0,0,.31-1.48,2.71,2.71,0,0,0-.32-1.46,1.35,1.35,0,0,0-2.07,0A2.71,2.71,0,0,0,492.72,413.94Z"/><path class="cls-9" d="M502.4,410.55a2.89,2.89,0,0,1,.6.05l-.13,1.68a2,2,0,0,0-.53-.06,1.9,1.9,0,0,0-1.33.44,1.59,1.59,0,0,0-.48,1.23v3.34h-1.79v-6.56h1.36l.26,1.1h.09a2.47,2.47,0,0,1,.82-.89A2,2,0,0,1,502.4,410.55Z"/><path class="cls-9" d="M510.07,417.23h-1.79V413.4a1.93,1.93,0,0,0-.24-1.07.83.83,0,0,0-.75-.35,1.08,1.08,0,0,0-1,.5,3.31,3.31,0,0,0-.31,1.66v3.09h-1.79v-6.56h1.37l.24.84h.1a1.81,1.81,0,0,1,.76-.71,2.47,2.47,0,0,1,1.14-.26,2.06,2.06,0,0,1,2,1H510a1.77,1.77,0,0,1,.78-.71,2.59,2.59,0,0,1,1.16-.25,2.29,2.29,0,0,1,1.69.57,2.51,2.51,0,0,1,.57,1.83v4.28h-1.8V413.4a1.93,1.93,0,0,0-.24-1.07.83.83,0,0,0-.75-.35,1.11,1.11,0,0,0-1,.47,2.66,2.66,0,0,0-.33,1.49Z"/><path class="cls-9" d="M519,417.35a3.39,3.39,0,0,1-2.48-.87,3.31,3.31,0,0,1-.89-2.48,3.64,3.64,0,0,1,.82-2.55,2.93,2.93,0,0,1,2.28-.9,2.89,2.89,0,0,1,2.17.79,3,3,0,0,1,.77,2.19v.87h-4.23a1.72,1.72,0,0,0,.45,1.19A1.59,1.59,0,0,0,519,416a4.92,4.92,0,0,0,1.12-.12,5.58,5.58,0,0,0,1.1-.39v1.39a4.22,4.22,0,0,1-1,.35A6.39,6.39,0,0,1,519,417.35Zm-.25-5.53a1.14,1.14,0,0,0-.89.36,1.67,1.67,0,0,0-.37,1H520a1.49,1.49,0,0,0-.35-1A1.17,1.17,0,0,0,518.71,411.82Z"/></g><g id="parcours-E-icone"><polygon class="cls-9" points="433.87 410.48 429.7 406.31 431.28 404.73 433.87 407.31 439.83 401.35 441.41 402.93 433.87 410.48"/><path class="cls-9" d="M435.56,418.79a12.88,12.88,0,1,1,12.88-12.88A12.89,12.89,0,0,1,435.56,418.79Zm0-24.64a11.76,11.76,0,1,0,11.76,11.76A11.77,11.77,0,0,0,435.56,394.15Zm0,20.41a8.66,8.66,0,1,1,8.66-8.66A8.67,8.67,0,0,1,435.56,414.57Zm0-16.19a7.54,7.54,0,1,0,7.54,7.54A7.55,7.55,0,0,0,435.56,398.37Z"/><polygon class="cls-9" points="443.47 399.42 442.76 399.8 442.89 399 442.32 398.44 443.11 398.32 443.47 397.6 443.82 398.32 444.62 398.44 444.05 399 444.18 399.8 443.47 399.42"/><polygon class="cls-9" points="427.8 399.42 427.08 399.8 427.22 399 426.64 398.44 427.44 398.32 427.8 397.6 428.15 398.32 428.95 398.44 428.37 399 428.51 399.8 427.8 399.42"/><polygon class="cls-9" points="443.47 412.85 442.76 413.23 442.89 412.44 442.32 411.87 443.11 411.76 443.47 411.04 443.82 411.76 444.62 411.87 444.05 412.44 444.18 413.23 443.47 412.85"/><polygon class="cls-9" points="427.8 412.85 427.08 413.23 427.22 412.44 426.64 411.87 427.44 411.76 427.8 411.04 428.15 411.76 428.95 411.87 428.37 412.44 428.51 413.23 427.8 412.85"/><polygon class="cls-9" points="435.63 416.49 434.92 416.87 435.06 416.07 434.48 415.51 435.28 415.39 435.63 414.67 435.99 415.39 436.79 415.51 436.21 416.07 436.35 416.87 435.63 416.49"/><polygon class="cls-9" points="435.63 396.06 434.92 396.44 435.06 395.64 434.48 395.08 435.28 394.97 435.63 394.25 435.99 394.97 436.79 395.08 436.21 395.64 436.35 396.44 435.63 396.06"/><polygon class="cls-9" points="445.71 406.42 445 406.79 445.13 406 444.55 405.44 445.35 405.32 445.71 404.6 446.06 405.32 446.86 405.44 446.28 406 446.42 406.79 445.71 406.42"/><polygon class="cls-9" points="425.28 406.42 424.57 406.79 424.7 406 424.13 405.44 424.92 405.32 425.28 404.6 425.63 405.32 426.43 405.44 425.86 406 425.99 406.79 425.28 406.42"/></g></g><g id="parcours-D"><path id="parcours-D-trace" class="cls-10" d="M260.39,405.56l69-68.48a10.38,10.38,0,0,1,7.32-3h67.72"/><circle id="parcours-D-station-2-5" class="cls-3" cx="261.02" cy="407" r="9.31"/><circle id="parcours-D-station-1-4" class="cls-11" cx="332.08" cy="334.06" r="9.31"/><circle id="parcours-D-station-2-4" class="cls-11" cx="404.71" cy="334.06" r="9.31"/><rect id="parcours-D-masque" class="cls-4" x="424.88" y="322.71" width="88.15" height="27"/><g id="parcours-D-texte"><path class="cls-11" d="M452.81,338.05v-8.58h1.82v7.08h3.48v1.5Z"/><path class="cls-11" d="M460.9,329.47l.08.13a18,18,0,0,1-1,2.81h-1.29q.4-1.74.59-2.94Z"/><path class="cls-11" d="M465,338.17a3.39,3.39,0,0,1-2.48-.87,3.31,3.31,0,0,1-.89-2.48,3.64,3.64,0,0,1,.82-2.55,2.93,2.93,0,0,1,2.28-.9,2.89,2.89,0,0,1,2.17.79,3,3,0,0,1,.77,2.19v.87h-4.23a1.72,1.72,0,0,0,.45,1.19,1.59,1.59,0,0,0,1.19.43,4.92,4.92,0,0,0,1.12-.12,5.61,5.61,0,0,0,1.1-.39v1.39a4.2,4.2,0,0,1-1,.35A6.33,6.33,0,0,1,465,338.17Zm-.25-5.53a1.14,1.14,0,0,0-.89.36,1.67,1.67,0,0,0-.37,1H466a1.49,1.49,0,0,0-.35-1A1.17,1.17,0,0,0,464.78,332.64Zm-1-1.87v-.16a16.49,16.49,0,0,0,1.38-1.77h2V329q-.31.3-1,.91t-1.15.89Z"/><path class="cls-11" d="M471.83,338.17q-3.06,0-3.06-3.36a3.59,3.59,0,0,1,.83-2.56,3.13,3.13,0,0,1,2.39-.88,4.56,4.56,0,0,1,2,.45l-.53,1.39q-.42-.17-.79-.28a2.53,2.53,0,0,0-.73-.11q-1.4,0-1.4,2t1.4,1.92a3.19,3.19,0,0,0,1-.14,3.44,3.44,0,0,0,.88-.43v1.53a2.88,2.88,0,0,1-.88.38A4.94,4.94,0,0,1,471.83,338.17Z"/><path class="cls-11" d="M479,331.37a2.89,2.89,0,0,1,.6.05l-.13,1.68a2.06,2.06,0,0,0-.53-.06,1.9,1.9,0,0,0-1.33.44,1.59,1.59,0,0,0-.48,1.23v3.34h-1.79v-6.56h1.36l.26,1.1h.09a2.48,2.48,0,0,1,.82-.89A2,2,0,0,1,479,331.37Z"/><path class="cls-11" d="M480.73,329.8q0-.87,1-.87t1,.87a.85.85,0,0,1-.24.65,1,1,0,0,1-.73.23Q480.73,330.68,480.73,329.8Zm1.87,8.26H480.8v-6.56h1.79Z"/><path class="cls-11" d="M487.23,336.74a3.88,3.88,0,0,0,1.13-.21v1.33a4,4,0,0,1-1.64.3,2,2,0,0,1-1.56-.54,2.36,2.36,0,0,1-.49-1.63v-3.16h-.86v-.76l1-.6.52-1.39h1.14v1.4h1.84v1.34h-1.84V336a.7.7,0,0,0,.21.56A.84.84,0,0,0,487.23,336.74Z"/><path class="cls-11" d="M494.34,338.05l-.24-.84H494a1.89,1.89,0,0,1-.82.71,2.78,2.78,0,0,1-1.2.25,2.29,2.29,0,0,1-1.74-.62,2.49,2.49,0,0,1-.59-1.78v-4.28h1.79v3.83a1.84,1.84,0,0,0,.25,1.07.92.92,0,0,0,.8.36,1.21,1.21,0,0,0,1.09-.5,3.11,3.11,0,0,0,.33-1.66v-3.09h1.79v6.56Z"/><path class="cls-11" d="M501.25,331.37a2.89,2.89,0,0,1,.6.05l-.13,1.68a2.06,2.06,0,0,0-.53-.06,1.9,1.9,0,0,0-1.33.44,1.59,1.59,0,0,0-.48,1.23v3.34h-1.79v-6.56h1.36l.26,1.1h.09a2.48,2.48,0,0,1,.82-.89A2,2,0,0,1,501.25,331.37Z"/><path class="cls-11" d="M506,338.17a3.39,3.39,0,0,1-2.48-.87,3.31,3.31,0,0,1-.89-2.48,3.64,3.64,0,0,1,.82-2.55,2.93,2.93,0,0,1,2.28-.9,2.89,2.89,0,0,1,2.17.79,3,3,0,0,1,.77,2.19v.87h-4.23a1.72,1.72,0,0,0,.45,1.19,1.59,1.59,0,0,0,1.19.43,4.92,4.92,0,0,0,1.12-.12,5.61,5.61,0,0,0,1.1-.39v1.39a4.2,4.2,0,0,1-1,.35A6.33,6.33,0,0,1,506,338.17Zm-.25-5.53a1.14,1.14,0,0,0-.89.36,1.67,1.67,0,0,0-.37,1H507a1.49,1.49,0,0,0-.35-1A1.17,1.17,0,0,0,505.76,332.64Z"/></g><path id="parcours-D-icone" class="cls-11" d="M426.64,347.64c-1.51,3.56,4.34-18.46,25.31-25.37-8.09,5.57-8.67,14.71-19.51,16.81a11.25,11.25,0,0,0,5.27-1.35c-.59,1.7-5.62,2.81-6.91,2.64A35.77,35.77,0,0,0,426.64,347.64Z"/></g><g id="parcours-C"><path class="cls-12" d="M404.77,47.38C405,95,405,143,405,191L546.75,332.72"/><circle id="parcours-C-station-3-2" class="cls-13" cx="549.02" cy="335.31" r="9.31"/><circle id="parcours-C-station-3-1" class="cls-13" cx="476.71" cy="263.31" r="9.31"/><circle id="parcours-C-station-0-4" class="cls-3" cx="404.71" cy="190.69" r="9.31"/><circle id="parcours-C-station-3-0" class="cls-13" cx="404.71" cy="118.69" r="9.31"/><circle id="parcours-C-station-3-4" class="cls-3" cx="404.71" cy="46.69" r="9.31"/><rect id="parcours-C-masque" class="cls-4" x="387.02" y="2" width="144" height="27"/><g id="parcours-C-texte"><path class="cls-14" d="M433.36,11.6l-.62-2h-3.13l-.62,2h-2l3-8.62h2.22l3,8.62ZM432.3,8l-1-3.14q-.11-.36-.16-.58Q431,5.07,430.07,8Z"/><path class="cls-14" d="M438.92,11.72q-3.06,0-3.06-3.36a3.59,3.59,0,0,1,.83-2.56,3.13,3.13,0,0,1,2.39-.88,4.56,4.56,0,0,1,2,.45l-.53,1.39q-.42-.17-.79-.28a2.53,2.53,0,0,0-.73-.11q-1.4,0-1.4,2t1.4,1.92a3.19,3.19,0,0,0,1-.14,3.44,3.44,0,0,0,.88-.43v1.53a2.88,2.88,0,0,1-.88.38A4.94,4.94,0,0,1,438.92,11.72Z"/><path class="cls-14" d="M444.52,11.72a2.13,2.13,0,0,1-1.82-.89A4.14,4.14,0,0,1,442,8.33a4.13,4.13,0,0,1,.67-2.51,2.17,2.17,0,0,1,1.84-.9,2.38,2.38,0,0,1,1.09.23,2.26,2.26,0,0,1,.82.73h0l.16-.84h1.51v9.45h-1.8V11.74a8.63,8.63,0,0,1,.08-1h-.08a1.91,1.91,0,0,1-.76.72A2.35,2.35,0,0,1,444.52,11.72Zm.64-1.4a1.21,1.21,0,0,0,1-.39,2.33,2.33,0,0,0,.35-1.36V8.34a2.69,2.69,0,0,0-.33-1.51,1.2,1.2,0,0,0-1-.46q-1.26,0-1.26,2a2.76,2.76,0,0,0,.31,1.47A1.08,1.08,0,0,0,445.15,10.32Z"/><path class="cls-14" d="M454.69,11.6l-.24-.84h-.09a1.89,1.89,0,0,1-.82.71,2.78,2.78,0,0,1-1.2.25,2.29,2.29,0,0,1-1.74-.62A2.49,2.49,0,0,1,450,9.32V5h1.79V8.87a1.84,1.84,0,0,0,.25,1.07.92.92,0,0,0,.8.36,1.21,1.21,0,0,0,1.09-.5,3.11,3.11,0,0,0,.33-1.66V5h1.79V11.6Z"/><path class="cls-14" d="M457.87,3.34q0-.87,1-.87t1,.87a.85.85,0,0,1-.24.65,1,1,0,0,1-.73.23Q457.87,4.22,457.87,3.34Zm1.87,8.26h-1.79V5h1.79Z"/><path class="cls-14" d="M466.19,9.65a1.81,1.81,0,0,1-.7,1.54,3.47,3.47,0,0,1-2.1.53,6.59,6.59,0,0,1-1.22-.1,4.61,4.61,0,0,1-.94-.28V9.86a6.28,6.28,0,0,0,1.12.39,4.56,4.56,0,0,0,1.1.16q1,0,1-.56a.47.47,0,0,0-.13-.34,1.88,1.88,0,0,0-.45-.3q-.32-.17-.85-.39a5.34,5.34,0,0,1-1.11-.59,1.66,1.66,0,0,1-.52-.62,2,2,0,0,1-.16-.86,1.56,1.56,0,0,1,.68-1.35,3.3,3.3,0,0,1,1.92-.48,5.46,5.46,0,0,1,2.31.52l-.54,1.29q-.49-.21-.92-.35a2.89,2.89,0,0,0-.87-.13q-.79,0-.79.43a.5.5,0,0,0,.26.42,6.91,6.91,0,0,0,1.12.52,5.22,5.22,0,0,1,1.13.58,1.71,1.71,0,0,1,.53.62A1.92,1.92,0,0,1,466.19,9.65Z"/><path class="cls-14" d="M467.51,3.34q0-.87,1-.87t1,.87a.85.85,0,0,1-.24.65,1,1,0,0,1-.73.23Q467.51,4.22,467.51,3.34Zm1.87,8.26h-1.79V5h1.79Z"/><path class="cls-14" d="M474,10.29a3.88,3.88,0,0,0,1.13-.21v1.33a4,4,0,0,1-1.64.3,2,2,0,0,1-1.56-.54,2.36,2.36,0,0,1-.49-1.63V6.38h-.86V5.63l1-.6.52-1.39h1.14V5h1.84V6.38h-1.84V9.55a.7.7,0,0,0,.21.56A.84.84,0,0,0,474,10.29Z"/><path class="cls-14" d="M476.39,3.34q0-.87,1-.87t1,.87a.85.85,0,0,1-.24.65,1,1,0,0,1-.73.23Q476.39,4.22,476.39,3.34Zm1.87,8.26h-1.79V5h1.79Z"/><path class="cls-14" d="M486.1,8.31a3.53,3.53,0,0,1-.85,2.51,3.07,3.07,0,0,1-2.35.9,3.29,3.29,0,0,1-1.67-.41,2.75,2.75,0,0,1-1.11-1.19,4,4,0,0,1-.39-1.81,3.51,3.51,0,0,1,.84-2.5,3.08,3.08,0,0,1,2.36-.89,3.31,3.31,0,0,1,1.67.41,2.74,2.74,0,0,1,1.11,1.18A4,4,0,0,1,486.1,8.31Zm-4.54,0a2.76,2.76,0,0,0,.32,1.47,1.15,1.15,0,0,0,1,.5,1.13,1.13,0,0,0,1-.5,2.8,2.8,0,0,0,.31-1.48A2.71,2.71,0,0,0,484,6.85a1.35,1.35,0,0,0-2.07,0A2.71,2.71,0,0,0,481.56,8.31Z"/><path class="cls-14" d="M493.64,11.6h-1.79V7.77a1.84,1.84,0,0,0-.25-1.07.92.92,0,0,0-.8-.36,1.21,1.21,0,0,0-1.09.5,3.11,3.11,0,0,0-.33,1.66V11.6h-1.79V5h1.37l.24.84h.1a1.89,1.89,0,0,1,.82-.72,2.81,2.81,0,0,1,1.19-.24,2.29,2.29,0,0,1,1.74.62,2.49,2.49,0,0,1,.59,1.79Z"/><path class="cls-14" d="M430.93,26.14a3.39,3.39,0,0,1-2.48-.87,3.31,3.31,0,0,1-.89-2.48,3.64,3.64,0,0,1,.82-2.55,2.93,2.93,0,0,1,2.28-.9,2.89,2.89,0,0,1,2.17.79,3,3,0,0,1,.77,2.19v.87h-4.23a1.72,1.72,0,0,0,.45,1.19,1.59,1.59,0,0,0,1.19.43,4.92,4.92,0,0,0,1.12-.12,5.61,5.61,0,0,0,1.1-.39v1.39a4.2,4.2,0,0,1-1,.35A6.33,6.33,0,0,1,430.93,26.14Zm-.25-5.53a1.14,1.14,0,0,0-.89.36,1.67,1.67,0,0,0-.37,1h2.51a1.49,1.49,0,0,0-.35-1A1.17,1.17,0,0,0,430.68,20.61Z"/><path class="cls-14" d="M437.83,24.72a3.88,3.88,0,0,0,1.13-.21v1.33a4,4,0,0,1-1.64.3,2,2,0,0,1-1.56-.54,2.36,2.36,0,0,1-.49-1.63V20.81h-.86v-.76l1-.6.52-1.39h1.14v1.4h1.84v1.34h-1.84V24a.7.7,0,0,0,.21.56A.84.84,0,0,0,437.83,24.72Z"/><path class="cls-14" d="M447.57,26l-.35-.89h0a2.64,2.64,0,0,1-.93.79,3,3,0,0,1-1.25.22,2,2,0,0,1-1.49-.54,2.07,2.07,0,0,1-.54-1.54,1.73,1.73,0,0,1,.73-1.54,4.23,4.23,0,0,1,2.2-.55l1.14,0v-.29a.89.89,0,0,0-1-1,4.66,4.66,0,0,0-1.85.48l-.59-1.21a5.33,5.33,0,0,1,2.51-.59,3.13,3.13,0,0,1,2,.58,2.13,2.13,0,0,1,.7,1.75V26ZM447,23l-.69,0a2.21,2.21,0,0,0-1.16.28.89.89,0,0,0-.38.79q0,.76.87.76a1.38,1.38,0,0,0,1-.36,1.26,1.26,0,0,0,.37-1Z"/><path class="cls-14" d="M454.27,26.14a2.18,2.18,0,0,1-1.81-.84h-.09q.09.82.09,1v2.66h-1.79V19.46h1.46l.25.85h.08a2.07,2.07,0,0,1,1.86-1,2.13,2.13,0,0,1,1.82.9,4.15,4.15,0,0,1,.66,2.49,4.91,4.91,0,0,1-.31,1.83,2.55,2.55,0,0,1-.88,1.18A2.25,2.25,0,0,1,454.27,26.14Zm-.53-5.37a1.13,1.13,0,0,0-1,.41,2.34,2.34,0,0,0-.32,1.35v.19a2.76,2.76,0,0,0,.31,1.51,1.12,1.12,0,0,0,1,.46q1.2,0,1.2-2a2.84,2.84,0,0,0-.3-1.45A1,1,0,0,0,453.74,20.77Z"/><path class="cls-14" d="M461.87,26.14a2.18,2.18,0,0,1-1.81-.84H460q.09.82.09,1v2.66h-1.79V19.46h1.46l.25.85h.08a2.07,2.07,0,0,1,1.86-1,2.13,2.13,0,0,1,1.82.9,4.15,4.15,0,0,1,.66,2.49,4.91,4.91,0,0,1-.31,1.83,2.55,2.55,0,0,1-.88,1.18A2.25,2.25,0,0,1,461.87,26.14Zm-.53-5.37a1.13,1.13,0,0,0-1,.41,2.34,2.34,0,0,0-.32,1.35v.19a2.76,2.76,0,0,0,.31,1.51,1.12,1.12,0,0,0,1,.46q1.2,0,1.2-2a2.84,2.84,0,0,0-.3-1.45A1,1,0,0,0,461.35,20.77Z"/><path class="cls-14" d="M469.54,19.34a2.89,2.89,0,0,1,.6.05L470,21.07a2.06,2.06,0,0,0-.53-.06,1.9,1.9,0,0,0-1.33.44,1.59,1.59,0,0,0-.48,1.23V26h-1.79V19.46h1.36l.26,1.1h.09a2.48,2.48,0,0,1,.82-.89A2,2,0,0,1,469.54,19.34Z"/><path class="cls-14" d="M474.3,26.14a3.39,3.39,0,0,1-2.48-.87,3.31,3.31,0,0,1-.89-2.48,3.64,3.64,0,0,1,.82-2.55,2.93,2.93,0,0,1,2.28-.9,2.89,2.89,0,0,1,2.17.79,3,3,0,0,1,.77,2.19v.87h-4.23a1.72,1.72,0,0,0,.45,1.19,1.59,1.59,0,0,0,1.19.43,4.92,4.92,0,0,0,1.12-.12,5.61,5.61,0,0,0,1.1-.39v1.39a4.2,4.2,0,0,1-1,.35A6.33,6.33,0,0,1,474.3,26.14Zm-.25-5.53a1.14,1.14,0,0,0-.89.36,1.67,1.67,0,0,0-.37,1h2.51a1.49,1.49,0,0,0-.35-1A1.17,1.17,0,0,0,474.05,20.61Z"/><path class="cls-14" d="M484.49,26H482.7V22.19a1.84,1.84,0,0,0-.25-1.07.92.92,0,0,0-.8-.36,1.21,1.21,0,0,0-1.09.5,3.11,3.11,0,0,0-.33,1.66V26h-1.79V19.46h1.37l.24.84h.1a1.89,1.89,0,0,1,.82-.72,2.81,2.81,0,0,1,1.19-.24,2.29,2.29,0,0,1,1.74.62,2.49,2.49,0,0,1,.59,1.79Z"/><path class="cls-14" d="M489.1,24.72a3.88,3.88,0,0,0,1.13-.21v1.33a4,4,0,0,1-1.64.3A2,2,0,0,1,487,25.6a2.36,2.36,0,0,1-.49-1.63V20.81h-.86v-.76l1-.6.52-1.39h1.14v1.4h1.84v1.34h-1.84V24a.7.7,0,0,0,.21.56A.84.84,0,0,0,489.1,24.72Z"/><path class="cls-14" d="M491.48,17.77q0-.87,1-.87t1,.87a.85.85,0,0,1-.24.65,1,1,0,0,1-.73.23Q491.48,18.65,491.48,17.77ZM493.34,26h-1.79V19.46h1.79Z"/><path class="cls-14" d="M499.8,24.08a1.81,1.81,0,0,1-.7,1.54,3.47,3.47,0,0,1-2.1.53,6.59,6.59,0,0,1-1.22-.1,4.61,4.61,0,0,1-.94-.28V24.28a6.28,6.28,0,0,0,1.12.39,4.56,4.56,0,0,0,1.1.16q1,0,1-.56a.47.47,0,0,0-.13-.34,1.88,1.88,0,0,0-.45-.3q-.32-.17-.85-.39a5.34,5.34,0,0,1-1.11-.59A1.66,1.66,0,0,1,495,22a2,2,0,0,1-.16-.86,1.56,1.56,0,0,1,.68-1.35,3.3,3.3,0,0,1,1.92-.48,5.46,5.46,0,0,1,2.31.52l-.54,1.29q-.49-.21-.92-.35a2.89,2.89,0,0,0-.87-.13q-.79,0-.79.43a.5.5,0,0,0,.26.42A6.91,6.91,0,0,0,498,22a5.22,5.22,0,0,1,1.13.58,1.71,1.71,0,0,1,.53.62A1.92,1.92,0,0,1,499.8,24.08Z"/><path class="cls-14" d="M505.77,24.08a1.81,1.81,0,0,1-.7,1.54,3.47,3.47,0,0,1-2.1.53,6.59,6.59,0,0,1-1.22-.1,4.61,4.61,0,0,1-.94-.28V24.28a6.28,6.28,0,0,0,1.12.39,4.56,4.56,0,0,0,1.1.16q1,0,1-.56a.47.47,0,0,0-.13-.34,1.88,1.88,0,0,0-.45-.3q-.32-.17-.85-.39a5.34,5.34,0,0,1-1.11-.59A1.66,1.66,0,0,1,501,22a2,2,0,0,1-.16-.86,1.56,1.56,0,0,1,.68-1.35,3.3,3.3,0,0,1,1.92-.48,5.46,5.46,0,0,1,2.31.52l-.54,1.29q-.49-.21-.92-.35a2.89,2.89,0,0,0-.87-.13q-.79,0-.79.43a.5.5,0,0,0,.26.42,6.91,6.91,0,0,0,1.12.52,5.22,5.22,0,0,1,1.13.58,1.71,1.71,0,0,1,.53.62A1.92,1.92,0,0,1,505.77,24.08Z"/><path class="cls-14" d="M511.34,26l-.35-.89h0a2.64,2.64,0,0,1-.93.79,3,3,0,0,1-1.25.22,2,2,0,0,1-1.49-.54,2.07,2.07,0,0,1-.54-1.54,1.73,1.73,0,0,1,.73-1.54,4.23,4.23,0,0,1,2.2-.55l1.14,0v-.29a.89.89,0,0,0-1-1,4.66,4.66,0,0,0-1.85.48l-.59-1.21a5.33,5.33,0,0,1,2.51-.59,3.13,3.13,0,0,1,2,.58,2.13,2.13,0,0,1,.7,1.75V26Zm-.53-3-.69,0a2.21,2.21,0,0,0-1.16.28.89.89,0,0,0-.38.79q0,.76.87.76a1.38,1.38,0,0,0,1-.36,1.26,1.26,0,0,0,.37-1Z"/><path class="cls-14" d="M520.14,19.46v.91l-1,.26a1.79,1.79,0,0,1,.28,1,2,2,0,0,1-.74,1.65,3.19,3.19,0,0,1-2,.59l-.32,0-.26,0a.6.6,0,0,0-.28.47q0,.39,1,.39h1.12a2.54,2.54,0,0,1,1.65.46,1.66,1.66,0,0,1,.57,1.36,2,2,0,0,1-1,1.78,5,5,0,0,1-2.76.63,3.82,3.82,0,0,1-2.1-.48,1.52,1.52,0,0,1-.72-1.34,1.4,1.4,0,0,1,.37-1,2.1,2.1,0,0,1,1.09-.57,1.2,1.2,0,0,1-.48-.38.94.94,0,0,1,0-1.19,2.51,2.51,0,0,1,.63-.49,1.76,1.76,0,0,1-.82-.72,2.18,2.18,0,0,1-.3-1.16,2,2,0,0,1,.7-1.66,3,3,0,0,1,2-.59,5.15,5.15,0,0,1,.65,0l.48.07ZM515.08,27a.65.65,0,0,0,.36.58,2,2,0,0,0,1,.21,3.52,3.52,0,0,0,1.51-.26.8.8,0,0,0,.55-.72.51.51,0,0,0-.32-.51,2.64,2.64,0,0,0-1-.14h-.93a1.4,1.4,0,0,0-.82.23A.71.71,0,0,0,515.08,27Zm.65-5.34a1.33,1.33,0,0,0,.24.85.88.88,0,0,0,.74.31.87.87,0,0,0,.74-.31,1.37,1.37,0,0,0,.23-.85q0-1.19-1-1.19T515.73,21.61Z"/><path class="cls-14" d="M524.19,26.14a3.39,3.39,0,0,1-2.48-.87,3.31,3.31,0,0,1-.89-2.48,3.64,3.64,0,0,1,.82-2.55,2.93,2.93,0,0,1,2.28-.9,2.89,2.89,0,0,1,2.17.79,3,3,0,0,1,.77,2.19v.87h-4.23a1.72,1.72,0,0,0,.45,1.19,1.59,1.59,0,0,0,1.19.43,4.92,4.92,0,0,0,1.12-.12,5.61,5.61,0,0,0,1.1-.39v1.39a4.2,4.2,0,0,1-1,.35A6.33,6.33,0,0,1,524.19,26.14Zm-.25-5.53A1.14,1.14,0,0,0,523,21a1.67,1.67,0,0,0-.37,1h2.51a1.49,1.49,0,0,0-.35-1A1.17,1.17,0,0,0,523.94,20.61Z"/></g><g id="parcours-C-icone"><path class="cls-14" d="M404.25,24.86V3.66S405.12,2,408,2c3.48,0,4.24,2.26,10.79,2.26V24.8c-5.34,0-6.91-2.39-10.39-2.39A5.35,5.35,0,0,0,404.25,24.86Z"/><path class="cls-14" d="M403.49,24.86V3.66S402.63,2,399.78,2C396.3,2,395.54,4.26,389,4.26V24.8c5.34,0,6.91-2.39,10.39-2.39A5.35,5.35,0,0,1,403.49,24.86Z"/><path class="cls-14" d="M399.24,23.25c-3.69,0-5.35,2.56-11,2.56V5.7l-1.21,0v22c6,0,7.82-2.67,11.76-2.67a6.06,6.06,0,0,1,4.66,2.73V25.64A5.49,5.49,0,0,0,399.24,23.25Z"/><path class="cls-14" d="M408.45,23.25c3.69,0,5.35,2.56,11,2.56V5.7l1.21,0v22c-6,0-7.82-2.67-11.76-2.67a6.06,6.06,0,0,0-4.66,2.73V25.64A5.49,5.49,0,0,1,408.45,23.25Z"/></g></g><g id="parcours-B"><line id="parcours-B-trace" class="cls-15" x1="477.02" y1="47.5" x2="188.71" y2="46.69"/><circle id="parcours-B-station-0-6" class="cls-16" cx="188.71" cy="46.69" r="9.31"/><circle id="parcours-B-station-3-4" class="cls-3" cx="404.71" cy="46.69" r="9.31"/><circle id="parcours-B-station-0-2" class="cls-16" cx="477.02" cy="47.5" r="9.31"/><circle id="parcours-B-station-0-0" class="cls-3" cx="261.34" cy="47.94" r="9.31"/><circle id="parcours-B-station-0-1" class="cls-16" cx="332.71" cy="47.31" r="9.31"/><rect id="parcours-B-masque" class="cls-4" x="0.02" y="29" width="171" height="27"/><g id="parcours-B-texte"><path class="cls-16" d="M33.14,51V42.43H35v7.08h3.48V51Z"/><path class="cls-16" d="M42.76,51.13a3.39,3.39,0,0,1-2.48-.87,3.31,3.31,0,0,1-.89-2.48,3.64,3.64,0,0,1,.82-2.55,2.93,2.93,0,0,1,2.28-.9,2.89,2.89,0,0,1,2.17.79,3,3,0,0,1,.77,2.19v.87H41.21a1.72,1.72,0,0,0,.45,1.19,1.59,1.59,0,0,0,1.19.43A4.92,4.92,0,0,0,44,49.68a5.61,5.61,0,0,0,1.1-.39v1.39a4.2,4.2,0,0,1-1,.35A6.33,6.33,0,0,1,42.76,51.13Zm-.25-5.53a1.14,1.14,0,0,0-.89.36,1.67,1.67,0,0,0-.37,1h2.51a1.49,1.49,0,0,0-.35-1A1.17,1.17,0,0,0,42.51,45.6Z"/><path class="cls-16" d="M51.47,49.07a1.81,1.81,0,0,1-.7,1.54,3.47,3.47,0,0,1-2.1.53,6.59,6.59,0,0,1-1.22-.1,4.61,4.61,0,0,1-.94-.28V49.27a6.28,6.28,0,0,0,1.12.39,4.56,4.56,0,0,0,1.1.16q1,0,1-.56a.47.47,0,0,0-.13-.34,1.88,1.88,0,0,0-.45-.3q-.32-.17-.85-.39a5.34,5.34,0,0,1-1.11-.59,1.66,1.66,0,0,1-.52-.62,2,2,0,0,1-.16-.86,1.56,1.56,0,0,1,.68-1.35,3.3,3.3,0,0,1,1.92-.48,5.46,5.46,0,0,1,2.31.52l-.54,1.29q-.49-.21-.92-.35a2.89,2.89,0,0,0-.87-.13q-.79,0-.79.43a.5.5,0,0,0,.26.42,6.91,6.91,0,0,0,1.12.52,5.22,5.22,0,0,1,1.13.58,1.71,1.71,0,0,1,.53.62A1.92,1.92,0,0,1,51.47,49.07Z"/><path class="cls-16" d="M62,47.72a3.53,3.53,0,0,1-.85,2.51,3.07,3.07,0,0,1-2.35.9,3.29,3.29,0,0,1-1.67-.41A2.75,2.75,0,0,1,56,49.53a4,4,0,0,1-.39-1.81,3.51,3.51,0,0,1,.84-2.5,3.08,3.08,0,0,1,2.36-.89,3.31,3.31,0,0,1,1.67.41,2.74,2.74,0,0,1,1.11,1.18A4,4,0,0,1,62,47.72Zm-4.54,0a2.76,2.76,0,0,0,.32,1.47,1.15,1.15,0,0,0,1,.5,1.13,1.13,0,0,0,1-.5,2.8,2.8,0,0,0,.31-1.48,2.71,2.71,0,0,0-.32-1.46,1.35,1.35,0,0,0-2.07,0A2.71,2.71,0,0,0,57.42,47.72Z"/><path class="cls-16" d="M67.09,44.33a2.89,2.89,0,0,1,.6.05l-.13,1.68A2.06,2.06,0,0,0,67,46a1.9,1.9,0,0,0-1.33.44,1.59,1.59,0,0,0-.48,1.23V51H63.43V44.45h1.36l.26,1.1h.09a2.48,2.48,0,0,1,.82-.89A2,2,0,0,1,67.09,44.33Z"/><path class="cls-16" d="M68.81,42.76q0-.87,1-.87t1,.87a.85.85,0,0,1-.24.65,1,1,0,0,1-.73.23Q68.81,43.64,68.81,42.76ZM70.68,51H68.89V44.45h1.79Z"/><path class="cls-16" d="M78.27,44.45v.91l-1,.26a1.79,1.79,0,0,1,.28,1,2,2,0,0,1-.74,1.65,3.19,3.19,0,0,1-2,.59l-.32,0-.26,0a.6.6,0,0,0-.28.47q0,.39,1,.39H76a2.54,2.54,0,0,1,1.65.46,1.66,1.66,0,0,1,.57,1.36,2,2,0,0,1-1,1.78,5,5,0,0,1-2.76.63,3.82,3.82,0,0,1-2.1-.48,1.52,1.52,0,0,1-.72-1.34,1.4,1.4,0,0,1,.37-1,2.1,2.1,0,0,1,1.09-.57,1.2,1.2,0,0,1-.48-.38.94.94,0,0,1,0-1.19,2.51,2.51,0,0,1,.63-.49,1.76,1.76,0,0,1-.82-.72,2.18,2.18,0,0,1-.3-1.16,2,2,0,0,1,.7-1.66,3,3,0,0,1,2-.59,5.15,5.15,0,0,1,.65,0l.48.07ZM73.2,51.94a.65.65,0,0,0,.36.58,2,2,0,0,0,1,.21,3.52,3.52,0,0,0,1.51-.26.8.8,0,0,0,.55-.72.51.51,0,0,0-.32-.51,2.64,2.64,0,0,0-1-.14h-.93a1.4,1.4,0,0,0-.82.23A.71.71,0,0,0,73.2,51.94Zm.65-5.34a1.33,1.33,0,0,0,.24.85.88.88,0,0,0,.74.31.87.87,0,0,0,.74-.31,1.37,1.37,0,0,0,.23-.85q0-1.19-1-1.19T73.85,46.6Z"/><path class="cls-16" d="M79.27,42.76q0-.87,1-.87t1,.87a.85.85,0,0,1-.24.65,1,1,0,0,1-.73.23Q79.27,43.64,79.27,42.76ZM81.14,51H79.35V44.45h1.79Z"/><path class="cls-16" d="M89.07,51H87.28V47.18A1.84,1.84,0,0,0,87,46.12a.92.92,0,0,0-.8-.36,1.21,1.21,0,0,0-1.09.5,3.11,3.11,0,0,0-.33,1.66V51H83V44.45h1.37l.24.84h.1a1.89,1.89,0,0,1,.82-.72,2.81,2.81,0,0,1,1.19-.24,2.29,2.29,0,0,1,1.74.62,2.49,2.49,0,0,1,.59,1.79Z"/><path class="cls-16" d="M93.88,51.13a3.39,3.39,0,0,1-2.48-.87,3.31,3.31,0,0,1-.89-2.48,3.64,3.64,0,0,1,.82-2.55,2.93,2.93,0,0,1,2.28-.9,2.89,2.89,0,0,1,2.17.79,3,3,0,0,1,.77,2.19v.87H92.33a1.72,1.72,0,0,0,.45,1.19A1.59,1.59,0,0,0,94,49.8a4.92,4.92,0,0,0,1.12-.12,5.61,5.61,0,0,0,1.1-.39v1.39a4.2,4.2,0,0,1-1,.35A6.33,6.33,0,0,1,93.88,51.13Zm-.25-5.53a1.14,1.14,0,0,0-.89.36,1.67,1.67,0,0,0-.37,1h2.51a1.49,1.49,0,0,0-.35-1A1.17,1.17,0,0,0,93.63,45.6Z"/><path class="cls-16" d="M102.59,49.07a1.81,1.81,0,0,1-.7,1.54,3.47,3.47,0,0,1-2.1.53,6.59,6.59,0,0,1-1.22-.1,4.61,4.61,0,0,1-.94-.28V49.27a6.28,6.28,0,0,0,1.12.39,4.56,4.56,0,0,0,1.1.16q1,0,1-.56a.47.47,0,0,0-.13-.34,1.88,1.88,0,0,0-.45-.3q-.32-.17-.85-.39a5.34,5.34,0,0,1-1.11-.59,1.66,1.66,0,0,1-.52-.62,2,2,0,0,1-.16-.86,1.56,1.56,0,0,1,.68-1.35,3.3,3.3,0,0,1,1.92-.48,5.46,5.46,0,0,1,2.31.52L102,46.14q-.49-.21-.92-.35a2.89,2.89,0,0,0-.87-.13q-.79,0-.79.43a.5.5,0,0,0,.26.42,6.91,6.91,0,0,0,1.12.52,5.22,5.22,0,0,1,1.13.58,1.71,1.71,0,0,1,.53.62A1.92,1.92,0,0,1,102.59,49.07Z"/><path class="cls-16" d="M109.19,51.13a2.13,2.13,0,0,1-1.82-.9,4.12,4.12,0,0,1-.66-2.49,4.13,4.13,0,0,1,.67-2.51,2.18,2.18,0,0,1,1.85-.9,2.14,2.14,0,0,1,1.89,1h.06A7.34,7.34,0,0,1,111,44v-2.1h1.8V51h-1.37l-.35-.85H111A2,2,0,0,1,109.19,51.13Zm.63-1.43a1.21,1.21,0,0,0,1-.4,2.32,2.32,0,0,0,.35-1.36v-.19a2.69,2.69,0,0,0-.33-1.51,1.21,1.21,0,0,0-1.06-.46,1.05,1.05,0,0,0-.93.51,2.71,2.71,0,0,0-.33,1.48,2.57,2.57,0,0,0,.33,1.45A1.09,1.09,0,0,0,109.82,49.71Z"/><path class="cls-16" d="M119.37,51l-.24-.84H119a1.89,1.89,0,0,1-.82.71,2.78,2.78,0,0,1-1.2.25,2.29,2.29,0,0,1-1.74-.62,2.49,2.49,0,0,1-.59-1.78V44.45h1.79v3.83a1.84,1.84,0,0,0,.25,1.07.92.92,0,0,0,.8.36,1.21,1.21,0,0,0,1.09-.5,3.11,3.11,0,0,0,.33-1.66V44.45h1.79V51Z"/><path class="cls-16" d="M127.53,51h-1.79V41.88h1.79Z"/><path class="cls-16" d="M133.57,51l-.35-.89h0a2.64,2.64,0,0,1-.93.79,3,3,0,0,1-1.25.22,2,2,0,0,1-1.49-.54,2.07,2.07,0,0,1-.54-1.54,1.73,1.73,0,0,1,.73-1.54,4.23,4.23,0,0,1,2.2-.55l1.14,0v-.29a.89.89,0,0,0-1-1,4.66,4.66,0,0,0-1.85.48l-.59-1.21a5.33,5.33,0,0,1,2.51-.59,3.13,3.13,0,0,1,2,.58,2.13,2.13,0,0,1,.7,1.75V51ZM133,48l-.69,0a2.21,2.21,0,0,0-1.16.28.89.89,0,0,0-.38.79q0,.76.87.76a1.38,1.38,0,0,0,1-.36,1.26,1.26,0,0,0,.37-1Z"/><path class="cls-16" d="M142.72,51h-1.79V47.18a1.84,1.84,0,0,0-.25-1.07.92.92,0,0,0-.8-.36,1.21,1.21,0,0,0-1.09.5,3.11,3.11,0,0,0-.33,1.66V51h-1.79V44.45H138l.24.84h.1a1.89,1.89,0,0,1,.82-.72,2.81,2.81,0,0,1,1.19-.24,2.29,2.29,0,0,1,1.74.62,2.49,2.49,0,0,1,.59,1.79Z"/><path class="cls-16" d="M150.28,44.45v.91l-1,.26a1.79,1.79,0,0,1,.28,1,2,2,0,0,1-.74,1.65,3.19,3.19,0,0,1-2,.59l-.32,0-.26,0a.6.6,0,0,0-.28.47q0,.39,1,.39H148a2.54,2.54,0,0,1,1.65.46,1.66,1.66,0,0,1,.57,1.36,2,2,0,0,1-1,1.78,5,5,0,0,1-2.76.63,3.82,3.82,0,0,1-2.1-.48,1.52,1.52,0,0,1-.72-1.34,1.4,1.4,0,0,1,.37-1,2.1,2.1,0,0,1,1.09-.57,1.2,1.2,0,0,1-.48-.38.94.94,0,0,1,0-1.19,2.51,2.51,0,0,1,.63-.49,1.76,1.76,0,0,1-.82-.72,2.18,2.18,0,0,1-.3-1.16,2,2,0,0,1,.7-1.66,3,3,0,0,1,2-.59,5.15,5.15,0,0,1,.65,0l.48.07Zm-5.06,7.49a.65.65,0,0,0,.36.58,2,2,0,0,0,1,.21,3.52,3.52,0,0,0,1.51-.26.8.8,0,0,0,.55-.72.51.51,0,0,0-.32-.51,2.64,2.64,0,0,0-1-.14h-.93a1.4,1.4,0,0,0-.82.23A.71.71,0,0,0,145.21,51.94Zm.65-5.34a1.33,1.33,0,0,0,.24.85.88.88,0,0,0,.74.31.87.87,0,0,0,.74-.31,1.37,1.37,0,0,0,.23-.85q0-1.19-1-1.19T145.86,46.6Z"/><path class="cls-16" d="M155.52,51l-.35-.89h0a2.64,2.64,0,0,1-.93.79,3,3,0,0,1-1.25.22,2,2,0,0,1-1.49-.54,2.07,2.07,0,0,1-.54-1.54,1.73,1.73,0,0,1,.73-1.54,4.23,4.23,0,0,1,2.2-.55l1.14,0v-.29a.89.89,0,0,0-1-1,4.66,4.66,0,0,0-1.85.48l-.59-1.21a5.33,5.33,0,0,1,2.51-.59,3.13,3.13,0,0,1,2,.58,2.13,2.13,0,0,1,.7,1.75V51ZM155,48l-.69,0a2.21,2.21,0,0,0-1.16.28.89.89,0,0,0-.38.79q0,.76.87.76a1.38,1.38,0,0,0,1-.36,1.26,1.26,0,0,0,.37-1Z"/><path class="cls-16" d="M164.33,44.45v.91l-1,.26a1.79,1.79,0,0,1,.28,1,2,2,0,0,1-.74,1.65,3.19,3.19,0,0,1-2,.59l-.32,0-.26,0a.6.6,0,0,0-.28.47q0,.39,1,.39H162a2.54,2.54,0,0,1,1.65.46,1.66,1.66,0,0,1,.57,1.36,2,2,0,0,1-1,1.78,5,5,0,0,1-2.76.63,3.82,3.82,0,0,1-2.1-.48,1.52,1.52,0,0,1-.72-1.34,1.4,1.4,0,0,1,.37-1,2.1,2.1,0,0,1,1.09-.57,1.2,1.2,0,0,1-.48-.38.94.94,0,0,1,0-1.19,2.51,2.51,0,0,1,.63-.49,1.76,1.76,0,0,1-.82-.72,2.18,2.18,0,0,1-.3-1.16,2,2,0,0,1,.7-1.66,3,3,0,0,1,2-.59,5.15,5.15,0,0,1,.65,0l.48.07Zm-5.06,7.49a.65.65,0,0,0,.36.58,2,2,0,0,0,1,.21,3.52,3.52,0,0,0,1.51-.26.8.8,0,0,0,.55-.72.51.51,0,0,0-.32-.51,2.64,2.64,0,0,0-1-.14h-.93a1.4,1.4,0,0,0-.82.23A.71.71,0,0,0,159.26,51.94Zm.65-5.34a1.33,1.33,0,0,0,.24.85.88.88,0,0,0,.74.31.87.87,0,0,0,.74-.31,1.37,1.37,0,0,0,.23-.85q0-1.19-1-1.19T159.91,46.6Z"/><path class="cls-16" d="M168.38,51.13a3.39,3.39,0,0,1-2.48-.87,3.31,3.31,0,0,1-.89-2.48,3.64,3.64,0,0,1,.82-2.55,2.93,2.93,0,0,1,2.28-.9,2.89,2.89,0,0,1,2.17.79,3,3,0,0,1,.77,2.19v.87h-4.23a1.72,1.72,0,0,0,.45,1.19,1.59,1.59,0,0,0,1.19.43,4.92,4.92,0,0,0,1.12-.12,5.61,5.61,0,0,0,1.1-.39v1.39a4.2,4.2,0,0,1-1,.35A6.33,6.33,0,0,1,168.38,51.13Zm-.25-5.53a1.14,1.14,0,0,0-.89.36,1.67,1.67,0,0,0-.37,1h2.51a1.49,1.49,0,0,0-.35-1A1.17,1.17,0,0,0,168.12,45.6Z"/></g><g id="parcours-B-icone"><path class="cls-16" d="M15.93,54.67c-.86-.2-1.69-.4-2.55-.58l-2-.46a18.21,18.21,0,0,1-3.21-1.9,3.92,3.92,0,0,1-1.29-1.59C6.55,49,6,48.42,5.16,48.29A5.7,5.7,0,0,1,4,47.94a4.89,4.89,0,0,1-1.67-1.09c-1-1.09-.73-4.12.89-2.38.38.4.81.76,1.16,1.16a4.16,4.16,0,0,1,.51.78A4.91,4.91,0,0,0,6.45,48c.35.28.71.53,1.06.78a.45.45,0,0,0,.58-.13C8.8,48,9,48,9.28,47.41c.15-.35.18-.73.51-1,.28-.08.91-.38.86-1a8.23,8.23,0,0,0-1-2.12c-.2-.76.46-2.25,0-2.91a9,9,0,0,1-1-3.39A18.82,18.82,0,0,0,7.76,34c-.61-2.3,2.12-4.15,2.35-1.11a12.88,12.88,0,0,0,1.19,5.84c.28.68.08,2.3,1.34,2.25,3.62-.15.89,1.8,2.78,2.73.83.4,1.11-1.47,1.9-1.32.48.1,1.11,1.42,2,1.52a2.24,2.24,0,0,1,1.19.4c1.59,1.62-1,3.72-1.26,5.44-.15.94-.25,1.9-.43,2.81A2.89,2.89,0,0,1,18,54.18a1.59,1.59,0,0,1-1.14.56A2.47,2.47,0,0,1,15.93,54.67Zm-.66-9.84c-.23.66.28,2.28-.91,1.42a.89.89,0,0,0-1.16,0,1.59,1.59,0,0,0-.63,1.26,3.06,3.06,0,0,0,0,.48,2.53,2.53,0,0,0,.71,1.42,3.89,3.89,0,0,1,.43.48,1.21,1.21,0,0,0,1.19.25c.05,0,.08-.05.1-.08,2.63-2.25,3.29-5,1.77-5.49C15.55,44.19,15.37,44.55,15.27,44.83Z"/><path class="cls-16" d="M16,30.36a14.65,14.65,0,0,1-.1,1.82c-.1,1-.2,2-.3,3a30.26,30.26,0,0,0-.35,4.5c.18.46-.73-.15-.81-.18-1.11-.73-.63-1.85-.66-3-.08-2.12-.25-5,.38-7.06C14.44,28.41,16.21,29.32,16,30.36Z"/><path class="cls-16" d="M21.22,31.35a.8.8,0,0,1,.76,1c-.15.63-.25,1.32-.46,1.92-.25.78-.63,1.52-.94,2.28-.1.35-1.64,4.45-2.15,3.79A1.2,1.2,0,0,1,18.21,39c.83-1.44,1-3.47,1.34-5a19.81,19.81,0,0,1,.63-2A1,1,0,0,1,21.22,31.35Z"/><path class="cls-16" d="M22.58,41.82c.18-.13,3.79-2.71,3.64-1.47a2.12,2.12,0,0,1-.66,1.29L24,43.21a1.39,1.39,0,0,1-2.23-.05C21.55,42.6,22.13,42.12,22.58,41.82Z"/></g></g><g id="parcours-A"><polyline id="parcours-A-trace" class="cls-17" points="477.02 119 405.02 191 189.02 407 44.39 407"/><circle id="parcours-A-station-2-8" class="cls-18" cx="332.71" cy="263" r="9.31"/><circle id="parcours-A-station-1-2" class="cls-18" cx="44.39" cy="407" r="9.31"/><circle id="parcours-A-station-1-3" class="cls-18" cx="117.02" cy="407.31" r="9.31"/><circle id="parcours-A-station-1-1" class="cls-3" cx="189.34" cy="406.37" r="9.31"/><circle id="parcours-A-station-0-7" class="cls-18" cx="261.02" cy="335" r="9.31"/><circle id="parcours-A-station-0-4" class="cls-3" cx="404.71" cy="190.69" r="9.31"/><circle id="parcours-A-station-1-0" class="cls-18" cx="476.98" cy="118.69" r="9.31"/><rect id="parcours-A-masque" class="cls-4" x="450.02" y="74" width="144" height="27"/><g id="parcours-A-texte"><path class="cls-19" d="M481.05,83.69V75.11h1.82v7.08h3.48v1.5Z"/><path class="cls-19" d="M490.67,83.81a3.39,3.39,0,0,1-2.48-.87,3.31,3.31,0,0,1-.89-2.48,3.64,3.64,0,0,1,.82-2.55,2.94,2.94,0,0,1,2.28-.9,2.89,2.89,0,0,1,2.17.79,3,3,0,0,1,.77,2.19v.87h-4.23a1.72,1.72,0,0,0,.45,1.19,1.59,1.59,0,0,0,1.19.43,4.92,4.92,0,0,0,1.12-.12A5.61,5.61,0,0,0,493,82v1.39a4.2,4.2,0,0,1-1,.35A6.33,6.33,0,0,1,490.67,83.81Zm-.25-5.53a1.14,1.14,0,0,0-.89.36,1.67,1.67,0,0,0-.37,1h2.51a1.49,1.49,0,0,0-.35-1A1.17,1.17,0,0,0,490.42,78.28Z"/><path class="cls-19" d="M501.55,78.47H500v5.22h-1.79V78.47h-1v-.86l1-.48v-.48a2.15,2.15,0,0,1,.55-1.64,2.53,2.53,0,0,1,1.77-.52,4.6,4.6,0,0,1,1.65.28l-.46,1.31a3.33,3.33,0,0,0-1-.17.65.65,0,0,0-.55.23.94.94,0,0,0-.17.58v.41h1.55Z"/><path class="cls-19" d="M508.54,80.4a3.53,3.53,0,0,1-.85,2.51,3.07,3.07,0,0,1-2.35.9,3.29,3.29,0,0,1-1.67-.41,2.75,2.75,0,0,1-1.11-1.19,4,4,0,0,1-.39-1.81,3.51,3.51,0,0,1,.84-2.5,3.08,3.08,0,0,1,2.36-.89,3.31,3.31,0,0,1,1.67.41,2.74,2.74,0,0,1,1.11,1.18A4,4,0,0,1,508.54,80.4Zm-4.54,0a2.76,2.76,0,0,0,.32,1.47,1.15,1.15,0,0,0,1,.5,1.13,1.13,0,0,0,1-.5,2.8,2.8,0,0,0,.31-1.48,2.71,2.71,0,0,0-.32-1.46,1.35,1.35,0,0,0-2.07,0A2.71,2.71,0,0,0,504,80.4Z"/><path class="cls-19" d="M516.08,83.69h-1.79V79.86a1.84,1.84,0,0,0-.25-1.07.92.92,0,0,0-.8-.36,1.21,1.21,0,0,0-1.09.5,3.11,3.11,0,0,0-.33,1.66v3.09H510V77.13h1.37l.24.84h.1a1.89,1.89,0,0,1,.82-.72,2.81,2.81,0,0,1,1.19-.24,2.29,2.29,0,0,1,1.74.62,2.49,2.49,0,0,1,.59,1.79Z"/><path class="cls-19" d="M520.59,83.81q-3.06,0-3.06-3.36a3.59,3.59,0,0,1,.83-2.56,3.13,3.13,0,0,1,2.39-.88,4.56,4.56,0,0,1,2,.45l-.53,1.39q-.42-.17-.79-.28a2.53,2.53,0,0,0-.73-.11q-1.4,0-1.4,2t1.4,1.92a3.19,3.19,0,0,0,1-.14,3.44,3.44,0,0,0,.88-.43v1.53a2.88,2.88,0,0,1-.88.38A4.94,4.94,0,0,1,520.59,83.81Z"/><path class="cls-19" d="M526.87,82.38a3.88,3.88,0,0,0,1.13-.21v1.33a4,4,0,0,1-1.64.3,2,2,0,0,1-1.56-.54,2.36,2.36,0,0,1-.49-1.63V78.47h-.86v-.76l1-.6.52-1.39h1.14v1.4h1.84v1.34h-1.84v3.16a.7.7,0,0,0,.21.56A.84.84,0,0,0,526.87,82.38Z"/><path class="cls-19" d="M529.24,75.43q0-.87,1-.87t1,.87a.85.85,0,0,1-.24.65,1,1,0,0,1-.73.23Q529.24,76.31,529.24,75.43Zm1.87,8.26h-1.79V77.13h1.79Z"/><path class="cls-19" d="M538.95,80.4a3.53,3.53,0,0,1-.85,2.51,3.07,3.07,0,0,1-2.35.9,3.29,3.29,0,0,1-1.67-.41A2.75,2.75,0,0,1,533,82.2a4,4,0,0,1-.39-1.81,3.51,3.51,0,0,1,.84-2.5,3.08,3.08,0,0,1,2.36-.89,3.31,3.31,0,0,1,1.67.41,2.74,2.74,0,0,1,1.11,1.18A4,4,0,0,1,538.95,80.4Zm-4.54,0a2.76,2.76,0,0,0,.32,1.47,1.15,1.15,0,0,0,1,.5,1.13,1.13,0,0,0,1-.5,2.8,2.8,0,0,0,.31-1.48,2.71,2.71,0,0,0-.32-1.46,1.35,1.35,0,0,0-2.07,0A2.71,2.71,0,0,0,534.41,80.4Z"/><path class="cls-19" d="M546.48,83.69h-1.79V79.86a1.84,1.84,0,0,0-.25-1.07.92.92,0,0,0-.8-.36,1.21,1.21,0,0,0-1.09.5,3.11,3.11,0,0,0-.33,1.66v3.09h-1.79V77.13h1.37L542,78h.1a1.89,1.89,0,0,1,.82-.72,2.81,2.81,0,0,1,1.19-.24,2.29,2.29,0,0,1,1.74.62,2.49,2.49,0,0,1,.59,1.79Z"/><path class="cls-19" d="M554.38,83.69h-1.79V79.86a1.84,1.84,0,0,0-.25-1.07.92.92,0,0,0-.8-.36,1.21,1.21,0,0,0-1.09.5,3.11,3.11,0,0,0-.33,1.66v3.09h-1.79V77.13h1.37l.24.84h.1a1.89,1.89,0,0,1,.82-.72,2.81,2.81,0,0,1,1.19-.24,2.29,2.29,0,0,1,1.74.62,2.49,2.49,0,0,1,.59,1.79Z"/><path class="cls-19" d="M559.2,83.81a3.39,3.39,0,0,1-2.48-.87,3.31,3.31,0,0,1-.89-2.48,3.64,3.64,0,0,1,.82-2.55,2.93,2.93,0,0,1,2.28-.9,2.89,2.89,0,0,1,2.17.79,3,3,0,0,1,.77,2.19v.87h-4.23a1.72,1.72,0,0,0,.45,1.19,1.59,1.59,0,0,0,1.19.43,4.92,4.92,0,0,0,1.12-.12,5.61,5.61,0,0,0,1.1-.39v1.39a4.2,4.2,0,0,1-1,.35A6.33,6.33,0,0,1,559.2,83.81Zm-.25-5.53a1.14,1.14,0,0,0-.89.36,1.67,1.67,0,0,0-.37,1h2.51a1.49,1.49,0,0,0-.35-1A1.17,1.17,0,0,0,558.94,78.28Z"/><path class="cls-19" d="M569.2,83.69h-1.79V79.86a1.92,1.92,0,0,0-.24-1.07.83.83,0,0,0-.75-.36,1.08,1.08,0,0,0-1,.5,3.31,3.31,0,0,0-.31,1.66v3.09h-1.79V77.13h1.37l.24.84h.1a1.82,1.82,0,0,1,.76-.71,2.48,2.48,0,0,1,1.14-.26,2.06,2.06,0,0,1,2,1h.16a1.77,1.77,0,0,1,.78-.71A2.6,2.6,0,0,1,571,77a2.29,2.29,0,0,1,1.69.57,2.52,2.52,0,0,1,.57,1.83v4.28h-1.8V79.86a1.92,1.92,0,0,0-.24-1.07.83.83,0,0,0-.75-.36,1.11,1.11,0,0,0-1,.47,2.66,2.66,0,0,0-.33,1.49Z"/><path class="cls-19" d="M578.1,83.81a3.39,3.39,0,0,1-2.48-.87,3.31,3.31,0,0,1-.89-2.48,3.64,3.64,0,0,1,.82-2.55,2.93,2.93,0,0,1,2.28-.9,2.89,2.89,0,0,1,2.17.79,3,3,0,0,1,.77,2.19v.87h-4.23A1.72,1.72,0,0,0,577,82a1.59,1.59,0,0,0,1.19.43,4.92,4.92,0,0,0,1.12-.12,5.61,5.61,0,0,0,1.1-.39v1.39a4.2,4.2,0,0,1-1,.35A6.33,6.33,0,0,1,578.1,83.81Zm-.25-5.53a1.14,1.14,0,0,0-.89.36,1.67,1.67,0,0,0-.37,1h2.51a1.49,1.49,0,0,0-.35-1A1.17,1.17,0,0,0,577.85,78.28Z"/><path class="cls-19" d="M588.29,83.69H586.5V79.86a1.84,1.84,0,0,0-.25-1.07.92.92,0,0,0-.8-.36,1.21,1.21,0,0,0-1.09.5A3.11,3.11,0,0,0,584,80.6v3.09h-1.79V77.13h1.37l.24.84h.1a1.89,1.89,0,0,1,.82-.72A2.81,2.81,0,0,1,586,77a2.29,2.29,0,0,1,1.74.62,2.49,2.49,0,0,1,.59,1.79Z"/><path class="cls-19" d="M592.89,82.38a3.88,3.88,0,0,0,1.13-.21v1.33a4,4,0,0,1-1.64.3,2,2,0,0,1-1.56-.54,2.36,2.36,0,0,1-.49-1.63V78.47h-.86v-.76l1-.6.52-1.39h1.14v1.4H594v1.34h-1.84v3.16a.7.7,0,0,0,.21.56A.84.84,0,0,0,592.89,82.38Z"/><path class="cls-19" d="M483,98.23a2.13,2.13,0,0,1-1.82-.9,5,5,0,0,1,0-5,2.18,2.18,0,0,1,1.85-.9,2.14,2.14,0,0,1,1.89,1H485a7.3,7.3,0,0,1-.13-1.31V89h1.8v9.13h-1.37l-.35-.85h-.08A2,2,0,0,1,483,98.23Zm.63-1.43a1.21,1.21,0,0,0,1-.4A2.32,2.32,0,0,0,485,95v-.19a2.68,2.68,0,0,0-.33-1.51,1.21,1.21,0,0,0-1.06-.46,1.05,1.05,0,0,0-.93.51,2.71,2.71,0,0,0-.33,1.48,2.57,2.57,0,0,0,.33,1.45A1.09,1.09,0,0,0,483.62,96.8Z"/><path class="cls-19" d="M491.49,98.23a3.39,3.39,0,0,1-2.48-.87,3.31,3.31,0,0,1-.89-2.48,3.64,3.64,0,0,1,.82-2.55,2.93,2.93,0,0,1,2.28-.9,2.89,2.89,0,0,1,2.17.79,3,3,0,0,1,.77,2.19v.87h-4.23a1.72,1.72,0,0,0,.45,1.19,1.59,1.59,0,0,0,1.19.43,4.92,4.92,0,0,0,1.12-.12,5.61,5.61,0,0,0,1.1-.39v1.39a4.2,4.2,0,0,1-1,.35A6.33,6.33,0,0,1,491.49,98.23Zm-.25-5.53a1.14,1.14,0,0,0-.89.36,1.67,1.67,0,0,0-.37,1h2.51a1.49,1.49,0,0,0-.35-1A1.17,1.17,0,0,0,491.24,92.7Z"/><path class="cls-19" d="M500.2,96.16a1.81,1.81,0,0,1-.7,1.54,3.47,3.47,0,0,1-2.1.53,6.59,6.59,0,0,1-1.22-.1,4.61,4.61,0,0,1-.94-.28V96.37a6.28,6.28,0,0,0,1.12.39,4.56,4.56,0,0,0,1.1.16q1,0,1-.56a.47.47,0,0,0-.13-.34,1.88,1.88,0,0,0-.45-.3q-.32-.17-.85-.39a5.34,5.34,0,0,1-1.11-.59,1.66,1.66,0,0,1-.52-.62,2,2,0,0,1-.16-.86,1.56,1.56,0,0,1,.68-1.35,3.3,3.3,0,0,1,1.92-.48,5.46,5.46,0,0,1,2.31.52l-.54,1.29q-.49-.21-.92-.35a2.89,2.89,0,0,0-.87-.13q-.79,0-.79.43a.5.5,0,0,0,.26.42,6.91,6.91,0,0,0,1.12.52,5.22,5.22,0,0,1,1.13.58,1.71,1.71,0,0,1,.53.62A1.92,1.92,0,0,1,500.2,96.16Z"/><path class="cls-19" d="M506.51,98.11h-1.79V89h1.79Z"/><path class="cls-19" d="M512.55,98.11l-.35-.89h0a2.64,2.64,0,0,1-.93.79,3,3,0,0,1-1.25.22,2,2,0,0,1-1.49-.54,2.07,2.07,0,0,1-.54-1.54,1.73,1.73,0,0,1,.73-1.54,4.23,4.23,0,0,1,2.2-.55L512,94v-.29a.89.89,0,0,0-1-1,4.66,4.66,0,0,0-1.85.48L508.56,92a5.33,5.33,0,0,1,2.51-.59,3.13,3.13,0,0,1,2,.58,2.13,2.13,0,0,1,.7,1.75v4.37Zm-.53-3-.69,0a2.21,2.21,0,0,0-1.16.28.89.89,0,0,0-.38.79q0,.76.87.76a1.38,1.38,0,0,0,1-.36,1.26,1.26,0,0,0,.37-1Z"/><path class="cls-19" d="M521.7,98.11h-1.79V94.28a1.84,1.84,0,0,0-.25-1.07.92.92,0,0,0-.8-.36,1.21,1.21,0,0,0-1.09.5,3.11,3.11,0,0,0-.33,1.66v3.09h-1.79V91.55H517l.24.84h.1a1.89,1.89,0,0,1,.82-.72,2.81,2.81,0,0,1,1.19-.24,2.29,2.29,0,0,1,1.74.62,2.49,2.49,0,0,1,.59,1.79Z"/><path class="cls-19" d="M529.25,91.55v.91l-1,.26a1.79,1.79,0,0,1,.28,1,2,2,0,0,1-.74,1.65,3.19,3.19,0,0,1-2,.59l-.32,0-.26,0a.6.6,0,0,0-.28.47q0,.39,1,.39H527a2.54,2.54,0,0,1,1.65.46,1.66,1.66,0,0,1,.57,1.36,2,2,0,0,1-1,1.78,5,5,0,0,1-2.76.63,3.82,3.82,0,0,1-2.1-.48,1.52,1.52,0,0,1-.72-1.34,1.4,1.4,0,0,1,.37-1,2.1,2.1,0,0,1,1.09-.57,1.2,1.2,0,0,1-.48-.38.94.94,0,0,1,0-1.19,2.51,2.51,0,0,1,.63-.49,1.76,1.76,0,0,1-.82-.72,2.18,2.18,0,0,1-.3-1.16,2,2,0,0,1,.7-1.66,3,3,0,0,1,2-.59,5.15,5.15,0,0,1,.65,0l.48.07ZM524.19,99a.65.65,0,0,0,.36.58,2,2,0,0,0,1,.21,3.52,3.52,0,0,0,1.51-.26.8.8,0,0,0,.55-.72.51.51,0,0,0-.32-.51,2.64,2.64,0,0,0-1-.14h-.93a1.4,1.4,0,0,0-.82.23A.71.71,0,0,0,524.19,99Zm.65-5.34a1.33,1.33,0,0,0,.24.85.88.88,0,0,0,.74.31.87.87,0,0,0,.74-.31,1.37,1.37,0,0,0,.23-.85q0-1.19-1-1.19T524.84,93.7Z"/><path class="cls-19" d="M535,98.11l-.24-.84h-.09a1.89,1.89,0,0,1-.82.71,2.78,2.78,0,0,1-1.2.25,2.29,2.29,0,0,1-1.74-.62,2.49,2.49,0,0,1-.59-1.78V91.55h1.79v3.83a1.84,1.84,0,0,0,.25,1.07.92.92,0,0,0,.8.36,1.21,1.21,0,0,0,1.09-.5,3.11,3.11,0,0,0,.33-1.66V91.55h1.79v6.56Z"/><path class="cls-19" d="M541.2,98.23a3.39,3.39,0,0,1-2.48-.87,3.31,3.31,0,0,1-.89-2.48,3.64,3.64,0,0,1,.82-2.55,2.93,2.93,0,0,1,2.28-.9,2.89,2.89,0,0,1,2.17.79,3,3,0,0,1,.77,2.19v.87h-4.23a1.72,1.72,0,0,0,.45,1.19,1.59,1.59,0,0,0,1.19.43,4.92,4.92,0,0,0,1.12-.12,5.61,5.61,0,0,0,1.1-.39v1.39a4.2,4.2,0,0,1-1,.35A6.33,6.33,0,0,1,541.2,98.23ZM541,92.7a1.14,1.14,0,0,0-.89.36,1.67,1.67,0,0,0-.37,1h2.51a1.49,1.49,0,0,0-.35-1A1.17,1.17,0,0,0,541,92.7Z"/><path class="cls-19" d="M549.91,96.16a1.81,1.81,0,0,1-.7,1.54,3.47,3.47,0,0,1-2.1.53,6.59,6.59,0,0,1-1.22-.1,4.61,4.61,0,0,1-.94-.28V96.37a6.28,6.28,0,0,0,1.12.39,4.56,4.56,0,0,0,1.1.16q1,0,1-.56A.47.47,0,0,0,548,96a1.88,1.88,0,0,0-.45-.3q-.32-.17-.85-.39a5.34,5.34,0,0,1-1.11-.59,1.66,1.66,0,0,1-.52-.62,2,2,0,0,1-.16-.86,1.56,1.56,0,0,1,.68-1.35,3.3,3.3,0,0,1,1.92-.48,5.46,5.46,0,0,1,2.31.52l-.54,1.29q-.49-.21-.92-.35a2.89,2.89,0,0,0-.87-.13q-.79,0-.79.43a.5.5,0,0,0,.26.42,6.91,6.91,0,0,0,1.12.52,5.22,5.22,0,0,1,1.13.58,1.71,1.71,0,0,1,.53.62A1.92,1.92,0,0,1,549.91,96.16Z"/></g><g id="parcours-A-icone"><path class="cls-19" d="M457.28,79.35a3,3,0,1,0,3,3A3,3,0,0,0,457.28,79.35Zm6.07,4.77-.55,1.32,1,1.91.13.25L462.56,89l-2.22-1-1.32.54-.67,2-.09.27h-1.91l-.83-2.31-1.32-.54-1.92,1-.25.13-1.35-1.35,1-2.22-.54-1.31-2-.67-.27-.09V81.47l2.31-.83.54-1.31-1-1.92-.13-.25L452,75.81l2.22,1,1.31-.54.67-2,.09-.27h1.91l.83,2.31,1.31.54,1.92-1,.25-.13,1.35,1.35-1,2.22.54,1.32,2,.67.27.09v1.91Z"/><path class="cls-19" d="M468.64,90.89a2.45,2.45,0,1,0,1.11,3.28A2.45,2.45,0,0,0,468.64,90.89Zm2.7,5.64-.87.76,0,1.74v.23l-1.46.5L467.8,98.2l-1.15-.08-1.22,1.24-.16.17-1.39-.68.23-2-.76-.87-1.74,0h-.23l-.5-1.46,1.55-1.23.08-1.15L461.28,91l-.17-.16.68-1.38,2,.23.86-.76,0-1.74v-.23l1.46-.5L467.31,88l1.15.08,1.22-1.24.16-.17,1.39.68-.23,2,.76.86,1.74,0h.23l.5,1.46-1.55,1.23L472.58,94l1.25,1.22.16.16-.68,1.38Z"/></g></g></svg>