<?xml version="1.0" encoding="utf-8"?>
<!-- Generator: Adobe Illustrator 21.0.0, SVG Export Plug-In . SVG Version: 6.00 Build 0)  -->
<svg version="1.1" xmlns="http://www.w3.org/2000/svg" xmlns:xlink="http://www.w3.org/1999/xlink" x="0px" y="0px"
	 viewBox="0 0 594 418.8" style="enable-background:new 0 0 594 418.8;" xml:space="preserve">
<style type="text/css">
	.st0{fill:none;stroke:#F8AF3C;stroke-width:5;stroke-miterlimit:10;}
	.st1{fill:#F8AF3C;}
	.st2{fill:#FFFFFF;stroke:#000000;stroke-width:3;stroke-miterlimit:10;}
	.st3{fill:#FFFFFF;}
	.st4{fill:none;stroke:#6874B7;stroke-width:5;stroke-miterlimit:10;}
	.st5{fill:#6874B7;}
	.st6{fill:#312782;}
	.st7{fill:none;stroke:#83589F;stroke-width:5;stroke-miterlimit:10;}
	.st8{fill:#83589F;}
	.st9{fill:none;stroke:#4FAE54;stroke-width:5;stroke-miterlimit:10;}
	.st10{fill:#4FAE54;}
	.st11{fill:none;stroke:#FF7BAC;stroke-width:5;stroke-miterlimit:10;}
	.st12{fill:#FF7BAC;}
	.st13{fill:#ED7AA9;}
	.st14{fill:none;stroke:#C0282D;stroke-width:5;stroke-miterlimit:10;}
	.st15{fill:#C0282D;}
	.st16{fill:none;stroke:#29ABE2;stroke-width:5;stroke-miterlimit:10;}
	.st17{fill:#29ABE2;}
	.st18{fill:#3EB9EB;}
</style>
<g id="parcours-G">
	<polyline id="parcours-G-trace" class="st0" points="261,263 117,119 45,119"></polyline>
	<circle id="parcours-G-station-2-0" class="st1" cx="260.7" cy="263" r="9.3"></circle>
	<circle id="parcours-G-station-0-3" class="st2" cx="189.3" cy="191.9" r="9.3"></circle>
	<circle id="parcours-G-station-0-5" class="st1" cx="116.7" cy="119.9" r="9.3"></circle>
	<circle id="parcours-G-station-3-3" class="st1" cx="44.7" cy="119" r="9.3"></circle>
	<rect id="parcours-G-masque" y="71" class="st3" width="120.7" height="27"></rect>
	<g id="parcours-G-texte">
		<path class="st1" d="M33.9,81.9v-8.6h1.8v7.1h3.5v1.5H33.9z"></path>
		<path class="st1" d="M43.5,82.1c-1.1,0-1.9-0.3-2.5-0.9c-0.6-0.6-0.9-1.4-0.9-2.5c0-1.1,0.3-1.9,0.8-2.5c0.5-0.6,1.3-0.9,2.3-0.9
			c0.9,0,1.6,0.3,2.2,0.8c0.5,0.5,0.8,1.3,0.8,2.2v0.9H42c0,0.5,0.2,0.9,0.5,1.2c0.3,0.3,0.7,0.4,1.2,0.4c0.4,0,0.8,0,1.1-0.1
			c0.4-0.1,0.7-0.2,1.1-0.4v1.4c-0.3,0.2-0.6,0.3-1,0.3C44.5,82,44,82.1,43.5,82.1z M43.3,76.5c-0.4,0-0.7,0.1-0.9,0.4
			c-0.2,0.2-0.3,0.6-0.4,1h2.5c0-0.4-0.1-0.8-0.3-1C43.9,76.7,43.6,76.5,43.3,76.5z"></path>
		<path class="st1" d="M52.2,80c0,0.7-0.2,1.2-0.7,1.5c-0.5,0.4-1.2,0.5-2.1,0.5c-0.5,0-0.9,0-1.2-0.1c-0.3-0.1-0.7-0.2-0.9-0.3
			v-1.5c0.3,0.2,0.7,0.3,1.1,0.4c0.4,0.1,0.8,0.2,1.1,0.2c0.6,0,1-0.2,1-0.6c0-0.1,0-0.3-0.1-0.3c-0.1-0.1-0.2-0.2-0.4-0.3
			c-0.2-0.1-0.5-0.2-0.8-0.4c-0.5-0.2-0.9-0.4-1.1-0.6c-0.2-0.2-0.4-0.4-0.5-0.6c-0.1-0.2-0.2-0.5-0.2-0.9c0-0.6,0.2-1,0.7-1.4
			c0.5-0.3,1.1-0.5,1.9-0.5c0.8,0,1.6,0.2,2.3,0.5l-0.5,1.3c-0.3-0.1-0.6-0.3-0.9-0.3c-0.3-0.1-0.6-0.1-0.9-0.1
			c-0.5,0-0.8,0.1-0.8,0.4c0,0.2,0.1,0.3,0.3,0.4c0.2,0.1,0.5,0.3,1.1,0.5c0.5,0.2,0.9,0.4,1.1,0.6s0.4,0.4,0.5,0.6
			S52.2,79.7,52.2,80z"></path>
		<path class="st1" d="M58.5,81.9h-1.8v-9.1h1.8V81.9z"></path>
		<path class="st1" d="M64.6,81.9l-0.3-0.9h0c-0.3,0.4-0.6,0.6-0.9,0.8c-0.3,0.1-0.7,0.2-1.2,0.2c-0.6,0-1.1-0.2-1.5-0.5
			C60.2,81.2,60,80.7,60,80c0-0.7,0.2-1.2,0.7-1.5c0.5-0.3,1.2-0.5,2.2-0.5l1.1,0v-0.3c0-0.7-0.3-1-1-1c-0.5,0-1.1,0.2-1.8,0.5
			l-0.6-1.2c0.8-0.4,1.6-0.6,2.5-0.6c0.9,0,1.6,0.2,2,0.6c0.5,0.4,0.7,1,0.7,1.7v4.4H64.6z M64.1,78.9l-0.7,0
			c-0.5,0-0.9,0.1-1.2,0.3s-0.4,0.4-0.4,0.8c0,0.5,0.3,0.8,0.9,0.8c0.4,0,0.7-0.1,1-0.4c0.2-0.2,0.4-0.6,0.4-1V78.9z"></path>
		<path class="st1" d="M73.7,81.9h-1.8v-3.8c0-0.5-0.1-0.8-0.3-1.1c-0.2-0.2-0.4-0.4-0.8-0.4c-0.5,0-0.9,0.2-1.1,0.5
			c-0.2,0.3-0.3,0.9-0.3,1.7v3.1h-1.8v-6.6H69l0.2,0.8h0.1c0.2-0.3,0.5-0.6,0.8-0.7c0.4-0.2,0.7-0.2,1.2-0.2c0.8,0,1.3,0.2,1.7,0.6
			c0.4,0.4,0.6,1,0.6,1.8V81.9z"></path>
		<path class="st1" d="M81.3,75.4v0.9l-1,0.3c0.2,0.3,0.3,0.6,0.3,1c0,0.7-0.2,1.3-0.7,1.6c-0.5,0.4-1.2,0.6-2,0.6l-0.3,0l-0.3,0
			c-0.2,0.1-0.3,0.3-0.3,0.5c0,0.3,0.3,0.4,1,0.4H79c0.7,0,1.3,0.2,1.6,0.5c0.4,0.3,0.6,0.8,0.6,1.4c0,0.8-0.3,1.4-1,1.8
			c-0.6,0.4-1.6,0.6-2.8,0.6c-0.9,0-1.6-0.2-2.1-0.5c-0.5-0.3-0.7-0.8-0.7-1.3c0-0.4,0.1-0.7,0.4-1c0.2-0.3,0.6-0.5,1.1-0.6
			c-0.2-0.1-0.3-0.2-0.5-0.4c-0.1-0.2-0.2-0.4-0.2-0.6c0-0.3,0.1-0.5,0.2-0.6c0.1-0.2,0.4-0.3,0.6-0.5c-0.3-0.1-0.6-0.4-0.8-0.7
			c-0.2-0.3-0.3-0.7-0.3-1.2c0-0.7,0.2-1.3,0.7-1.7c0.5-0.4,1.1-0.6,2-0.6c0.2,0,0.4,0,0.7,0c0.3,0,0.4,0.1,0.5,0.1H81.3z
			 M76.2,82.9c0,0.2,0.1,0.4,0.4,0.6c0.2,0.1,0.6,0.2,1,0.2c0.6,0,1.1-0.1,1.5-0.3c0.4-0.2,0.5-0.4,0.5-0.7c0-0.2-0.1-0.4-0.3-0.5
			c-0.2-0.1-0.5-0.1-1-0.1h-0.9c-0.3,0-0.6,0.1-0.8,0.2C76.3,82.4,76.2,82.6,76.2,82.9z M76.9,77.5c0,0.4,0.1,0.6,0.2,0.8
			c0.2,0.2,0.4,0.3,0.7,0.3c0.3,0,0.6-0.1,0.7-0.3c0.2-0.2,0.2-0.5,0.2-0.8c0-0.8-0.3-1.2-1-1.2C77.2,76.4,76.9,76.7,76.9,77.5z"></path>
		<path class="st1" d="M87,81.9l-0.2-0.8h-0.1c-0.2,0.3-0.5,0.5-0.8,0.7c-0.4,0.2-0.8,0.2-1.2,0.2c-0.8,0-1.4-0.2-1.7-0.6
			c-0.4-0.4-0.6-1-0.6-1.8v-4.3h1.8v3.8c0,0.5,0.1,0.8,0.3,1.1c0.2,0.2,0.4,0.4,0.8,0.4c0.5,0,0.9-0.2,1.1-0.5
			c0.2-0.3,0.3-0.9,0.3-1.7v-3.1h1.8v6.6H87z"></path>
		<path class="st1" d="M93.2,82.1c-1.1,0-1.9-0.3-2.5-0.9c-0.6-0.6-0.9-1.4-0.9-2.5c0-1.1,0.3-1.9,0.8-2.5c0.5-0.6,1.3-0.9,2.3-0.9
			c0.9,0,1.6,0.3,2.2,0.8c0.5,0.5,0.8,1.3,0.8,2.2v0.9h-4.2c0,0.5,0.2,0.9,0.5,1.2c0.3,0.3,0.7,0.4,1.2,0.4c0.4,0,0.8,0,1.1-0.1
			c0.4-0.1,0.7-0.2,1.1-0.4v1.4c-0.3,0.2-0.6,0.3-1,0.3C94.2,82,93.7,82.1,93.2,82.1z M93,76.5c-0.4,0-0.7,0.1-0.9,0.4
			c-0.2,0.2-0.3,0.6-0.4,1h2.5c0-0.4-0.1-0.8-0.3-1C93.7,76.7,93.4,76.5,93,76.5z"></path>
		<path class="st1" d="M101.9,80c0,0.7-0.2,1.2-0.7,1.5c-0.5,0.4-1.2,0.5-2.1,0.5c-0.5,0-0.9,0-1.2-0.1c-0.3-0.1-0.7-0.2-0.9-0.3
			v-1.5c0.3,0.2,0.7,0.3,1.1,0.4c0.4,0.1,0.8,0.2,1.1,0.2c0.6,0,1-0.2,1-0.6c0-0.1,0-0.3-0.1-0.3c-0.1-0.1-0.2-0.2-0.4-0.3
			c-0.2-0.1-0.5-0.2-0.8-0.4c-0.5-0.2-0.9-0.4-1.1-0.6c-0.2-0.2-0.4-0.4-0.5-0.6C97,77.7,97,77.4,97,77.1c0-0.6,0.2-1,0.7-1.4
			c0.5-0.3,1.1-0.5,1.9-0.5c0.8,0,1.6,0.2,2.3,0.5l-0.5,1.3c-0.3-0.1-0.6-0.3-0.9-0.3c-0.3-0.1-0.6-0.1-0.9-0.1
			c-0.5,0-0.8,0.1-0.8,0.4c0,0.2,0.1,0.3,0.3,0.4c0.2,0.1,0.5,0.3,1.1,0.5c0.5,0.2,0.9,0.4,1.1,0.6c0.2,0.2,0.4,0.4,0.5,0.6
			S101.9,79.7,101.9,80z"></path>
		<path class="st1" d="M35.8,96.5c-0.8,0-1.4-0.3-1.8-0.9c-0.4-0.6-0.7-1.4-0.7-2.5c0-1.1,0.2-1.9,0.7-2.5c0.4-0.6,1.1-0.9,1.9-0.9
			c0.8,0,1.5,0.3,1.9,1h0.1c-0.1-0.5-0.1-0.9-0.1-1.3v-2.1h1.8v9.1h-1.4l-0.3-0.9h-0.1C37.3,96.2,36.7,96.5,35.8,96.5z M36.5,95.1
			c0.5,0,0.8-0.1,1-0.4c0.2-0.3,0.3-0.7,0.3-1.4v-0.2c0-0.7-0.1-1.2-0.3-1.5c-0.2-0.3-0.6-0.5-1.1-0.5c-0.4,0-0.7,0.2-0.9,0.5
			c-0.2,0.3-0.3,0.8-0.3,1.5s0.1,1.1,0.3,1.5C35.7,94.9,36,95.1,36.5,95.1z"></path>
		<path class="st1" d="M45.5,96.4l-0.3-0.9h0c-0.3,0.4-0.6,0.6-0.9,0.8c-0.3,0.1-0.7,0.2-1.2,0.2c-0.6,0-1.1-0.2-1.5-0.5
			c-0.4-0.4-0.5-0.9-0.5-1.5c0-0.7,0.2-1.2,0.7-1.5c0.5-0.3,1.2-0.5,2.2-0.5l1.1,0V92c0-0.7-0.3-1-1-1c-0.5,0-1.1,0.2-1.8,0.5
			l-0.6-1.2c0.8-0.4,1.6-0.6,2.5-0.6c0.9,0,1.6,0.2,2,0.6c0.5,0.4,0.7,1,0.7,1.7v4.4H45.5z M45,93.3l-0.7,0c-0.5,0-0.9,0.1-1.2,0.3
			c-0.3,0.2-0.4,0.4-0.4,0.8c0,0.5,0.3,0.8,0.9,0.8c0.4,0,0.7-0.1,1-0.4c0.2-0.2,0.4-0.6,0.4-1V93.3z"></path>
		<path class="st1" d="M54.7,96.4h-1.8v-3.8c0-0.5-0.1-0.8-0.3-1.1c-0.2-0.2-0.4-0.4-0.8-0.4c-0.5,0-0.9,0.2-1.1,0.5
			c-0.2,0.3-0.3,0.9-0.3,1.7v3.1h-1.8v-6.6H50l0.2,0.8h0.1c0.2-0.3,0.5-0.6,0.8-0.7c0.4-0.2,0.7-0.2,1.2-0.2c0.8,0,1.3,0.2,1.7,0.6
			c0.4,0.4,0.6,1,0.6,1.8V96.4z"></path>
		<path class="st1" d="M61.1,94.4c0,0.7-0.2,1.2-0.7,1.5c-0.5,0.4-1.2,0.5-2.1,0.5c-0.5,0-0.9,0-1.2-0.1c-0.3-0.1-0.7-0.2-0.9-0.3
			v-1.5c0.3,0.2,0.7,0.3,1.1,0.4c0.4,0.1,0.8,0.2,1.1,0.2c0.6,0,1-0.2,1-0.6c0-0.1,0-0.3-0.1-0.3c-0.1-0.1-0.2-0.2-0.4-0.3
			c-0.2-0.1-0.5-0.2-0.8-0.4c-0.5-0.2-0.9-0.4-1.1-0.6c-0.2-0.2-0.4-0.4-0.5-0.6c-0.1-0.2-0.2-0.5-0.2-0.9c0-0.6,0.2-1,0.7-1.4
			c0.5-0.3,1.1-0.5,1.9-0.5c0.8,0,1.6,0.2,2.3,0.5l-0.5,1.3c-0.3-0.1-0.6-0.3-0.9-0.3C59.3,91.1,59,91,58.7,91
			c-0.5,0-0.8,0.1-0.8,0.4c0,0.2,0.1,0.3,0.3,0.4c0.2,0.1,0.5,0.3,1.1,0.5c0.5,0.2,0.9,0.4,1.1,0.6c0.2,0.2,0.4,0.4,0.5,0.6
			C61,93.8,61.1,94.1,61.1,94.4z"></path>
		<path class="st1" d="M67.4,96.4h-1.8v-9.1h1.8V96.4z"></path>
		<path class="st1" d="M72.3,96.5c-1.1,0-1.9-0.3-2.5-0.9s-0.9-1.4-0.9-2.5c0-1.1,0.3-1.9,0.8-2.5c0.5-0.6,1.3-0.9,2.3-0.9
			c0.9,0,1.6,0.3,2.2,0.8c0.5,0.5,0.8,1.3,0.8,2.2v0.9h-4.2c0,0.5,0.2,0.9,0.5,1.2c0.3,0.3,0.7,0.4,1.2,0.4c0.4,0,0.8,0,1.1-0.1
			c0.4-0.1,0.7-0.2,1.1-0.4V96c-0.3,0.2-0.6,0.3-1,0.3C73.2,96.5,72.8,96.5,72.3,96.5z M72,91c-0.4,0-0.7,0.1-0.9,0.4
			c-0.2,0.2-0.3,0.6-0.4,1h2.5c0-0.4-0.1-0.8-0.3-1C72.7,91.1,72.4,91,72,91z"></path>
		<path class="st1" d="M85.4,96.4h-1.8v-3.8c0-0.5-0.1-0.8-0.2-1.1c-0.2-0.2-0.4-0.4-0.7-0.4c-0.5,0-0.8,0.2-1,0.5
			c-0.2,0.3-0.3,0.9-0.3,1.7v3.1h-1.8v-6.6h1.4l0.2,0.8h0.1c0.2-0.3,0.4-0.5,0.8-0.7c0.3-0.2,0.7-0.3,1.1-0.3c1,0,1.6,0.3,2,1h0.2
			c0.2-0.3,0.4-0.5,0.8-0.7c0.3-0.2,0.7-0.3,1.2-0.3c0.7,0,1.3,0.2,1.7,0.6c0.4,0.4,0.6,1,0.6,1.8v4.3h-1.8v-3.8
			c0-0.5-0.1-0.8-0.2-1.1c-0.2-0.2-0.4-0.4-0.7-0.4c-0.4,0-0.8,0.2-1,0.5c-0.2,0.3-0.3,0.8-0.3,1.5V96.4z"></path>
		<path class="st1" d="M97.3,93.1c0,1.1-0.3,1.9-0.8,2.5s-1.3,0.9-2.4,0.9c-0.6,0-1.2-0.1-1.7-0.4c-0.5-0.3-0.9-0.7-1.1-1.2
			s-0.4-1.1-0.4-1.8c0-1.1,0.3-1.9,0.8-2.5c0.6-0.6,1.3-0.9,2.4-0.9c0.6,0,1.2,0.1,1.7,0.4c0.5,0.3,0.9,0.7,1.1,1.2
			S97.3,92.4,97.3,93.1z M92.7,93.1c0,0.6,0.1,1.1,0.3,1.5c0.2,0.3,0.6,0.5,1,0.5c0.5,0,0.8-0.2,1-0.5c0.2-0.3,0.3-0.8,0.3-1.5
			c0-0.6-0.1-1.1-0.3-1.5c-0.2-0.3-0.6-0.5-1-0.5c-0.5,0-0.8,0.2-1,0.5C92.8,91.9,92.7,92.4,92.7,93.1z"></path>
		<path class="st1" d="M104.8,96.4H103v-3.8c0-0.5-0.1-0.8-0.3-1.1c-0.2-0.2-0.4-0.4-0.8-0.4c-0.5,0-0.9,0.2-1.1,0.5
			c-0.2,0.3-0.3,0.9-0.3,1.7v3.1h-1.8v-6.6h1.4l0.2,0.8h0.1c0.2-0.3,0.5-0.6,0.8-0.7c0.4-0.2,0.7-0.2,1.2-0.2c0.8,0,1.3,0.2,1.7,0.6
			c0.4,0.4,0.6,1,0.6,1.8V96.4z"></path>
		<path class="st1" d="M108.7,96.5c-0.8,0-1.4-0.3-1.8-0.9c-0.4-0.6-0.7-1.4-0.7-2.5c0-1.1,0.2-1.9,0.7-2.5c0.4-0.6,1.1-0.9,1.9-0.9
			c0.8,0,1.5,0.3,1.9,1h0.1c-0.1-0.5-0.1-0.9-0.1-1.3v-2.1h1.8v9.1H111l-0.3-0.9h-0.1C110.2,96.2,109.6,96.5,108.7,96.5z
			 M109.4,95.1c0.5,0,0.8-0.1,1-0.4c0.2-0.3,0.3-0.7,0.3-1.4v-0.2c0-0.7-0.1-1.2-0.3-1.5c-0.2-0.3-0.6-0.5-1.1-0.5
			c-0.4,0-0.7,0.2-0.9,0.5c-0.2,0.3-0.3,0.8-0.3,1.5s0.1,1.1,0.3,1.5C108.6,94.9,108.9,95.1,109.4,95.1z"></path>
		<path class="st1" d="M117.2,96.5c-1.1,0-1.9-0.3-2.5-0.9c-0.6-0.6-0.9-1.4-0.9-2.5c0-1.1,0.3-1.9,0.8-2.5c0.5-0.6,1.3-0.9,2.3-0.9
			c0.9,0,1.6,0.3,2.2,0.8c0.5,0.5,0.8,1.3,0.8,2.2v0.9h-4.2c0,0.5,0.2,0.9,0.5,1.2c0.3,0.3,0.7,0.4,1.2,0.4c0.4,0,0.8,0,1.1-0.1
			c0.4-0.1,0.7-0.2,1.1-0.4V96c-0.3,0.2-0.6,0.3-1,0.3C118.2,96.5,117.7,96.5,117.2,96.5z M117,91c-0.4,0-0.7,0.1-0.9,0.4
			c-0.2,0.2-0.3,0.6-0.4,1h2.5c0-0.4-0.1-0.8-0.3-1C117.7,91.1,117.4,91,117,91z"></path>
	</g>
	<g id="parcours-G-icone">
		<path class="st1" d="M12.9,71.6c-2.7,0-5.3,0.8-7.4,2.4c-2.1,1.5-3.8,3.6-4.7,6.1c-0.9,2.5-1,5.3-0.3,7.9c0.7,2.5,2.2,4.8,4.2,6.4
			c2,1.7,4.6,2.7,7.2,2.9c2.7,0.2,5.4-0.4,7.7-1.8c2.2-1.3,4-3.4,5.1-5.7c1.1-2.5,1.4-5.2,0.9-7.9c-0.5-2.6-1.8-4.9-3.7-6.7
			c-1.9-1.8-4.3-3-6.9-3.4C14.2,71.7,13.6,71.6,12.9,71.6z M20.8,93.2c-2.5,2.3-5.9,3.4-9.2,3c-3.1-0.3-6-1.9-8-4.4
			c-1.9-2.3-2.8-5.4-2.5-8.4c0.3-3.5,2.2-6.6,5-8.6c2.8-2,6.5-2.6,9.8-1.7c0.4,0.1,0.8,0.2,1.2,0.4l0,0c3.3,1.3,5.9,4,6.9,7.4
			c0.3,1,0.5,2,0.5,3.1v0C24.8,87.5,23.4,90.9,20.8,93.2C20.7,93.3,23.2,91.1,20.8,93.2z"></path>
		<path class="st1" d="M7.4,74.7c0,0.5-0.1,1.1-0.3,1.5c0.8,0.5,2,1.2,2,1.2s0,1-0.3,1.6c0.3,0.3,0.6,0.7,0.6,0.7s4.3-2.7,2.5-6.4
			C10.3,73.4,8.8,73.9,7.4,74.7C7.4,75.2,8.8,73.9,7.4,74.7z"></path>
		<path class="st1" d="M20.9,82.3c0,0,1.4,1.7,1.6,2.4c0.5,0.1,1.2-0.1,1.7-0.3c0-0.5,0-1-0.1-1.6c-0.1,0-0.7,0.3-0.8,0.3
			c-0.2-0.4-0.7-1.2-0.5-1.5c0.4,0.1,0.8,0.2,1.2,0.4c-0.8-3.7-3.5-6.7-7-8c-0.5,0.8-1,2.1-1,2.8c0.2,0,0.6,0.1,0.6,0.1
			s0.8-1.1,1-1.2c0.6,0.2,0.7,0.5,0.7,0.5s-1.1,1.5-2,2c-0.7,0.2-1.3,0.2-1.3,0.2s0.8,0.6,0.9,1c-0.5,0.2-1.3,0.3-1.3,0.3l0.3,1.3
			c0,0,1.4,0,1.7-0.3c-0.1-0.5-0.4-1-0.4-1l1.1-0.5c0,0,0.9,1,1,1.1c0.7,0.2,2.1,0.3,2.1,0.3v0.6c0,0-1,0.8-1.4,1
			c-0.6-0.2-1.2-0.6-1.2-0.7c-0.5,0-2.5,0.1-2.7,0.2c-0.3,0.5-1.4,2.7-1.4,3.1c0.6,0.9,1.9,1.6,1.9,1.6L18,86c0,0,0.5,3,0,4.9
			c0.5,1.2,1,2.2,1.3,2.9c0.8-0.6,1.6-1.3,2.2-2l0-0.2l0.1-0.1c0.2-0.2,0.3-0.5,0.5-0.7c0.4-1.1,1.3-3.6,1.5-5.4
			c-0.6-0.1-1.7-0.2-1.7-0.2s-1.7-1.7-1.6-2.7C20.8,82.4,20.9,82.3,20.9,82.3z"></path>
		<path class="st1" d="M10.6,87.1c-0.2,0-1.6-1-2.8-1.6c-0.3,0.1-1.3,0.7-1.3,0.7l-1.1-0.4c0,0,0.2-0.5,0.5-0.9
			c-0.4,0-1.1-0.1-1.3-0.6c-0.1-0.4,0.1-0.8,0.3-1c0.2-0.3,0.6-0.6,1-0.6c0.4,0,0.7,0.4,0.8,0.7l0.3-0.4c0,0-0.1-0.2-0.4-0.6
			c0.6-1.8,1.5-3.2,1.5-3.2S7,78.5,6.2,78c0,0.2-0.7,1.4-0.7,1.4s-0.7-0.4-1.3-1c0.3-0.8,1.3-2,1.3-2l-0.1-0.1
			c-2.1,2-3.5,4.7-3.7,7.8c1.3,1.9,4.2,2.5,4.6,2.5C6.2,87,5.7,87.9,5,89c0.1,0.6,1.2,1.8,2.6,3c0,0.5-0.3,1.4-0.6,2.1
			c0.8,0.5,1.7,0.9,2.6,1.2c3.8-5.2,2.5-8,2.5-8S11.3,87.2,10.6,87.1C10.3,87,11.3,87.2,10.6,87.1z"></path>
	</g>
</g>
<g id="parcours-F">
	<path id="parcours-F-trace_1_" class="st4" d="M260.5,47.6L261,119c0,2.1-73.3,73.5-74.8,74.9l-140.9,142"></path>
	<circle id="parcours-F-station-2-3_1_" class="st5" cx="45.3" cy="335.9" r="9.3"></circle>
	<circle id="parcours-F-station-2-2_1_" class="st5" cx="116.7" cy="263.9" r="9.3"></circle>
	<circle id="parcours-F-station-0-3_1_" class="st2" cx="189.3" cy="191.9" r="9.3"></circle>
	<circle id="parcours-F-station-2-1_1_" class="st5" cx="261" cy="119.9" r="9.3"></circle>
	<circle id="parcours-F-station-0-0" class="st2" cx="261.3" cy="47.9" r="9.3"></circle>
	<rect id="parcours-F-masque" x="207.4" y="2" class="st3" width="144" height="27"></rect>
	<g id="parcours-F-texte">
		<path class="st6" d="M233.7,26.9v-8.6h1.8v7.1h3.5v1.5H233.7z"></path>
		<path class="st6" d="M244.5,26.9l-0.3-0.9h0c-0.3,0.4-0.6,0.6-0.9,0.8c-0.3,0.1-0.7,0.2-1.2,0.2c-0.6,0-1.1-0.2-1.5-0.5
			c-0.4-0.4-0.5-0.9-0.5-1.5c0-0.7,0.2-1.2,0.7-1.5c0.5-0.3,1.2-0.5,2.2-0.5l1.1,0v-0.3c0-0.7-0.3-1-1-1c-0.5,0-1.1,0.2-1.8,0.5
			l-0.6-1.2c0.8-0.4,1.6-0.6,2.5-0.6c0.9,0,1.6,0.2,2,0.6c0.5,0.4,0.7,1,0.7,1.7v4.4H244.5z M244,23.9l-0.7,0
			c-0.5,0-0.9,0.1-1.2,0.3c-0.3,0.2-0.4,0.4-0.4,0.8c0,0.5,0.3,0.8,0.9,0.8c0.4,0,0.7-0.1,1-0.4c0.2-0.2,0.4-0.6,0.4-1V23.9z"></path>
		<path class="st6" d="M253.6,26.9h-1.8v-3.8c0-0.5-0.1-0.8-0.3-1.1c-0.2-0.2-0.4-0.4-0.8-0.4c-0.5,0-0.9,0.2-1.1,0.5
			c-0.2,0.3-0.3,0.9-0.3,1.7v3.1h-1.8v-6.6h1.4l0.2,0.8h0.1c0.2-0.3,0.5-0.6,0.8-0.7c0.4-0.2,0.7-0.2,1.2-0.2c0.8,0,1.3,0.2,1.7,0.6
			c0.4,0.4,0.6,1,0.6,1.8V26.9z"></path>
		<path class="st6" d="M261.2,20.3v0.9l-1,0.3c0.2,0.3,0.3,0.6,0.3,1c0,0.7-0.2,1.3-0.7,1.6c-0.5,0.4-1.2,0.6-2,0.6l-0.3,0l-0.3,0
			c-0.2,0.1-0.3,0.3-0.3,0.5c0,0.3,0.3,0.4,1,0.4h1.1c0.7,0,1.3,0.2,1.6,0.5c0.4,0.3,0.6,0.8,0.6,1.4c0,0.8-0.3,1.4-1,1.8
			c-0.6,0.4-1.6,0.6-2.8,0.6c-0.9,0-1.6-0.2-2.1-0.5c-0.5-0.3-0.7-0.8-0.7-1.3c0-0.4,0.1-0.7,0.4-1c0.2-0.3,0.6-0.5,1.1-0.6
			c-0.2-0.1-0.3-0.2-0.5-0.4c-0.1-0.2-0.2-0.4-0.2-0.6c0-0.3,0.1-0.5,0.2-0.6c0.1-0.2,0.4-0.3,0.6-0.5c-0.3-0.1-0.6-0.4-0.8-0.7
			c-0.2-0.3-0.3-0.7-0.3-1.2c0-0.7,0.2-1.3,0.7-1.7c0.5-0.4,1.1-0.6,2-0.6c0.2,0,0.4,0,0.7,0c0.3,0,0.4,0.1,0.5,0.1H261.2z
			 M256.1,27.8c0,0.2,0.1,0.4,0.4,0.6c0.2,0.1,0.6,0.2,1,0.2c0.6,0,1.1-0.1,1.5-0.3c0.4-0.2,0.5-0.4,0.5-0.7c0-0.2-0.1-0.4-0.3-0.5
			c-0.2-0.1-0.5-0.1-1-0.1h-0.9c-0.3,0-0.6,0.1-0.8,0.2C256.2,27.4,256.1,27.6,256.1,27.8z M256.8,22.5c0,0.4,0.1,0.6,0.2,0.8
			c0.2,0.2,0.4,0.3,0.7,0.3c0.3,0,0.6-0.1,0.7-0.3c0.2-0.2,0.2-0.5,0.2-0.8c0-0.8-0.3-1.2-1-1.2C257.1,21.3,256.8,21.7,256.8,22.5z"
			></path>
		<path class="st6" d="M266.9,26.9l-0.2-0.8h-0.1c-0.2,0.3-0.5,0.5-0.8,0.7c-0.4,0.2-0.8,0.2-1.2,0.2c-0.8,0-1.4-0.2-1.7-0.6
			c-0.4-0.4-0.6-1-0.6-1.8v-4.3h1.8v3.8c0,0.5,0.1,0.8,0.3,1.1c0.2,0.2,0.4,0.4,0.8,0.4c0.5,0,0.9-0.2,1.1-0.5
			c0.2-0.3,0.3-0.9,0.3-1.7v-3.1h1.8v6.6H266.9z"></path>
		<path class="st6" d="M273.1,27c-1.1,0-1.9-0.3-2.5-0.9c-0.6-0.6-0.9-1.4-0.9-2.5c0-1.1,0.3-1.9,0.8-2.5c0.5-0.6,1.3-0.9,2.3-0.9
			c0.9,0,1.6,0.3,2.2,0.8s0.8,1.3,0.8,2.2v0.9h-4.2c0,0.5,0.2,0.9,0.5,1.2c0.3,0.3,0.7,0.4,1.2,0.4c0.4,0,0.8,0,1.1-0.1
			c0.4-0.1,0.7-0.2,1.1-0.4v1.4c-0.3,0.2-0.6,0.3-1,0.3C274.1,27,273.6,27,273.1,27z M272.9,21.5c-0.4,0-0.7,0.1-0.9,0.4
			c-0.2,0.2-0.3,0.6-0.4,1h2.5c0-0.4-0.1-0.8-0.3-1C273.6,21.6,273.3,21.5,272.9,21.5z"></path>
		<path class="st6" d="M281.8,25c0,0.7-0.2,1.2-0.7,1.5c-0.5,0.4-1.2,0.5-2.1,0.5c-0.5,0-0.9,0-1.2-0.1c-0.3-0.1-0.7-0.2-0.9-0.3
			v-1.5c0.3,0.2,0.7,0.3,1.1,0.4c0.4,0.1,0.8,0.2,1.1,0.2c0.6,0,1-0.2,1-0.6c0-0.1,0-0.3-0.1-0.3c-0.1-0.1-0.2-0.2-0.4-0.3
			c-0.2-0.1-0.5-0.2-0.8-0.4c-0.5-0.2-0.9-0.4-1.1-0.6c-0.2-0.2-0.4-0.4-0.5-0.6c-0.1-0.2-0.2-0.5-0.2-0.9c0-0.6,0.2-1,0.7-1.4
			c0.5-0.3,1.1-0.5,1.9-0.5c0.8,0,1.6,0.2,2.3,0.5l-0.5,1.3c-0.3-0.1-0.6-0.3-0.9-0.3s-0.6-0.1-0.9-0.1c-0.5,0-0.8,0.1-0.8,0.4
			c0,0.2,0.1,0.3,0.3,0.4c0.2,0.1,0.5,0.3,1.1,0.5c0.5,0.2,0.9,0.4,1.1,0.6s0.4,0.4,0.5,0.6C281.8,24.4,281.8,24.6,281.8,25z"></path>
		<path class="st6" d="M289.3,27c-1.1,0-1.9-0.3-2.5-0.9c-0.6-0.6-0.9-1.4-0.9-2.5c0-1.1,0.3-1.9,0.8-2.5c0.5-0.6,1.3-0.9,2.3-0.9
			c0.9,0,1.6,0.3,2.2,0.8s0.8,1.3,0.8,2.2v0.9h-4.2c0,0.5,0.2,0.9,0.5,1.2c0.3,0.3,0.7,0.4,1.2,0.4c0.4,0,0.8,0,1.1-0.1
			c0.4-0.1,0.7-0.2,1.1-0.4v1.4c-0.3,0.2-0.6,0.3-1,0.3C290.3,27,289.8,27,289.3,27z M289.1,21.5c-0.4,0-0.7,0.1-0.9,0.4
			c-0.2,0.2-0.3,0.6-0.4,1h2.5c0-0.4-0.1-0.8-0.3-1C289.8,21.6,289.5,21.5,289.1,21.5z"></path>
		<path class="st6" d="M296.2,25.6c0.3,0,0.7-0.1,1.1-0.2v1.3c-0.4,0.2-1,0.3-1.6,0.3c-0.7,0-1.2-0.2-1.6-0.5
			c-0.3-0.4-0.5-0.9-0.5-1.6v-3.2h-0.9v-0.8l1-0.6l0.5-1.4h1.1v1.4h1.8v1.3h-1.8v3.2c0,0.3,0.1,0.4,0.2,0.6
			C295.8,25.5,296,25.6,296.2,25.6z"></path>
		<path class="st6" d="M306.4,25c0,0.7-0.2,1.2-0.7,1.5c-0.5,0.4-1.2,0.5-2.1,0.5c-0.5,0-0.9,0-1.2-0.1c-0.3-0.1-0.7-0.2-0.9-0.3
			v-1.5c0.3,0.2,0.7,0.3,1.1,0.4c0.4,0.1,0.8,0.2,1.1,0.2c0.6,0,1-0.2,1-0.6c0-0.1,0-0.3-0.1-0.3c-0.1-0.1-0.2-0.2-0.4-0.3
			c-0.2-0.1-0.5-0.2-0.8-0.4c-0.5-0.2-0.9-0.4-1.1-0.6c-0.2-0.2-0.4-0.4-0.5-0.6c-0.1-0.2-0.2-0.5-0.2-0.9c0-0.6,0.2-1,0.7-1.4
			c0.5-0.3,1.1-0.5,1.9-0.5c0.8,0,1.6,0.2,2.3,0.5l-0.5,1.3c-0.3-0.1-0.6-0.3-0.9-0.3s-0.6-0.1-0.9-0.1c-0.5,0-0.8,0.1-0.8,0.4
			c0,0.2,0.1,0.3,0.3,0.4c0.2,0.1,0.5,0.3,1.1,0.5c0.5,0.2,0.9,0.4,1.1,0.6s0.4,0.4,0.5,0.6C306.3,24.4,306.4,24.6,306.4,25z"></path>
		<path class="st6" d="M313.7,23.6c0,1.1-0.3,1.9-0.8,2.5c-0.6,0.6-1.3,0.9-2.4,0.9c-0.6,0-1.2-0.1-1.7-0.4
			c-0.5-0.3-0.9-0.7-1.1-1.2c-0.3-0.5-0.4-1.1-0.4-1.8c0-1.1,0.3-1.9,0.8-2.5c0.6-0.6,1.3-0.9,2.4-0.9c0.6,0,1.2,0.1,1.7,0.4
			s0.9,0.7,1.1,1.2C313.6,22.3,313.7,22.9,313.7,23.6z M309.2,23.6c0,0.6,0.1,1.1,0.3,1.5c0.2,0.3,0.6,0.5,1,0.5
			c0.5,0,0.8-0.2,1-0.5c0.2-0.3,0.3-0.8,0.3-1.5c0-0.6-0.1-1.1-0.3-1.5s-0.6-0.5-1-0.5c-0.5,0-0.8,0.2-1,0.5
			C309.3,22.5,309.2,23,309.2,23.6z"></path>
		<path class="st6" d="M317.9,27c-2,0-3.1-1.1-3.1-3.4c0-1.1,0.3-2,0.8-2.6c0.6-0.6,1.4-0.9,2.4-0.9c0.8,0,1.4,0.1,2,0.4l-0.5,1.4
			c-0.3-0.1-0.5-0.2-0.8-0.3c-0.2-0.1-0.5-0.1-0.7-0.1c-0.9,0-1.4,0.7-1.4,2c0,1.3,0.5,1.9,1.4,1.9c0.3,0,0.7,0,1-0.1
			c0.3-0.1,0.6-0.2,0.9-0.4v1.5c-0.3,0.2-0.6,0.3-0.9,0.4C318.7,27,318.3,27,317.9,27z"></path>
		<path class="st6" d="M321.3,18.7c0-0.6,0.3-0.9,1-0.9s1,0.3,1,0.9c0,0.3-0.1,0.5-0.2,0.6c-0.2,0.2-0.4,0.2-0.7,0.2
			C321.6,19.5,321.3,19.2,321.3,18.7z M323.2,26.9h-1.8v-6.6h1.8V26.9z"></path>
		<path class="st6" d="M328,27c-1.1,0-1.9-0.3-2.5-0.9c-0.6-0.6-0.9-1.4-0.9-2.5c0-1.1,0.3-1.9,0.8-2.5c0.5-0.6,1.3-0.9,2.3-0.9
			c0.9,0,1.6,0.3,2.2,0.8s0.8,1.3,0.8,2.2v0.9h-4.2c0,0.5,0.2,0.9,0.5,1.2c0.3,0.3,0.7,0.4,1.2,0.4c0.4,0,0.8,0,1.1-0.1
			c0.4-0.1,0.7-0.2,1.1-0.4v1.4c-0.3,0.2-0.6,0.3-1,0.3C329,27,328.5,27,328,27z M327.8,21.5c-0.4,0-0.7,0.1-0.9,0.4
			c-0.2,0.2-0.3,0.6-0.4,1h2.5c0-0.4-0.1-0.8-0.3-1C328.5,21.6,328.2,21.5,327.8,21.5z M326.7,19.6v-0.2c0.7-0.8,1.1-1.4,1.4-1.8h2
			v0.1c-0.2,0.2-0.6,0.5-1,0.9c-0.5,0.4-0.9,0.7-1.2,0.9H326.7z"></path>
		<path class="st6" d="M334.9,25.6c0.3,0,0.7-0.1,1.1-0.2v1.3c-0.4,0.2-1,0.3-1.6,0.3c-0.7,0-1.2-0.2-1.6-0.5
			c-0.3-0.4-0.5-0.9-0.5-1.6v-3.2h-0.9v-0.8l1-0.6L333,19h1.1v1.4h1.8v1.3h-1.8v3.2c0,0.3,0.1,0.4,0.2,0.6
			C334.5,25.5,334.7,25.6,334.9,25.6z"></path>
		<path class="st6" d="M340.4,27c-1.1,0-1.9-0.3-2.5-0.9c-0.6-0.6-0.9-1.4-0.9-2.5c0-1.1,0.3-1.9,0.8-2.5c0.5-0.6,1.3-0.9,2.3-0.9
			c0.9,0,1.6,0.3,2.2,0.8s0.8,1.3,0.8,2.2v0.9h-4.2c0,0.5,0.2,0.9,0.5,1.2c0.3,0.3,0.7,0.4,1.2,0.4c0.4,0,0.8,0,1.1-0.1
			c0.4-0.1,0.7-0.2,1.1-0.4v1.4c-0.3,0.2-0.6,0.3-1,0.3C341.3,27,340.9,27,340.4,27z M340.1,21.5c-0.4,0-0.7,0.1-0.9,0.4
			c-0.2,0.2-0.3,0.6-0.4,1h2.5c0-0.4-0.1-0.8-0.3-1C340.8,21.6,340.5,21.5,340.1,21.5z M339.1,19.6v-0.2c0.7-0.8,1.1-1.4,1.4-1.8h2
			v0.1c-0.2,0.2-0.6,0.5-1,0.9c-0.5,0.4-0.9,0.7-1.2,0.9H339.1z"></path>
		<path class="st6" d="M349.1,25c0,0.7-0.2,1.2-0.7,1.5c-0.5,0.4-1.2,0.5-2.1,0.5c-0.5,0-0.9,0-1.2-0.1c-0.3-0.1-0.7-0.2-0.9-0.3
			v-1.5c0.3,0.2,0.7,0.3,1.1,0.4c0.4,0.1,0.8,0.2,1.1,0.2c0.6,0,1-0.2,1-0.6c0-0.1,0-0.3-0.1-0.3c-0.1-0.1-0.2-0.2-0.4-0.3
			c-0.2-0.1-0.5-0.2-0.8-0.4c-0.5-0.2-0.9-0.4-1.1-0.6c-0.2-0.2-0.4-0.4-0.5-0.6c-0.1-0.2-0.2-0.5-0.2-0.9c0-0.6,0.2-1,0.7-1.4
			c0.5-0.3,1.1-0.5,1.9-0.5c0.8,0,1.6,0.2,2.3,0.5l-0.5,1.3c-0.3-0.1-0.6-0.3-0.9-0.3s-0.6-0.1-0.9-0.1c-0.5,0-0.8,0.1-0.8,0.4
			c0,0.2,0.1,0.3,0.3,0.4c0.2,0.1,0.5,0.3,1.1,0.5c0.5,0.2,0.9,0.4,1.1,0.6c0.2,0.2,0.4,0.4,0.5,0.6C349,24.4,349.1,24.6,349.1,25z"
			></path>
	</g>
	<g id="parcours-F-icone">
		<g>
			<g>
				<circle class="st6" cx="217.1" cy="17.4" r="2.5"></circle>
			</g>
			<g>
				<path class="st6" d="M220.7,27.8c0-0.1,0-0.2,0-0.2v-4c0-1.5-1.2-2.8-2.8-2.8h-1.7c-1.5,0-2.8,1.2-2.8,2.8v4c0,0.1,0,0.2,0,0.2
					H220.7z"></path>
				<path class="st6" d="M217.9,20.7c1.5,0,2.8,1.2,2.8,2.8v4c0,0.1,0,0.2,0,0.2h-7.2c0-0.1,0-0.2,0-0.2v-4c0-1.5,1.2-2.8,2.8-2.8
					H217.9"></path>
			</g>
		</g>
		<g>
			<g>
				<circle class="st6" cx="224.5" cy="16.2" r="1.9"></circle>
			</g>
			<g>
				<path class="st6" d="M227.2,23.9c0-0.1,0-0.1,0-0.2v-3c0-1.1-0.9-2.1-2.1-2.1h-1.2c-1.1,0-2.1,0.9-2.1,2.1v3c0,0.1,0,0.1,0,0.2
					H227.2z"></path>
				<path class="st6" d="M225.1,18.6c1.1,0,2.1,0.9,2.1,2.1v3c0,0.1,0,0.1,0,0.2h-5.3c0-0.1,0-0.1,0-0.2v-3c0-1.1,0.9-2.1,2.1-2.1
					H225.1"></path>
			</g>
		</g>
		<g>
			<g>
				<circle class="st6" cx="209.7" cy="16.2" r="1.9"></circle>
			</g>
			<g>
				<path class="st6" d="M212.4,23.9c0-0.1,0-0.1,0-0.2v-3c0-1.1-0.9-2.1-2.1-2.1h-1.2c-1.1,0-2.1,0.9-2.1,2.1v3c0,0.1,0,0.1,0,0.2
					H212.4z"></path>
			</g>
		</g>
		<path class="st6" d="M226.2,7c0-1.8-1.3-3.3-2.8-4.1c-1.9-1-4.2-1.1-6.2-0.5c-0.9,0.3-1.8,0.8-2.6,1.4c-0.3,0.3-0.6,0.6-0.9,1
			c-0.1,0.2-0.2,0.3-0.3,0.5c-0.1,0.1-0.1,0.2-0.2,0.2c-0.1,0-0.3,0-0.5,0c-1.8,0.2-3.8,1.3-4.3,3.2c-0.6,2.3,1.3,4.1,3.3,4.7
			c-0.1,0.4-0.6,0.5-0.4,1c0.2,0.5,0.7,0.5,1.1,0.3c0.4-0.2,0.8-0.5,1-0.8c0.1-0.1,0.1-0.2,0.2-0.3c0.1-0.1,0.2-0.1,0.3-0.1
			c0.2,0,0.5-0.1,0.7-0.1c0.9-0.2,1.7-0.5,2.4-1.1c0.2-0.1,0.3-0.3,0.5-0.4c0,0,0.1-0.2,0.2-0.2c0.1,0,0.3,0.1,0.4,0.1
			c0.3,0,0.5,0.1,0.8,0.1c0.2,0,0.6,0,0.8,0c0.1,0,0.1,0.1,0.2,0.2c0,0.1,0.1,0.2,0.2,0.3c0.1,0.2,0.2,0.4,0.4,0.5
			c0.3,0.4,0.8,0.6,1.2,0.8c-0.3-0.2-0.5-0.6-0.6-1c-0.1-0.2-0.1-0.4-0.1-0.7c0-0.1,0-0.1,0-0.2c0-0.1,0-0.1,0.1-0.1
			c0.1,0,0.2,0,0.3-0.1c0.9-0.2,1.7-0.5,2.4-1C225.2,10,226.2,8.6,226.2,7z M213.5,13c-0.2,0-0.1,0-0.2,0.1c0,0.1-0.1,0.2-0.1,0.2
			c-0.1,0.1-0.2,0.3-0.3,0.4c-0.2,0.3-0.5,0.5-0.9,0.6c0.4-0.2,0.5-0.7,0.5-1.1c0-0.1,0-0.2,0-0.3c-0.1,0-0.2,0-0.3-0.1
			c-0.2-0.1-0.4-0.1-0.7-0.2c-0.7-0.3-1.4-0.7-1.9-1.3c-0.9-1.2-0.7-2.7,0.3-3.8c1.2-1.2,3.2-1.6,4.9-1.2c1.7,0.4,3.5,1.8,3.1,3.8
			C217.5,12.1,215.3,13,213.5,13z"></path>
	</g>
</g>
<g id="parcours-E">
	<polyline id="parcours-E--trace" class="st7" points="179.1,406.4 260.4,406.1 404.7,406.7 	"></polyline>
	<circle id="parcours-E-station-1-1" class="st2" cx="189.3" cy="406.4" r="9.3"></circle>
	<circle id="parcours-E-station-2-5" class="st2" cx="261" cy="407" r="9.3"></circle>
	<circle id="parcours-E-station-2-7" class="st8" cx="332.1" cy="406.7" r="9.3"></circle>
	<circle id="parcours-E-station-2-6" class="st8" cx="404.7" cy="406.7" r="9.3"></circle>
	<rect id="parcours-E-masque" x="423" y="389" class="st3" width="101.8" height="28.4"></rect>
	<g id="parcours-E-texte">
		<g>
			<path class="st8" d="M454.8,403.6V395h1.8v7.1h3.5v1.5H454.8z"></path>
			<path class="st8" d="M464.4,403.7c-1.1,0-1.9-0.3-2.5-0.9c-0.6-0.6-0.9-1.4-0.9-2.5c0-1.1,0.3-1.9,0.8-2.5
				c0.5-0.6,1.3-0.9,2.3-0.9c0.9,0,1.6,0.3,2.2,0.8s0.8,1.3,0.8,2.2v0.9h-4.2c0,0.5,0.2,0.9,0.5,1.2c0.3,0.3,0.7,0.4,1.2,0.4
				c0.4,0,0.8,0,1.1-0.1c0.4-0.1,0.7-0.2,1.1-0.4v1.4c-0.3,0.2-0.6,0.3-1,0.3C465.4,403.7,464.9,403.7,464.4,403.7z M464.2,398.2
				c-0.4,0-0.7,0.1-0.9,0.4c-0.2,0.2-0.3,0.6-0.4,1h2.5c0-0.4-0.1-0.8-0.3-1C464.8,398.3,464.5,398.2,464.2,398.2z"></path>
			<path class="st8" d="M473.1,401.7c0,0.7-0.2,1.2-0.7,1.5c-0.5,0.4-1.2,0.5-2.1,0.5c-0.5,0-0.9,0-1.2-0.1
				c-0.3-0.1-0.7-0.2-0.9-0.3v-1.5c0.3,0.2,0.7,0.3,1.1,0.4c0.4,0.1,0.8,0.2,1.1,0.2c0.6,0,1-0.2,1-0.6c0-0.1,0-0.3-0.1-0.3
				c-0.1-0.1-0.2-0.2-0.4-0.3c-0.2-0.1-0.5-0.2-0.8-0.4c-0.5-0.2-0.9-0.4-1.1-0.6c-0.2-0.2-0.4-0.4-0.5-0.6
				c-0.1-0.2-0.2-0.5-0.2-0.9c0-0.6,0.2-1,0.7-1.4c0.5-0.3,1.1-0.5,1.9-0.5c0.8,0,1.6,0.2,2.3,0.5l-0.5,1.3
				c-0.3-0.1-0.6-0.3-0.9-0.3c-0.3-0.1-0.6-0.1-0.9-0.1c-0.5,0-0.8,0.1-0.8,0.4c0,0.2,0.1,0.3,0.3,0.4c0.2,0.1,0.5,0.3,1.1,0.5
				c0.5,0.2,0.9,0.4,1.1,0.6c0.2,0.2,0.4,0.4,0.5,0.6C473.1,401.1,473.1,401.3,473.1,401.7z"></path>
			<path class="st8" d="M479.4,403.6h-1.8v-9.1h1.8V403.6z"></path>
			<path class="st8" d="M485.5,403.6l-0.3-0.9h0c-0.3,0.4-0.6,0.6-0.9,0.8c-0.3,0.1-0.7,0.2-1.2,0.2c-0.6,0-1.1-0.2-1.5-0.5
				c-0.4-0.4-0.5-0.9-0.5-1.5c0-0.7,0.2-1.2,0.7-1.5c0.5-0.3,1.2-0.5,2.2-0.5l1.1,0v-0.3c0-0.7-0.3-1-1-1c-0.5,0-1.1,0.2-1.8,0.5
				l-0.6-1.2c0.8-0.4,1.6-0.6,2.5-0.6c0.9,0,1.6,0.2,2,0.6c0.5,0.4,0.7,1,0.7,1.7v4.4H485.5z M484.9,400.6l-0.7,0
				c-0.5,0-0.9,0.1-1.2,0.3s-0.4,0.4-0.4,0.8c0,0.5,0.3,0.8,0.9,0.8c0.4,0,0.7-0.1,1-0.4c0.2-0.2,0.4-0.6,0.4-1V400.6z"></path>
			<path class="st8" d="M494.6,403.6h-1.8v-3.8c0-0.5-0.1-0.8-0.3-1.1c-0.2-0.2-0.4-0.4-0.8-0.4c-0.5,0-0.9,0.2-1.1,0.5
				c-0.2,0.3-0.3,0.9-0.3,1.7v3.1h-1.8V397h1.4l0.2,0.8h0.1c0.2-0.3,0.5-0.6,0.8-0.7c0.4-0.2,0.7-0.2,1.2-0.2c0.8,0,1.3,0.2,1.7,0.6
				c0.4,0.4,0.6,1,0.6,1.8V403.6z"></path>
			<path class="st8" d="M502.2,397v0.9l-1,0.3c0.2,0.3,0.3,0.6,0.3,1c0,0.7-0.2,1.3-0.7,1.6c-0.5,0.4-1.2,0.6-2,0.6l-0.3,0l-0.3,0
				c-0.2,0.1-0.3,0.3-0.3,0.5c0,0.3,0.3,0.4,1,0.4h1.1c0.7,0,1.3,0.2,1.6,0.5c0.4,0.3,0.6,0.8,0.6,1.4c0,0.8-0.3,1.4-1,1.8
				c-0.6,0.4-1.6,0.6-2.8,0.6c-0.9,0-1.6-0.2-2.1-0.5c-0.5-0.3-0.7-0.8-0.7-1.3c0-0.4,0.1-0.7,0.4-1s0.6-0.5,1.1-0.6
				c-0.2-0.1-0.3-0.2-0.5-0.4c-0.1-0.2-0.2-0.4-0.2-0.6c0-0.3,0.1-0.5,0.2-0.6c0.1-0.2,0.4-0.3,0.6-0.5c-0.3-0.1-0.6-0.4-0.8-0.7
				c-0.2-0.3-0.3-0.7-0.3-1.2c0-0.7,0.2-1.3,0.7-1.7c0.5-0.4,1.1-0.6,2-0.6c0.2,0,0.4,0,0.7,0c0.3,0,0.4,0.1,0.5,0.1H502.2z
				 M497.1,404.5c0,0.2,0.1,0.4,0.4,0.6c0.2,0.1,0.6,0.2,1,0.2c0.6,0,1.1-0.1,1.5-0.3s0.5-0.4,0.5-0.7c0-0.2-0.1-0.4-0.3-0.5
				s-0.5-0.1-1-0.1h-0.9c-0.3,0-0.6,0.1-0.8,0.2C497.2,404.1,497.1,404.3,497.1,404.5z M497.8,399.2c0,0.4,0.1,0.6,0.2,0.8
				c0.2,0.2,0.4,0.3,0.7,0.3c0.3,0,0.6-0.1,0.7-0.3c0.2-0.2,0.2-0.5,0.2-0.8c0-0.8-0.3-1.2-1-1.2C498.1,398,497.8,398.4,497.8,399.2
				z"></path>
			<path class="st8" d="M507.9,403.6l-0.2-0.8h-0.1c-0.2,0.3-0.5,0.5-0.8,0.7c-0.4,0.2-0.8,0.2-1.2,0.2c-0.8,0-1.4-0.2-1.7-0.6
				c-0.4-0.4-0.6-1-0.6-1.8V397h1.8v3.8c0,0.5,0.1,0.8,0.3,1.1c0.2,0.2,0.4,0.4,0.8,0.4c0.5,0,0.9-0.2,1.1-0.5
				c0.2-0.3,0.3-0.9,0.3-1.7V397h1.8v6.6H507.9z"></path>
			<path class="st8" d="M514.1,403.7c-1.1,0-1.9-0.3-2.5-0.9c-0.6-0.6-0.9-1.4-0.9-2.5c0-1.1,0.3-1.9,0.8-2.5
				c0.5-0.6,1.3-0.9,2.3-0.9c0.9,0,1.6,0.3,2.2,0.8c0.5,0.5,0.8,1.3,0.8,2.2v0.9h-4.2c0,0.5,0.2,0.9,0.5,1.2
				c0.3,0.3,0.7,0.4,1.2,0.4c0.4,0,0.8,0,1.1-0.1c0.4-0.1,0.7-0.2,1.1-0.4v1.4c-0.3,0.2-0.6,0.3-1,0.3
				C515.1,403.7,514.6,403.7,514.1,403.7z M513.9,398.2c-0.4,0-0.7,0.1-0.9,0.4c-0.2,0.2-0.3,0.6-0.4,1h2.5c0-0.4-0.1-0.8-0.3-1
				C514.5,398.3,514.2,398.2,513.9,398.2z"></path>
			<path class="st8" d="M522.8,401.7c0,0.7-0.2,1.2-0.7,1.5c-0.5,0.4-1.2,0.5-2.1,0.5c-0.5,0-0.9,0-1.2-0.1
				c-0.3-0.1-0.7-0.2-0.9-0.3v-1.5c0.3,0.2,0.7,0.3,1.1,0.4c0.4,0.1,0.8,0.2,1.1,0.2c0.6,0,1-0.2,1-0.6c0-0.1,0-0.3-0.1-0.3
				c-0.1-0.1-0.2-0.2-0.4-0.3c-0.2-0.1-0.5-0.2-0.8-0.4c-0.5-0.2-0.9-0.4-1.1-0.6c-0.2-0.2-0.4-0.4-0.5-0.6
				c-0.1-0.2-0.2-0.5-0.2-0.9c0-0.6,0.2-1,0.7-1.4c0.5-0.3,1.1-0.5,1.9-0.5c0.8,0,1.6,0.2,2.3,0.5l-0.5,1.3
				c-0.3-0.1-0.6-0.3-0.9-0.3c-0.3-0.1-0.6-0.1-0.9-0.1c-0.5,0-0.8,0.1-0.8,0.4c0,0.2,0.1,0.3,0.3,0.4c0.2,0.1,0.5,0.3,1.1,0.5
				c0.5,0.2,0.9,0.4,1.1,0.6c0.2,0.2,0.4,0.4,0.5,0.6C522.8,401.1,522.8,401.3,522.8,401.7z"></path>
		</g>
		<g>
			<path class="st8" d="M456.9,417.4c-1.1,0-1.9-0.3-2.5-0.9c-0.6-0.6-0.9-1.4-0.9-2.5c0-1.1,0.3-1.9,0.8-2.5
				c0.5-0.6,1.3-0.9,2.3-0.9c0.9,0,1.6,0.3,2.2,0.8c0.5,0.5,0.8,1.3,0.8,2.2v0.9h-4.2c0,0.5,0.2,0.9,0.5,1.2
				c0.3,0.3,0.7,0.4,1.2,0.4c0.4,0,0.8,0,1.1-0.1s0.7-0.2,1.1-0.4v1.4c-0.3,0.2-0.6,0.3-1,0.3C457.8,417.3,457.4,417.4,456.9,417.4z
				 M456.6,411.8c-0.4,0-0.7,0.1-0.9,0.4c-0.2,0.2-0.3,0.6-0.4,1h2.5c0-0.4-0.1-0.8-0.3-1C457.3,411.9,457,411.8,456.6,411.8z"></path>
			<path class="st8" d="M463.8,415.9c0.3,0,0.7-0.1,1.1-0.2v1.3c-0.4,0.2-1,0.3-1.6,0.3c-0.7,0-1.2-0.2-1.6-0.5
				c-0.3-0.4-0.5-0.9-0.5-1.6V412h-0.9v-0.8l1-0.6l0.5-1.4h1.1v1.4h1.8v1.3H463v3.2c0,0.3,0.1,0.4,0.2,0.6
				C463.3,415.9,463.5,415.9,463.8,415.9z"></path>
			<path class="st8" d="M471.1,417.2h-1.8v-9.1h1.8V417.2z"></path>
			<path class="st8" d="M477.2,417.2l-0.3-0.9h0c-0.3,0.4-0.6,0.6-0.9,0.8c-0.3,0.1-0.7,0.2-1.2,0.2c-0.6,0-1.1-0.2-1.5-0.5
				c-0.4-0.4-0.5-0.9-0.5-1.5c0-0.7,0.2-1.2,0.7-1.5c0.5-0.3,1.2-0.5,2.2-0.5l1.1,0v-0.3c0-0.7-0.3-1-1-1c-0.5,0-1.1,0.2-1.8,0.5
				l-0.6-1.2c0.8-0.4,1.6-0.6,2.5-0.6c0.9,0,1.6,0.2,2,0.6c0.5,0.4,0.7,1,0.7,1.7v4.4H477.2z M476.7,414.2l-0.7,0
				c-0.5,0-0.9,0.1-1.2,0.3s-0.4,0.4-0.4,0.8c0,0.5,0.3,0.8,0.9,0.8c0.4,0,0.7-0.1,1-0.4c0.2-0.2,0.4-0.6,0.4-1V414.2z"></path>
			<path class="st8" d="M489.5,417.2h-1.8v-3.8c0-0.5-0.1-0.8-0.3-1.1c-0.2-0.2-0.4-0.4-0.8-0.4c-0.5,0-0.9,0.2-1.1,0.5
				c-0.2,0.3-0.3,0.9-0.3,1.7v3.1h-1.8v-6.6h1.4l0.2,0.8h0.1c0.2-0.3,0.5-0.6,0.8-0.7c0.4-0.2,0.7-0.2,1.2-0.2
				c0.8,0,1.3,0.2,1.7,0.6c0.4,0.4,0.6,1,0.6,1.8V417.2z"></path>
			<path class="st8" d="M497.3,413.9c0,1.1-0.3,1.9-0.8,2.5c-0.6,0.6-1.3,0.9-2.4,0.9c-0.6,0-1.2-0.1-1.7-0.4
				c-0.5-0.3-0.9-0.7-1.1-1.2c-0.3-0.5-0.4-1.1-0.4-1.8c0-1.1,0.3-1.9,0.8-2.5s1.3-0.9,2.4-0.9c0.6,0,1.2,0.1,1.7,0.4
				c0.5,0.3,0.9,0.7,1.1,1.2C497.1,412.7,497.3,413.3,497.3,413.9z M492.7,413.9c0,0.6,0.1,1.1,0.3,1.5c0.2,0.3,0.6,0.5,1,0.5
				c0.5,0,0.8-0.2,1-0.5c0.2-0.3,0.3-0.8,0.3-1.5c0-0.6-0.1-1.1-0.3-1.5s-0.6-0.5-1-0.5c-0.5,0-0.8,0.2-1,0.5
				C492.8,412.8,492.7,413.3,492.7,413.9z"></path>
			<path class="st8" d="M502.4,410.5c0.2,0,0.4,0,0.6,0.1l-0.1,1.7c-0.1,0-0.3-0.1-0.5-0.1c-0.6,0-1,0.1-1.3,0.4
				c-0.3,0.3-0.5,0.7-0.5,1.2v3.3h-1.8v-6.6h1.4l0.3,1.1h0.1c0.2-0.4,0.5-0.7,0.8-0.9C501.6,410.7,502,410.5,502.4,410.5z"></path>
			<path class="st8" d="M510.1,417.2h-1.8v-3.8c0-0.5-0.1-0.8-0.2-1.1c-0.2-0.2-0.4-0.4-0.7-0.4c-0.5,0-0.8,0.2-1,0.5
				c-0.2,0.3-0.3,0.9-0.3,1.7v3.1h-1.8v-6.6h1.4l0.2,0.8h0.1c0.2-0.3,0.4-0.5,0.8-0.7c0.3-0.2,0.7-0.3,1.1-0.3c1,0,1.6,0.3,2,1h0.2
				c0.2-0.3,0.4-0.5,0.8-0.7c0.3-0.2,0.7-0.3,1.2-0.3c0.7,0,1.3,0.2,1.7,0.6c0.4,0.4,0.6,1,0.6,1.8v4.3h-1.8v-3.8
				c0-0.5-0.1-0.8-0.2-1.1c-0.2-0.2-0.4-0.4-0.7-0.4c-0.4,0-0.8,0.2-1,0.5c-0.2,0.3-0.3,0.8-0.3,1.5V417.2z"></path>
			<path class="st8" d="M519,417.4c-1.1,0-1.9-0.3-2.5-0.9c-0.6-0.6-0.9-1.4-0.9-2.5c0-1.1,0.3-1.9,0.8-2.5c0.5-0.6,1.3-0.9,2.3-0.9
				c0.9,0,1.6,0.3,2.2,0.8c0.5,0.5,0.8,1.3,0.8,2.2v0.9h-4.2c0,0.5,0.2,0.9,0.5,1.2s0.7,0.4,1.2,0.4c0.4,0,0.8,0,1.1-0.1
				c0.4-0.1,0.7-0.2,1.1-0.4v1.4c-0.3,0.2-0.6,0.3-1,0.3C519.9,417.3,519.5,417.4,519,417.4z M518.7,411.8c-0.4,0-0.7,0.1-0.9,0.4
				c-0.2,0.2-0.3,0.6-0.4,1h2.5c0-0.4-0.1-0.8-0.3-1C519.4,411.9,519.1,411.8,518.7,411.8z"></path>
		</g>
	</g>
	<g id="parcours-E-icone">
		<polygon class="st8" points="433.9,410.5 429.7,406.3 431.3,404.7 433.9,407.3 439.8,401.3 441.4,402.9 		"></polygon>
		<path class="st8" d="M435.6,418.8c-7.1,0-12.9-5.8-12.9-12.9c0-7.1,5.8-12.9,12.9-12.9c7.1,0,12.9,5.8,12.9,12.9
			C448.4,413,442.7,418.8,435.6,418.8z M435.6,394.2c-6.5,0-11.8,5.3-11.8,11.8c0,6.5,5.3,11.8,11.8,11.8c6.5,0,11.8-5.3,11.8-11.8
			C447.3,399.4,442,394.2,435.6,394.2z M435.6,414.6c-4.8,0-8.7-3.9-8.7-8.7c0-4.8,3.9-8.7,8.7-8.7c4.8,0,8.7,3.9,8.7,8.7
			C444.2,410.7,440.3,414.6,435.6,414.6z M435.6,398.4c-4.2,0-7.5,3.4-7.5,7.5c0,4.2,3.4,7.5,7.5,7.5c4.2,0,7.5-3.4,7.5-7.5
			C443.1,401.8,439.7,398.4,435.6,398.4z"></path>
		<g>
			<polygon class="st8" points="443.5,399.4 442.8,399.8 442.9,399 442.3,398.4 443.1,398.3 443.5,397.6 443.8,398.3 444.6,398.4 
				444,399 444.2,399.8 			"></polygon>
			<polygon class="st8" points="427.8,399.4 427.1,399.8 427.2,399 426.6,398.4 427.4,398.3 427.8,397.6 428.2,398.3 429,398.4 
				428.4,399 428.5,399.8 			"></polygon>
		</g>
		<g>
			<polygon class="st8" points="443.5,412.9 442.8,413.2 442.9,412.4 442.3,411.9 443.1,411.8 443.5,411 443.8,411.8 444.6,411.9 
				444,412.4 444.2,413.2 			"></polygon>
			<polygon class="st8" points="427.8,412.9 427.1,413.2 427.2,412.4 426.6,411.9 427.4,411.8 427.8,411 428.2,411.8 429,411.9 
				428.4,412.4 428.5,413.2 			"></polygon>
		</g>
		<g>
			<polygon class="st8" points="435.6,416.5 434.9,416.9 435.1,416.1 434.5,415.5 435.3,415.4 435.6,414.7 436,415.4 436.8,415.5 
				436.2,416.1 436.3,416.9 			"></polygon>
			<polygon class="st8" points="435.6,396.1 434.9,396.4 435.1,395.6 434.5,395.1 435.3,395 435.6,394.2 436,395 436.8,395.1 
				436.2,395.6 436.3,396.4 			"></polygon>
		</g>
		<g>
			<polygon class="st8" points="445.7,406.4 445,406.8 445.1,406 444.6,405.4 445.4,405.3 445.7,404.6 446.1,405.3 446.9,405.4 
				446.3,406 446.4,406.8 			"></polygon>
			<polygon class="st8" points="425.3,406.4 424.6,406.8 424.7,406 424.1,405.4 424.9,405.3 425.3,404.6 425.6,405.3 426.4,405.4 
				425.9,406 426,406.8 			"></polygon>
		</g>
	</g>
</g>
<g id="parcours-D">
	<path id="parcours-D-trace_1_" class="st9" d="M260.4,405.6l69-68.5c1.9-1.9,4.6-3,7.3-3h67.7"></path>
	<circle id="parcours-D-station-2-5_1_" class="st2" cx="261" cy="407" r="9.3"></circle>
	<circle id="parcours-D-station-1-4_1_" class="st10" cx="332.1" cy="334.1" r="9.3"></circle>
	<circle id="parcours-D-station-2-4_1_" class="st10" cx="404.7" cy="334.1" r="9.3"></circle>
	<rect id="parcours-D-masque" x="424.9" y="322.7" class="st3" width="88.1" height="27"></rect>
	<g id="parcours-D-texte_2_">
		<path class="st10" d="M452.8,338.1v-8.6h1.8v7.1h3.5v1.5H452.8z"></path>
		<path class="st10" d="M460.9,329.5l0.1,0.1c-0.2,0.8-0.5,1.7-1,2.8h-1.3c0.3-1.2,0.5-2.1,0.6-2.9H460.9z"></path>
		<path class="st10" d="M465,338.2c-1.1,0-1.9-0.3-2.5-0.9s-0.9-1.4-0.9-2.5c0-1.1,0.3-1.9,0.8-2.5c0.5-0.6,1.3-0.9,2.3-0.9
			c0.9,0,1.6,0.3,2.2,0.8c0.5,0.5,0.8,1.3,0.8,2.2v0.9h-4.2c0,0.5,0.2,0.9,0.5,1.2c0.3,0.3,0.7,0.4,1.2,0.4c0.4,0,0.8,0,1.1-0.1
			c0.4-0.1,0.7-0.2,1.1-0.4v1.4c-0.3,0.2-0.6,0.3-1,0.3S465.5,338.2,465,338.2z M464.8,332.6c-0.4,0-0.7,0.1-0.9,0.4
			c-0.2,0.2-0.3,0.6-0.4,1h2.5c0-0.4-0.1-0.8-0.3-1C465.5,332.8,465.2,332.6,464.8,332.6z M463.7,330.8v-0.2
			c0.7-0.8,1.1-1.4,1.4-1.8h2v0.1c-0.2,0.2-0.6,0.5-1,0.9c-0.5,0.4-0.9,0.7-1.2,0.9H463.7z"></path>
		<path class="st10" d="M471.8,338.2c-2,0-3.1-1.1-3.1-3.4c0-1.1,0.3-2,0.8-2.6c0.6-0.6,1.4-0.9,2.4-0.9c0.8,0,1.4,0.1,2,0.4
			l-0.5,1.4c-0.3-0.1-0.5-0.2-0.8-0.3c-0.2-0.1-0.5-0.1-0.7-0.1c-0.9,0-1.4,0.7-1.4,2c0,1.3,0.5,1.9,1.4,1.9c0.3,0,0.7,0,1-0.1
			c0.3-0.1,0.6-0.2,0.9-0.4v1.5c-0.3,0.2-0.6,0.3-0.9,0.4C472.7,338.1,472.3,338.2,471.8,338.2z"></path>
		<path class="st10" d="M479,331.4c0.2,0,0.4,0,0.6,0.1l-0.1,1.7c-0.1,0-0.3-0.1-0.5-0.1c-0.6,0-1,0.1-1.3,0.4
			c-0.3,0.3-0.5,0.7-0.5,1.2v3.3h-1.8v-6.6h1.4l0.3,1.1h0.1c0.2-0.4,0.5-0.7,0.8-0.9C478.2,331.5,478.6,331.4,479,331.4z"></path>
		<path class="st10" d="M480.7,329.8c0-0.6,0.3-0.9,1-0.9s1,0.3,1,0.9c0,0.3-0.1,0.5-0.2,0.6c-0.2,0.2-0.4,0.2-0.7,0.2
			C481.1,330.7,480.7,330.4,480.7,329.8z M482.6,338.1h-1.8v-6.6h1.8V338.1z"></path>
		<path class="st10" d="M487.2,336.7c0.3,0,0.7-0.1,1.1-0.2v1.3c-0.4,0.2-1,0.3-1.6,0.3c-0.7,0-1.2-0.2-1.6-0.5
			c-0.3-0.4-0.5-0.9-0.5-1.6v-3.2h-0.9v-0.8l1-0.6l0.5-1.4h1.1v1.4h1.8v1.3h-1.8v3.2c0,0.3,0.1,0.4,0.2,0.6
			C486.8,336.7,487,336.7,487.2,336.7z"></path>
		<path class="st10" d="M494.3,338.1l-0.2-0.8H494c-0.2,0.3-0.5,0.5-0.8,0.7c-0.4,0.2-0.8,0.2-1.2,0.2c-0.8,0-1.4-0.2-1.7-0.6
			c-0.4-0.4-0.6-1-0.6-1.8v-4.3h1.8v3.8c0,0.5,0.1,0.8,0.3,1.1c0.2,0.2,0.4,0.4,0.8,0.4c0.5,0,0.9-0.2,1.1-0.5
			c0.2-0.3,0.3-0.9,0.3-1.7v-3.1h1.8v6.6H494.3z"></path>
		<path class="st10" d="M501.2,331.4c0.2,0,0.4,0,0.6,0.1l-0.1,1.7c-0.1,0-0.3-0.1-0.5-0.1c-0.6,0-1,0.1-1.3,0.4
			c-0.3,0.3-0.5,0.7-0.5,1.2v3.3h-1.8v-6.6h1.4l0.3,1.1h0.1c0.2-0.4,0.5-0.7,0.8-0.9C500.5,331.5,500.8,331.4,501.2,331.4z"></path>
		<path class="st10" d="M506,338.2c-1.1,0-1.9-0.3-2.5-0.9s-0.9-1.4-0.9-2.5c0-1.1,0.3-1.9,0.8-2.5c0.5-0.6,1.3-0.9,2.3-0.9
			c0.9,0,1.6,0.3,2.2,0.8c0.5,0.5,0.8,1.3,0.8,2.2v0.9h-4.2c0,0.5,0.2,0.9,0.5,1.2c0.3,0.3,0.7,0.4,1.2,0.4c0.4,0,0.8,0,1.1-0.1
			c0.4-0.1,0.7-0.2,1.1-0.4v1.4c-0.3,0.2-0.6,0.3-1,0.3S506.5,338.2,506,338.2z M505.8,332.6c-0.4,0-0.7,0.1-0.9,0.4
			c-0.2,0.2-0.3,0.6-0.4,1h2.5c0-0.4-0.1-0.8-0.3-1C506.4,332.8,506.1,332.6,505.8,332.6z"></path>
	</g>
	<path id="parcours-D-icone_2_" class="st10" d="M426.6,347.6c-1.5,3.6,4.3-18.5,25.3-25.4c-8.1,5.6-8.7,14.7-19.5,16.8
		c2.1,0.1,4.4-0.8,5.3-1.3c-0.6,1.7-5.6,2.8-6.9,2.6C429.2,342.7,427.9,344.6,426.6,347.6z"></path>
</g>
<g id="parcours-C">
	<path class="st11" d="M404.8,47.4C405,95,405,143,405,191c47,47,95,95,141.7,141.7"></path>
	<circle id="parcours-C-station-3-2" class="st12" cx="549" cy="335.3" r="9.3"></circle>
	<circle id="parcours-C-station-3-1" class="st12" cx="476.7" cy="263.3" r="9.3"></circle>
	<circle id="parcours-C-station-0-4" class="st2" cx="404.7" cy="190.7" r="9.3"></circle>
	<circle id="parcours-C-station-3-0" class="st12" cx="404.7" cy="118.7" r="9.3"></circle>
	<circle id="parcours-C-station-3-4" class="st2" cx="404.7" cy="46.7" r="9.3"></circle>
	<rect id="parcours-C-masque" x="387" y="2" class="st3" width="144" height="27"></rect>
	<g id="parcours-C-texte">
		<path class="st13" d="M433.4,11.6l-0.6-2h-3.1l-0.6,2h-2l3-8.6h2.2l3,8.6H433.4z M432.3,8c-0.6-1.9-0.9-2.9-1-3.1
			c-0.1-0.2-0.1-0.4-0.2-0.6c-0.1,0.5-0.5,1.7-1.1,3.7H432.3z"></path>
		<path class="st13" d="M438.9,11.7c-2,0-3.1-1.1-3.1-3.4c0-1.1,0.3-2,0.8-2.6s1.4-0.9,2.4-0.9c0.8,0,1.4,0.1,2,0.4l-0.5,1.4
			c-0.3-0.1-0.5-0.2-0.8-0.3c-0.2-0.1-0.5-0.1-0.7-0.1c-0.9,0-1.4,0.7-1.4,2c0,1.3,0.5,1.9,1.4,1.9c0.3,0,0.7,0,1-0.1
			s0.6-0.2,0.9-0.4v1.5c-0.3,0.2-0.6,0.3-0.9,0.4C439.7,11.7,439.4,11.7,438.9,11.7z"></path>
		<path class="st13" d="M444.5,11.7c-0.8,0-1.4-0.3-1.8-0.9S442,9.4,442,8.3c0-1.1,0.2-1.9,0.7-2.5c0.4-0.6,1.1-0.9,1.8-0.9
			c0.4,0,0.8,0.1,1.1,0.2c0.3,0.2,0.6,0.4,0.8,0.7h0l0.2-0.8h1.5v9.4h-1.8v-2.8c0-0.2,0-0.6,0.1-1h-0.1c-0.2,0.3-0.4,0.6-0.8,0.7
			C445.3,11.6,444.9,11.7,444.5,11.7z M445.2,10.3c0.5,0,0.8-0.1,1-0.4c0.2-0.3,0.3-0.7,0.3-1.4V8.3c0-0.7-0.1-1.2-0.3-1.5
			c-0.2-0.3-0.6-0.5-1-0.5c-0.8,0-1.3,0.7-1.3,2c0,0.7,0.1,1.1,0.3,1.5C444.4,10.2,444.7,10.3,445.2,10.3z"></path>
		<path class="st13" d="M454.7,11.6l-0.2-0.8h-0.1c-0.2,0.3-0.5,0.5-0.8,0.7s-0.8,0.2-1.2,0.2c-0.8,0-1.4-0.2-1.7-0.6
			c-0.4-0.4-0.6-1-0.6-1.8V5h1.8v3.8c0,0.5,0.1,0.8,0.3,1.1s0.4,0.4,0.8,0.4c0.5,0,0.9-0.2,1.1-0.5c0.2-0.3,0.3-0.9,0.3-1.7V5h1.8
			v6.6H454.7z"></path>
		<path class="st13" d="M457.9,3.3c0-0.6,0.3-0.9,1-0.9s1,0.3,1,0.9c0,0.3-0.1,0.5-0.2,0.6c-0.2,0.2-0.4,0.2-0.7,0.2
			C458.2,4.2,457.9,3.9,457.9,3.3z M459.7,11.6h-1.8V5h1.8V11.6z"></path>
		<path class="st13" d="M466.2,9.7c0,0.7-0.2,1.2-0.7,1.5c-0.5,0.4-1.2,0.5-2.1,0.5c-0.5,0-0.9,0-1.2-0.1c-0.3-0.1-0.7-0.2-0.9-0.3
			V9.9c0.3,0.2,0.7,0.3,1.1,0.4c0.4,0.1,0.8,0.2,1.1,0.2c0.6,0,1-0.2,1-0.6c0-0.1,0-0.3-0.1-0.3c-0.1-0.1-0.2-0.2-0.4-0.3
			c-0.2-0.1-0.5-0.2-0.8-0.4c-0.5-0.2-0.9-0.4-1.1-0.6c-0.2-0.2-0.4-0.4-0.5-0.6c-0.1-0.2-0.2-0.5-0.2-0.9c0-0.6,0.2-1,0.7-1.4
			c0.5-0.3,1.1-0.5,1.9-0.5c0.8,0,1.6,0.2,2.3,0.5l-0.5,1.3c-0.3-0.1-0.6-0.3-0.9-0.3c-0.3-0.1-0.6-0.1-0.9-0.1
			c-0.5,0-0.8,0.1-0.8,0.4c0,0.2,0.1,0.3,0.3,0.4c0.2,0.1,0.5,0.3,1.1,0.5c0.5,0.2,0.9,0.4,1.1,0.6c0.2,0.2,0.4,0.4,0.5,0.6
			C466.1,9,466.2,9.3,466.2,9.7z"></path>
		<path class="st13" d="M467.5,3.3c0-0.6,0.3-0.9,1-0.9s1,0.3,1,0.9c0,0.3-0.1,0.5-0.2,0.6c-0.2,0.2-0.4,0.2-0.7,0.2
			C467.8,4.2,467.5,3.9,467.5,3.3z M469.4,11.6h-1.8V5h1.8V11.6z"></path>
		<path class="st13" d="M474,10.3c0.3,0,0.7-0.1,1.1-0.2v1.3c-0.4,0.2-1,0.3-1.6,0.3c-0.7,0-1.2-0.2-1.6-0.5
			c-0.3-0.4-0.5-0.9-0.5-1.6V6.4h-0.9V5.6l1-0.6l0.5-1.4h1.1V5h1.8v1.3h-1.8v3.2c0,0.3,0.1,0.4,0.2,0.6
			C473.6,10.2,473.8,10.3,474,10.3z"></path>
		<path class="st13" d="M476.4,3.3c0-0.6,0.3-0.9,1-0.9s1,0.3,1,0.9c0,0.3-0.1,0.5-0.2,0.6c-0.2,0.2-0.4,0.2-0.7,0.2
			C476.7,4.2,476.4,3.9,476.4,3.3z M478.3,11.6h-1.8V5h1.8V11.6z"></path>
		<path class="st13" d="M486.1,8.3c0,1.1-0.3,1.9-0.8,2.5c-0.6,0.6-1.3,0.9-2.4,0.9c-0.6,0-1.2-0.1-1.7-0.4
			c-0.5-0.3-0.9-0.7-1.1-1.2c-0.3-0.5-0.4-1.1-0.4-1.8c0-1.1,0.3-1.9,0.8-2.5s1.3-0.9,2.4-0.9c0.6,0,1.2,0.1,1.7,0.4
			c0.5,0.3,0.9,0.7,1.1,1.2C486,7,486.1,7.6,486.1,8.3z M481.6,8.3c0,0.6,0.1,1.1,0.3,1.5c0.2,0.3,0.6,0.5,1,0.5
			c0.5,0,0.8-0.2,1-0.5c0.2-0.3,0.3-0.8,0.3-1.5c0-0.6-0.1-1.1-0.3-1.5c-0.2-0.3-0.6-0.5-1-0.5c-0.5,0-0.8,0.2-1,0.5
			S481.6,7.7,481.6,8.3z"></path>
		<path class="st13" d="M493.6,11.6h-1.8V7.8c0-0.5-0.1-0.8-0.3-1.1c-0.2-0.2-0.4-0.4-0.8-0.4c-0.5,0-0.9,0.2-1.1,0.5
			c-0.2,0.3-0.3,0.9-0.3,1.7v3.1h-1.8V5h1.4l0.2,0.8h0.1c0.2-0.3,0.5-0.6,0.8-0.7c0.4-0.2,0.7-0.2,1.2-0.2c0.8,0,1.3,0.2,1.7,0.6
			c0.4,0.4,0.6,1,0.6,1.8V11.6z"></path>
		<path class="st13" d="M430.9,26.1c-1.1,0-1.9-0.3-2.5-0.9s-0.9-1.4-0.9-2.5c0-1.1,0.3-1.9,0.8-2.5c0.5-0.6,1.3-0.9,2.3-0.9
			c0.9,0,1.6,0.3,2.2,0.8s0.8,1.3,0.8,2.2v0.9h-4.2c0,0.5,0.2,0.9,0.5,1.2c0.3,0.3,0.7,0.4,1.2,0.4c0.4,0,0.8,0,1.1-0.1
			c0.4-0.1,0.7-0.2,1.1-0.4v1.4c-0.3,0.2-0.6,0.3-1,0.3S431.4,26.1,430.9,26.1z M430.7,20.6c-0.4,0-0.7,0.1-0.9,0.4
			c-0.2,0.2-0.3,0.6-0.4,1h2.5c0-0.4-0.1-0.8-0.3-1C431.4,20.7,431.1,20.6,430.7,20.6z"></path>
		<path class="st13" d="M437.8,24.7c0.3,0,0.7-0.1,1.1-0.2v1.3c-0.4,0.2-1,0.3-1.6,0.3c-0.7,0-1.2-0.2-1.6-0.5
			c-0.3-0.4-0.5-0.9-0.5-1.6v-3.2h-0.9v-0.8l1-0.6l0.5-1.4h1.1v1.4h1.8v1.3h-1.8V24c0,0.3,0.1,0.4,0.2,0.6
			C437.4,24.7,437.6,24.7,437.8,24.7z"></path>
		<path class="st13" d="M447.6,26l-0.3-0.9h0c-0.3,0.4-0.6,0.6-0.9,0.8c-0.3,0.1-0.7,0.2-1.2,0.2c-0.6,0-1.1-0.2-1.5-0.5
			c-0.4-0.4-0.5-0.9-0.5-1.5c0-0.7,0.2-1.2,0.7-1.5c0.5-0.3,1.2-0.5,2.2-0.5l1.1,0v-0.3c0-0.7-0.3-1-1-1c-0.5,0-1.1,0.2-1.8,0.5
			l-0.6-1.2c0.8-0.4,1.6-0.6,2.5-0.6c0.9,0,1.6,0.2,2,0.6c0.5,0.4,0.7,1,0.7,1.7V26H447.6z M447,23l-0.7,0c-0.5,0-0.9,0.1-1.2,0.3
			c-0.3,0.2-0.4,0.4-0.4,0.8c0,0.5,0.3,0.8,0.9,0.8c0.4,0,0.7-0.1,1-0.4c0.2-0.2,0.4-0.6,0.4-1V23z"></path>
		<path class="st13" d="M454.3,26.1c-0.8,0-1.4-0.3-1.8-0.8h-0.1c0.1,0.5,0.1,0.9,0.1,1v2.7h-1.8v-9.4h1.5l0.3,0.9h0.1
			c0.4-0.6,1-1,1.9-1c0.8,0,1.4,0.3,1.8,0.9s0.7,1.4,0.7,2.5c0,0.7-0.1,1.3-0.3,1.8c-0.2,0.5-0.5,0.9-0.9,1.2S454.8,26.1,454.3,26.1
			z M453.7,20.8c-0.4,0-0.8,0.1-1,0.4c-0.2,0.3-0.3,0.7-0.3,1.3v0.2c0,0.7,0.1,1.2,0.3,1.5c0.2,0.3,0.5,0.5,1,0.5
			c0.8,0,1.2-0.7,1.2-2c0-0.6-0.1-1.1-0.3-1.5C454.5,20.9,454.2,20.8,453.7,20.8z"></path>
		<path class="st13" d="M461.9,26.1c-0.8,0-1.4-0.3-1.8-0.8H460c0.1,0.5,0.1,0.9,0.1,1v2.7h-1.8v-9.4h1.5l0.3,0.9h0.1
			c0.4-0.6,1-1,1.9-1c0.8,0,1.4,0.3,1.8,0.9s0.7,1.4,0.7,2.5c0,0.7-0.1,1.3-0.3,1.8c-0.2,0.5-0.5,0.9-0.9,1.2S462.4,26.1,461.9,26.1
			z M461.3,20.8c-0.4,0-0.8,0.1-1,0.4c-0.2,0.3-0.3,0.7-0.3,1.3v0.2c0,0.7,0.1,1.2,0.3,1.5c0.2,0.3,0.5,0.5,1,0.5
			c0.8,0,1.2-0.7,1.2-2c0-0.6-0.1-1.1-0.3-1.5C462.1,20.9,461.8,20.8,461.3,20.8z"></path>
		<path class="st13" d="M469.5,19.3c0.2,0,0.4,0,0.6,0.1l-0.1,1.7c-0.1,0-0.3-0.1-0.5-0.1c-0.6,0-1,0.1-1.3,0.4
			c-0.3,0.3-0.5,0.7-0.5,1.2V26h-1.8v-6.6h1.4l0.3,1.1h0.1c0.2-0.4,0.5-0.7,0.8-0.9C468.8,19.5,469.1,19.3,469.5,19.3z"></path>
		<path class="st13" d="M474.3,26.1c-1.1,0-1.9-0.3-2.5-0.9s-0.9-1.4-0.9-2.5c0-1.1,0.3-1.9,0.8-2.5c0.5-0.6,1.3-0.9,2.3-0.9
			c0.9,0,1.6,0.3,2.2,0.8s0.8,1.3,0.8,2.2v0.9h-4.2c0,0.5,0.2,0.9,0.5,1.2c0.3,0.3,0.7,0.4,1.2,0.4c0.4,0,0.8,0,1.1-0.1
			c0.4-0.1,0.7-0.2,1.1-0.4v1.4c-0.3,0.2-0.6,0.3-1,0.3S474.8,26.1,474.3,26.1z M474.1,20.6c-0.4,0-0.7,0.1-0.9,0.4
			c-0.2,0.2-0.3,0.6-0.4,1h2.5c0-0.4-0.1-0.8-0.3-1C474.7,20.7,474.4,20.6,474.1,20.6z"></path>
		<path class="st13" d="M484.5,26h-1.8v-3.8c0-0.5-0.1-0.8-0.3-1.1s-0.4-0.4-0.8-0.4c-0.5,0-0.9,0.2-1.1,0.5
			c-0.2,0.3-0.3,0.9-0.3,1.7V26h-1.8v-6.6h1.4l0.2,0.8h0.1c0.2-0.3,0.5-0.6,0.8-0.7c0.4-0.2,0.7-0.2,1.2-0.2c0.8,0,1.3,0.2,1.7,0.6
			c0.4,0.4,0.6,1,0.6,1.8V26z"></path>
		<path class="st13" d="M489.1,24.7c0.3,0,0.7-0.1,1.1-0.2v1.3c-0.4,0.2-1,0.3-1.6,0.3c-0.7,0-1.2-0.2-1.6-0.5
			c-0.3-0.4-0.5-0.9-0.5-1.6v-3.2h-0.9v-0.8l1-0.6l0.5-1.4h1.1v1.4h1.8v1.3h-1.8V24c0,0.3,0.1,0.4,0.2,0.6
			C488.7,24.7,488.9,24.7,489.1,24.7z"></path>
		<path class="st13" d="M491.5,17.8c0-0.6,0.3-0.9,1-0.9c0.6,0,1,0.3,1,0.9c0,0.3-0.1,0.5-0.2,0.6c-0.2,0.2-0.4,0.2-0.7,0.2
			C491.8,18.6,491.5,18.4,491.5,17.8z M493.3,26h-1.8v-6.6h1.8V26z"></path>
		<path class="st13" d="M499.8,24.1c0,0.7-0.2,1.2-0.7,1.5c-0.5,0.4-1.2,0.5-2.1,0.5c-0.5,0-0.9,0-1.2-0.1c-0.3-0.1-0.7-0.2-0.9-0.3
			v-1.5c0.3,0.2,0.7,0.3,1.1,0.4c0.4,0.1,0.8,0.2,1.1,0.2c0.6,0,1-0.2,1-0.6c0-0.1,0-0.3-0.1-0.3c-0.1-0.1-0.2-0.2-0.4-0.3
			s-0.5-0.2-0.8-0.4c-0.5-0.2-0.9-0.4-1.1-0.6c-0.2-0.2-0.4-0.4-0.5-0.6c-0.1-0.2-0.2-0.5-0.2-0.9c0-0.6,0.2-1,0.7-1.4
			c0.5-0.3,1.1-0.5,1.9-0.5c0.8,0,1.6,0.2,2.3,0.5l-0.5,1.3c-0.3-0.1-0.6-0.3-0.9-0.3c-0.3-0.1-0.6-0.1-0.9-0.1
			c-0.5,0-0.8,0.1-0.8,0.4c0,0.2,0.1,0.3,0.3,0.4c0.2,0.1,0.5,0.3,1.1,0.5c0.5,0.2,0.9,0.4,1.1,0.6c0.2,0.2,0.4,0.4,0.5,0.6
			C499.7,23.5,499.8,23.8,499.8,24.1z"></path>
		<path class="st13" d="M505.8,24.1c0,0.7-0.2,1.2-0.7,1.5c-0.5,0.4-1.2,0.5-2.1,0.5c-0.5,0-0.9,0-1.2-0.1s-0.7-0.2-0.9-0.3v-1.5
			c0.3,0.2,0.7,0.3,1.1,0.4c0.4,0.1,0.8,0.2,1.1,0.2c0.6,0,1-0.2,1-0.6c0-0.1,0-0.3-0.1-0.3c-0.1-0.1-0.2-0.2-0.4-0.3
			s-0.5-0.2-0.8-0.4c-0.5-0.2-0.9-0.4-1.1-0.6c-0.2-0.2-0.4-0.4-0.5-0.6c-0.1-0.2-0.2-0.5-0.2-0.9c0-0.6,0.2-1,0.7-1.4
			c0.5-0.3,1.1-0.5,1.9-0.5c0.8,0,1.6,0.2,2.3,0.5l-0.5,1.3c-0.3-0.1-0.6-0.3-0.9-0.3c-0.3-0.1-0.6-0.1-0.9-0.1
			c-0.5,0-0.8,0.1-0.8,0.4c0,0.2,0.1,0.3,0.3,0.4c0.2,0.1,0.5,0.3,1.1,0.5c0.5,0.2,0.9,0.4,1.1,0.6c0.2,0.2,0.4,0.4,0.5,0.6
			C505.7,23.5,505.8,23.8,505.8,24.1z"></path>
		<path class="st13" d="M511.3,26l-0.3-0.9h0c-0.3,0.4-0.6,0.6-0.9,0.8c-0.3,0.1-0.7,0.2-1.2,0.2c-0.6,0-1.1-0.2-1.5-0.5
			c-0.4-0.4-0.5-0.9-0.5-1.5c0-0.7,0.2-1.2,0.7-1.5c0.5-0.3,1.2-0.5,2.2-0.5l1.1,0v-0.3c0-0.7-0.3-1-1-1c-0.5,0-1.1,0.2-1.8,0.5
			l-0.6-1.2c0.8-0.4,1.6-0.6,2.5-0.6c0.9,0,1.6,0.2,2,0.6c0.5,0.4,0.7,1,0.7,1.7V26H511.3z M510.8,23l-0.7,0c-0.5,0-0.9,0.1-1.2,0.3
			c-0.3,0.2-0.4,0.4-0.4,0.8c0,0.5,0.3,0.8,0.9,0.8c0.4,0,0.7-0.1,1-0.4c0.2-0.2,0.4-0.6,0.4-1V23z"></path>
		<path class="st13" d="M520.1,19.5v0.9l-1,0.3c0.2,0.3,0.3,0.6,0.3,1c0,0.7-0.2,1.3-0.7,1.6c-0.5,0.4-1.2,0.6-2,0.6l-0.3,0l-0.3,0
			c-0.2,0.1-0.3,0.3-0.3,0.5c0,0.3,0.3,0.4,1,0.4h1.1c0.7,0,1.3,0.2,1.6,0.5c0.4,0.3,0.6,0.8,0.6,1.4c0,0.8-0.3,1.4-1,1.8
			c-0.6,0.4-1.6,0.6-2.8,0.6c-0.9,0-1.6-0.2-2.1-0.5c-0.5-0.3-0.7-0.8-0.7-1.3c0-0.4,0.1-0.7,0.4-1c0.2-0.3,0.6-0.5,1.1-0.6
			c-0.2-0.1-0.3-0.2-0.5-0.4c-0.1-0.2-0.2-0.4-0.2-0.6c0-0.3,0.1-0.5,0.2-0.6c0.1-0.2,0.4-0.3,0.6-0.5c-0.3-0.1-0.6-0.4-0.8-0.7
			c-0.2-0.3-0.3-0.7-0.3-1.2c0-0.7,0.2-1.3,0.7-1.7s1.1-0.6,2-0.6c0.2,0,0.4,0,0.7,0c0.3,0,0.4,0.1,0.5,0.1H520.1z M515.1,27
			c0,0.2,0.1,0.4,0.4,0.6c0.2,0.1,0.6,0.2,1,0.2c0.6,0,1.1-0.1,1.5-0.3c0.4-0.2,0.5-0.4,0.5-0.7c0-0.2-0.1-0.4-0.3-0.5
			c-0.2-0.1-0.5-0.1-1-0.1h-0.9c-0.3,0-0.6,0.1-0.8,0.2C515.2,26.5,515.1,26.7,515.1,27z M515.7,21.6c0,0.4,0.1,0.6,0.2,0.8
			c0.2,0.2,0.4,0.3,0.7,0.3c0.3,0,0.6-0.1,0.7-0.3c0.2-0.2,0.2-0.5,0.2-0.8c0-0.8-0.3-1.2-1-1.2C516.1,20.4,515.7,20.8,515.7,21.6z"
			></path>
		<path class="st13" d="M524.2,26.1c-1.1,0-1.9-0.3-2.5-0.9s-0.9-1.4-0.9-2.5c0-1.1,0.3-1.9,0.8-2.5c0.5-0.6,1.3-0.9,2.3-0.9
			c0.9,0,1.6,0.3,2.2,0.8c0.5,0.5,0.8,1.3,0.8,2.2v0.9h-4.2c0,0.5,0.2,0.9,0.5,1.2c0.3,0.3,0.7,0.4,1.2,0.4c0.4,0,0.8,0,1.1-0.1
			s0.7-0.2,1.1-0.4v1.4c-0.3,0.2-0.6,0.3-1,0.3S524.7,26.1,524.2,26.1z M523.9,20.6c-0.4,0-0.7,0.1-0.9,0.4c-0.2,0.2-0.3,0.6-0.4,1
			h2.5c0-0.4-0.1-0.8-0.3-1C524.6,20.7,524.3,20.6,523.9,20.6z"></path>
	</g>
	<g id="parcours-C-icone">
		<path class="st13" d="M404.2,24.9V3.7c0,0,0.9-1.7,3.7-1.7c3.5,0,4.2,2.3,10.8,2.3c0,6.8,0,20.5,0,20.5c-5.3,0-6.9-2.4-10.4-2.4
			C405.8,22.4,404.2,24.9,404.2,24.9z"></path>
		<path class="st13" d="M403.5,24.9V3.7c0,0-0.9-1.7-3.7-1.7c-3.5,0-4.2,2.3-10.8,2.3c0,6.8,0,20.5,0,20.5c5.3,0,6.9-2.4,10.4-2.4
			C402,22.4,403.5,24.9,403.5,24.9z"></path>
		<path class="st13" d="M399.2,23.2c-3.7,0-5.4,2.6-11,2.6c0,0,0-12.5,0-20.1c-0.4,0-0.8,0-1.2,0c0,7.6,0,22,0,22
			c6,0,7.8-2.7,11.8-2.7c3,0,4.7,2.7,4.7,2.7v-2.1C403,25,401.5,23.2,399.2,23.2z"></path>
		<path class="st13" d="M408.5,23.2c3.7,0,5.4,2.6,11,2.6c0,0,0-12.5,0-20.1c0.4,0,0.8,0,1.2,0c0,7.6,0,22,0,22
			c-6,0-7.8-2.7-11.8-2.7c-3,0-4.7,2.7-4.7,2.7v-2.1C404.7,25,406.2,23.2,408.5,23.2z"></path>
	</g>
</g>
<g id="parcours-B">
	<line id="parcours-B-trace" class="st14" x1="477" y1="47.5" x2="188.7" y2="46.7"></line><circle id="parcours-B-station-0-6" class="st15" cx="188.7" cy="46.7" r="9.3"></circle>
	<circle id="parcours-B-station-3-4" class="st2" cx="404.7" cy="46.7" r="9.3"></circle>
	<circle id="parcours-B-station-0-2_1_" class="st15" cx="477" cy="47.5" r="9.3"></circle>
	<circle id="parcours-B-station-0-0" class="st2" cx="261.3" cy="47.9" r="9.3"></circle>
	<circle id="parcours-B-station-0-1_2_" class="st15" cx="332.7" cy="47.3" r="9.3"></circle>
	<rect id="parcours-B-masque" x="0" y="29" class="st3" width="171" height="27"></rect>
	<g id="parcours-B-texte_2_">
		<path class="st15" d="M33.1,51v-8.6H35v7.1h3.5V51H33.1z"></path>
		<path class="st15" d="M42.8,51.1c-1.1,0-1.9-0.3-2.5-0.9c-0.6-0.6-0.9-1.4-0.9-2.5c0-1.1,0.3-1.9,0.8-2.5c0.5-0.6,1.3-0.9,2.3-0.9
			c0.9,0,1.6,0.3,2.2,0.8s0.8,1.3,0.8,2.2v0.9h-4.2c0,0.5,0.2,0.9,0.5,1.2s0.7,0.4,1.2,0.4c0.4,0,0.8,0,1.1-0.1
			c0.4-0.1,0.7-0.2,1.1-0.4v1.4c-0.3,0.2-0.6,0.3-1,0.3C43.7,51.1,43.3,51.1,42.8,51.1z M42.5,45.6c-0.4,0-0.7,0.1-0.9,0.4
			c-0.2,0.2-0.3,0.6-0.4,1h2.5c0-0.4-0.1-0.8-0.3-1S42.9,45.6,42.5,45.6z"></path>
		<path class="st15" d="M51.5,49.1c0,0.7-0.2,1.2-0.7,1.5c-0.5,0.4-1.2,0.5-2.1,0.5c-0.5,0-0.9,0-1.2-0.1c-0.3-0.1-0.7-0.2-0.9-0.3
			v-1.5c0.3,0.2,0.7,0.3,1.1,0.4c0.4,0.1,0.8,0.2,1.1,0.2c0.6,0,1-0.2,1-0.6c0-0.1,0-0.3-0.1-0.3c-0.1-0.1-0.2-0.2-0.4-0.3
			c-0.2-0.1-0.5-0.2-0.8-0.4c-0.5-0.2-0.9-0.4-1.1-0.6c-0.2-0.2-0.4-0.4-0.5-0.6c-0.1-0.2-0.2-0.5-0.2-0.9c0-0.6,0.2-1,0.7-1.4
			c0.5-0.3,1.1-0.5,1.9-0.5c0.8,0,1.6,0.2,2.3,0.5l-0.5,1.3c-0.3-0.1-0.6-0.3-0.9-0.3c-0.3-0.1-0.6-0.1-0.9-0.1
			c-0.5,0-0.8,0.1-0.8,0.4c0,0.2,0.1,0.3,0.3,0.4c0.2,0.1,0.5,0.3,1.1,0.5c0.5,0.2,0.9,0.4,1.1,0.6c0.2,0.2,0.4,0.4,0.5,0.6
			C51.4,48.5,51.5,48.7,51.5,49.1z"></path>
		<path class="st15" d="M62,47.7c0,1.1-0.3,1.9-0.8,2.5c-0.6,0.6-1.3,0.9-2.4,0.9c-0.6,0-1.2-0.1-1.7-0.4c-0.5-0.3-0.9-0.7-1.1-1.2
			s-0.4-1.1-0.4-1.8c0-1.1,0.3-1.9,0.8-2.5c0.6-0.6,1.3-0.9,2.4-0.9c0.6,0,1.2,0.1,1.7,0.4s0.9,0.7,1.1,1.2C61.8,46.4,62,47,62,47.7
			z M57.4,47.7c0,0.6,0.1,1.1,0.3,1.5c0.2,0.3,0.6,0.5,1,0.5c0.5,0,0.8-0.2,1-0.5c0.2-0.3,0.3-0.8,0.3-1.5c0-0.6-0.1-1.1-0.3-1.5
			c-0.2-0.3-0.6-0.5-1-0.5c-0.5,0-0.8,0.2-1,0.5S57.4,47.1,57.4,47.7z"></path>
		<path class="st15" d="M67.1,44.3c0.2,0,0.4,0,0.6,0.1l-0.1,1.7C67.4,46,67.2,46,67,46c-0.6,0-1,0.1-1.3,0.4
			c-0.3,0.3-0.5,0.7-0.5,1.2V51h-1.8v-6.6h1.4l0.3,1.1h0.1c0.2-0.4,0.5-0.7,0.8-0.9C66.3,44.4,66.7,44.3,67.1,44.3z"></path>
		<path class="st15" d="M68.8,42.8c0-0.6,0.3-0.9,1-0.9c0.6,0,1,0.3,1,0.9c0,0.3-0.1,0.5-0.2,0.6c-0.2,0.2-0.4,0.2-0.7,0.2
			C69.1,43.6,68.8,43.3,68.8,42.8z M70.7,51h-1.8v-6.6h1.8V51z"></path>
		<path class="st15" d="M78.3,44.5v0.9l-1,0.3c0.2,0.3,0.3,0.6,0.3,1c0,0.7-0.2,1.3-0.7,1.6c-0.5,0.4-1.2,0.6-2,0.6l-0.3,0l-0.3,0
			c-0.2,0.1-0.3,0.3-0.3,0.5c0,0.3,0.3,0.4,1,0.4H76c0.7,0,1.3,0.2,1.6,0.5c0.4,0.3,0.6,0.8,0.6,1.4c0,0.8-0.3,1.4-1,1.8
			c-0.6,0.4-1.6,0.6-2.8,0.6c-0.9,0-1.6-0.2-2.1-0.5c-0.5-0.3-0.7-0.8-0.7-1.3c0-0.4,0.1-0.7,0.4-1c0.2-0.3,0.6-0.5,1.1-0.6
			c-0.2-0.1-0.3-0.2-0.5-0.4c-0.1-0.2-0.2-0.4-0.2-0.6c0-0.3,0.1-0.5,0.2-0.6s0.4-0.3,0.6-0.5c-0.3-0.1-0.6-0.4-0.8-0.7
			c-0.2-0.3-0.3-0.7-0.3-1.2c0-0.7,0.2-1.3,0.7-1.7c0.5-0.4,1.1-0.6,2-0.6c0.2,0,0.4,0,0.7,0c0.3,0,0.4,0.1,0.5,0.1H78.3z
			 M73.2,51.9c0,0.2,0.1,0.4,0.4,0.6c0.2,0.1,0.6,0.2,1,0.2c0.6,0,1.1-0.1,1.5-0.3c0.4-0.2,0.5-0.4,0.5-0.7c0-0.2-0.1-0.4-0.3-0.5
			c-0.2-0.1-0.5-0.1-1-0.1h-0.9c-0.3,0-0.6,0.1-0.8,0.2C73.3,51.5,73.2,51.7,73.2,51.9z M73.9,46.6c0,0.4,0.1,0.6,0.2,0.8
			c0.2,0.2,0.4,0.3,0.7,0.3c0.3,0,0.6-0.1,0.7-0.3c0.2-0.2,0.2-0.5,0.2-0.8c0-0.8-0.3-1.2-1-1.2C74.2,45.4,73.9,45.8,73.9,46.6z"></path>
		<path class="st15" d="M79.3,42.8c0-0.6,0.3-0.9,1-0.9c0.6,0,1,0.3,1,0.9c0,0.3-0.1,0.5-0.2,0.6c-0.2,0.2-0.4,0.2-0.7,0.2
			C79.6,43.6,79.3,43.3,79.3,42.8z M81.1,51h-1.8v-6.6h1.8V51z"></path>
		<path class="st15" d="M89.1,51h-1.8v-3.8c0-0.5-0.1-0.8-0.3-1.1c-0.2-0.2-0.4-0.4-0.8-0.4c-0.5,0-0.9,0.2-1.1,0.5
			s-0.3,0.9-0.3,1.7V51H83v-6.6h1.4l0.2,0.8h0.1c0.2-0.3,0.5-0.6,0.8-0.7c0.4-0.2,0.7-0.2,1.2-0.2c0.8,0,1.3,0.2,1.7,0.6
			c0.4,0.4,0.6,1,0.6,1.8V51z"></path>
		<path class="st15" d="M93.9,51.1c-1.1,0-1.9-0.3-2.5-0.9c-0.6-0.6-0.9-1.4-0.9-2.5c0-1.1,0.3-1.9,0.8-2.5c0.5-0.6,1.3-0.9,2.3-0.9
			c0.9,0,1.6,0.3,2.2,0.8s0.8,1.3,0.8,2.2v0.9h-4.2c0,0.5,0.2,0.9,0.5,1.2s0.7,0.4,1.2,0.4c0.4,0,0.8,0,1.1-0.1
			c0.4-0.1,0.7-0.2,1.1-0.4v1.4c-0.3,0.2-0.6,0.3-1,0.3S94.4,51.1,93.9,51.1z M93.6,45.6c-0.4,0-0.7,0.1-0.9,0.4
			c-0.2,0.2-0.3,0.6-0.4,1h2.5c0-0.4-0.1-0.8-0.3-1S94,45.6,93.6,45.6z"></path>
		<path class="st15" d="M102.6,49.1c0,0.7-0.2,1.2-0.7,1.5c-0.5,0.4-1.2,0.5-2.1,0.5c-0.5,0-0.9,0-1.2-0.1c-0.3-0.1-0.7-0.2-0.9-0.3
			v-1.5c0.3,0.2,0.7,0.3,1.1,0.4c0.4,0.1,0.8,0.2,1.1,0.2c0.6,0,1-0.2,1-0.6c0-0.1,0-0.3-0.1-0.3s-0.2-0.2-0.4-0.3
			c-0.2-0.1-0.5-0.2-0.8-0.4c-0.5-0.2-0.9-0.4-1.1-0.6c-0.2-0.2-0.4-0.4-0.5-0.6c-0.1-0.2-0.2-0.5-0.2-0.9c0-0.6,0.2-1,0.7-1.4
			c0.5-0.3,1.1-0.5,1.9-0.5c0.8,0,1.6,0.2,2.3,0.5l-0.5,1.3c-0.3-0.1-0.6-0.3-0.9-0.3c-0.3-0.1-0.6-0.1-0.9-0.1
			c-0.5,0-0.8,0.1-0.8,0.4c0,0.2,0.1,0.3,0.3,0.4c0.2,0.1,0.5,0.3,1.1,0.5c0.5,0.2,0.9,0.4,1.1,0.6c0.2,0.2,0.4,0.4,0.5,0.6
			C102.5,48.5,102.6,48.7,102.6,49.1z"></path>
		<path class="st15" d="M109.2,51.1c-0.8,0-1.4-0.3-1.8-0.9c-0.4-0.6-0.7-1.4-0.7-2.5c0-1.1,0.2-1.9,0.7-2.5
			c0.4-0.6,1.1-0.9,1.9-0.9c0.8,0,1.5,0.3,1.9,1h0.1c-0.1-0.5-0.1-0.9-0.1-1.3v-2.1h1.8V51h-1.4l-0.3-0.9H111
			C110.6,50.8,110,51.1,109.2,51.1z M109.8,49.7c0.5,0,0.8-0.1,1-0.4c0.2-0.3,0.3-0.7,0.3-1.4v-0.2c0-0.7-0.1-1.2-0.3-1.5
			c-0.2-0.3-0.6-0.5-1.1-0.5c-0.4,0-0.7,0.2-0.9,0.5c-0.2,0.3-0.3,0.8-0.3,1.5s0.1,1.1,0.3,1.5C109.1,49.5,109.4,49.7,109.8,49.7z"
			></path>
		<path class="st15" d="M119.4,51l-0.2-0.8H119c-0.2,0.3-0.5,0.5-0.8,0.7s-0.8,0.2-1.2,0.2c-0.8,0-1.4-0.2-1.7-0.6
			c-0.4-0.4-0.6-1-0.6-1.8v-4.3h1.8v3.8c0,0.5,0.1,0.8,0.3,1.1c0.2,0.2,0.4,0.4,0.8,0.4c0.5,0,0.9-0.2,1.1-0.5
			c0.2-0.3,0.3-0.9,0.3-1.7v-3.1h1.8V51H119.4z"></path>
		<path class="st15" d="M127.5,51h-1.8v-9.1h1.8V51z"></path>
		<path class="st15" d="M133.6,51l-0.3-0.9h0c-0.3,0.4-0.6,0.6-0.9,0.8c-0.3,0.1-0.7,0.2-1.2,0.2c-0.6,0-1.1-0.2-1.5-0.5
			c-0.4-0.4-0.5-0.9-0.5-1.5c0-0.7,0.2-1.2,0.7-1.5c0.5-0.3,1.2-0.5,2.2-0.5l1.1,0v-0.3c0-0.7-0.3-1-1-1c-0.5,0-1.1,0.2-1.8,0.5
			l-0.6-1.2c0.8-0.4,1.6-0.6,2.5-0.6c0.9,0,1.6,0.2,2,0.6s0.7,1,0.7,1.7V51H133.6z M133,48l-0.7,0c-0.5,0-0.9,0.1-1.2,0.3
			c-0.3,0.2-0.4,0.4-0.4,0.8c0,0.5,0.3,0.8,0.9,0.8c0.4,0,0.7-0.1,1-0.4c0.2-0.2,0.4-0.6,0.4-1V48z"></path>
		<path class="st15" d="M142.7,51h-1.8v-3.8c0-0.5-0.1-0.8-0.3-1.1c-0.2-0.2-0.4-0.4-0.8-0.4c-0.5,0-0.9,0.2-1.1,0.5
			c-0.2,0.3-0.3,0.9-0.3,1.7V51h-1.8v-6.6h1.4l0.2,0.8h0.1c0.2-0.3,0.5-0.6,0.8-0.7c0.4-0.2,0.7-0.2,1.2-0.2c0.8,0,1.3,0.2,1.7,0.6
			c0.4,0.4,0.6,1,0.6,1.8V51z"></path>
		<path class="st15" d="M150.3,44.5v0.9l-1,0.3c0.2,0.3,0.3,0.6,0.3,1c0,0.7-0.2,1.3-0.7,1.6c-0.5,0.4-1.2,0.6-2,0.6l-0.3,0l-0.3,0
			c-0.2,0.1-0.3,0.3-0.3,0.5c0,0.3,0.3,0.4,1,0.4h1.1c0.7,0,1.3,0.2,1.6,0.5c0.4,0.3,0.6,0.8,0.6,1.4c0,0.8-0.3,1.4-1,1.8
			c-0.6,0.4-1.6,0.6-2.8,0.6c-0.9,0-1.6-0.2-2.1-0.5c-0.5-0.3-0.7-0.8-0.7-1.3c0-0.4,0.1-0.7,0.4-1c0.2-0.3,0.6-0.5,1.1-0.6
			c-0.2-0.1-0.3-0.2-0.5-0.4c-0.1-0.2-0.2-0.4-0.2-0.6c0-0.3,0.1-0.5,0.2-0.6c0.1-0.2,0.4-0.3,0.6-0.5c-0.3-0.1-0.6-0.4-0.8-0.7
			c-0.2-0.3-0.3-0.7-0.3-1.2c0-0.7,0.2-1.3,0.7-1.7c0.5-0.4,1.1-0.6,2-0.6c0.2,0,0.4,0,0.7,0c0.3,0,0.4,0.1,0.5,0.1H150.3z
			 M145.2,51.9c0,0.2,0.1,0.4,0.4,0.6c0.2,0.1,0.6,0.2,1,0.2c0.6,0,1.1-0.1,1.5-0.3c0.4-0.2,0.5-0.4,0.5-0.7c0-0.2-0.1-0.4-0.3-0.5
			c-0.2-0.1-0.5-0.1-1-0.1h-0.9c-0.3,0-0.6,0.1-0.8,0.2C145.3,51.5,145.2,51.7,145.2,51.9z M145.9,46.6c0,0.4,0.1,0.6,0.2,0.8
			c0.2,0.2,0.4,0.3,0.7,0.3c0.3,0,0.6-0.1,0.7-0.3c0.2-0.2,0.2-0.5,0.2-0.8c0-0.8-0.3-1.2-1-1.2C146.2,45.4,145.9,45.8,145.9,46.6z"
			></path>
		<path class="st15" d="M155.5,51l-0.3-0.9h0c-0.3,0.4-0.6,0.6-0.9,0.8c-0.3,0.1-0.7,0.2-1.2,0.2c-0.6,0-1.1-0.2-1.5-0.5
			c-0.4-0.4-0.5-0.9-0.5-1.5c0-0.7,0.2-1.2,0.7-1.5c0.5-0.3,1.2-0.5,2.2-0.5l1.1,0v-0.3c0-0.7-0.3-1-1-1c-0.5,0-1.1,0.2-1.8,0.5
			l-0.6-1.2c0.8-0.4,1.6-0.6,2.5-0.6c0.9,0,1.6,0.2,2,0.6s0.7,1,0.7,1.7V51H155.5z M155,48l-0.7,0c-0.5,0-0.9,0.1-1.2,0.3
			c-0.3,0.2-0.4,0.4-0.4,0.8c0,0.5,0.3,0.8,0.9,0.8c0.4,0,0.7-0.1,1-0.4c0.2-0.2,0.4-0.6,0.4-1V48z"></path>
		<path class="st15" d="M164.3,44.5v0.9l-1,0.3c0.2,0.3,0.3,0.6,0.3,1c0,0.7-0.2,1.3-0.7,1.6c-0.5,0.4-1.2,0.6-2,0.6l-0.3,0l-0.3,0
			c-0.2,0.1-0.3,0.3-0.3,0.5c0,0.3,0.3,0.4,1,0.4h1.1c0.7,0,1.3,0.2,1.6,0.5c0.4,0.3,0.6,0.8,0.6,1.4c0,0.8-0.3,1.4-1,1.8
			c-0.6,0.4-1.6,0.6-2.8,0.6c-0.9,0-1.6-0.2-2.1-0.5c-0.5-0.3-0.7-0.8-0.7-1.3c0-0.4,0.1-0.7,0.4-1c0.2-0.3,0.6-0.5,1.1-0.6
			c-0.2-0.1-0.3-0.2-0.5-0.4c-0.1-0.2-0.2-0.4-0.2-0.6c0-0.3,0.1-0.5,0.2-0.6c0.1-0.2,0.4-0.3,0.6-0.5c-0.3-0.1-0.6-0.4-0.8-0.7
			c-0.2-0.3-0.3-0.7-0.3-1.2c0-0.7,0.2-1.3,0.7-1.7c0.5-0.4,1.1-0.6,2-0.6c0.2,0,0.4,0,0.7,0c0.3,0,0.4,0.1,0.5,0.1H164.3z
			 M159.3,51.9c0,0.2,0.1,0.4,0.4,0.6c0.2,0.1,0.6,0.2,1,0.2c0.6,0,1.1-0.1,1.5-0.3c0.4-0.2,0.5-0.4,0.5-0.7c0-0.2-0.1-0.4-0.3-0.5
			c-0.2-0.1-0.5-0.1-1-0.1h-0.9c-0.3,0-0.6,0.1-0.8,0.2C159.4,51.5,159.3,51.7,159.3,51.9z M159.9,46.6c0,0.4,0.1,0.6,0.2,0.8
			c0.2,0.2,0.4,0.3,0.7,0.3c0.3,0,0.6-0.1,0.7-0.3c0.2-0.2,0.2-0.5,0.2-0.8c0-0.8-0.3-1.2-1-1.2C160.2,45.4,159.9,45.8,159.9,46.6z"
			></path>
		<path class="st15" d="M168.4,51.1c-1.1,0-1.9-0.3-2.5-0.9c-0.6-0.6-0.9-1.4-0.9-2.5c0-1.1,0.3-1.9,0.8-2.5
			c0.5-0.6,1.3-0.9,2.3-0.9c0.9,0,1.6,0.3,2.2,0.8s0.8,1.3,0.8,2.2v0.9h-4.2c0,0.5,0.2,0.9,0.5,1.2c0.3,0.3,0.7,0.4,1.2,0.4
			c0.4,0,0.8,0,1.1-0.1c0.4-0.1,0.7-0.2,1.1-0.4v1.4c-0.3,0.2-0.6,0.3-1,0.3C169.3,51.1,168.9,51.1,168.4,51.1z M168.1,45.6
			c-0.4,0-0.7,0.1-0.9,0.4c-0.2,0.2-0.3,0.6-0.4,1h2.5c0-0.4-0.1-0.8-0.3-1C168.8,45.7,168.5,45.6,168.1,45.6z"></path>
	</g>
	<g id="parcours-B-icone_2_">
		<path class="st15" d="M15.9,54.7c-0.9-0.2-1.7-0.4-2.6-0.6c-0.7-0.2-1.4-0.3-2-0.5c-0.7-0.2-2.7-1.6-3.2-1.9c-0.6-0.4-1-1-1.3-1.6
			C6.5,49,6,48.4,5.2,48.3c-0.4-0.1-0.8-0.2-1.1-0.4c-0.6-0.3-1.2-0.6-1.7-1.1c-1-1.1-0.7-4.1,0.9-2.4c0.4,0.4,0.8,0.8,1.2,1.2
			c0.2,0.2,0.4,0.5,0.5,0.8c0.4,0.7,0.9,1.1,1.5,1.5c0.4,0.3,0.7,0.5,1.1,0.8c0.2,0.1,0.4,0.1,0.6-0.1C8.8,48,9,48,9.3,47.4
			c0.2-0.4,0.2-0.7,0.5-1c0.3-0.1,0.9-0.4,0.9-1c-0.1-0.6-0.6-1.4-1-2.1c-0.2-0.8,0.5-2.3,0-2.9c-0.5-0.6-1-2.7-1-3.4
			C8.5,36,8,35,7.8,34c-0.6-2.3,2.1-4.1,2.4-1.1c-0.1,2.1,0.4,3.9,1.2,5.8c0.3,0.7,0.1,2.3,1.3,2.3c3.6-0.2,0.9,1.8,2.8,2.7
			c0.8,0.4,1.1-1.5,1.9-1.3c0.5,0.1,1.1,1.4,2,1.5c0.4,0.1,0.8,0.1,1.2,0.4c1.6,1.6-1,3.7-1.3,5.4c-0.2,0.9-0.3,1.9-0.4,2.8
			c-0.1,0.6-0.3,1.2-0.8,1.7c-0.3,0.3-0.6,0.5-1.1,0.6C16.3,54.8,16,54.7,15.9,54.7z M15.3,44.8c-0.2,0.7,0.3,2.3-0.9,1.4
			c-0.4-0.3-0.8-0.3-1.2,0c-0.4,0.3-0.6,0.8-0.6,1.3c0,0.2,0,0.3,0,0.5c0.1,0.5,0.3,1,0.7,1.4c0.2,0.2,0.3,0.3,0.4,0.5
			c0.4,0.3,0.8,0.4,1.2,0.3c0.1,0,0.1-0.1,0.1-0.1c2.6-2.3,3.3-5,1.8-5.5C15.6,44.2,15.4,44.5,15.3,44.8z"></path>
		<path class="st15" d="M16,30.4c0,0.6,0,1.2-0.1,1.8c-0.1,1-0.2,2-0.3,3c-0.2,1.3-0.4,3.3-0.4,4.5c0.2,0.5-0.7-0.2-0.8-0.2
			c-1.1-0.7-0.6-1.8-0.7-3c-0.1-2.1-0.3-5,0.4-7.1C14.4,28.4,16.2,29.3,16,30.4z"></path>
		<path class="st15" d="M21.2,31.3c0.6,0,0.9,0.5,0.8,1c-0.2,0.6-0.3,1.3-0.5,1.9c-0.3,0.8-0.6,1.5-0.9,2.3
			c-0.1,0.4-1.6,4.5-2.1,3.8C18.1,40,18,39.5,18.2,39c0.8-1.4,1-3.5,1.3-5c0.2-0.7,0.4-1.3,0.6-2C20.3,31.6,20.7,31.3,21.2,31.3z"></path>
		<path class="st15" d="M22.6,41.8c0.2-0.1,3.8-2.7,3.6-1.5c-0.1,0.5-0.3,0.9-0.7,1.3c-0.5,0.5-1.1,1-1.6,1.6
			c-1,0.9-2.1,0.4-2.2-0.1C21.5,42.6,22.1,42.1,22.6,41.8z"></path>
	</g>
</g>
<g id="parcours-A">
	<polyline id="parcours-A-trace" class="st16" points="477,119 405,191 189,407 44.4,407 	"></polyline>
	<circle id="parcours-A-station-2-8" class="st17" cx="332.7" cy="263" r="9.3"></circle>
	<circle id="parcours-A-station-1-2" class="st17" cx="44.4" cy="407" r="9.3"></circle>
	<circle id="parcours-A-station-1-3" class="st17" cx="117" cy="407.3" r="9.3"></circle>
	<circle class="st2" cx="189.3" cy="406.4" r="9.3"></circle>
	<circle id="parcours-A-station-0-7" class="st17" cx="261" cy="335" r="9.3"></circle>
	<circle class="st2" cx="404.7" cy="190.7" r="9.3"></circle>
	<circle id="parcours-A-station-1-0" class="st17" cx="477" cy="118.7" r="9.3"></circle>
	<rect id="parcours-A-masque" x="450" y="74" class="st3" width="144" height="27"></rect>
	<g id="parcours-A-texte">
		<path class="st18" d="M481.1,83.7v-8.6h1.8v7.1h3.5v1.5H481.1z"></path>
		<path class="st18" d="M490.7,83.8c-1.1,0-1.9-0.3-2.5-0.9c-0.6-0.6-0.9-1.4-0.9-2.5c0-1.1,0.3-1.9,0.8-2.5
			c0.5-0.6,1.3-0.9,2.3-0.9c0.9,0,1.6,0.3,2.2,0.8c0.5,0.5,0.8,1.3,0.8,2.2v0.9h-4.2c0,0.5,0.2,0.9,0.5,1.2c0.3,0.3,0.7,0.4,1.2,0.4
			c0.4,0,0.8,0,1.1-0.1c0.4-0.1,0.7-0.2,1.1-0.4v1.4c-0.3,0.2-0.6,0.3-1,0.3C491.6,83.8,491.2,83.8,490.7,83.8z M490.4,78.3
			c-0.4,0-0.7,0.1-0.9,0.4c-0.2,0.2-0.3,0.6-0.4,1h2.5c0-0.4-0.1-0.8-0.3-1C491.1,78.4,490.8,78.3,490.4,78.3z"></path>
		<path class="st18" d="M501.6,78.5H500v5.2h-1.8v-5.2h-1v-0.9l1-0.5v-0.5c0-0.7,0.2-1.3,0.6-1.6c0.4-0.3,1-0.5,1.8-0.5
			c0.6,0,1.2,0.1,1.6,0.3l-0.5,1.3c-0.4-0.1-0.7-0.2-1-0.2c-0.3,0-0.4,0.1-0.6,0.2c-0.1,0.2-0.2,0.3-0.2,0.6v0.4h1.5V78.5z"></path>
		<path class="st18" d="M508.5,80.4c0,1.1-0.3,1.9-0.8,2.5c-0.6,0.6-1.3,0.9-2.4,0.9c-0.6,0-1.2-0.1-1.7-0.4
			c-0.5-0.3-0.9-0.7-1.1-1.2c-0.3-0.5-0.4-1.1-0.4-1.8c0-1.1,0.3-1.9,0.8-2.5s1.3-0.9,2.4-0.9c0.6,0,1.2,0.1,1.7,0.4
			c0.5,0.3,0.9,0.7,1.1,1.2C508.4,79.1,508.5,79.7,508.5,80.4z M504,80.4c0,0.6,0.1,1.1,0.3,1.5c0.2,0.3,0.6,0.5,1,0.5
			c0.5,0,0.8-0.2,1-0.5c0.2-0.3,0.3-0.8,0.3-1.5c0-0.6-0.1-1.1-0.3-1.5c-0.2-0.3-0.6-0.5-1-0.5c-0.5,0-0.8,0.2-1,0.5
			C504.1,79.3,504,79.7,504,80.4z"></path>
		<path class="st18" d="M516.1,83.7h-1.8v-3.8c0-0.5-0.1-0.8-0.3-1.1s-0.4-0.4-0.8-0.4c-0.5,0-0.9,0.2-1.1,0.5s-0.3,0.9-0.3,1.7v3.1
			H510v-6.6h1.4l0.2,0.8h0.1c0.2-0.3,0.5-0.6,0.8-0.7c0.4-0.2,0.7-0.2,1.2-0.2c0.8,0,1.3,0.2,1.7,0.6c0.4,0.4,0.6,1,0.6,1.8V83.7z"
			></path>
		<path class="st18" d="M520.6,83.8c-2,0-3.1-1.1-3.1-3.4c0-1.1,0.3-2,0.8-2.6c0.6-0.6,1.4-0.9,2.4-0.9c0.8,0,1.4,0.1,2,0.4
			l-0.5,1.4c-0.3-0.1-0.5-0.2-0.8-0.3c-0.2-0.1-0.5-0.1-0.7-0.1c-0.9,0-1.4,0.7-1.4,2c0,1.3,0.5,1.9,1.4,1.9c0.3,0,0.7,0,1-0.1
			s0.6-0.2,0.9-0.4v1.5c-0.3,0.2-0.6,0.3-0.9,0.4C521.4,83.8,521,83.8,520.6,83.8z"></path>
		<path class="st18" d="M526.9,82.4c0.3,0,0.7-0.1,1.1-0.2v1.3c-0.4,0.2-1,0.3-1.6,0.3c-0.7,0-1.2-0.2-1.6-0.5
			c-0.3-0.4-0.5-0.9-0.5-1.6v-3.2h-0.9v-0.8l1-0.6l0.5-1.4h1.1v1.4h1.8v1.3h-1.8v3.2c0,0.3,0.1,0.4,0.2,0.6
			C526.4,82.3,526.6,82.4,526.9,82.4z"></path>
		<path class="st18" d="M529.2,75.4c0-0.6,0.3-0.9,1-0.9c0.6,0,1,0.3,1,0.9c0,0.3-0.1,0.5-0.2,0.6c-0.2,0.2-0.4,0.2-0.7,0.2
			C529.6,76.3,529.2,76,529.2,75.4z M531.1,83.7h-1.8v-6.6h1.8V83.7z"></path>
		<path class="st18" d="M538.9,80.4c0,1.1-0.3,1.9-0.8,2.5c-0.6,0.6-1.3,0.9-2.4,0.9c-0.6,0-1.2-0.1-1.7-0.4
			c-0.5-0.3-0.9-0.7-1.1-1.2c-0.3-0.5-0.4-1.1-0.4-1.8c0-1.1,0.3-1.9,0.8-2.5s1.3-0.9,2.4-0.9c0.6,0,1.2,0.1,1.7,0.4
			c0.5,0.3,0.9,0.7,1.1,1.2C538.8,79.1,538.9,79.7,538.9,80.4z M534.4,80.4c0,0.6,0.1,1.1,0.3,1.5c0.2,0.3,0.6,0.5,1,0.5
			c0.5,0,0.8-0.2,1-0.5c0.2-0.3,0.3-0.8,0.3-1.5c0-0.6-0.1-1.1-0.3-1.5c-0.2-0.3-0.6-0.5-1-0.5c-0.5,0-0.8,0.2-1,0.5
			C534.5,79.3,534.4,79.7,534.4,80.4z"></path>
		<path class="st18" d="M546.5,83.7h-1.8v-3.8c0-0.5-0.1-0.8-0.3-1.1s-0.4-0.4-0.8-0.4c-0.5,0-0.9,0.2-1.1,0.5s-0.3,0.9-0.3,1.7v3.1
			h-1.8v-6.6h1.4L542,78h0.1c0.2-0.3,0.5-0.6,0.8-0.7c0.4-0.2,0.7-0.2,1.2-0.2c0.8,0,1.3,0.2,1.7,0.6c0.4,0.4,0.6,1,0.6,1.8V83.7z"
			></path>
		<path class="st18" d="M554.4,83.7h-1.8v-3.8c0-0.5-0.1-0.8-0.3-1.1s-0.4-0.4-0.8-0.4c-0.5,0-0.9,0.2-1.1,0.5
			c-0.2,0.3-0.3,0.9-0.3,1.7v3.1h-1.8v-6.6h1.4l0.2,0.8h0.1c0.2-0.3,0.5-0.6,0.8-0.7c0.4-0.2,0.7-0.2,1.2-0.2c0.8,0,1.3,0.2,1.7,0.6
			s0.6,1,0.6,1.8V83.7z"></path>
		<path class="st18" d="M559.2,83.8c-1.1,0-1.9-0.3-2.5-0.9s-0.9-1.4-0.9-2.5c0-1.1,0.3-1.9,0.8-2.5c0.5-0.6,1.3-0.9,2.3-0.9
			c0.9,0,1.6,0.3,2.2,0.8c0.5,0.5,0.8,1.3,0.8,2.2v0.9h-4.2c0,0.5,0.2,0.9,0.5,1.2c0.3,0.3,0.7,0.4,1.2,0.4c0.4,0,0.8,0,1.1-0.1
			c0.4-0.1,0.7-0.2,1.1-0.4v1.4c-0.3,0.2-0.6,0.3-1,0.3S559.7,83.8,559.2,83.8z M558.9,78.3c-0.4,0-0.7,0.1-0.9,0.4
			c-0.2,0.2-0.3,0.6-0.4,1h2.5c0-0.4-0.1-0.8-0.3-1C559.6,78.4,559.3,78.3,558.9,78.3z"></path>
		<path class="st18" d="M569.2,83.7h-1.8v-3.8c0-0.5-0.1-0.8-0.2-1.1c-0.2-0.2-0.4-0.4-0.7-0.4c-0.5,0-0.8,0.2-1,0.5
			c-0.2,0.3-0.3,0.9-0.3,1.7v3.1h-1.8v-6.6h1.4l0.2,0.8h0.1c0.2-0.3,0.4-0.5,0.8-0.7c0.3-0.2,0.7-0.3,1.1-0.3c1,0,1.6,0.3,2,1h0.2
			c0.2-0.3,0.4-0.5,0.8-0.7c0.3-0.2,0.7-0.3,1.2-0.3c0.7,0,1.3,0.2,1.7,0.6c0.4,0.4,0.6,1,0.6,1.8v4.3h-1.8v-3.8
			c0-0.5-0.1-0.8-0.2-1.1c-0.2-0.2-0.4-0.4-0.7-0.4c-0.4,0-0.8,0.2-1,0.5c-0.2,0.3-0.3,0.8-0.3,1.5V83.7z"></path>
		<path class="st18" d="M578.1,83.8c-1.1,0-1.9-0.3-2.5-0.9s-0.9-1.4-0.9-2.5c0-1.1,0.3-1.9,0.8-2.5c0.5-0.6,1.3-0.9,2.3-0.9
			c0.9,0,1.6,0.3,2.2,0.8c0.5,0.5,0.8,1.3,0.8,2.2v0.9h-4.2c0,0.5,0.2,0.9,0.5,1.2c0.3,0.3,0.7,0.4,1.2,0.4c0.4,0,0.8,0,1.1-0.1
			s0.7-0.2,1.1-0.4v1.4c-0.3,0.2-0.6,0.3-1,0.3C579,83.8,578.6,83.8,578.1,83.8z M577.8,78.3c-0.4,0-0.7,0.1-0.9,0.4
			c-0.2,0.2-0.3,0.6-0.4,1h2.5c0-0.4-0.1-0.8-0.3-1C578.5,78.4,578.2,78.3,577.8,78.3z"></path>
		<path class="st18" d="M588.3,83.7h-1.8v-3.8c0-0.5-0.1-0.8-0.3-1.1s-0.4-0.4-0.8-0.4c-0.5,0-0.9,0.2-1.1,0.5s-0.3,0.9-0.3,1.7v3.1
			h-1.8v-6.6h1.4l0.2,0.8h0.1c0.2-0.3,0.5-0.6,0.8-0.7c0.4-0.2,0.7-0.2,1.2-0.2c0.8,0,1.3,0.2,1.7,0.6s0.6,1,0.6,1.8V83.7z"></path>
		<path class="st18" d="M592.9,82.4c0.3,0,0.7-0.1,1.1-0.2v1.3c-0.4,0.2-1,0.3-1.6,0.3c-0.7,0-1.2-0.2-1.6-0.5
			c-0.3-0.4-0.5-0.9-0.5-1.6v-3.2h-0.9v-0.8l1-0.6l0.5-1.4h1.1v1.4h1.8v1.3h-1.8v3.2c0,0.3,0.1,0.4,0.2,0.6
			C592.5,82.3,592.7,82.4,592.9,82.4z"></path>
		<path class="st18" d="M483,98.2c-0.8,0-1.4-0.3-1.8-0.9s-0.7-1.4-0.7-2.5c0-1.1,0.2-1.9,0.7-2.5s1.1-0.9,1.9-0.9
			c0.8,0,1.5,0.3,1.9,1h0.1c-0.1-0.5-0.1-0.9-0.1-1.3V89h1.8v9.1h-1.4l-0.3-0.9h-0.1C484.4,97.9,483.8,98.2,483,98.2z M483.6,96.8
			c0.5,0,0.8-0.1,1-0.4s0.3-0.7,0.3-1.4v-0.2c0-0.7-0.1-1.2-0.3-1.5c-0.2-0.3-0.6-0.5-1.1-0.5c-0.4,0-0.7,0.2-0.9,0.5
			c-0.2,0.3-0.3,0.8-0.3,1.5s0.1,1.1,0.3,1.5C482.9,96.6,483.2,96.8,483.6,96.8z"></path>
		<path class="st18" d="M491.5,98.2c-1.1,0-1.9-0.3-2.5-0.9c-0.6-0.6-0.9-1.4-0.9-2.5c0-1.1,0.3-1.9,0.8-2.5
			c0.5-0.6,1.3-0.9,2.3-0.9c0.9,0,1.6,0.3,2.2,0.8c0.5,0.5,0.8,1.3,0.8,2.2v0.9h-4.2c0,0.5,0.2,0.9,0.5,1.2c0.3,0.3,0.7,0.4,1.2,0.4
			c0.4,0,0.8,0,1.1-0.1c0.4-0.1,0.7-0.2,1.1-0.4v1.4c-0.3,0.2-0.6,0.3-1,0.3S492,98.2,491.5,98.2z M491.2,92.7
			c-0.4,0-0.7,0.1-0.9,0.4c-0.2,0.2-0.3,0.6-0.4,1h2.5c0-0.4-0.1-0.8-0.3-1C491.9,92.8,491.6,92.7,491.2,92.7z"></path>
		<path class="st18" d="M500.2,96.2c0,0.7-0.2,1.2-0.7,1.5c-0.5,0.4-1.2,0.5-2.1,0.5c-0.5,0-0.9,0-1.2-0.1c-0.3-0.1-0.7-0.2-0.9-0.3
			v-1.5c0.3,0.2,0.7,0.3,1.1,0.4c0.4,0.1,0.8,0.2,1.1,0.2c0.6,0,1-0.2,1-0.6c0-0.1,0-0.3-0.1-0.3c-0.1-0.1-0.2-0.2-0.4-0.3
			c-0.2-0.1-0.5-0.2-0.8-0.4c-0.5-0.2-0.9-0.4-1.1-0.6c-0.2-0.2-0.4-0.4-0.5-0.6c-0.1-0.2-0.2-0.5-0.2-0.9c0-0.6,0.2-1,0.7-1.4
			c0.5-0.3,1.1-0.5,1.9-0.5c0.8,0,1.6,0.2,2.3,0.5l-0.5,1.3c-0.3-0.1-0.6-0.3-0.9-0.3c-0.3-0.1-0.6-0.1-0.9-0.1
			c-0.5,0-0.8,0.1-0.8,0.4c0,0.2,0.1,0.3,0.3,0.4c0.2,0.1,0.5,0.3,1.1,0.5c0.5,0.2,0.9,0.4,1.1,0.6c0.2,0.2,0.4,0.4,0.5,0.6
			C500.1,95.6,500.2,95.8,500.2,96.2z"></path>
		<path class="st18" d="M506.5,98.1h-1.8V89h1.8V98.1z"></path>
		<path class="st18" d="M512.6,98.1l-0.3-0.9h0c-0.3,0.4-0.6,0.6-0.9,0.8c-0.3,0.1-0.7,0.2-1.2,0.2c-0.6,0-1.1-0.2-1.5-0.5
			c-0.4-0.4-0.5-0.9-0.5-1.5c0-0.7,0.2-1.2,0.7-1.5c0.5-0.3,1.2-0.5,2.2-0.5l1.1,0v-0.3c0-0.7-0.3-1-1-1c-0.5,0-1.1,0.2-1.8,0.5
			l-0.6-1.2c0.8-0.4,1.6-0.6,2.5-0.6c0.9,0,1.6,0.2,2,0.6c0.5,0.4,0.7,1,0.7,1.7v4.4H512.6z M512,95.1l-0.7,0
			c-0.5,0-0.9,0.1-1.2,0.3s-0.4,0.4-0.4,0.8c0,0.5,0.3,0.8,0.9,0.8c0.4,0,0.7-0.1,1-0.4c0.2-0.2,0.4-0.6,0.4-1V95.1z"></path>
		<path class="st18" d="M521.7,98.1h-1.8v-3.8c0-0.5-0.1-0.8-0.3-1.1s-0.4-0.4-0.8-0.4c-0.5,0-0.9,0.2-1.1,0.5s-0.3,0.9-0.3,1.7v3.1
			h-1.8v-6.6h1.4l0.2,0.8h0.1c0.2-0.3,0.5-0.6,0.8-0.7c0.4-0.2,0.7-0.2,1.2-0.2c0.8,0,1.3,0.2,1.7,0.6c0.4,0.4,0.6,1,0.6,1.8V98.1z"
			></path>
		<path class="st18" d="M529.3,91.6v0.9l-1,0.3c0.2,0.3,0.3,0.6,0.3,1c0,0.7-0.2,1.3-0.7,1.6c-0.5,0.4-1.2,0.6-2,0.6l-0.3,0l-0.3,0
			c-0.2,0.1-0.3,0.3-0.3,0.5c0,0.3,0.3,0.4,1,0.4h1.1c0.7,0,1.3,0.2,1.6,0.5c0.4,0.3,0.6,0.8,0.6,1.4c0,0.8-0.3,1.4-1,1.8
			c-0.6,0.4-1.6,0.6-2.8,0.6c-0.9,0-1.6-0.2-2.1-0.5c-0.5-0.3-0.7-0.8-0.7-1.3c0-0.4,0.1-0.7,0.4-1s0.6-0.5,1.1-0.6
			c-0.2-0.1-0.3-0.2-0.5-0.4c-0.1-0.2-0.2-0.4-0.2-0.6c0-0.3,0.1-0.5,0.2-0.6c0.1-0.2,0.4-0.3,0.6-0.5c-0.3-0.1-0.6-0.4-0.8-0.7
			c-0.2-0.3-0.3-0.7-0.3-1.2c0-0.7,0.2-1.3,0.7-1.7c0.5-0.4,1.1-0.6,2-0.6c0.2,0,0.4,0,0.7,0c0.3,0,0.4,0.1,0.5,0.1H529.3z
			 M524.2,99c0,0.2,0.1,0.4,0.4,0.6c0.2,0.1,0.6,0.2,1,0.2c0.6,0,1.1-0.1,1.5-0.3c0.4-0.2,0.5-0.4,0.5-0.7c0-0.2-0.1-0.4-0.3-0.5
			c-0.2-0.1-0.5-0.1-1-0.1h-0.9c-0.3,0-0.6,0.1-0.8,0.2C524.3,98.6,524.2,98.8,524.2,99z M524.8,93.7c0,0.4,0.1,0.6,0.2,0.8
			c0.2,0.2,0.4,0.3,0.7,0.3c0.3,0,0.6-0.1,0.7-0.3c0.2-0.2,0.2-0.5,0.2-0.8c0-0.8-0.3-1.2-1-1.2C525.2,92.5,524.8,92.9,524.8,93.7z"
			></path>
		<path class="st18" d="M535,98.1l-0.2-0.8h-0.1c-0.2,0.3-0.5,0.5-0.8,0.7c-0.4,0.2-0.8,0.2-1.2,0.2c-0.8,0-1.4-0.2-1.7-0.6
			s-0.6-1-0.6-1.8v-4.3h1.8v3.8c0,0.5,0.1,0.8,0.3,1.1s0.4,0.4,0.8,0.4c0.5,0,0.9-0.2,1.1-0.5c0.2-0.3,0.3-0.9,0.3-1.7v-3.1h1.8v6.6
			H535z"></path>
		<path class="st18" d="M541.2,98.2c-1.1,0-1.9-0.3-2.5-0.9c-0.6-0.6-0.9-1.4-0.9-2.5c0-1.1,0.3-1.9,0.8-2.5
			c0.5-0.6,1.3-0.9,2.3-0.9c0.9,0,1.6,0.3,2.2,0.8c0.5,0.5,0.8,1.3,0.8,2.2v0.9h-4.2c0,0.5,0.2,0.9,0.5,1.2c0.3,0.3,0.7,0.4,1.2,0.4
			c0.4,0,0.8,0,1.1-0.1s0.7-0.2,1.1-0.4v1.4c-0.3,0.2-0.6,0.3-1,0.3S541.7,98.2,541.2,98.2z M541,92.7c-0.4,0-0.7,0.1-0.9,0.4
			c-0.2,0.2-0.3,0.6-0.4,1h2.5c0-0.4-0.1-0.8-0.3-1C541.6,92.8,541.3,92.7,541,92.7z"></path>
		<path class="st18" d="M549.9,96.2c0,0.7-0.2,1.2-0.7,1.5c-0.5,0.4-1.2,0.5-2.1,0.5c-0.5,0-0.9,0-1.2-0.1c-0.3-0.1-0.7-0.2-0.9-0.3
			v-1.5c0.3,0.2,0.7,0.3,1.1,0.4c0.4,0.1,0.8,0.2,1.1,0.2c0.6,0,1-0.2,1-0.6c0-0.1,0-0.3-0.1-0.3c-0.1-0.1-0.2-0.2-0.4-0.3
			c-0.2-0.1-0.5-0.2-0.8-0.4c-0.5-0.2-0.9-0.4-1.1-0.6c-0.2-0.2-0.4-0.4-0.5-0.6c-0.1-0.2-0.2-0.5-0.2-0.9c0-0.6,0.2-1,0.7-1.4
			c0.5-0.3,1.1-0.5,1.9-0.5c0.8,0,1.6,0.2,2.3,0.5l-0.5,1.3c-0.3-0.1-0.6-0.3-0.9-0.3c-0.3-0.1-0.6-0.1-0.9-0.1
			c-0.5,0-0.8,0.1-0.8,0.4c0,0.2,0.1,0.3,0.3,0.4c0.2,0.1,0.5,0.3,1.1,0.5c0.5,0.2,0.9,0.4,1.1,0.6s0.4,0.4,0.5,0.6
			S549.9,95.8,549.9,96.2z"></path>
	</g>
	<g id="parcours-A-icone">
		<path class="st18" d="M457.3,79.4c-1.7,0-3,1.4-3,3c0,1.7,1.4,3,3,3c1.7,0,3-1.4,3-3C460.3,80.7,459,79.4,457.3,79.4z M463.4,84.1
			l-0.5,1.3l1,1.9l0.1,0.3l-1.4,1.4l-2.2-1l-1.3,0.5l-0.7,2l-0.1,0.3h-1.9l-0.8-2.3l-1.3-0.5l-1.9,1l-0.3,0.1l-1.3-1.3l1-2.2
			l-0.5-1.3l-2-0.7l-0.3-0.1v-1.9l2.3-0.8l0.5-1.3l-1-1.9l-0.1-0.3l1.3-1.3l2.2,1l1.3-0.5l0.7-2l0.1-0.3h1.9l0.8,2.3l1.3,0.5l1.9-1
			l0.3-0.1l1.3,1.3l-1,2.2l0.5,1.3l2,0.7l0.3,0.1v1.9L463.4,84.1z"></path>
		<path class="st18" d="M468.6,90.9c-1.2-0.6-2.7-0.1-3.3,1.1c-0.6,1.2-0.1,2.7,1.1,3.3c1.2,0.6,2.7,0.1,3.3-1.1
			C470.3,93,469.9,91.5,468.6,90.9z M471.3,96.5l-0.9,0.8l0,1.7l0,0.2l-1.5,0.5l-1.2-1.6l-1.1-0.1l-1.2,1.2l-0.2,0.2l-1.4-0.7l0.2-2
			l-0.8-0.9l-1.7,0l-0.2,0l-0.5-1.5l1.6-1.2l0.1-1.1l-1.2-1.2l-0.2-0.2l0.7-1.4l2,0.2l0.9-0.8l0-1.7l0-0.2l1.5-0.5l1.2,1.6l1.1,0.1
			l1.2-1.2l0.2-0.2l1.4,0.7l-0.2,2l0.8,0.9l1.7,0l0.2,0l0.5,1.5l-1.6,1.2l-0.1,1.1l1.2,1.2l0.2,0.2l-0.7,1.4L471.3,96.5z"></path>
	</g>
</g>
</svg>
