<?xml version="1.0" encoding="utf-8"?>
<!-- Generator: Adobe Illustrator 20.1.0, SVG Export Plug-In . SVG Version: 6.00 Build 0)  -->
<svg version="1.1" id="Calque_1" xmlns="http://www.w3.org/2000/svg" xmlns:xlink="http://www.w3.org/1999/xlink" x="0px" y="0px"
	 viewBox="0 0 648 504" style="enable-background:new 0 0 648 504;" xml:space="preserve">
<style type="text/css">
	.st0{fill:none;stroke:#F8AF3C;stroke-width:5;stroke-miterlimit:10;}
	.st1{fill:#F8AF3C;}
	.st2{fill:#FFFFFF;stroke:#000000;stroke-width:3;stroke-miterlimit:10;}
	.st3{fill:none;stroke:#6874B7;stroke-width:5;stroke-miterlimit:10;}
	.st4{fill:#6874B7;}
	.st5{fill:#83589F;stroke:#83589F;stroke-width:5;stroke-miterlimit:10;}
	.st6{fill:#83589F;}
	.st7{fill:none;stroke:#73BF44;stroke-width:5;stroke-miterlimit:10;}
	.st8{fill:#73BF44;}
	.st9{fill:none;stroke:#FF7BAC;stroke-width:5;stroke-miterlimit:10;}
	.st10{fill:#FF7BAC;}
	.st11{fill:#FFFFFF;}
	.st12{fill:#ED7AA9;}
	.st13{fill:none;stroke:#C0282D;stroke-width:5;stroke-miterlimit:10;}
	.st14{fill:#C0282D;}
	.st15{fill:none;stroke:#29ABE2;stroke-width:5;stroke-miterlimit:10;}
	.st16{fill:#29ABE2;}
	.st17{fill:#3EB9EB;}
</style>
<g id="parcours-G">
	<polyline id="parcours-G-trace" class="st0" points="288,288 144,144 72,144"></polyline><circle id="parcours-G-station-2-0" class="st1" cx="287.7" cy="288" r="9.3"></circle>
	<circle id="parcours-G-station-0-3" class="st2" cx="216.3" cy="216.9" r="9.3"></circle>
	<circle id="parcours-G-station-0-5" class="st1" cx="143.7" cy="144.9" r="9.3"></circle>
	<circle id="parcours-G-station-3-3" class="st1" cx="71.7" cy="144" r="9.3"></circle>
	<g id="parcours-G-texte">
		<path class="st1" d="M60.9,106.9v-8.6h1.8v7.1h3.5v1.5H60.9z"></path>
		<path class="st1" d="M70.5,107.1c-1.1,0-1.9-0.3-2.5-0.9s-0.9-1.4-0.9-2.5s0.3-1.9,0.8-2.5s1.3-0.9,2.3-0.9c0.9,0,1.6,0.3,2.2,0.8
			c0.5,0.5,0.8,1.3,0.8,2.2v0.9H69c0,0.5,0.2,0.9,0.5,1.2c0.3,0.3,0.7,0.4,1.2,0.4c0.4,0,0.8,0,1.1-0.1c0.4-0.1,0.7-0.2,1.1-0.4v1.4
			c-0.3,0.2-0.6,0.3-1,0.3C71.4,107,71,107.1,70.5,107.1z M70.2,101.5c-0.4,0-0.7,0.1-0.9,0.4c-0.2,0.2-0.3,0.6-0.4,1h2.5
							 c0-0.4-0.1-0.8-0.3-1C70.9,101.7,70.6,101.5,70.2,101.5z"></path>
		<path class="st1" d="M79.2,105c0,0.7-0.2,1.2-0.7,1.5c-0.5,0.4-1.2,0.5-2.1,0.5c-0.5,0-0.9,0-1.2-0.1c-0.3-0.1-0.7-0.2-0.9-0.3
			v-1.5c0.3,0.2,0.7,0.3,1.1,0.4s0.8,0.2,1.1,0.2c0.6,0,1-0.2,1-0.6c0-0.1,0-0.3-0.1-0.3c-0.1-0.1-0.2-0.2-0.4-0.3
			c-0.2-0.1-0.5-0.2-0.8-0.4c-0.5-0.2-0.9-0.4-1.1-0.6s-0.4-0.4-0.5-0.6s-0.2-0.5-0.2-0.9c0-0.6,0.2-1,0.7-1.4
			c0.5-0.3,1.1-0.5,1.9-0.5s1.6,0.2,2.3,0.5l-0.5,1.3c-0.3-0.1-0.6-0.3-0.9-0.3c-0.3-0.1-0.6-0.1-0.9-0.1c-0.5,0-0.8,0.1-0.8,0.4
							 c0,0.2,0.1,0.3,0.3,0.4c0.2,0.1,0.5,0.3,1.1,0.5c0.5,0.2,0.9,0.4,1.1,0.6s0.4,0.4,0.5,0.6S79.2,104.7,79.2,105z"></path>
			<path class="st1" d="M85.5,106.9h-1.8v-9.1h1.8V106.9z"></path>
		<path class="st1" d="M91.6,106.9l-0.3-0.9l0,0c-0.3,0.4-0.6,0.6-0.9,0.8c-0.3,0.1-0.7,0.2-1.2,0.2c-0.6,0-1.1-0.2-1.5-0.5
			c-0.4-0.4-0.5-0.9-0.5-1.5c0-0.7,0.2-1.2,0.7-1.5s1.2-0.5,2.2-0.5h1.1v-0.3c0-0.7-0.3-1-1-1c-0.5,0-1.1,0.2-1.8,0.5l-0.6-1.2
			c0.8-0.4,1.6-0.6,2.5-0.6s1.6,0.2,2,0.6c0.5,0.4,0.7,1,0.7,1.7v4.4h-1.4V106.9z M91,103.9h-0.7c-0.5,0-0.9,0.1-1.2,0.3
							 s-0.4,0.4-0.4,0.8c0,0.5,0.3,0.8,0.9,0.8c0.4,0,0.7-0.1,1-0.4c0.2-0.2,0.4-0.6,0.4-1C91,104.4,91,103.9,91,103.9z"></path>
		<path class="st1" d="M100.7,106.9h-1.8v-3.8c0-0.5-0.1-0.8-0.3-1.1c-0.2-0.2-0.4-0.4-0.8-0.4c-0.5,0-0.9,0.2-1.1,0.5
			s-0.3,0.9-0.3,1.7v3.1h-1.8v-6.6H96l0.2,0.8h0.1c0.2-0.3,0.5-0.6,0.8-0.7c0.4-0.2,0.7-0.2,1.2-0.2c0.8,0,1.3,0.2,1.7,0.6
							 c0.4,0.4,0.6,1,0.6,1.8v4.3H100.7z"></path>
		<path class="st1" d="M108.3,100.4v0.9l-1,0.3c0.2,0.3,0.3,0.6,0.3,1c0,0.7-0.2,1.3-0.7,1.6c-0.5,0.4-1.2,0.6-2,0.6h-0.3h-0.3
			c-0.2,0.1-0.3,0.3-0.3,0.5c0,0.3,0.3,0.4,1,0.4h1.1c0.7,0,1.3,0.2,1.6,0.5c0.4,0.3,0.6,0.8,0.6,1.4c0,0.8-0.3,1.4-1,1.8
			c-0.6,0.4-1.6,0.6-2.8,0.6c-0.9,0-1.6-0.2-2.1-0.5s-0.7-0.8-0.7-1.3c0-0.4,0.1-0.7,0.4-1c0.2-0.3,0.6-0.5,1.1-0.6
			c-0.2-0.1-0.3-0.2-0.5-0.4c-0.1-0.2-0.2-0.4-0.2-0.6c0-0.3,0.1-0.5,0.2-0.6c0.1-0.2,0.4-0.3,0.6-0.5c-0.3-0.1-0.6-0.4-0.8-0.7
			c-0.2-0.3-0.3-0.7-0.3-1.2c0-0.7,0.2-1.3,0.7-1.7c0.5-0.4,1.1-0.6,2-0.6c0.2,0,0.4,0,0.7,0c0.3,0,0.4,0.1,0.5,0.1L108.3,100.4
			L108.3,100.4z M103.2,107.9c0,0.2,0.1,0.4,0.4,0.6c0.2,0.1,0.6,0.2,1,0.2c0.6,0,1.1-0.1,1.5-0.3c0.4-0.2,0.5-0.4,0.5-0.7
			c0-0.2-0.1-0.4-0.3-0.5c-0.2-0.1-0.5-0.1-1-0.1h-0.9c-0.3,0-0.6,0.1-0.8,0.2C103.3,107.4,103.2,107.6,103.2,107.9z M103.8,102.5
			c0,0.4,0.1,0.6,0.2,0.8c0.2,0.2,0.4,0.3,0.7,0.3c0.3,0,0.6-0.1,0.7-0.3c0.2-0.2,0.2-0.5,0.2-0.8c0-0.8-0.3-1.2-1-1.2
							 C104.2,101.4,103.8,101.7,103.8,102.5z"></path>
		<path class="st1" d="M114,106.9l-0.2-0.8h-0.1c-0.2,0.3-0.5,0.5-0.8,0.7c-0.4,0.2-0.8,0.2-1.2,0.2c-0.8,0-1.4-0.2-1.7-0.6
			c-0.4-0.4-0.6-1-0.6-1.8v-4.3h1.8v3.8c0,0.5,0.1,0.8,0.3,1.1c0.2,0.2,0.4,0.4,0.8,0.4c0.5,0,0.9-0.2,1.1-0.5s0.3-0.9,0.3-1.7v-3.1
							 h1.8v6.6C115.5,106.9,114,106.9,114,106.9z"></path>
		<path class="st1" d="M120.2,107.1c-1.1,0-1.9-0.3-2.5-0.9s-0.9-1.4-0.9-2.5s0.3-1.9,0.8-2.5s1.3-0.9,2.3-0.9
			c0.9,0,1.6,0.3,2.2,0.8c0.5,0.5,0.8,1.3,0.8,2.2v0.9h-4.2c0,0.5,0.2,0.9,0.5,1.2c0.3,0.3,0.7,0.4,1.2,0.4c0.4,0,0.8,0,1.1-0.1
			c0.4-0.1,0.7-0.2,1.1-0.4v1.4c-0.3,0.2-0.6,0.3-1,0.3S120.7,107.1,120.2,107.1z M120,101.5c-0.4,0-0.7,0.1-0.9,0.4
							 c-0.2,0.2-0.3,0.6-0.4,1h2.5c0-0.4-0.1-0.8-0.3-1C120.6,101.7,120.3,101.5,120,101.5z"></path>
		<path class="st1" d="M128.9,105c0,0.7-0.2,1.2-0.7,1.5c-0.5,0.4-1.2,0.5-2.1,0.5c-0.5,0-0.9,0-1.2-0.1c-0.3-0.1-0.7-0.2-0.9-0.3
			v-1.5c0.3,0.2,0.7,0.3,1.1,0.4s0.8,0.2,1.1,0.2c0.6,0,1-0.2,1-0.6c0-0.1,0-0.3-0.1-0.3c-0.1-0.1-0.2-0.2-0.4-0.3
			c-0.2-0.1-0.5-0.2-0.8-0.4c-0.5-0.2-0.9-0.4-1.1-0.6s-0.4-0.4-0.5-0.6s-0.2-0.5-0.2-0.9c0-0.6,0.2-1,0.7-1.4
			c0.5-0.3,1.1-0.5,1.9-0.5s1.6,0.2,2.3,0.5l-0.5,1.3c-0.3-0.1-0.6-0.3-0.9-0.3c-0.3-0.1-0.6-0.1-0.9-0.1c-0.5,0-0.8,0.1-0.8,0.4
							 c0,0.2,0.1,0.3,0.3,0.4c0.2,0.1,0.5,0.3,1.1,0.5c0.5,0.2,0.9,0.4,1.1,0.6s0.4,0.4,0.5,0.6S128.9,104.7,128.9,105z"></path>
		<path class="st1" d="M62.8,121.5c-0.8,0-1.4-0.3-1.8-0.9c-0.4-0.6-0.7-1.4-0.7-2.5s0.2-1.9,0.7-2.5c0.4-0.6,1.1-0.9,1.9-0.9
			c0.8,0,1.5,0.3,1.9,1h0.1c-0.1-0.5-0.1-0.9-0.1-1.3v-2.1h1.8v9.1h-1.4l-0.3-0.9h-0.1C64.3,121.2,63.6,121.5,62.8,121.5z
			 M63.4,120.1c0.5,0,0.8-0.1,1-0.4s0.3-0.7,0.3-1.4v-0.2c0-0.7-0.1-1.2-0.3-1.5c-0.2-0.3-0.6-0.5-1.1-0.5c-0.4,0-0.7,0.2-0.9,0.5
			s-0.3,0.8-0.3,1.5s0.1,1.1,0.3,1.5C62.7,119.9,63,120.1,63.4,120.1z"></path>
		<path class="st1" d="M72.5,121.4l-0.3-0.9l0,0c-0.3,0.4-0.6,0.6-0.9,0.8c-0.3,0.1-0.7,0.2-1.2,0.2c-0.6,0-1.1-0.2-1.5-0.5
			c-0.4-0.4-0.5-0.9-0.5-1.5c0-0.7,0.2-1.2,0.7-1.5s1.2-0.5,2.2-0.5h1.1V117c0-0.7-0.3-1-1-1c-0.5,0-1.1,0.2-1.8,0.5l-0.6-1.2
			c0.8-0.4,1.6-0.6,2.5-0.6s1.6,0.2,2,0.6c0.5,0.4,0.7,1,0.7,1.7v4.4H72.5z M72,118.3h-0.7c-0.5,0-0.9,0.1-1.2,0.3
							 c-0.3,0.2-0.4,0.4-0.4,0.8c0,0.5,0.3,0.8,0.9,0.8c0.4,0,0.7-0.1,1-0.4c0.2-0.2,0.4-0.6,0.4-1C72,118.8,72,118.3,72,118.3z"></path>
		<path class="st1" d="M81.7,121.4h-1.8v-3.8c0-0.5-0.1-0.8-0.3-1.1c-0.2-0.2-0.4-0.4-0.8-0.4c-0.5,0-0.9,0.2-1.1,0.5
			s-0.3,0.9-0.3,1.7v3.1h-1.8v-6.6H77l0.2,0.8h0.1c0.2-0.3,0.5-0.6,0.8-0.7c0.4-0.2,0.7-0.2,1.2-0.2c0.8,0,1.3,0.2,1.7,0.6
							 c0.4,0.4,0.6,1,0.6,1.8v4.3H81.7z"></path>
		<path class="st1" d="M88.1,119.4c0,0.7-0.2,1.2-0.7,1.5c-0.5,0.4-1.2,0.5-2.1,0.5c-0.5,0-0.9,0-1.2-0.1c-0.3-0.1-0.7-0.2-0.9-0.3
			v-1.5c0.3,0.2,0.7,0.3,1.1,0.4s0.8,0.2,1.1,0.2c0.6,0,1-0.2,1-0.6c0-0.1,0-0.3-0.1-0.3c-0.1-0.1-0.2-0.2-0.4-0.3
			c-0.2-0.1-0.5-0.2-0.8-0.4c-0.5-0.2-0.9-0.4-1.1-0.6s-0.4-0.4-0.5-0.6s-0.2-0.5-0.2-0.9c0-0.6,0.2-1,0.7-1.4
			c0.5-0.3,1.1-0.5,1.9-0.5s1.6,0.2,2.3,0.5l-0.5,1.3c-0.3-0.1-0.6-0.3-0.9-0.3s-0.8,0-1.1,0c-0.5,0-0.8,0.1-0.8,0.4
							 c0,0.2,0.1,0.3,0.3,0.4c0.2,0.1,0.5,0.3,1.1,0.5c0.5,0.2,0.9,0.4,1.1,0.6s0.4,0.4,0.5,0.6C88,118.8,88.1,119.1,88.1,119.4z"></path>
		<path class="st1" d="M94.4,121.4h-1.8v-9.1h1.8V121.4z"></path>
		<path class="st1" d="M99.2,121.5c-1.1,0-1.9-0.3-2.5-0.9s-0.9-1.4-0.9-2.5s0.3-1.9,0.8-2.5s1.3-0.9,2.3-0.9c0.9,0,1.6,0.3,2.2,0.8
			c0.5,0.5,0.8,1.3,0.8,2.2v0.9h-4.2c0,0.5,0.2,0.9,0.5,1.2c0.3,0.3,0.7,0.4,1.2,0.4c0.4,0,0.8,0,1.1-0.1c0.4-0.1,0.7-0.2,1.1-0.4
			v1.4c-0.3,0.2-0.6,0.3-1,0.3C100.2,121.5,99.7,121.5,99.2,121.5z M99,116c-0.4,0-0.7,0.1-0.9,0.4c-0.2,0.2-0.3,0.6-0.4,1h2.5
							 c0-0.4-0.1-0.8-0.3-1C99.7,116.1,99.4,116,99,116z"></path>
		<path class="st1" d="M112.4,121.4h-1.8v-3.8c0-0.5-0.1-0.8-0.2-1.1c-0.2-0.2-0.4-0.4-0.7-0.4c-0.5,0-0.8,0.2-1,0.5
			s-0.3,0.9-0.3,1.7v3.1h-1.8v-6.6h1.4l0.2,0.8h0.1c0.2-0.3,0.4-0.5,0.8-0.7c0.3-0.2,0.7-0.3,1.1-0.3c1,0,1.6,0.3,2,1h0.2
			c0.2-0.3,0.4-0.5,0.8-0.7c0.3-0.2,0.7-0.3,1.2-0.3c0.7,0,1.3,0.2,1.7,0.6c0.4,0.4,0.6,1,0.6,1.8v4.3h-1.8v-3.8
							 c0-0.5-0.1-0.8-0.2-1.1c-0.2-0.2-0.4-0.4-0.7-0.4c-0.4,0-0.8,0.2-1,0.5s-0.3,0.8-0.3,1.5v3.4H112.4z"></path>	<path class="st1" d="M124.3,118.1c0,1.1-0.3,1.9-0.8,2.5s-1.3,0.9-2.4,0.9c-0.6,0-1.2-0.1-1.7-0.4s-0.9-0.7-1.1-1.2
			s-0.4-1.1-0.4-1.8c0-1.1,0.3-1.9,0.8-2.5c0.6-0.6,1.3-0.9,2.4-0.9c0.6,0,1.2,0.1,1.7,0.4s0.9,0.7,1.1,1.2S124.3,117.4,124.3,118.1
			z M119.7,118.1c0,0.6,0.1,1.1,0.3,1.5c0.2,0.3,0.6,0.5,1,0.5c0.5,0,0.8-0.2,1-0.5s0.3-0.8,0.3-1.5c0-0.6-0.1-1.1-0.3-1.5
			c-0.2-0.3-0.6-0.5-1-0.5c-0.5,0-0.8,0.2-1,0.5S119.7,117.4,119.7,118.1z"></path>	<path class="st1" d="M131.8,121.4H130v-3.8c0-0.5-0.1-0.8-0.3-1.1c-0.2-0.2-0.4-0.4-0.8-0.4c-0.5,0-0.9,0.2-1.1,0.5
			s-0.3,0.9-0.3,1.7v3.1h-1.8v-6.6h1.4l0.2,0.8h0.1c0.2-0.3,0.5-0.6,0.8-0.7c0.4-0.2,0.7-0.2,1.2-0.2c0.8,0,1.3,0.2,1.7,0.6
			s0.6,1,0.6,1.8v4.3H131.8z"></path>
		<path class="st1" d="M135.7,121.5c-0.8,0-1.4-0.3-1.8-0.9c-0.4-0.6-0.7-1.4-0.7-2.5s0.2-1.9,0.7-2.5c0.4-0.6,1.1-0.9,1.9-0.9
			c0.8,0,1.5,0.3,1.9,1h0.1c-0.1-0.5-0.1-0.9-0.1-1.3v-2.1h1.8v9.1H138l-0.3-0.9h-0.1C137.2,121.2,136.5,121.5,135.7,121.5z
			 M136.3,120.1c0.5,0,0.8-0.1,1-0.4s0.3-0.7,0.3-1.4v-0.2c0-0.7-0.1-1.2-0.3-1.5s-0.6-0.5-1.1-0.5c-0.4,0-0.7,0.2-0.9,0.5
			s-0.3,0.8-0.3,1.5s0.1,1.1,0.3,1.5C135.6,119.9,135.9,120.1,136.3,120.1z"></path>
		<path class="st1" d="M144.2,121.5c-1.1,0-1.9-0.3-2.5-0.9s-0.9-1.4-0.9-2.5s0.3-1.9,0.8-2.5s1.3-0.9,2.3-0.9
			c0.9,0,1.6,0.3,2.2,0.8c0.5,0.5,0.8,1.3,0.8,2.2v0.9h-4.2c0,0.5,0.2,0.9,0.5,1.2c0.3,0.3,0.7,0.4,1.2,0.4c0.4,0,0.8,0,1.1-0.1
			c0.4-0.1,0.7-0.2,1.1-0.4v1.4c-0.3,0.2-0.6,0.3-1,0.3C145.2,121.5,144.7,121.5,144.2,121.5z M144,116c-0.4,0-0.7,0.1-0.9,0.4
			c-0.2,0.2-0.3,0.6-0.4,1h2.5c0-0.4-0.1-0.8-0.3-1C144.6,116.1,144.3,116,144,116z"></path></g>
	<g id="parcours-G-icone">
		<path class="st1" d="M39.9,96.6c-2.7,0-5.3,0.8-7.4,2.4c-2.1,1.5-3.8,3.6-4.7,6.1c-0.9,2.5-1,5.3-0.3,7.9c0.7,2.5,2.2,4.8,4.2,6.4
			c2,1.7,4.6,2.7,7.2,2.9c2.7,0.2,5.4-0.4,7.7-1.8c2.2-1.3,4-3.4,5.1-5.7c1.1-2.5,1.4-5.2,0.9-7.9c-0.5-2.6-1.8-4.9-3.7-6.7
			c-1.9-1.8-4.3-3-6.9-3.4C41.2,96.7,40.5,96.6,39.9,96.6z M47.8,118.2c-2.5,2.3-5.9,3.4-9.2,3c-3.1-0.3-6-1.9-8-4.4
			c-1.9-2.3-2.8-5.4-2.5-8.4c0.3-3.5,2.2-6.6,5-8.6s6.5-2.6,9.8-1.7c0.4,0.1,0.8,0.2,1.2,0.4l0,0c3.3,1.3,5.9,4,6.9,7.4
							 c0.3,1,0.5,2,0.5,3.1l0,0C51.8,112.5,50.4,115.9,47.8,118.2C47.7,118.3,50.2,116.1,47.8,118.2z"></path>
		<path class="st1" d="M34.4,99.7c0,0.5-0.1,1.1-0.3,1.5c0.8,0.5,2,1.2,2,1.2s0,1-0.3,1.6c0.3,0.3,0.6,0.7,0.6,0.7s4.3-2.7,2.5-6.4
			C37.3,98.4,35.8,98.9,34.4,99.7C34.3,100.2,35.8,98.9,34.4,99.7z"></path>	<path class="st1" d="M47.9,107.3c0,0,1.4,1.7,1.6,2.4c0.5,0.1,1.2-0.1,1.7-0.3c0-0.5,0-1-0.1-1.6c-0.1,0-0.7,0.3-0.8,0.3
			c-0.2-0.4-0.7-1.2-0.5-1.5c0.4,0.1,0.8,0.2,1.2,0.4c-0.8-3.7-3.5-6.7-7-8c-0.5,0.8-1,2.1-1,2.8c0.2,0,0.6,0.1,0.6,0.1
			s0.8-1.1,1-1.2c0.6,0.2,0.7,0.5,0.7,0.5s-1.1,1.5-2,2c-0.7,0.2-1.3,0.2-1.3,0.2s0.8,0.6,0.9,1c-0.5,0.2-1.3,0.3-1.3,0.3l0.3,1.3
			c0,0,1.4,0,1.7-0.3c-0.1-0.5-0.4-1-0.4-1l1.1-0.5c0,0,0.9,1,1,1.1c0.7,0.2,2.1,0.3,2.1,0.3v0.6c0,0-1,0.8-1.4,1
			c-0.6-0.2-1.2-0.6-1.2-0.7c-0.5,0-2.5,0.1-2.7,0.2c-0.3,0.5-1.4,2.7-1.4,3.1c0.6,0.9,1.9,1.6,1.9,1.6L45,111c0,0,0.5,3,0,4.9
			c0.5,1.2,1,2.2,1.3,2.9c0.8-0.6,1.6-1.3,2.2-2v-0.2l0.1-0.1c0.2-0.2,0.3-0.5,0.5-0.7c0.4-1.1,1.3-3.6,1.5-5.4
			c-0.6-0.1-1.7-0.2-1.7-0.2s-1.7-1.7-1.6-2.7C47.8,107.4,47.9,107.3,47.9,107.3z"></path>	<path class="st1" d="M37.5,112.1c-0.2,0-1.6-1-2.8-1.6c-0.3,0.1-1.3,0.7-1.3,0.7l-1.1-0.4c0,0,0.2-0.5,0.5-0.9
			c-0.4,0-1.1-0.1-1.3-0.6c-0.1-0.4,0.1-0.8,0.3-1c0.2-0.3,0.6-0.6,1-0.6s0.7,0.4,0.8,0.7l0.3-0.4c0,0-0.1-0.2-0.4-0.6
			c0.6-1.8,1.5-3.2,1.5-3.2s-1-0.6-1.7-1.1c0,0.2-0.7,1.4-0.7,1.4s-0.7-0.4-1.3-1c0.3-0.8,1.3-2,1.3-2l-0.1-0.1
			c-2.1,2-3.5,4.7-3.7,7.8c1.3,1.9,4.2,2.5,4.6,2.5c-0.1,0.4-0.6,1.3-1.3,2.5c0.1,0.6,1.2,1.8,2.6,3c0,0.5-0.3,1.4-0.6,2.1
			c0.8,0.5,1.7,0.9,2.6,1.2c3.8-5.2,2.5-8,2.5-8S38.3,112.2,37.5,112.1C37.3,112,38.3,112.2,37.5,112.1z"></path></g>
</g>
<g id="parcours-F">
	<path id="parcours-F-trace_1_" class="st3" d="M287.5,72.6L288,144c0,2.1-73.3,73.5-74.8,74.9l-140.9,142"></path><circle id="parcours-F-station-2-3_1_" class="st4" cx="72.3" cy="360.9" r="9.3"></circle><circle id="parcours-F-station-2-2_1_" class="st4" cx="143.7" cy="288.9" r="9.3"></circle><circle id="parcours-F-station-0-3_1_" class="st2" cx="216.3" cy="216.9" r="9.3"></circle><circle id="parcours-F-station-2-1_1_" class="st4" cx="288" cy="144.9" r="9.3"></circle><circle id="parcours-F-station-0-0" class="st2" cx="288.3" cy="72.9" r="9.3"></circle><g id="parcours-F-texte">
	<path class="st4" d="M260.6,51.9v-8.6h1.8v7.1h3.5v1.5H260.6z"></path>	<path class="st4" d="M271.5,51.9l-0.3-0.9l0,0c-0.3,0.4-0.6,0.6-0.9,0.8c-0.3,0.1-0.7,0.2-1.2,0.2c-0.6,0-1.1-0.2-1.5-0.5
			c-0.4-0.4-0.5-0.9-0.5-1.5c0-0.7,0.2-1.2,0.7-1.5S269,48,270,48h1.1v-0.3c0-0.7-0.3-1-1-1c-0.5,0-1.1,0.2-1.8,0.5l-0.6-1.2
			c0.8-0.4,1.6-0.6,2.5-0.6s1.6,0.2,2,0.6c0.5,0.4,0.7,1,0.7,1.7v4.4h-1.4V51.9z M270.9,48.9h-0.7c-0.5,0-0.9,0.1-1.2,0.3
		c-0.3,0.2-0.4,0.4-0.4,0.8c0,0.5,0.3,0.8,0.9,0.8c0.4,0,0.7-0.1,1-0.4c0.2-0.2,0.4-0.6,0.4-1L270.9,48.9L270.9,48.9z"></path>	<path class="st4" d="M280.6,51.9h-1.8v-3.8c0-0.5-0.1-0.8-0.3-1.1c-0.2-0.2-0.4-0.4-0.8-0.4c-0.5,0-0.9,0.2-1.1,0.5
			s-0.3,0.9-0.3,1.7v3.1h-1.8v-6.6h1.4l0.2,0.8h0.1c0.2-0.3,0.5-0.6,0.8-0.7c0.4-0.2,0.7-0.2,1.2-0.2c0.8,0,1.3,0.2,1.7,0.6
		c0.4,0.4,0.6,1,0.6,1.8L280.6,51.9L280.6,51.9z"></path>	<path class="st4" d="M288.2,45.3v0.9l-1,0.3c0.2,0.3,0.3,0.6,0.3,1c0,0.7-0.2,1.3-0.7,1.6c-0.5,0.4-1.2,0.6-2,0.6h-0.3h-0.3
			c-0.2,0.1-0.3,0.3-0.3,0.5c0,0.3,0.3,0.4,1,0.4h1.1c0.7,0,1.3,0.2,1.6,0.5c0.4,0.3,0.6,0.8,0.6,1.4c0,0.8-0.3,1.4-1,1.8
			c-0.6,0.4-1.6,0.6-2.8,0.6c-0.9,0-1.6-0.2-2.1-0.5s-0.7-0.8-0.7-1.3c0-0.4,0.1-0.7,0.4-1c0.2-0.3,0.6-0.5,1.1-0.6
			c-0.2-0.1-0.3-0.2-0.5-0.4c-0.1-0.2-0.2-0.4-0.2-0.6c0-0.3,0.1-0.5,0.2-0.6c0.1-0.2,0.4-0.3,0.6-0.5c-0.3-0.1-0.6-0.4-0.8-0.7
			c-0.2-0.3-0.3-0.7-0.3-1.2c0-0.7,0.2-1.3,0.7-1.7s1.1-0.6,2-0.6c0.2,0,0.4,0,0.7,0c0.3,0,0.4,0.1,0.5,0.1H288.2z M283.1,52.8
			c0,0.2,0.1,0.4,0.4,0.6c0.2,0.1,0.6,0.2,1,0.2c0.6,0,1.1-0.1,1.5-0.3s0.5-0.4,0.5-0.7c0-0.2-0.1-0.4-0.3-0.5
			c-0.2-0.1-0.5-0.1-1-0.1h-0.9c-0.3,0-0.6,0.1-0.8,0.2C283.2,52.4,283.1,52.6,283.1,52.8z M283.7,47.5c0,0.4,0.1,0.6,0.2,0.8
			c0.2,0.2,0.4,0.3,0.7,0.3c0.3,0,0.6-0.1,0.7-0.3c0.2-0.2,0.2-0.5,0.2-0.8c0-0.8-0.3-1.2-1-1.2C284.1,46.3,283.7,46.7,283.7,47.5z"></path>
	<path class="st4" d="M293.9,51.9l-0.2-0.8h-0.1c-0.2,0.3-0.5,0.5-0.8,0.7c-0.4,0.2-0.8,0.2-1.2,0.2c-0.8,0-1.4-0.2-1.7-0.6
			c-0.4-0.4-0.6-1-0.6-1.8v-4.3h1.8v3.8c0,0.5,0.1,0.8,0.3,1.1c0.2,0.2,0.4,0.4,0.8,0.4c0.5,0,0.9-0.2,1.1-0.5s0.3-0.9,0.3-1.7v-3.1
						 h1.8v6.6C295.4,51.9,293.9,51.9,293.9,51.9z"></path>	<path class="st4" d="M300.1,52c-1.1,0-1.9-0.3-2.5-0.9c-0.6-0.6-0.9-1.4-0.9-2.5s0.3-1.9,0.8-2.5s1.3-0.9,2.3-0.9
			c0.9,0,1.6,0.3,2.2,0.8s0.8,1.3,0.8,2.2v0.9h-4.2c0,0.5,0.2,0.9,0.5,1.2s0.7,0.4,1.2,0.4c0.4,0,0.8,0,1.1-0.1
			c0.4-0.1,0.7-0.2,1.1-0.4v1.4c-0.3,0.2-0.6,0.3-1,0.3C301.1,52,300.6,52,300.1,52z M299.9,46.5c-0.4,0-0.7,0.1-0.9,0.4
		c-0.2,0.2-0.3,0.6-0.4,1h2.5c0-0.4-0.1-0.8-0.3-1C300.5,46.6,300.2,46.5,299.9,46.5z"></path>	<path class="st4" d="M308.8,50c0,0.7-0.2,1.2-0.7,1.5c-0.5,0.4-1.2,0.5-2.1,0.5c-0.5,0-0.9,0-1.2-0.1c-0.3-0.1-0.7-0.2-0.9-0.3
			v-1.5c0.3,0.2,0.7,0.3,1.1,0.4c0.4,0.1,0.8,0.2,1.1,0.2c0.6,0,1-0.2,1-0.6c0-0.1,0-0.3-0.1-0.3c-0.1-0.1-0.2-0.2-0.4-0.3
			c-0.2-0.1-0.5-0.2-0.8-0.4c-0.5-0.2-0.9-0.4-1.1-0.6c-0.2-0.2-0.4-0.4-0.5-0.6c-0.1-0.2-0.2-0.5-0.2-0.9c0-0.6,0.2-1,0.7-1.4
			c0.5-0.3,1.1-0.5,1.9-0.5s1.6,0.2,2.3,0.5l-0.5,1.3c-0.3-0.1-0.6-0.3-0.9-0.3c-0.3-0.1-0.6-0.1-0.9-0.1c-0.5,0-0.8,0.1-0.8,0.4
		c0,0.2,0.1,0.3,0.3,0.4c0.2,0.1,0.5,0.3,1.1,0.5c0.5,0.2,0.9,0.4,1.1,0.6c0.2,0.2,0.4,0.4,0.5,0.6S308.8,49.6,308.8,50z"></path>	<path class="st4" d="M316.3,52c-1.1,0-1.9-0.3-2.5-0.9c-0.6-0.6-0.9-1.4-0.9-2.5s0.3-1.9,0.8-2.5s1.3-0.9,2.3-0.9
			c0.9,0,1.6,0.3,2.2,0.8s0.8,1.3,0.8,2.2v0.9h-4.2c0,0.5,0.2,0.9,0.5,1.2s0.7,0.4,1.2,0.4c0.4,0,0.8,0,1.1-0.1
			c0.4-0.1,0.7-0.2,1.1-0.4v1.4c-0.3,0.2-0.6,0.3-1,0.3C317.3,52,316.8,52,316.3,52z M316.1,46.5c-0.4,0-0.7,0.1-0.9,0.4
	c-0.2,0.2-0.3,0.6-0.4,1h2.5c0-0.4-0.1-0.8-0.3-1C316.7,46.6,316.4,46.5,316.1,46.5z"></path>	<path class="st4" d="M323.2,50.6c0.3,0,0.7-0.1,1.1-0.2v1.3c-0.4,0.2-1,0.3-1.6,0.3c-0.7,0-1.2-0.2-1.6-0.5
			c-0.3-0.4-0.5-0.9-0.5-1.6v-3.2h-0.9v-0.8l1-0.6l0.5-1.4h1.1v1.4h1.8v1.3h-1.8v3.2c0,0.3,0.1,0.4,0.2,0.6
		C322.8,50.5,323,50.6,323.2,50.6z"></path>	<path class="st4" d="M333.4,50c0,0.7-0.2,1.2-0.7,1.5c-0.5,0.4-1.2,0.5-2.1,0.5c-0.5,0-0.9,0-1.2-0.1c-0.3-0.1-0.7-0.2-0.9-0.3
			v-1.5c0.3,0.2,0.7,0.3,1.1,0.4c0.4,0.1,0.8,0.2,1.1,0.2c0.6,0,1-0.2,1-0.6c0-0.1,0-0.3-0.1-0.3c-0.1-0.1-0.2-0.2-0.4-0.3
			c-0.2-0.1-0.5-0.2-0.8-0.4c-0.5-0.2-0.9-0.4-1.1-0.6c-0.2-0.2-0.4-0.4-0.5-0.6c-0.1-0.2-0.2-0.5-0.2-0.9c0-0.6,0.2-1,0.7-1.4
			c0.5-0.3,1.1-0.5,1.9-0.5s1.6,0.2,2.3,0.5l-0.5,1.3c-0.3-0.1-0.6-0.3-0.9-0.3c-0.3-0.1-0.6-0.1-0.9-0.1c-0.5,0-0.8,0.1-0.8,0.4
		c0,0.2,0.1,0.3,0.3,0.4c0.2,0.1,0.5,0.3,1.1,0.5c0.5,0.2,0.9,0.4,1.1,0.6c0.2,0.2,0.4,0.4,0.5,0.6S333.4,49.6,333.4,50z"></path><path class="st4" d="M340.7,48.6c0,1.1-0.3,1.9-0.8,2.5c-0.6,0.6-1.3,0.9-2.4,0.9c-0.6,0-1.2-0.1-1.7-0.4
			c-0.5-0.3-0.9-0.7-1.1-1.2c-0.3-0.5-0.4-1.1-0.4-1.8c0-1.1,0.3-1.9,0.8-2.5c0.6-0.6,1.3-0.9,2.4-0.9c0.6,0,1.2,0.1,1.7,0.4
			s0.9,0.7,1.1,1.2C340.6,47.3,340.7,47.9,340.7,48.6z M336.2,48.6c0,0.6,0.1,1.1,0.3,1.5c0.2,0.3,0.6,0.5,1,0.5
			c0.5,0,0.8-0.2,1-0.5s0.3-0.8,0.3-1.5c0-0.6-0.1-1.1-0.3-1.5c-0.2-0.3-0.6-0.5-1-0.5c-0.5,0-0.8,0.2-1,0.5
	C336.3,47.5,336.2,48,336.2,48.6z"></path>	<path class="st4" d="M344.9,52c-2,0-3.1-1.1-3.1-3.4c0-1.1,0.3-2,0.8-2.6c0.6-0.6,1.4-0.9,2.4-0.9c0.8,0,1.4,0.1,2,0.4l-0.5,1.4
			c-0.3-0.1-0.5-0.2-0.8-0.3c-0.2-0.1-0.5-0.1-0.7-0.1c-0.9,0-1.4,0.7-1.4,2s0.5,1.9,1.4,1.9c0.3,0,0.7,0,1-0.1s0.6-0.2,0.9-0.4v1.5
		c-0.3,0.2-0.6,0.3-0.9,0.4C345.7,52,345.3,52,344.9,52z"></path>	<path class="st4" d="M348.3,43.7c0-0.6,0.3-0.9,1-0.9c0.6,0,1,0.3,1,0.9c0,0.3-0.1,0.5-0.2,0.6c-0.2,0.2-0.4,0.2-0.7,0.2
		C348.6,44.5,348.3,44.2,348.3,43.7z M350.2,51.9h-1.8v-6.6h1.8V51.9z"></path>	<path class="st4" d="M355,52c-1.1,0-1.9-0.3-2.5-0.9c-0.6-0.6-0.9-1.4-0.9-2.5s0.3-1.9,0.8-2.5s1.3-0.9,2.3-0.9
			c0.9,0,1.6,0.3,2.2,0.8s0.8,1.3,0.8,2.2v0.9h-4.2c0,0.5,0.2,0.9,0.5,1.2s0.7,0.4,1.2,0.4c0.4,0,0.8,0,1.1-0.1
			c0.4-0.1,0.7-0.2,1.1-0.4v1.4c-0.3,0.2-0.6,0.3-1,0.3C356,52,355.5,52,355,52z M354.8,46.5c-0.4,0-0.7,0.1-0.9,0.4
			c-0.2,0.2-0.3,0.6-0.4,1h2.5c0-0.4-0.1-0.8-0.3-1C355.4,46.6,355.1,46.5,354.8,46.5z M353.7,44.6v-0.2c0.7-0.8,1.1-1.4,1.4-1.8h2
		v0.1c-0.2,0.2-0.6,0.5-1,0.9c-0.5,0.4-0.9,0.7-1.2,0.9L353.7,44.6L353.7,44.6z"></path>	<path class="st4" d="M361.9,50.6c0.3,0,0.7-0.1,1.1-0.2v1.3c-0.4,0.2-1,0.3-1.6,0.3c-0.7,0-1.2-0.2-1.6-0.5
			c-0.3-0.4-0.5-0.9-0.5-1.6v-3.2h-0.9v-0.8l1-0.6L360,44h1.1v1.4h1.8v1.3h-1.8v3.2c0,0.3,0.1,0.4,0.2,0.6
		C361.5,50.5,361.7,50.6,361.9,50.6z"></path>	<path class="st4" d="M367.3,52c-1.1,0-1.9-0.3-2.5-0.9c-0.6-0.6-0.9-1.4-0.9-2.5s0.3-1.9,0.8-2.5s1.3-0.9,2.3-0.9
			c0.9,0,1.6,0.3,2.2,0.8s0.8,1.3,0.8,2.2v0.9h-4.2c0,0.5,0.2,0.9,0.5,1.2s0.7,0.4,1.2,0.4c0.4,0,0.8,0,1.1-0.1
			c0.4-0.1,0.7-0.2,1.1-0.4v1.4c-0.3,0.2-0.6,0.3-1,0.3C368.3,52,367.8,52,367.3,52z M367.1,46.5c-0.4,0-0.7,0.1-0.9,0.4
			c-0.2,0.2-0.3,0.6-0.4,1h2.5c0-0.4-0.1-0.8-0.3-1C367.8,46.6,367.5,46.5,367.1,46.5z M366,44.6v-0.2c0.7-0.8,1.1-1.4,1.4-1.8h2
		v0.1c-0.2,0.2-0.6,0.5-1,0.9c-0.5,0.4-0.9,0.7-1.2,0.9L366,44.6L366,44.6z"></path>	<path class="st4" d="M376,50c0,0.7-0.2,1.2-0.7,1.5c-0.5,0.4-1.2,0.5-2.1,0.5c-0.5,0-0.9,0-1.2-0.1c-0.3-0.1-0.7-0.2-0.9-0.3v-1.5
			c0.3,0.2,0.7,0.3,1.1,0.4c0.4,0.1,0.8,0.2,1.1,0.2c0.6,0,1-0.2,1-0.6c0-0.1,0-0.3-0.1-0.3c-0.1-0.1-0.2-0.2-0.4-0.3
			c-0.2-0.1-0.5-0.2-0.8-0.4c-0.5-0.2-0.9-0.4-1.1-0.6c-0.2-0.2-0.4-0.4-0.5-0.6c-0.1-0.2-0.2-0.5-0.2-0.9c0-0.6,0.2-1,0.7-1.4
			c0.5-0.3,1.1-0.5,1.9-0.5s1.6,0.2,2.3,0.5l-0.5,1.3c-0.3-0.1-0.6-0.3-0.9-0.3c-0.3-0.1-0.6-0.1-0.9-0.1c-0.5,0-0.8,0.1-0.8,0.4
		c0,0.2,0.1,0.3,0.3,0.4c0.2,0.1,0.5,0.3,1.1,0.5c0.5,0.2,0.9,0.4,1.1,0.6c0.2,0.2,0.4,0.4,0.5,0.6S376,49.6,376,50z"></path></g>
	<g id="parcours-F-icone">
		<g>
			<g>
				<circle class="st4" cx="244.1" cy="42.4" r="2.5"></circle>	</g>
			<g>
				<path class="st4" d="M247.7,52.8c0-0.1,0-0.2,0-0.2v-4c0-1.5-1.2-2.8-2.8-2.8h-1.7c-1.5,0-2.8,1.2-2.8,2.8v4c0,0.1,0,0.2,0,0.2
									 H247.7z"></path>		<path class="st4" d="M244.9,45.7c1.5,0,2.8,1.2,2.8,2.8v4c0,0.1,0,0.2,0,0.2h-7.2c0-0.1,0-0.2,0-0.2v-4c0-1.5,1.2-2.8,2.8-2.8
					H244.9"></path>		</g>
		</g>
		<g>
			<g>
				<circle class="st4" cx="251.5" cy="41.2" r="1.9"></circle>	</g>
			<g>
				<path class="st4" d="M254.2,48.9c0-0.1,0-0.1,0-0.2v-3c0-1.1-0.9-2.1-2.1-2.1h-1.2c-1.1,0-2.1,0.9-2.1,2.1v3c0,0.1,0,0.1,0,0.2
									 H254.2z"></path>			<path class="st4" d="M252.1,43.6c1.1,0,2.1,0.9,2.1,2.1v3c0,0.1,0,0.1,0,0.2h-5.3c0-0.1,0-0.1,0-0.2v-3c0-1.1,0.9-2.1,2.1-2.1
					H252.1"></path>	</g>
		</g>
		<g>
			<g>
				<circle class="st4" cx="236.7" cy="41.2" r="1.9"></circle>	</g>
			<g>
				<path class="st4" d="M239.3,48.9c0-0.1,0-0.1,0-0.2v-3c0-1.1-0.9-2.1-2.1-2.1H236c-1.1,0-2.1,0.9-2.1,2.1v3c0,0.1,0,0.1,0,0.2
									 H239.3z"></path>	</g>
		</g>
		<path class="st4" d="M253.2,32c0-1.8-1.3-3.3-2.8-4.1c-1.9-1-4.2-1.1-6.2-0.5c-0.9,0.3-1.8,0.8-2.6,1.4c-0.3,0.3-0.6,0.6-0.9,1
			c-0.1,0.2-0.2,0.3-0.3,0.5c-0.1,0.1-0.1,0.2-0.2,0.2c-0.1,0-0.3,0-0.5,0c-1.8,0.2-3.8,1.3-4.3,3.2c-0.6,2.3,1.3,4.1,3.3,4.7
			c-0.1,0.4-0.6,0.5-0.4,1c0.2,0.5,0.7,0.5,1.1,0.3c0.4-0.2,0.8-0.5,1-0.8c0.1-0.1,0.1-0.2,0.2-0.3c0.1-0.1,0.2-0.1,0.3-0.1
			c0.2,0,0.5-0.1,0.7-0.1c0.9-0.2,1.7-0.5,2.4-1.1c0.2-0.1,0.3-0.3,0.5-0.4c0,0,0.1-0.2,0.2-0.2c0.1,0,0.3,0.1,0.4,0.1
			c0.3,0,0.5,0.1,0.8,0.1c0.2,0,0.6,0,0.8,0c0.1,0,0.1,0.1,0.2,0.2c0,0.1,0.1,0.2,0.2,0.3c0.1,0.2,0.2,0.4,0.4,0.5
			c0.3,0.4,0.8,0.6,1.2,0.8c-0.3-0.2-0.5-0.6-0.6-1c-0.1-0.2-0.1-0.4-0.1-0.7c0-0.1,0-0.1,0-0.2c0-0.1,0-0.1,0.1-0.1s0.2,0,0.3-0.1
			c0.9-0.2,1.7-0.5,2.4-1C252.2,35,253.2,33.6,253.2,32z M240.5,38c-0.2,0-0.1,0-0.2,0.1c0,0.1-0.1,0.2-0.1,0.2
			c-0.1,0.1-0.2,0.3-0.3,0.4c-0.2,0.3-0.5,0.5-0.9,0.6c0.4-0.2,0.5-0.7,0.5-1.1c0-0.1,0-0.2,0-0.3c-0.1,0-0.2,0-0.3-0.1
			c-0.2-0.1-0.4-0.1-0.7-0.2c-0.7-0.3-1.4-0.7-1.9-1.3c-0.9-1.2-0.7-2.7,0.3-3.8c1.2-1.2,3.2-1.6,4.9-1.2s3.5,1.8,3.1,3.8
							 C244.5,37.1,242.3,38,240.5,38z"></path></g>
</g>
<g id="parcours-E">
	<polyline id="parcours-E--trace" class="st5" points="206.1,431.4 287.4,431.1 431.7,431.7 	"></polyline><circle id="parcours-E-station-1-1" class="st2" cx="216.3" cy="431.4" r="9.3"></circle><circle id="parcours-E-station-2-5" class="st2" cx="288" cy="432" r="9.3"></circle><circle id="parcours-E-station-2-7" class="st6" cx="359.1" cy="431.7" r="9.3"></circle><circle id="parcours-E-station-2-6" class="st6" cx="431.7" cy="431.7" r="9.3"></circle><g id="parcours-E-texte">
		<g>
			<path class="st6" d="M481.8,428.6V420h1.8v7.1h3.5v1.5H481.8z"></path>	<path class="st6" d="M491.4,428.7c-1.1,0-1.9-0.3-2.5-0.9s-0.9-1.4-0.9-2.5s0.3-1.9,0.8-2.5s1.3-0.9,2.3-0.9
				c0.9,0,1.6,0.3,2.2,0.8s0.8,1.3,0.8,2.2v0.9h-4.2c0,0.5,0.2,0.9,0.5,1.2s0.7,0.4,1.2,0.4c0.4,0,0.8,0,1.1-0.1
				c0.4-0.1,0.7-0.2,1.1-0.4v1.4c-0.3,0.2-0.6,0.3-1,0.3C492.3,428.7,491.9,428.7,491.4,428.7z M491.1,423.2c-0.4,0-0.7,0.1-0.9,0.4
				c-0.2,0.2-0.3,0.6-0.4,1h2.5c0-0.4-0.1-0.8-0.3-1C491.8,423.3,491.5,423.2,491.1,423.2z"></path>		<path class="st6" d="M500.1,426.7c0,0.7-0.2,1.2-0.7,1.5c-0.5,0.4-1.2,0.5-2.1,0.5c-0.5,0-0.9,0-1.2-0.1
				c-0.3-0.1-0.7-0.2-0.9-0.3v-1.5c0.3,0.2,0.7,0.3,1.1,0.4s0.8,0.2,1.1,0.2c0.6,0,1-0.2,1-0.6c0-0.1,0-0.3-0.1-0.3
				c-0.1-0.1-0.2-0.2-0.4-0.3c-0.2-0.1-0.5-0.2-0.8-0.4c-0.5-0.2-0.9-0.4-1.1-0.6s-0.4-0.4-0.5-0.6s-0.2-0.5-0.2-0.9
				c0-0.6,0.2-1,0.7-1.4c0.5-0.3,1.1-0.5,1.9-0.5s1.6,0.2,2.3,0.5l-0.5,1.3c-0.3-0.1-0.6-0.3-0.9-0.3c-0.3-0.1-0.6-0.1-0.9-0.1
				c-0.5,0-0.8,0.1-0.8,0.4c0,0.2,0.1,0.3,0.3,0.4c0.2,0.1,0.5,0.3,1.1,0.5c0.5,0.2,0.9,0.4,1.1,0.6s0.4,0.4,0.5,0.6
				C500,426.1,500.1,426.3,500.1,426.7z"></path>	<path class="st6" d="M506.4,428.6h-1.8v-9.1h1.8V428.6z"></path>
			<path class="st6" d="M512.4,428.6l-0.3-0.9l0,0c-0.3,0.4-0.6,0.6-0.9,0.8c-0.3,0.1-0.7,0.2-1.2,0.2c-0.6,0-1.1-0.2-1.5-0.5
				c-0.4-0.4-0.5-0.9-0.5-1.5c0-0.7,0.2-1.2,0.7-1.5s1.2-0.5,2.2-0.5h1.1v-0.3c0-0.7-0.3-1-1-1c-0.5,0-1.1,0.2-1.8,0.5l-0.6-1.2
				c0.8-0.4,1.6-0.6,2.5-0.6s1.6,0.2,2,0.6s0.7,1,0.7,1.7v4.4h-1.4V428.6z M511.9,425.6h-0.7c-0.5,0-0.9,0.1-1.2,0.3
				c-0.3,0.2-0.4,0.4-0.4,0.8c0,0.5,0.3,0.8,0.9,0.8c0.4,0,0.7-0.1,1-0.4c0.2-0.2,0.4-0.6,0.4-1L511.9,425.6L511.9,425.6z"></path>
			<path class="st6" d="M521.6,428.6h-1.8v-3.8c0-0.5-0.1-0.8-0.3-1.1c-0.2-0.2-0.4-0.4-0.8-0.4c-0.5,0-0.9,0.2-1.1,0.5
				c-0.2,0.3-0.3,0.9-0.3,1.7v3.1h-1.8V422h1.4l0.2,0.8h0.1c0.2-0.3,0.5-0.6,0.8-0.7c0.4-0.2,0.7-0.2,1.2-0.2c0.8,0,1.3,0.2,1.7,0.6
				s0.6,1,0.6,1.8L521.6,428.6L521.6,428.6z"></path>
			<path class="st6" d="M529.1,422v0.9l-1,0.3c0.2,0.3,0.3,0.6,0.3,1c0,0.7-0.2,1.3-0.7,1.6c-0.5,0.4-1.2,0.6-2,0.6h-0.3h-0.3
				c-0.2,0.1-0.3,0.3-0.3,0.5c0,0.3,0.3,0.4,1,0.4h1.1c0.7,0,1.3,0.2,1.6,0.5c0.4,0.3,0.6,0.8,0.6,1.4c0,0.8-0.3,1.4-1,1.8
				c-0.6,0.4-1.6,0.6-2.8,0.6c-0.9,0-1.6-0.2-2.1-0.5s-0.7-0.8-0.7-1.3c0-0.4,0.1-0.7,0.4-1s0.6-0.5,1.1-0.6
				c-0.2-0.1-0.3-0.2-0.5-0.4c-0.1-0.2-0.2-0.4-0.2-0.6c0-0.3,0.1-0.5,0.2-0.6c0.1-0.2,0.4-0.3,0.6-0.5c-0.3-0.1-0.6-0.4-0.8-0.7
				c-0.2-0.3-0.3-0.7-0.3-1.2c0-0.7,0.2-1.3,0.7-1.7c0.5-0.4,1.1-0.6,2-0.6c0.2,0,0.4,0,0.7,0s0.4,0.1,0.5,0.1L529.1,422L529.1,422z
				 M524.1,429.5c0,0.2,0.1,0.4,0.4,0.6c0.2,0.1,0.6,0.2,1,0.2c0.6,0,1.1-0.1,1.5-0.3c0.4-0.2,0.5-0.4,0.5-0.7
				c0-0.2-0.1-0.4-0.3-0.5s-0.5-0.1-1-0.1h-0.9c-0.3,0-0.6,0.1-0.8,0.2C524.2,429.1,524.1,429.3,524.1,429.5z M524.7,424.2
				c0,0.4,0.1,0.6,0.2,0.8c0.2,0.2,0.4,0.3,0.7,0.3s0.6-0.1,0.7-0.3c0.2-0.2,0.2-0.5,0.2-0.8c0-0.8-0.3-1.2-1-1.2
				C525.1,423,524.7,423.4,524.7,424.2z"></path>
			<path class="st6" d="M534.9,428.6l-0.2-0.8h-0.1c-0.2,0.3-0.5,0.5-0.8,0.7c-0.4,0.2-0.8,0.2-1.2,0.2c-0.8,0-1.4-0.2-1.7-0.6
				c-0.4-0.4-0.6-1-0.6-1.8V422h1.8v3.8c0,0.5,0.1,0.8,0.3,1.1c0.2,0.2,0.4,0.4,0.8,0.4c0.5,0,0.9-0.2,1.1-0.5
				c0.2-0.3,0.3-0.9,0.3-1.7V422h1.8v6.6H534.9z"></path>
			<path class="st6" d="M541.1,428.7c-1.1,0-1.9-0.3-2.5-0.9s-0.9-1.4-0.9-2.5s0.3-1.9,0.8-2.5s1.3-0.9,2.3-0.9
				c0.9,0,1.6,0.3,2.2,0.8c0.5,0.5,0.8,1.3,0.8,2.2v0.9h-4.2c0,0.5,0.2,0.9,0.5,1.2c0.3,0.3,0.7,0.4,1.2,0.4c0.4,0,0.8,0,1.1-0.1
				c0.4-0.1,0.7-0.2,1.1-0.4v1.4c-0.3,0.2-0.6,0.3-1,0.3C542,428.7,541.6,428.7,541.1,428.7z M540.8,423.2c-0.4,0-0.7,0.1-0.9,0.4
				c-0.2,0.2-0.3,0.6-0.4,1h2.5c0-0.4-0.1-0.8-0.3-1C541.5,423.3,541.2,423.2,540.8,423.2z"></path>
			<path class="st6" d="M549.8,426.7c0,0.7-0.2,1.2-0.7,1.5c-0.5,0.4-1.2,0.5-2.1,0.5c-0.5,0-0.9,0-1.2-0.1s-0.7-0.2-0.9-0.3v-1.5
				c0.3,0.2,0.7,0.3,1.1,0.4c0.4,0.1,0.8,0.2,1.1,0.2c0.6,0,1-0.2,1-0.6c0-0.1,0-0.3-0.1-0.3c-0.1-0.1-0.2-0.2-0.4-0.3
				c-0.2-0.1-0.5-0.2-0.8-0.4c-0.5-0.2-0.9-0.4-1.1-0.6c-0.2-0.2-0.4-0.4-0.5-0.6s-0.2-0.5-0.2-0.9c0-0.6,0.2-1,0.7-1.4
				c0.5-0.3,1.1-0.5,1.9-0.5c0.8,0,1.6,0.2,2.3,0.5l-0.5,1.3c-0.3-0.1-0.6-0.3-0.9-0.3c-0.3-0.1-0.6-0.1-0.9-0.1
				c-0.5,0-0.8,0.1-0.8,0.4c0,0.2,0.1,0.3,0.3,0.4s0.5,0.3,1.1,0.5c0.5,0.2,0.9,0.4,1.1,0.6c0.2,0.2,0.4,0.4,0.5,0.6
				C549.7,426.1,549.8,426.3,549.8,426.7z"></path>	</g>
		<g>
			<path class="st6" d="M483.9,442.4c-1.1,0-1.9-0.3-2.5-0.9s-0.9-1.4-0.9-2.5s0.3-1.9,0.8-2.5s1.3-0.9,2.3-0.9
				c0.9,0,1.6,0.3,2.2,0.8c0.5,0.5,0.8,1.3,0.8,2.2v0.9h-4.2c0,0.5,0.2,0.9,0.5,1.2s0.7,0.4,1.2,0.4c0.4,0,0.8,0,1.1-0.1
				c0.4-0.1,0.7-0.2,1.1-0.4v1.4c-0.3,0.2-0.6,0.3-1,0.3C484.8,442.3,484.4,442.4,483.9,442.4z M483.6,436.8c-0.4,0-0.7,0.1-0.9,0.4
								 c-0.2,0.2-0.3,0.6-0.4,1h2.5c0-0.4-0.1-0.8-0.3-1C484.3,436.9,484,436.8,483.6,436.8z"></path>
			<path class="st6" d="M490.7,440.9c0.3,0,0.7-0.1,1.1-0.2v1.3c-0.4,0.2-1,0.3-1.6,0.3c-0.7,0-1.2-0.2-1.6-0.5
				c-0.3-0.4-0.5-0.9-0.5-1.6V437h-0.9v-0.8l1-0.6l0.5-1.4h1.1v1.4h1.8v1.3H490v3.2c0,0.3,0.1,0.4,0.2,0.6
				C490.3,440.9,490.5,440.9,490.7,440.9z"></path>		<path class="st6" d="M498.1,442.2h-1.8v-9.1h1.8V442.2z"></path>	<path class="st6" d="M504.2,442.2l-0.3-0.9l0,0c-0.3,0.4-0.6,0.6-0.9,0.8c-0.3,0.1-0.7,0.2-1.2,0.2c-0.6,0-1.1-0.2-1.5-0.5
				c-0.4-0.4-0.5-0.9-0.5-1.5c0-0.7,0.2-1.2,0.7-1.5s1.2-0.5,2.2-0.5h1.1V438c0-0.7-0.3-1-1-1c-0.5,0-1.1,0.2-1.8,0.5l-0.6-1.2
				c0.8-0.4,1.6-0.6,2.5-0.6s1.6,0.2,2,0.6c0.5,0.4,0.7,1,0.7,1.7v4.4h-1.4V442.2z M503.6,439.2h-0.7c-0.5,0-0.9,0.1-1.2,0.3
				s-0.4,0.4-0.4,0.8c0,0.5,0.3,0.8,0.9,0.8c0.4,0,0.7-0.1,1-0.4c0.2-0.2,0.4-0.6,0.4-1L503.6,439.2L503.6,439.2z"></path>	<path class="st6" d="M516.4,442.2h-1.8v-3.8c0-0.5-0.1-0.8-0.3-1.1c-0.2-0.2-0.4-0.4-0.8-0.4c-0.5,0-0.9,0.2-1.1,0.5
				c-0.2,0.3-0.3,0.9-0.3,1.7v3.1h-1.8v-6.6h1.4l0.2,0.8h0.1c0.2-0.3,0.5-0.6,0.8-0.7c0.4-0.2,0.7-0.2,1.2-0.2
				c0.8,0,1.3,0.2,1.7,0.6s0.6,1,0.6,1.8L516.4,442.2L516.4,442.2z"></path>	<path class="st6" d="M524.2,438.9c0,1.1-0.3,1.9-0.8,2.5c-0.6,0.6-1.3,0.9-2.4,0.9c-0.6,0-1.2-0.1-1.7-0.4s-0.9-0.7-1.1-1.2
				c-0.3-0.5-0.4-1.1-0.4-1.8c0-1.1,0.3-1.9,0.8-2.5s1.3-0.9,2.4-0.9c0.6,0,1.2,0.1,1.7,0.4s0.9,0.7,1.1,1.2
				C524.1,437.7,524.2,438.3,524.2,438.9z M519.7,438.9c0,0.6,0.1,1.1,0.3,1.5c0.2,0.3,0.6,0.5,1,0.5c0.5,0,0.8-0.2,1-0.5
				s0.3-0.8,0.3-1.5c0-0.6-0.1-1.1-0.3-1.5c-0.2-0.3-0.6-0.5-1-0.5c-0.5,0-0.8,0.2-1,0.5C519.8,437.8,519.7,438.3,519.7,438.9z"></path>	<path class="st6" d="M529.4,435.5c0.2,0,0.4,0,0.6,0.1l-0.1,1.7c-0.1,0-0.3-0.1-0.5-0.1c-0.6,0-1,0.1-1.3,0.4s-0.5,0.7-0.5,1.2
				v3.3h-1.8v-6.6h1.4l0.3,1.1h0.1c0.2-0.4,0.5-0.7,0.8-0.9C528.6,435.7,529,435.5,529.4,435.5z"></path>		<path class="st6" d="M537,442.2h-1.8v-3.8c0-0.5-0.1-0.8-0.2-1.1c-0.2-0.2-0.4-0.4-0.7-0.4c-0.5,0-0.8,0.2-1,0.5
				s-0.3,0.9-0.3,1.7v3.1h-1.8v-6.6h1.4l0.2,0.8h0.1c0.2-0.3,0.4-0.5,0.8-0.7c0.3-0.2,0.7-0.3,1.1-0.3c1,0,1.6,0.3,2,1h0.2
				c0.2-0.3,0.4-0.5,0.8-0.7c0.3-0.2,0.7-0.3,1.2-0.3c0.7,0,1.3,0.2,1.7,0.6s0.6,1,0.6,1.8v4.3h-1.8v-3.8c0-0.5-0.1-0.8-0.2-1.1
				c-0.2-0.2-0.4-0.4-0.7-0.4c-0.4,0-0.8,0.2-1,0.5s-0.3,0.8-0.3,1.5v3.4H537z"></path>		<path class="st6" d="M545.9,442.4c-1.1,0-1.9-0.3-2.5-0.9s-0.9-1.4-0.9-2.5s0.3-1.9,0.8-2.5s1.3-0.9,2.3-0.9
				c0.9,0,1.6,0.3,2.2,0.8c0.5,0.5,0.8,1.3,0.8,2.2v0.9h-4.2c0,0.5,0.2,0.9,0.5,1.2c0.3,0.3,0.7,0.4,1.2,0.4c0.4,0,0.8,0,1.1-0.1
				s0.7-0.2,1.1-0.4v1.4c-0.3,0.2-0.6,0.3-1,0.3C546.9,442.3,546.5,442.4,545.9,442.4z M545.7,436.8c-0.4,0-0.7,0.1-0.9,0.4
			c-0.2,0.2-0.3,0.6-0.4,1h2.5c0-0.4-0.1-0.8-0.3-1C546.4,436.9,546.1,436.8,545.7,436.8z"></path>	</g>
	</g>
	<g id="parcours-E-icone">
		<polygon class="st6" points="460.8,435.5 456.7,431.3 458.3,429.7 460.8,432.3 466.8,426.3 468.4,427.9 		"></polygon>	<path class="st6" d="M462.5,443.8c-7.1,0-12.9-5.8-12.9-12.9s5.8-12.9,12.9-12.9s12.9,5.8,12.9,12.9S469.6,443.8,462.5,443.8z
			 M462.5,419.2c-6.5,0-11.8,5.3-11.8,11.8s5.3,11.8,11.8,11.8s11.8-5.3,11.8-11.8C474.3,424.4,469,419.2,462.5,419.2z M462.5,439.6
			c-4.8,0-8.7-3.9-8.7-8.7c0-4.8,3.9-8.7,8.7-8.7s8.7,3.9,8.7,8.7S467.3,439.6,462.5,439.6z M462.5,423.4c-4.2,0-7.5,3.4-7.5,7.5
			c0,4.2,3.4,7.5,7.5,7.5c4.2,0,7.5-3.4,7.5-7.5C470.1,426.8,466.7,423.4,462.5,423.4z"></path>	<g>
			<polygon class="st6" points="470.4,424.4 469.7,424.8 469.9,424 469.3,423.4 470.1,423.3 470.4,422.6 470.8,423.3 471.6,423.4 
										 471,424 471.2,424.8 			"></polygon>		<polygon class="st6" points="454.8,424.4 454.1,424.8 454.2,424 453.6,423.4 454.4,423.3 454.8,422.6 455.1,423.3 455.9,423.4 
				455.4,424 455.5,424.8 			"></polygon>	</g>
		<g>
			<polygon class="st6" points="470.4,437.9 469.7,438.2 469.9,437.4 469.3,436.9 470.1,436.8 470.4,436 470.8,436.8 471.6,436.9 
										 471,437.4 471.2,438.2 			"></polygon>		<polygon class="st6" points="454.8,437.9 454.1,438.2 454.2,437.4 453.6,436.9 454.4,436.8 454.8,436 455.1,436.8 455.9,436.9 
				455.4,437.4 455.5,438.2 			"></polygon>	</g>
		<g>
			<polygon class="st6" points="462.6,441.5 461.9,441.9 462,441.1 461.5,440.5 462.3,440.4 462.6,439.7 463,440.4 463.8,440.5 
										 463.2,441.1 463.3,441.9 			"></polygon>		<polygon class="st6" points="462.6,421.1 461.9,421.4 462,420.6 461.5,420.1 462.3,420 462.6,419.2 463,420 463.8,420.1 
				463.2,420.6 463.3,421.4 			"></polygon>	</g>
		<g>
			<polygon class="st6" points="472.7,431.4 472,431.8 472.1,431 471.5,430.4 472.3,430.3 472.7,429.6 473,430.3 473.8,430.4 
										 473.3,431 473.4,431.8 			"></polygon>	<polygon class="st6" points="452.3,431.4 451.5,431.8 451.7,431 451.1,430.4 451.9,430.3 452.3,429.6 452.6,430.3 453.4,430.4 
				452.8,431 453,431.8 			"></polygon>	</g>
	</g>
</g>
<g id="parcours-D">
	<path id="parcours-D-trace_1_" class="st7" d="M287.4,430.6l69-68.5c1.9-1.9,4.6-3,7.3-3h67.7"></path>
	<circle id="parcours-D-station-2-5_1_" class="st2" cx="288" cy="432" r="9.3"></circle>
	<circle id="parcours-D-station-1-4_1_" class="st8" cx="359.1" cy="359.1" r="9.3"></circle>
	<circle id="parcours-D-station-2-4_1_" class="st8" cx="431.7" cy="359.1" r="9.3"></circle>
	<g id="parcours-D-texte_2_">
	<path class="st8" d="M479.8,363.1v-8.6h1.8v7.1h3.5v1.5H479.8z"></path>
		<path class="st8" d="M487.9,354.5l0.1,0.1c-0.2,0.8-0.5,1.7-1,2.8h-1.3c0.3-1.2,0.5-2.1,0.6-2.9H487.9z"></path>	<path class="st8" d="M492,363.2c-1.1,0-1.9-0.3-2.5-0.9s-0.9-1.4-0.9-2.5s0.3-1.9,0.8-2.5s1.3-0.9,2.3-0.9c0.9,0,1.6,0.3,2.2,0.8
			c0.5,0.5,0.8,1.3,0.8,2.2v0.9h-4.2c0,0.5,0.2,0.9,0.5,1.2c0.3,0.3,0.7,0.4,1.2,0.4c0.4,0,0.8,0,1.1-0.1c0.4-0.1,0.7-0.2,1.1-0.4
			v1.4c-0.3,0.2-0.6,0.3-1,0.3S492.5,363.2,492,363.2z M491.8,357.6c-0.4,0-0.7,0.1-0.9,0.4c-0.2,0.2-0.3,0.6-0.4,1h2.5
			c0-0.4-0.1-0.8-0.3-1C492.4,357.8,492.1,357.6,491.8,357.6z M490.7,355.8v-0.2c0.7-0.8,1.1-1.4,1.4-1.8h2v0.1
		c-0.2,0.2-0.6,0.5-1,0.9c-0.5,0.4-0.9,0.7-1.2,0.9h-1.2V355.8z"></path><path class="st8" d="M498.8,363.2c-2,0-3.1-1.1-3.1-3.4c0-1.1,0.3-2,0.8-2.6c0.6-0.6,1.4-0.9,2.4-0.9c0.8,0,1.4,0.1,2,0.4
			l-0.5,1.4c-0.3-0.1-0.5-0.2-0.8-0.3c-0.2-0.1-0.5-0.1-0.7-0.1c-0.9,0-1.4,0.7-1.4,2s0.5,1.9,1.4,1.9c0.3,0,0.7,0,1-0.1
		s0.6-0.2,0.9-0.4v1.5c-0.3,0.2-0.6,0.3-0.9,0.4C499.6,363.1,499.3,363.2,498.8,363.2z"></path>	<path class="st8" d="M506,356.4c0.2,0,0.4,0,0.6,0.1l-0.1,1.7c-0.1,0-0.3-0.1-0.5-0.1c-0.6,0-1,0.1-1.3,0.4s-0.5,0.7-0.5,1.2v3.3
		h-1.8v-6.6h1.4l0.3,1.1h0.1c0.2-0.4,0.5-0.7,0.8-0.9C505.2,356.5,505.6,356.4,506,356.4z"></path>	<path class="st8" d="M507.7,354.8c0-0.6,0.3-0.9,1-0.9s1,0.3,1,0.9c0,0.3-0.1,0.5-0.2,0.6c-0.2,0.2-0.4,0.2-0.7,0.2
		C508,355.7,507.7,355.4,507.7,354.8z M509.6,363.1h-1.8v-6.6h1.8V363.1z"></path>	<path class="st8" d="M514.2,361.7c0.3,0,0.7-0.1,1.1-0.2v1.3c-0.4,0.2-1,0.3-1.6,0.3c-0.7,0-1.2-0.2-1.6-0.5
			c-0.3-0.4-0.5-0.9-0.5-1.6v-3.2h-0.9V357l1-0.6l0.5-1.4h1.1v1.4h1.8v1.3h-1.8v3.2c0,0.3,0.1,0.4,0.2,0.6
		C513.8,361.7,514,361.7,514.2,361.7z"></path>	<path class="st8" d="M521.3,363.1l-0.2-0.8H521c-0.2,0.3-0.5,0.5-0.8,0.7c-0.4,0.2-0.8,0.2-1.2,0.2c-0.8,0-1.4-0.2-1.7-0.6
			s-0.6-1-0.6-1.8v-4.3h1.8v3.8c0,0.5,0.1,0.8,0.3,1.1c0.2,0.2,0.4,0.4,0.8,0.4c0.5,0,0.9-0.2,1.1-0.5c0.2-0.3,0.3-0.9,0.3-1.7v-3.1
		h1.8v6.6L521.3,363.1L521.3,363.1z"></path>	<path class="st8" d="M528.2,356.4c0.2,0,0.4,0,0.6,0.1l-0.1,1.7c-0.1,0-0.3-0.1-0.5-0.1c-0.6,0-1,0.1-1.3,0.4s-0.5,0.7-0.5,1.2
		v3.3h-1.8v-6.6h1.4l0.3,1.1h0.1c0.2-0.4,0.5-0.7,0.8-0.9C527.4,356.5,527.8,356.4,528.2,356.4z"></path>	<path class="st8" d="M533,363.2c-1.1,0-1.9-0.3-2.5-0.9s-0.9-1.4-0.9-2.5s0.3-1.9,0.8-2.5s1.3-0.9,2.3-0.9c0.9,0,1.6,0.3,2.2,0.8
			c0.5,0.5,0.8,1.3,0.8,2.2v0.9h-4.2c0,0.5,0.2,0.9,0.5,1.2c0.3,0.3,0.7,0.4,1.2,0.4c0.4,0,0.8,0,1.1-0.1c0.4-0.1,0.7-0.2,1.1-0.4
			v1.4c-0.3,0.2-0.6,0.3-1,0.3S533.5,363.2,533,363.2z M532.7,357.6c-0.4,0-0.7,0.1-0.9,0.4c-0.2,0.2-0.3,0.6-0.4,1h2.5
	c0-0.4-0.1-0.8-0.3-1C533.4,357.8,533.1,357.6,532.7,357.6z"></path></g>
	<path id="parcours-D-icone_2_" class="st8" d="M453.6,372.6c-1.5,3.6,4.3-18.5,25.3-25.4c-8.1,5.6-8.7,14.7-19.5,16.8
												  c2.1,0.1,4.4-0.8,5.3-1.3c-0.6,1.7-5.6,2.8-6.9,2.6C456.1,367.7,454.9,369.6,453.6,372.6z"></path>
</g>
<g id="parcours-C">
	<polyline id="parcours-C-trace" class="st9" points="431.8,72.4 432,144 432,216 576,360 	"></polyline>
	<circle id="parcours-C-station-3-2" class="st10" cx="576" cy="360.3" r="9.3"></circle>
	<circle id="parcours-C-station-3-1" class="st10" cx="503.7" cy="288.3" r="9.3"></circle>
	<circle id="parcours-C-station-0-4" class="st2" cx="431.7" cy="215.7" r="9.3"></circle>
	<circle id="parcours-C-station-3-0" class="st10" cx="431.7" cy="143.7" r="9.3"></circle>
	<circle id="parcours-C-station-3-4" class="st2" cx="431.7" cy="71.7" r="9.3"></circle>
	<rect id="parcours-C-masque" x="414" y="27" class="st11" width="144" height="27"></rect>
	<g id="parcours-C-texte">
		<path class="st12" d="M460.3,36.6l-0.6-2h-3.1l-0.6,2h-2l3-8.6h2.2l3,8.6H460.3z M459.3,33c-0.6-1.9-0.9-2.9-1-3.1
							  s-0.1-0.4-0.2-0.6c-0.1,0.5-0.5,1.7-1.1,3.7H459.3z"></path>	<path class="st12" d="M465.9,36.7c-2,0-3.1-1.1-3.1-3.4c0-1.1,0.3-2,0.8-2.6c0.6-0.6,1.4-0.9,2.4-0.9c0.8,0,1.4,0.1,2,0.4
			l-0.5,1.4c-0.3-0.1-0.5-0.2-0.8-0.3c-0.2-0.1-0.5-0.1-0.7-0.1c-0.9,0-1.4,0.7-1.4,2c0,1.3,0.5,1.9,1.4,1.9c0.3,0,0.7,0,1-0.1
			s0.6-0.2,0.9-0.4v1.5c-0.3,0.2-0.6,0.3-0.9,0.4C466.7,36.7,466.4,36.7,465.9,36.7z"></path>	<path class="st12" d="M471.5,36.7c-0.8,0-1.4-0.3-1.8-0.9s-0.7-1.4-0.7-2.5s0.2-1.9,0.7-2.5c0.4-0.6,1.1-0.9,1.8-0.9
			c0.4,0,0.8,0.1,1.1,0.2c0.3,0.2,0.6,0.4,0.8,0.7l0,0l0.2-0.8h1.5v9.4h-1.8v-2.8c0-0.2,0-0.6,0.1-1h-0.1c-0.2,0.3-0.4,0.6-0.8,0.7
			C472.3,36.6,471.9,36.7,471.5,36.7z M472.1,35.3c0.5,0,0.8-0.1,1-0.4c0.2-0.3,0.3-0.7,0.3-1.4v-0.2c0-0.7-0.1-1.2-0.3-1.5
	c-0.2-0.3-0.6-0.5-1-0.5c-0.8,0-1.3,0.7-1.3,2c0,0.7,0.1,1.1,0.3,1.5C471.4,35.2,471.7,35.3,472.1,35.3z"></path>	<path class="st12" d="M481.7,36.6l-0.2-0.8h-0.1c-0.2,0.3-0.5,0.5-0.8,0.7c-0.4,0.2-0.8,0.2-1.2,0.2c-0.8,0-1.4-0.2-1.7-0.6
			c-0.4-0.4-0.6-1-0.6-1.8V30h1.8v3.8c0,0.5,0.1,0.8,0.3,1.1c0.2,0.2,0.4,0.4,0.8,0.4c0.5,0,0.9-0.2,1.1-0.5s0.3-0.9,0.3-1.7V30h1.8
	v6.6H481.7z"></path>	<path class="st12" d="M484.8,28.3c0-0.6,0.3-0.9,1-0.9s1,0.3,1,0.9c0,0.3-0.1,0.5-0.2,0.6c-0.2,0.2-0.4,0.2-0.7,0.2
	C485.2,29.2,484.8,28.9,484.8,28.3z M486.7,36.6h-1.8V30h1.8V36.6z"></path>	<path class="st12" d="M493.2,34.7c0,0.7-0.2,1.2-0.7,1.5c-0.5,0.4-1.2,0.5-2.1,0.5c-0.5,0-0.9,0-1.2-0.1c-0.3-0.1-0.7-0.2-0.9-0.3
			v-1.5c0.3,0.2,0.7,0.3,1.1,0.4c0.4,0.1,0.8,0.2,1.1,0.2c0.6,0,1-0.2,1-0.6c0-0.1,0-0.3-0.1-0.3c-0.1-0.1-0.2-0.2-0.4-0.3
			c-0.2-0.1-0.5-0.2-0.8-0.4c-0.5-0.2-0.9-0.4-1.1-0.6c-0.2-0.2-0.4-0.4-0.5-0.6c-0.1-0.2-0.2-0.5-0.2-0.9c0-0.6,0.2-1,0.7-1.4
			c0.5-0.3,1.1-0.5,1.9-0.5s1.6,0.2,2.3,0.5l-0.5,1.3c-0.3-0.1-0.6-0.3-0.9-0.3c-0.3-0.1-0.6-0.1-0.9-0.1c-0.5,0-0.8,0.1-0.8,0.4
			c0,0.2,0.1,0.3,0.3,0.4c0.2,0.1,0.5,0.3,1.1,0.5c0.5,0.2,0.9,0.4,1.1,0.6c0.2,0.2,0.4,0.4,0.5,0.6S493.2,34.3,493.2,34.7z"></path>	<path class="st12" d="M494.5,28.3c0-0.6,0.3-0.9,1-0.9s1,0.3,1,0.9c0,0.3-0.1,0.5-0.2,0.6c-0.2,0.2-0.4,0.2-0.7,0.2
				C494.8,29.2,494.5,28.9,494.5,28.3z M496.4,36.6h-1.8V30h1.8V36.6z"></path>	<path class="st12" d="M501,35.3c0.3,0,0.7-0.1,1.1-0.2v1.3c-0.4,0.2-1,0.3-1.6,0.3c-0.7,0-1.2-0.2-1.6-0.5
			c-0.3-0.4-0.5-0.9-0.5-1.6v-3.2h-0.9v-0.8l1-0.6l0.5-1.4h1.1V30h1.8v1.3h-1.8v3.2c0,0.3,0.1,0.4,0.2,0.6
	C500.6,35.2,500.8,35.3,501,35.3z"></path>	<path class="st12" d="M503.4,28.3c0-0.6,0.3-0.9,1-0.9s1,0.3,1,0.9c0,0.3-0.1,0.5-0.2,0.6c-0.2,0.2-0.4,0.2-0.7,0.2
			C503.7,29.2,503.4,28.9,503.4,28.3z M505.2,36.6h-1.8V30h1.8V36.6z"></path>	<path class="st12" d="M513.1,33.3c0,1.1-0.3,1.9-0.8,2.5c-0.6,0.6-1.3,0.9-2.4,0.9c-0.6,0-1.2-0.1-1.7-0.4
			c-0.5-0.3-0.9-0.7-1.1-1.2c-0.3-0.5-0.4-1.1-0.4-1.8c0-1.1,0.3-1.9,0.8-2.5c0.6-0.6,1.3-0.9,2.4-0.9c0.6,0,1.2,0.1,1.7,0.4
			s0.9,0.7,1.1,1.2C513,32,513.1,32.6,513.1,33.3z M508.5,33.3c0,0.6,0.1,1.1,0.3,1.5c0.2,0.3,0.6,0.5,1,0.5c0.5,0,0.8-0.2,1-0.5
			s0.3-0.8,0.3-1.5c0-0.6-0.1-1.1-0.3-1.5s-0.6-0.5-1-0.5c-0.5,0-0.8,0.2-1,0.5C508.6,32.2,508.5,32.7,508.5,33.3z"></path>	<path class="st12" d="M520.6,36.6h-1.8v-3.8c0-0.5-0.1-0.8-0.3-1.1s-0.4-0.4-0.8-0.4c-0.5,0-0.9,0.2-1.1,0.5
			c-0.2,0.3-0.3,0.9-0.3,1.7v3.1h-1.8V30h1.4l0.2,0.8h0.1c0.2-0.3,0.5-0.6,0.8-0.7c0.4-0.2,0.7-0.2,1.2-0.2c0.8,0,1.3,0.2,1.7,0.6
			s0.6,1,0.6,1.8L520.6,36.6L520.6,36.6z"></path>	<path class="st12" d="M457.9,51.1c-1.1,0-1.9-0.3-2.5-0.9c-0.6-0.6-0.9-1.4-0.9-2.5s0.3-1.9,0.8-2.5s1.3-0.9,2.3-0.9
			c0.9,0,1.6,0.3,2.2,0.8c0.5,0.5,0.8,1.3,0.8,2.2v0.9h-4.2c0,0.5,0.2,0.9,0.5,1.2s0.7,0.4,1.2,0.4c0.4,0,0.8,0,1.1-0.1
			c0.4-0.1,0.7-0.2,1.1-0.4v1.4c-0.3,0.2-0.6,0.3-1,0.3C458.9,51.1,458.4,51.1,457.9,51.1z M457.7,45.6c-0.4,0-0.7,0.1-0.9,0.4
			c-0.2,0.2-0.3,0.6-0.4,1h2.5c0-0.4-0.1-0.8-0.3-1C458.3,45.7,458,45.6,457.7,45.6z"></path>	<path class="st12" d="M464.8,49.7c0.3,0,0.7-0.1,1.1-0.2v1.3c-0.4,0.2-1,0.3-1.6,0.3c-0.7,0-1.2-0.2-1.6-0.5
			c-0.3-0.4-0.5-0.9-0.5-1.6v-3.2h-0.9V45l1-0.6l0.5-1.4h1.1v1.4h1.8v1.3H464V49c0,0.3,0.1,0.4,0.2,0.6
			C464.4,49.7,464.6,49.7,464.8,49.7z"></path>	<path class="st12" d="M474.6,51l-0.3-0.9l0,0c-0.3,0.4-0.6,0.6-0.9,0.8c-0.3,0.1-0.7,0.2-1.2,0.2c-0.6,0-1.1-0.2-1.5-0.5
			c-0.4-0.4-0.5-0.9-0.5-1.5c0-0.7,0.2-1.2,0.7-1.5s1.2-0.5,2.2-0.5h1.1v-0.3c0-0.7-0.3-1-1-1c-0.5,0-1.1,0.2-1.8,0.5l-0.6-1.2
			c0.8-0.4,1.6-0.6,2.5-0.6s1.6,0.2,2,0.6c0.5,0.4,0.7,1,0.7,1.7V51H474.6z M474,48h-0.7c-0.5,0-0.9,0.1-1.2,0.3
			c-0.3,0.2-0.4,0.4-0.4,0.8c0,0.5,0.3,0.8,0.9,0.8c0.4,0,0.7-0.1,1-0.4c0.2-0.2,0.4-0.6,0.4-1L474,48L474,48z"></path>	<path class="st12" d="M481.2,51.1c-0.8,0-1.4-0.3-1.8-0.8h-0.1c0.1,0.5,0.1,0.9,0.1,1V54h-1.8v-9.4h1.5l0.3,0.9h0.1
			c0.4-0.6,1-1,1.9-1c0.8,0,1.4,0.3,1.8,0.9c0.4,0.6,0.7,1.4,0.7,2.5c0,0.7-0.1,1.3-0.3,1.8c-0.2,0.5-0.5,0.9-0.9,1.2
			S481.8,51.1,481.2,51.1z M480.7,45.8c-0.4,0-0.8,0.1-1,0.4c-0.2,0.3-0.3,0.7-0.3,1.3v0.2c0,0.7,0.1,1.2,0.3,1.5
			c0.2,0.3,0.5,0.5,1,0.5c0.8,0,1.2-0.7,1.2-2c0-0.6-0.1-1.1-0.3-1.5C481.5,45.9,481.1,45.8,480.7,45.8z"></path>	<path class="st12" d="M488.9,51.1c-0.8,0-1.4-0.3-1.8-0.8H487c0.1,0.5,0.1,0.9,0.1,1V54h-1.8v-9.4h1.5l0.3,0.9h0.1
			c0.4-0.6,1-1,1.9-1c0.8,0,1.4,0.3,1.8,0.9c0.4,0.6,0.7,1.4,0.7,2.5c0,0.7-0.1,1.3-0.3,1.8c-0.2,0.5-0.5,0.9-0.9,1.2
			S489.4,51.1,488.9,51.1z M488.3,45.8c-0.4,0-0.8,0.1-1,0.4c-0.2,0.3-0.3,0.7-0.3,1.3v0.2c0,0.7,0.1,1.2,0.3,1.5
			c0.2,0.3,0.5,0.5,1,0.5c0.8,0,1.2-0.7,1.2-2c0-0.6-0.1-1.1-0.3-1.5C489.1,45.9,488.7,45.8,488.3,45.8z"></path>	<path class="st12" d="M496.5,44.3c0.2,0,0.4,0,0.6,0.1l-0.1,1.7c-0.1,0-0.3-0.1-0.5-0.1c-0.6,0-1,0.1-1.3,0.4
			c-0.3,0.3-0.5,0.7-0.5,1.2V51h-1.8v-6.6h1.4l0.3,1.1h0.1c0.2-0.4,0.5-0.7,0.8-0.9C495.7,44.5,496.1,44.3,496.5,44.3z"></path>	<path class="st12" d="M501.3,51.1c-1.1,0-1.9-0.3-2.5-0.9c-0.6-0.6-0.9-1.4-0.9-2.5s0.3-1.9,0.8-2.5s1.3-0.9,2.3-0.9
			c0.9,0,1.6,0.3,2.2,0.8c0.5,0.5,0.8,1.3,0.8,2.2v0.9h-4.2c0,0.5,0.2,0.9,0.5,1.2s0.7,0.4,1.2,0.4c0.4,0,0.8,0,1.1-0.1
			c0.4-0.1,0.7-0.2,1.1-0.4v1.4c-0.3,0.2-0.6,0.3-1,0.3C502.2,51.1,501.8,51.1,501.3,51.1z M501,45.6c-0.4,0-0.7,0.1-0.9,0.4
			c-0.2,0.2-0.3,0.6-0.4,1h2.5c0-0.4-0.1-0.8-0.3-1C501.7,45.7,501.4,45.6,501,45.6z"></path>	<path class="st12" d="M511.5,51h-1.8v-3.8c0-0.5-0.1-0.8-0.3-1.1c-0.2-0.2-0.4-0.4-0.8-0.4c-0.5,0-0.9,0.2-1.1,0.5
			s-0.3,0.9-0.3,1.7V51h-1.8v-6.6h1.4l0.2,0.8h0.1c0.2-0.3,0.5-0.6,0.8-0.7c0.4-0.2,0.7-0.2,1.2-0.2c0.8,0,1.3,0.2,1.7,0.6
			c0.4,0.4,0.6,1,0.6,1.8L511.5,51L511.5,51z"></path>	<path class="st12" d="M516.1,49.7c0.3,0,0.7-0.1,1.1-0.2v1.3c-0.4,0.2-1,0.3-1.6,0.3c-0.7,0-1.2-0.2-1.6-0.5
			c-0.3-0.4-0.5-0.9-0.5-1.6v-3.2h-0.9V45l1-0.6l0.5-1.4h1.1v1.4h1.8v1.3h-1.8V49c0,0.3,0.1,0.4,0.2,0.6
			C515.7,49.7,515.8,49.7,516.1,49.7z"></path>	<path class="st12" d="M518.5,42.8c0-0.6,0.3-0.9,1-0.9c0.6,0,1,0.3,1,0.9c0,0.3-0.1,0.5-0.2,0.6c-0.2,0.2-0.4,0.2-0.7,0.2
			C518.8,43.6,518.5,43.4,518.5,42.8z M520.3,51h-1.8v-6.6h1.8V51z"></path>	<path class="st12" d="M526.8,49.1c0,0.7-0.2,1.2-0.7,1.5c-0.5,0.4-1.2,0.5-2.1,0.5c-0.5,0-0.9,0-1.2-0.1s-0.7-0.2-0.9-0.3v-1.5
			c0.3,0.2,0.7,0.3,1.1,0.4c0.4,0.1,0.8,0.2,1.1,0.2c0.6,0,1-0.2,1-0.6c0-0.1,0-0.3-0.1-0.3c-0.1-0.1-0.2-0.2-0.4-0.3
			s-0.5-0.2-0.8-0.4c-0.5-0.2-0.9-0.4-1.1-0.6c-0.2-0.2-0.4-0.4-0.5-0.6c-0.1-0.2-0.2-0.5-0.2-0.9c0-0.6,0.2-1,0.7-1.4
			c0.5-0.3,1.1-0.5,1.9-0.5c0.8,0,1.6,0.2,2.3,0.5l-0.5,1.3c-0.3-0.1-0.6-0.3-0.9-0.3c-0.3-0.1-0.6-0.1-0.9-0.1
			c-0.5,0-0.8,0.1-0.8,0.4c0,0.2,0.1,0.3,0.3,0.4c0.2,0.1,0.5,0.3,1.1,0.5c0.5,0.2,0.9,0.4,1.1,0.6s0.4,0.4,0.5,0.6
			C526.7,48.5,526.8,48.8,526.8,49.1z"></path>	<path class="st12" d="M532.8,49.1c0,0.7-0.2,1.2-0.7,1.5c-0.5,0.4-1.2,0.5-2.1,0.5c-0.5,0-0.9,0-1.2-0.1s-0.7-0.2-0.9-0.3v-1.5
			c0.3,0.2,0.7,0.3,1.1,0.4c0.4,0.1,0.8,0.2,1.1,0.2c0.6,0,1-0.2,1-0.6c0-0.1,0-0.3-0.1-0.3c-0.1-0.1-0.2-0.2-0.4-0.3
			s-0.5-0.2-0.8-0.4c-0.5-0.2-0.9-0.4-1.1-0.6c-0.2-0.2-0.4-0.4-0.5-0.6c-0.1-0.2-0.2-0.5-0.2-0.9c0-0.6,0.2-1,0.7-1.4
			c0.5-0.3,1.1-0.5,1.9-0.5c0.8,0,1.6,0.2,2.3,0.5l-0.5,1.3c-0.3-0.1-0.6-0.3-0.9-0.3c-0.3-0.1-0.6-0.1-0.9-0.1
			c-0.5,0-0.8,0.1-0.8,0.4c0,0.2,0.1,0.3,0.3,0.4c0.2,0.1,0.5,0.3,1.1,0.5c0.5,0.2,0.9,0.4,1.1,0.6s0.4,0.4,0.5,0.6
			S532.8,48.8,532.8,49.1z"></path>	<path class="st12" d="M538.3,51l-0.3-0.9l0,0c-0.3,0.4-0.6,0.6-0.9,0.8c-0.3,0.1-0.7,0.2-1.2,0.2c-0.6,0-1.1-0.2-1.5-0.5
			c-0.4-0.4-0.5-0.9-0.5-1.5c0-0.7,0.2-1.2,0.7-1.5s1.2-0.5,2.2-0.5h1.1v-0.3c0-0.7-0.3-1-1-1c-0.5,0-1.1,0.2-1.8,0.5l-0.6-1.2
			c0.8-0.4,1.6-0.6,2.5-0.6s1.6,0.2,2,0.6s0.7,1,0.7,1.7V51H538.3z M537.8,48h-0.7c-0.5,0-0.9,0.1-1.2,0.3s-0.4,0.4-0.4,0.8
			c0,0.5,0.3,0.8,0.9,0.8c0.4,0,0.7-0.1,1-0.4c0.2-0.2,0.4-0.6,0.4-1V48z"></path>	<path class="st12" d="M547.1,44.5v0.9l-1,0.3c0.2,0.3,0.3,0.6,0.3,1c0,0.7-0.2,1.3-0.7,1.6c-0.5,0.4-1.2,0.6-2,0.6h-0.3h-0.3
			c-0.2,0.1-0.3,0.3-0.3,0.5c0,0.3,0.3,0.4,1,0.4h1.1c0.7,0,1.3,0.2,1.6,0.5c0.4,0.3,0.6,0.8,0.6,1.4c0,0.8-0.3,1.4-1,1.8
			c-0.6,0.4-1.6,0.6-2.8,0.6c-0.9,0-1.6-0.2-2.1-0.5s-0.7-0.8-0.7-1.3c0-0.4,0.1-0.7,0.4-1c0.2-0.3,0.6-0.5,1.1-0.6
			c-0.2-0.1-0.3-0.2-0.5-0.4s-0.2-0.4-0.2-0.6c0-0.3,0.1-0.5,0.2-0.6s0.4-0.3,0.6-0.5c-0.3-0.1-0.6-0.4-0.8-0.7s-0.3-0.7-0.3-1.2
			c0-0.7,0.2-1.3,0.7-1.7s1.1-0.6,2-0.6c0.2,0,0.4,0,0.7,0s0.4,0.1,0.5,0.1H547.1z M542.1,52c0,0.2,0.1,0.4,0.4,0.6
			c0.2,0.1,0.6,0.2,1,0.2c0.6,0,1.1-0.1,1.5-0.3s0.5-0.4,0.5-0.7c0-0.2-0.1-0.4-0.3-0.5s-0.5-0.1-1-0.1h-0.9c-0.3,0-0.6,0.1-0.8,0.2
			C542.2,51.5,542.1,51.7,542.1,52z M542.7,46.6c0,0.4,0.1,0.6,0.2,0.8c0.2,0.2,0.4,0.3,0.7,0.3s0.6-0.1,0.7-0.3
			c0.2-0.2,0.2-0.5,0.2-0.8c0-0.8-0.3-1.2-1-1.2C543,45.4,542.7,45.8,542.7,46.6z"></path>	<path class="st12" d="M551.2,51.1c-1.1,0-1.9-0.3-2.5-0.9c-0.6-0.6-0.9-1.4-0.9-2.5s0.3-1.9,0.8-2.5s1.3-0.9,2.3-0.9
			c0.9,0,1.6,0.3,2.2,0.8c0.5,0.5,0.8,1.3,0.8,2.2v0.9h-4.2c0,0.5,0.2,0.9,0.5,1.2s0.7,0.4,1.2,0.4c0.4,0,0.8,0,1.1-0.1
			c0.4-0.1,0.7-0.2,1.1-0.4v1.4c-0.3,0.2-0.6,0.3-1,0.3C552.1,51.1,551.7,51.1,551.2,51.1z M550.9,45.6c-0.4,0-0.7,0.1-0.9,0.4
			c-0.2,0.2-0.3,0.6-0.4,1h2.5c0-0.4-0.1-0.8-0.3-1C551.6,45.7,551.3,45.6,550.9,45.6z"></path></g>
	<g id="parcours-C-icone">
		<path class="st12" d="M431.2,49.9V28.7c0,0,0.9-1.7,3.7-1.7c3.5,0,4.2,2.3,10.8,2.3c0,6.8,0,20.5,0,20.5c-5.3,0-6.9-2.4-10.4-2.4
							  C432.7,47.4,431.2,49.9,431.2,49.9z"></path>	<path class="st12" d="M430.5,49.9V28.7c0,0-0.9-1.7-3.7-1.7c-3.5,0-4.2,2.3-10.8,2.3c0,6.8,0,20.5,0,20.5c5.3,0,6.9-2.4,10.4-2.4
			C429,47.4,430.5,49.9,430.5,49.9z"></path>	<path class="st12" d="M426.2,48.2c-3.7,0-5.4,2.6-11,2.6c0,0,0-12.5,0-20.1c-0.4,0-0.8,0-1.2,0c0,7.6,0,22,0,22
			c6,0,7.8-2.7,11.8-2.7c3,0,4.7,2.7,4.7,2.7v-2.1C430,50,428.5,48.2,426.2,48.2z"></path>	<path class="st12" d="M435.4,48.2c3.7,0,5.4,2.6,11,2.6c0,0,0-12.5,0-20.1c0.4,0,0.8,0,1.2,0c0,7.6,0,22,0,22
			c-6,0-7.8-2.7-11.8-2.7c-3,0-4.7,2.7-4.7,2.7v-2.1C431.7,50,433.2,48.2,435.4,48.2z"></path></g>
</g>
<g id="parcours-B">
	<line id="parcours-B-trace" class="st13" x1="504" y1="72.5" x2="215.7" y2="71.7"></line>
        <circle id="parcours-B-station-0-6" class="st14" cx="215.7" cy="71.7" r="9.3"></circle>
        <circle id="parcours-B-station-3-4" class="st2" cx="431.7" cy="71.7" r="9.3">
        </circle><circle id="parcours-B-station-0-2_1_" class="st14" cx="504" cy="72.5" r="9.3"></circle><circle id="parcours-B-station-0-0" class="st2" cx="288.3" cy="72.9" r="9.3"></circle><circle id="parcours-B-station-0-1_2_" class="st14" cx="359.7" cy="72.3" r="9.3"></circle><rect id="parcours-B-masque" x="27" y="54" class="st11" width="171" height="27"></rect><g id="parcours-B-texte_2_">
	<path class="st14" d="M60.1,76v-8.6h1.8v7.1h3.5V76H60.1z"></path>	<path class="st14" d="M69.7,76.1c-1.1,0-1.9-0.3-2.5-0.9s-0.9-1.4-0.9-2.5s0.3-1.9,0.8-2.5s1.3-0.9,2.3-0.9c0.9,0,1.6,0.3,2.2,0.8
			c0.5,0.5,0.8,1.3,0.8,2.2v0.9h-4.2c0,0.5,0.2,0.9,0.5,1.2c0.3,0.3,0.7,0.4,1.2,0.4c0.4,0,0.8,0,1.1-0.1c0.4-0.1,0.7-0.2,1.1-0.4
			v1.4c-0.3,0.2-0.6,0.3-1,0.3S70.3,76.1,69.7,76.1z M69.5,70.6c-0.4,0-0.7,0.1-0.9,0.4c-0.2,0.2-0.3,0.6-0.4,1h2.5
		c0-0.4-0.1-0.8-0.3-1C70.2,70.7,69.9,70.6,69.5,70.6z"></path>	<path class="st14" d="M78.4,74.1c0,0.7-0.2,1.2-0.7,1.5c-0.5,0.4-1.2,0.5-2.1,0.5c-0.5,0-0.9,0-1.2-0.1c-0.3-0.1-0.7-0.2-0.9-0.3
			v-1.5c0.3,0.2,0.7,0.3,1.1,0.4s0.8,0.2,1.1,0.2c0.6,0,1-0.2,1-0.6c0-0.1,0-0.3-0.1-0.3c-0.1-0.1-0.2-0.2-0.4-0.3
			c-0.2-0.1-0.5-0.2-0.8-0.4c-0.5-0.2-0.9-0.4-1.1-0.6s-0.4-0.4-0.5-0.6s-0.2-0.5-0.2-0.9c0-0.6,0.2-1,0.7-1.4
			c0.5-0.3,1.1-0.5,1.9-0.5s1.6,0.2,2.3,0.5L78,71c-0.3-0.1-0.6-0.3-0.9-0.3c-0.3-0.1-0.6-0.1-0.9-0.1c-0.5,0-0.8,0.1-0.8,0.4
		c0,0.2,0.1,0.3,0.3,0.4c0.2,0.1,0.5,0.3,1.1,0.5c0.5,0.2,0.9,0.4,1.1,0.6s0.4,0.4,0.5,0.6S78.4,73.7,78.4,74.1z"></path><path class="st14" d="M88.9,72.7c0,1.1-0.3,1.9-0.8,2.5c-0.6,0.6-1.3,0.9-2.4,0.9c-0.6,0-1.2-0.1-1.7-0.4s-0.9-0.7-1.1-1.2
			s-0.4-1.1-0.4-1.8c0-1.1,0.3-1.9,0.8-2.5c0.6-0.6,1.3-0.9,2.4-0.9c0.6,0,1.2,0.1,1.7,0.4s0.9,0.7,1.1,1.2
			C88.8,71.4,88.9,72,88.9,72.7z M84.4,72.7c0,0.6,0.1,1.1,0.3,1.5c0.2,0.3,0.6,0.5,1,0.5c0.5,0,0.8-0.2,1-0.5s0.3-0.8,0.3-1.5
		c0-0.6-0.1-1.1-0.3-1.5s-0.6-0.5-1-0.5c-0.5,0-0.8,0.2-1,0.5C84.5,71.6,84.4,72.1,84.4,72.7z"></path>	<path class="st14" d="M94.1,69.3c0.2,0,0.4,0,0.6,0.1l-0.1,1.7C94.4,71,94.2,71,94,71c-0.6,0-1,0.1-1.3,0.4s-0.5,0.7-0.5,1.2V76
		h-1.8v-6.6h1.4l0.3,1.1h0.1c0.2-0.4,0.5-0.7,0.8-0.9C93.3,69.4,93.7,69.3,94.1,69.3z"></path>	<path class="st14" d="M95.8,67.8c0-0.6,0.3-0.9,1-0.9c0.6,0,1,0.3,1,0.9c0,0.3-0.1,0.5-0.2,0.6c-0.2,0.2-0.4,0.2-0.7,0.2
	C96.1,68.6,95.8,68.3,95.8,67.8z M97.7,76h-1.8v-6.6h1.8V76z"></path>	<path class="st14" d="M105.2,69.5v0.9l-1,0.3c0.2,0.3,0.3,0.6,0.3,1c0,0.7-0.2,1.3-0.7,1.6c-0.5,0.4-1.2,0.6-2,0.6h-0.3h-0.3
			c-0.2,0.1-0.3,0.3-0.3,0.5c0,0.3,0.3,0.4,1,0.4h1.1c0.7,0,1.3,0.2,1.6,0.5c0.4,0.3,0.6,0.8,0.6,1.4c0,0.8-0.3,1.4-1,1.8
			c-0.6,0.4-1.6,0.6-2.8,0.6c-0.9,0-1.6-0.2-2.1-0.5s-0.7-0.8-0.7-1.3c0-0.4,0.1-0.7,0.4-1c0.2-0.3,0.6-0.5,1.1-0.6
			c-0.2-0.1-0.3-0.2-0.5-0.4c-0.1-0.2-0.2-0.4-0.2-0.6c0-0.3,0.1-0.5,0.2-0.6c0.1-0.2,0.4-0.3,0.6-0.5c-0.3-0.1-0.6-0.4-0.8-0.7
			c-0.2-0.3-0.3-0.7-0.3-1.2c0-0.7,0.2-1.3,0.7-1.7c0.5-0.4,1.1-0.6,2-0.6c0.2,0,0.4,0,0.7,0c0.3,0,0.4,0.1,0.5,0.1L105.2,69.5
			L105.2,69.5z M100.2,76.9c0,0.2,0.1,0.4,0.4,0.6c0.2,0.1,0.6,0.2,1,0.2c0.6,0,1.1-0.1,1.5-0.3c0.4-0.2,0.5-0.4,0.5-0.7
			c0-0.2-0.1-0.4-0.3-0.5c-0.2-0.1-0.5-0.1-1-0.1h-0.9c-0.3,0-0.6,0.1-0.8,0.2C100.3,76.5,100.2,76.7,100.2,76.9z M100.8,71.6
			c0,0.4,0.1,0.6,0.2,0.8c0.2,0.2,0.4,0.3,0.7,0.3c0.3,0,0.6-0.1,0.7-0.3c0.2-0.2,0.2-0.5,0.2-0.8c0-0.8-0.3-1.2-1-1.2
		C101.2,70.4,100.8,70.8,100.8,71.6z"></path>	<path class="st14" d="M106.2,67.8c0-0.6,0.3-0.9,1-0.9c0.6,0,1,0.3,1,0.9c0,0.3-0.1,0.5-0.2,0.6c-0.2,0.2-0.4,0.2-0.7,0.2
		C106.6,68.6,106.2,68.3,106.2,67.8z M108.1,76h-1.8v-6.6h1.8V76z"></path>	<path class="st14" d="M116,76h-1.8v-3.8c0-0.5-0.1-0.8-0.3-1.1s-0.4-0.4-0.8-0.4c-0.5,0-0.9,0.2-1.1,0.5s-0.3,0.9-0.3,1.7V76H110
			v-6.6h1.4l0.2,0.8h0.1c0.2-0.3,0.5-0.6,0.8-0.7c0.4-0.2,0.7-0.2,1.2-0.2c0.8,0,1.3,0.2,1.7,0.6c0.4,0.4,0.6,1,0.6,1.8
		C116,71.7,116,76,116,76z"></path>	<path class="st14" d="M120.9,76.1c-1.1,0-1.9-0.3-2.5-0.9s-0.9-1.4-0.9-2.5s0.3-1.9,0.8-2.5s1.3-0.9,2.3-0.9
			c0.9,0,1.6,0.3,2.2,0.8c0.5,0.5,0.8,1.3,0.8,2.2v0.9h-4.2c0,0.5,0.2,0.9,0.5,1.2c0.3,0.3,0.7,0.4,1.2,0.4c0.4,0,0.8,0,1.1-0.1
			c0.4-0.1,0.7-0.2,1.1-0.4v1.4c-0.3,0.2-0.6,0.3-1,0.3S121.4,76.1,120.9,76.1z M120.6,70.6c-0.4,0-0.7,0.1-0.9,0.4
		c-0.2,0.2-0.3,0.6-0.4,1h2.5c0-0.4-0.1-0.8-0.3-1S121,70.6,120.6,70.6z"></path>	<path class="st14" d="M129.6,74.1c0,0.7-0.2,1.2-0.7,1.5c-0.5,0.4-1.2,0.5-2.1,0.5c-0.5,0-0.9,0-1.2-0.1c-0.3-0.1-0.7-0.2-0.9-0.3
			v-1.5c0.3,0.2,0.7,0.3,1.1,0.4s0.8,0.2,1.1,0.2c0.6,0,1-0.2,1-0.6c0-0.1,0-0.3-0.1-0.3c-0.1-0.1-0.2-0.2-0.4-0.3
			c-0.2-0.1-0.5-0.2-0.8-0.4c-0.5-0.2-0.9-0.4-1.1-0.6s-0.4-0.4-0.5-0.6s-0.2-0.5-0.2-0.9c0-0.6,0.2-1,0.7-1.4
			c0.5-0.3,1.1-0.5,1.9-0.5s1.6,0.2,2.3,0.5l-0.5,1.3c-0.3-0.1-0.6-0.3-0.9-0.3s-0.6-0.1-0.9-0.1c-0.5,0-0.8,0.1-0.8,0.4
			c0,0.2,0.1,0.3,0.3,0.4c0.2,0.1,0.5,0.3,1.1,0.5c0.5,0.2,0.9,0.4,1.1,0.6c0.2,0.2,0.4,0.4,0.5,0.6
		C129.5,73.5,129.6,73.7,129.6,74.1z"></path>	<path class="st14" d="M136.2,76.1c-0.8,0-1.4-0.3-1.8-0.9c-0.4-0.6-0.7-1.4-0.7-2.5s0.2-1.9,0.7-2.5c0.4-0.6,1.1-0.9,1.9-0.9
			c0.8,0,1.5,0.3,1.9,1h0.1c-0.1-0.5-0.1-0.9-0.1-1.3v-2.1h1.8V76h-1.4l-0.3-0.9H138C137.6,75.8,137,76.1,136.2,76.1z M136.8,74.7
			c0.5,0,0.8-0.1,1-0.4s0.3-0.7,0.3-1.4v-0.2c0-0.7-0.1-1.2-0.3-1.5s-0.6-0.5-1.1-0.5c-0.4,0-0.7,0.2-0.9,0.5s-0.3,0.8-0.3,1.5
			s0.1,1.1,0.3,1.5C136.1,74.5,136.4,74.7,136.8,74.7z"></	<path class="st14" d="M146.3,76l-0.2-0.8H146c-0.2,0.3-0.5,0.5-0.8,0.7s-0.8,0.2-1.2,0.2c-0.8,0-1.4-0.2-1.7-0.6
			c-0.4-0.4-0.6-1-0.6-1.8v-4.3h1.8v3.8c0,0.5,0.1,0.8,0.3,1.1s0.4,0.4,0.8,0.4c0.5,0,0.9-0.2,1.1-0.5c0.2-0.3,0.3-0.9,0.3-1.7v-3.1
	h1.8V76H146.3z"></path>	<path class="st14" d="M154.5,76h-1.8v-9.1h1.8V76z"></path>	<path class="st14" d="M160.6,76l-0.3-0.9l0,0c-0.3,0.4-0.6,0.6-0.9,0.8c-0.3,0.1-0.7,0.2-1.2,0.2c-0.6,0-1.1-0.2-1.5-0.5
			c-0.4-0.4-0.5-0.9-0.5-1.5c0-0.7,0.2-1.2,0.7-1.5s1.2-0.5,2.2-0.5h1.1v-0.3c0-0.7-0.3-1-1-1c-0.5,0-1.1,0.2-1.8,0.5l-0.6-1.2
			c0.8-0.4,1.6-0.6,2.5-0.6s1.6,0.2,2,0.6c0.5,0.4,0.7,1,0.7,1.7V76H160.6z M160,73h-0.7c-0.5,0-0.9,0.1-1.2,0.3
		c-0.3,0.2-0.4,0.4-0.4,0.8c0,0.5,0.3,0.8,0.9,0.8c0.4,0,0.7-0.1,1-0.4c0.2-0.2,0.4-0.6,0.4-1V73z"></path>	<path class="st14" d="M169.7,76h-1.8v-3.8c0-0.5-0.1-0.8-0.3-1.1c-0.2-0.2-0.4-0.4-0.8-0.4c-0.5,0-0.9,0.2-1.1,0.5
			c-0.2,0.3-0.3,0.9-0.3,1.7V76h-1.8v-6.6h1.4l0.2,0.8h0.1c0.2-0.3,0.5-0.6,0.8-0.7c0.4-0.2,0.7-0.2,1.2-0.2c0.8,0,1.3,0.2,1.7,0.6
		s0.6,1,0.6,1.8V76H169.7z"></path>	<path class="st14" d="M177.3,69.5v0.9l-1,0.3c0.2,0.3,0.3,0.6,0.3,1c0,0.7-0.2,1.3-0.7,1.6c-0.5,0.4-1.2,0.6-2,0.6h-0.3h-0.3
			c-0.2,0.1-0.3,0.3-0.3,0.5c0,0.3,0.3,0.4,1,0.4h1.1c0.7,0,1.3,0.2,1.6,0.5c0.4,0.3,0.6,0.8,0.6,1.4c0,0.8-0.3,1.4-1,1.8
			c-0.6,0.4-1.6,0.6-2.8,0.6c-0.9,0-1.6-0.2-2.1-0.5s-0.7-0.8-0.7-1.3c0-0.4,0.1-0.7,0.4-1s0.6-0.5,1.1-0.6
			c-0.2-0.1-0.3-0.2-0.5-0.4c-0.1-0.2-0.2-0.4-0.2-0.6c0-0.3,0.1-0.5,0.2-0.6c0.1-0.2,0.4-0.3,0.6-0.5c-0.3-0.1-0.6-0.4-0.8-0.7
			c-0.2-0.3-0.3-0.7-0.3-1.2c0-0.7,0.2-1.3,0.7-1.7c0.5-0.4,1.1-0.6,2-0.6c0.2,0,0.4,0,0.7,0s0.4,0.1,0.5,0.1L177.3,69.5L177.3,69.5
			z M172.2,76.9c0,0.2,0.1,0.4,0.4,0.6c0.2,0.1,0.6,0.2,1,0.2c0.6,0,1.1-0.1,1.5-0.3c0.4-0.2,0.5-0.4,0.5-0.7c0-0.2-0.1-0.4-0.3-0.5
			s-0.5-0.1-1-0.1h-0.9c-0.3,0-0.6,0.1-0.8,0.2C172.3,76.5,172.2,76.7,172.2,76.9z M172.8,71.6c0,0.4,0.1,0.6,0.2,0.8
		c0.2,0.2,0.4,0.3,0.7,0.3s0.6-0.1,0.7-0.3c0.2-0.2,0.2-0.5,0.2-0.8c0-0.8-0.3-1.2-1-1.2C173.2,70.4,172.8,70.8,172.8,71.6z"></path>	<path class="st14" d="M182.5,76l-0.3-0.9l0,0c-0.3,0.4-0.6,0.6-0.9,0.8c-0.3,0.1-0.7,0.2-1.2,0.2c-0.6,0-1.1-0.2-1.5-0.5
			c-0.4-0.4-0.5-0.9-0.5-1.5c0-0.7,0.2-1.2,0.7-1.5s1.2-0.5,2.2-0.5h1.1v-0.3c0-0.7-0.3-1-1-1c-0.5,0-1.1,0.2-1.8,0.5l-0.6-1.2
			c0.8-0.4,1.6-0.6,2.5-0.6s1.6,0.2,2,0.6c0.5,0.4,0.7,1,0.7,1.7V76H182.5z M182,73h-0.7c-0.5,0-0.9,0.1-1.2,0.3
		c-0.3,0.2-0.4,0.4-0.4,0.8c0,0.5,0.3,0.8,0.9,0.8c0.4,0,0.7-0.1,1-0.4c0.2-0.2,0.4-0.6,0.4-1V73z"></path>	<path class="st14" d="M191.3,69.5v0.9l-1,0.3c0.2,0.3,0.3,0.6,0.3,1c0,0.7-0.2,1.3-0.7,1.6c-0.5,0.4-1.2,0.6-2,0.6h-0.3h-0.3
			c-0.2,0.1-0.3,0.3-0.3,0.5c0,0.3,0.3,0.4,1,0.4h1.1c0.7,0,1.3,0.2,1.6,0.5c0.4,0.3,0.6,0.8,0.6,1.4c0,0.8-0.3,1.4-1,1.8
			c-0.6,0.4-1.6,0.6-2.8,0.6c-0.9,0-1.6-0.2-2.1-0.5s-0.7-0.8-0.7-1.3c0-0.4,0.1-0.7,0.4-1s0.6-0.5,1.1-0.6
			c-0.2-0.1-0.3-0.2-0.5-0.4c-0.1-0.2-0.2-0.4-0.2-0.6c0-0.3,0.1-0.5,0.2-0.6c0.1-0.2,0.4-0.3,0.6-0.5c-0.3-0.1-0.6-0.4-0.8-0.7
			c-0.2-0.3-0.3-0.7-0.3-1.2c0-0.7,0.2-1.3,0.7-1.7c0.5-0.4,1.1-0.6,2-0.6c0.2,0,0.4,0,0.7,0s0.4,0.1,0.5,0.1L191.3,69.5L191.3,69.5
			z M186.2,76.9c0,0.2,0.1,0.4,0.4,0.6c0.2,0.1,0.6,0.2,1,0.2c0.6,0,1.1-0.1,1.5-0.3c0.4-0.2,0.5-0.4,0.5-0.7c0-0.2-0.1-0.4-0.3-0.5
			s-0.5-0.1-1-0.1h-0.9c-0.3,0-0.6,0.1-0.8,0.2C186.4,76.5,186.2,76.7,186.2,76.9z M186.9,71.6c0,0.4,0.1,0.6,0.2,0.8
		c0.2,0.2,0.4,0.3,0.7,0.3s0.6-0.1,0.7-0.3s0.2-0.5,0.2-0.8c0-0.8-0.3-1.2-1-1.2C187.2,70.4,186.9,70.8,186.9,71.6z"></path>	<path class="st14" d="M195.4,76.1c-1.1,0-1.9-0.3-2.5-0.9s-0.9-1.4-0.9-2.5s0.3-1.9,0.8-2.5s1.3-0.9,2.3-0.9
			c0.9,0,1.6,0.3,2.2,0.8c0.5,0.5,0.8,1.3,0.8,2.2v0.9h-4.2c0,0.5,0.2,0.9,0.5,1.2c0.3,0.3,0.7,0.4,1.2,0.4c0.4,0,0.8,0,1.1-0.1
			c0.4-0.1,0.7-0.2,1.1-0.4v1.4c-0.3,0.2-0.6,0.3-1,0.3C196.3,76.1,195.9,76.1,195.4,76.1z M195.1,70.6c-0.4,0-0.7,0.1-0.9,0.4
		s-0.3,0.6-0.4,1h2.5c0-0.4-0.1-0.8-0.3-1C195.8,70.7,195.5,70.6,195.1,70.6z"></path></g>
	<g id="parcours-B-icone_2_">
		<path class="st14" d="M42.9,79.7c-0.9-0.2-1.7-0.4-2.6-0.6c-0.7-0.2-1.4-0.3-2-0.5s-2.7-1.6-3.2-1.9c-0.6-0.4-1-1-1.3-1.6
			c-0.3-1.1-0.8-1.7-1.7-1.8c-0.4-0.1-0.8-0.2-1.1-0.4c-0.6-0.3-1.2-0.6-1.7-1.1c-1-1.1-0.7-4.1,0.9-2.4c0.4,0.4,0.8,0.8,1.2,1.2
			c0.2,0.2,0.4,0.5,0.5,0.8c0.4,0.7,0.9,1.1,1.5,1.5c0.4,0.3,0.7,0.5,1.1,0.8c0.2,0.1,0.4,0.1,0.6-0.1c0.7-0.6,0.9-0.6,1.2-1.2
			c0.2-0.4,0.2-0.7,0.5-1c0.3-0.1,0.9-0.4,0.9-1s-0.6-1.4-1-2.1c-0.2-0.8,0.5-2.3,0-2.9s-1-2.7-1-3.4c-0.2-1-0.7-2-1-3
			c-0.6-2.3,2.1-4.1,2.4-1.1c-0.1,2.1,0.4,3.9,1.2,5.8c0.3,0.7,0.1,2.3,1.3,2.3c3.6-0.2,0.9,1.8,2.8,2.7c0.8,0.4,1.1-1.5,1.9-1.3
			c0.5,0.1,1.1,1.4,2,1.5c0.4,0.1,0.8,0.1,1.2,0.4c1.6,1.6-1,3.7-1.3,5.4c-0.2,0.9-0.3,1.9-0.4,2.8c-0.1,0.6-0.3,1.2-0.8,1.7
			c-0.3,0.3-0.6,0.5-1.1,0.6C43.3,79.8,43,79.7,42.9,79.7z M42.3,69.8c-0.2,0.7,0.3,2.3-0.9,1.4c-0.4-0.3-0.8-0.3-1.2,0
			s-0.6,0.8-0.6,1.3c0,0.2,0,0.3,0,0.5c0.1,0.5,0.3,1,0.7,1.4c0.2,0.2,0.3,0.3,0.4,0.5c0.4,0.3,0.8,0.4,1.2,0.3
							  c0.1,0,0.1-0.1,0.1-0.1c2.6-2.3,3.3-5,1.8-5.5C42.5,69.2,42.4,69.5,42.3,69.8z"></path>	<path class="st14" d="M43,55.4c0,0.6,0,1.2-0.1,1.8c-0.1,1-0.2,2-0.3,3c-0.2,1.3-0.4,3.3-0.4,4.5c0.2,0.5-0.7-0.2-0.8-0.2
			c-1.1-0.7-0.6-1.8-0.7-3c-0.1-2.1-0.3-5,0.4-7.1C41.4,53.4,43.2,54.3,43,55.4z"></path>	<path class="st14" d="M48.2,56.3c0.6,0,0.9,0.5,0.8,1c-0.2,0.6-0.3,1.3-0.5,1.9c-0.3,0.8-0.6,1.5-0.9,2.3
			c-0.1,0.4-1.6,4.5-2.1,3.8c-0.3-0.4-0.5-0.8-0.2-1.3c0.8-1.4,1-3.5,1.3-5c0.2-0.7,0.4-1.3,0.6-2C47.3,56.6,47.7,56.3,48.2,56.3z"></path>
				
				<path class="st14" d="M49.6,66.8c0.2-0.1,3.8-2.7,3.6-1.5c-0.1,0.5-0.3,0.9-0.7,1.3c-0.5,0.5-1.1,1-1.6,1.6
									  c-1,0.9-2.1,0.4-2.2-0.1C48.5,67.6,49.1,67.1,49.6,66.8z"></path></g>
</g>
<g id="parcours-A">
	<polyline id="parcours-A-trace" class="st15" points="504,144 432,216 216,432 71.4,432 	"></polyline><circle id="parcours-A-station-2-8" class="st16" cx="359.7" cy="288" r="9.3"></circle><circle id="parcours-A-station-1-2" class="st16" cx="71.4" cy="432" r="9.3"></circle><circle id="parcours-A-station-1-3" class="st16" cx="144" cy="432.3" r="9.3"></circle><circle id="parcours-A-station-1-1" class="st2" cx="216.3" cy="431.4" r="9.3"></circle><circle id="parcours-A-station-0-7" class="st16" cx="288" cy="360" r="9.3"></circle><circle id="parcours-A-station-0-4" class="st2" cx="431.7" cy="215.7" r="9.3"></circle><circle id="parcours-A-station-1-0" class="st16" cx="504" cy="143.7" r="9.3"></circle><rect id="parcours-A-masque" x="477" y="99" class="st11" width="144" height="27"></rect><g id="parcours-A-texte">
	<path class="st17" d="M508,108.7v-8.6h1.8v7.1h3.5v1.5H508z"></path>	<path class="st17" d="M517.7,108.8c-1.1,0-1.9-0.3-2.5-0.9s-0.9-1.4-0.9-2.5s0.3-1.9,0.8-2.5s1.3-0.9,2.3-0.9
			c0.9,0,1.6,0.3,2.2,0.8c0.5,0.5,0.8,1.3,0.8,2.2v0.9h-4.2c0,0.5,0.2,0.9,0.5,1.2c0.3,0.3,0.7,0.4,1.2,0.4c0.4,0,0.8,0,1.1-0.1
			c0.4-0.1,0.7-0.2,1.1-0.4v1.4c-0.3,0.2-0.6,0.3-1,0.3S518.2,108.8,517.7,108.8z M517.4,103.3c-0.4,0-0.7,0.1-0.9,0.4
		c-0.2,0.2-0.3,0.6-0.4,1h2.5c0-0.4-0.1-0.8-0.3-1C518.1,103.4,517.8,103.3,517.4,103.3z"></path>	<path class="st17" d="M528.5,103.5H527v5.2h-1.8v-5.2h-1v-0.9l1-0.5v-0.5c0-0.7,0.2-1.3,0.6-1.6c0.4-0.3,1-0.5,1.8-0.5
		c0.6,0,1.2,0.1,1.6,0.3l-0.5,1.3c-0.4-0.1-0.7-0.2-1-0.2s-0.4,0.1-0.6,0.2c-0.1,0.2-0.2,0.3-0.2,0.6v0.4h1.5v1.4H528.5z"></path>	<path class="st17" d="M535.5,105.4c0,1.1-0.3,1.9-0.8,2.5s-1.3,0.9-2.4,0.9c-0.6,0-1.2-0.1-1.7-0.4s-0.9-0.7-1.1-1.2
			s-0.4-1.1-0.4-1.8c0-1.1,0.3-1.9,0.8-2.5s1.3-0.9,2.4-0.9c0.6,0,1.2,0.1,1.7,0.4s0.9,0.7,1.1,1.2
			C535.4,104.1,535.5,104.7,535.5,105.4z M531,105.4c0,0.6,0.1,1.1,0.3,1.5c0.2,0.3,0.6,0.5,1,0.5c0.5,0,0.8-0.2,1-0.5
		s0.3-0.8,0.3-1.5c0-0.6-0.1-1.1-0.3-1.5c-0.2-0.3-0.6-0.5-1-0.5c-0.5,0-0.8,0.2-1,0.5C531.1,104.3,531,104.7,531,105.4z"></path>	<path class="st17" d="M543.1,108.7h-1.8v-3.8c0-0.5-0.1-0.8-0.3-1.1s-0.4-0.4-0.8-0.4c-0.5,0-0.9,0.2-1.1,0.5
			c-0.2,0.3-0.3,0.9-0.3,1.7v3.1H537v-6.6h1.4l0.2,0.8h0.1c0.2-0.3,0.5-0.6,0.8-0.7c0.4-0.2,0.7-0.2,1.2-0.2c0.8,0,1.3,0.2,1.7,0.6
		s0.6,1,0.6,1.8L543.1,108.7L543.1,108.7z"></path>	<path class="st17" d="M547.6,108.8c-2,0-3.1-1.1-3.1-3.4c0-1.1,0.3-2,0.8-2.6c0.6-0.6,1.4-0.9,2.4-0.9c0.8,0,1.4,0.1,2,0.4
			l-0.5,1.4c-0.3-0.1-0.5-0.2-0.8-0.3c-0.2-0.1-0.5-0.1-0.7-0.1c-0.9,0-1.4,0.7-1.4,2s0.5,1.9,1.4,1.9c0.3,0,0.7,0,1-0.1
		s0.6-0.2,0.9-0.4v1.5c-0.3,0.2-0.6,0.3-0.9,0.4C548.4,108.8,548,108.8,547.6,108.8z"></path>	<path class="st17" d="M553.8,107.4c0.3,0,0.7-0.1,1.1-0.2v1.3c-0.4,0.2-1,0.3-1.6,0.3c-0.7,0-1.2-0.2-1.6-0.5
			c-0.3-0.4-0.5-0.9-0.5-1.6v-3.2h-0.9v-0.8l1-0.6l0.5-1.4h1.1v1.4h1.8v1.3h-1.8v3.2c0,0.3,0.1,0.4,0.2,0.6
		C553.4,107.3,553.6,107.4,553.8,107.4z"></path>	<path class="st17" d="M556.2,100.4c0-0.6,0.3-0.9,1-0.9c0.6,0,1,0.3,1,0.9c0,0.3-0.1,0.5-0.2,0.6c-0.2,0.2-0.4,0.2-0.7,0.2
		C556.5,101.3,556.2,101,556.2,100.4z M558.1,108.7h-1.8v-6.6h1.8V108.7z"></path>	<path class="st17" d="M565.9,105.4c0,1.1-0.3,1.9-0.8,2.5s-1.3,0.9-2.4,0.9c-0.6,0-1.2-0.1-1.7-0.4s-0.9-0.7-1.1-1.2
			s-0.4-1.1-0.4-1.8c0-1.1,0.3-1.9,0.8-2.5s1.3-0.9,2.4-0.9c0.6,0,1.2,0.1,1.7,0.4s0.9,0.7,1.1,1.2
			C565.8,104.1,565.9,104.7,565.9,105.4z M561.4,105.4c0,0.6,0.1,1.1,0.3,1.5c0.2,0.3,0.6,0.5,1,0.5c0.5,0,0.8-0.2,1-0.5
		s0.3-0.8,0.3-1.5c0-0.6-0.1-1.1-0.3-1.5c-0.2-0.3-0.6-0.5-1-0.5c-0.5,0-0.8,0.2-1,0.5C561.5,104.3,561.4,104.7,561.4,105.4z"></path>	<path class="st17" d="M573.5,108.7h-1.8v-3.8c0-0.5-0.1-0.8-0.3-1.1s-0.4-0.4-0.8-0.4c-0.5,0-0.9,0.2-1.1,0.5
			c-0.2,0.3-0.3,0.9-0.3,1.7v3.1h-1.8v-6.6h1.4l0.2,0.8h0.1c0.2-0.3,0.5-0.6,0.8-0.7c0.4-0.2,0.7-0.2,1.2-0.2c0.8,0,1.3,0.2,1.7,0.6
		s0.6,1,0.6,1.8L573.5,108.7L573.5,108.7z"></path>	<path class="st17" d="M581.4,108.7h-1.8v-3.8c0-0.5-0.1-0.8-0.3-1.1s-0.4-0.4-0.8-0.4c-0.5,0-0.9,0.2-1.1,0.5s-0.3,0.9-0.3,1.7
			v3.1h-1.8v-6.6h1.4l0.2,0.8h0.1c0.2-0.3,0.5-0.6,0.8-0.7c0.4-0.2,0.7-0.2,1.2-0.2c0.8,0,1.3,0.2,1.7,0.6s0.6,1,0.6,1.8
		L581.4,108.7L581.4,108.7z"></path>	<path class="st17" d="M586.2,108.8c-1.1,0-1.9-0.3-2.5-0.9s-0.9-1.4-0.9-2.5s0.3-1.9,0.8-2.5s1.3-0.9,2.3-0.9
			c0.9,0,1.6,0.3,2.2,0.8c0.5,0.5,0.8,1.3,0.8,2.2v0.9h-4.2c0,0.5,0.2,0.9,0.5,1.2c0.3,0.3,0.7,0.4,1.2,0.4c0.4,0,0.8,0,1.1-0.1
			s0.7-0.2,1.1-0.4v1.4c-0.3,0.2-0.6,0.3-1,0.3C587.1,108.8,586.7,108.8,586.2,108.8z M585.9,103.3c-0.4,0-0.7,0.1-0.9,0.4
		c-0.2,0.2-0.3,0.6-0.4,1h2.5c0-0.4-0.1-0.8-0.3-1C586.6,103.4,586.3,103.3,585.9,103.3z"></path>	<path class="st17" d="M596.2,108.7h-1.8v-3.8c0-0.5-0.1-0.8-0.2-1.1c-0.2-0.2-0.4-0.4-0.7-0.4c-0.5,0-0.8,0.2-1,0.5
			s-0.3,0.9-0.3,1.7v3.1h-1.8v-6.6h1.4l0.2,0.8h0.1c0.2-0.3,0.4-0.5,0.8-0.7c0.3-0.2,0.7-0.3,1.1-0.3c1,0,1.6,0.3,2,1h0.2
			c0.2-0.3,0.4-0.5,0.8-0.7c0.3-0.2,0.7-0.3,1.2-0.3c0.7,0,1.3,0.2,1.7,0.6s0.6,1,0.6,1.8v4.3h-1.8v-3.8c0-0.5-0.1-0.8-0.2-1.1
		c-0.2-0.2-0.4-0.4-0.7-0.4c-0.4,0-0.8,0.2-1,0.5s-0.3,0.8-0.3,1.5v3.4H596.2z"></path>	<path class="st17" d="M605.1,108.8c-1.1,0-1.9-0.3-2.5-0.9s-0.9-1.4-0.9-2.5s0.3-1.9,0.8-2.5s1.3-0.9,2.3-0.9
			c0.9,0,1.6,0.3,2.2,0.8c0.5,0.5,0.8,1.3,0.8,2.2v0.9h-4.2c0,0.5,0.2,0.9,0.5,1.2c0.3,0.3,0.7,0.4,1.2,0.4c0.4,0,0.8,0,1.1-0.1
			s0.7-0.2,1.1-0.4v1.4c-0.3,0.2-0.6,0.3-1,0.3S605.6,108.8,605.1,108.8z M604.8,103.3c-0.4,0-0.7,0.1-0.9,0.4
		c-0.2,0.2-0.3,0.6-0.4,1h2.5c0-0.4-0.1-0.8-0.3-1C605.5,103.4,605.2,103.3,604.8,103.3z"></path>	<path class="st17" d="M615.3,108.7h-1.8v-3.8c0-0.5-0.1-0.8-0.3-1.1s-0.4-0.4-0.8-0.4c-0.5,0-0.9,0.2-1.1,0.5s-0.3,0.9-0.3,1.7
			v3.1h-1.8v-6.6h1.4l0.2,0.8h0.1c0.2-0.3,0.5-0.6,0.8-0.7c0.4-0.2,0.7-0.2,1.2-0.2c0.8,0,1.3,0.2,1.7,0.6s0.6,1,0.6,1.8
		L615.3,108.7L615.3,108.7z"></path>	<path class="st17" d="M619.9,107.4c0.3,0,0.7-0.1,1.1-0.2v1.3c-0.4,0.2-1,0.3-1.6,0.3c-0.7,0-1.2-0.2-1.6-0.5
			c-0.3-0.4-0.5-0.9-0.5-1.6v-3.2h-0.9v-0.8l1-0.6l0.5-1.4h1.1v1.4h1.8v1.3H619v3.2c0,0.3,0.1,0.4,0.2,0.6
		C619.4,107.3,619.6,107.4,619.9,107.4z"></path>	<path class="st17" d="M510,123.2c-0.8,0-1.4-0.3-1.8-0.9s-0.7-1.4-0.7-2.5s0.2-1.9,0.7-2.5s1.1-0.9,1.9-0.9s1.5,0.3,1.9,1h0.1
			c-0.1-0.5-0.1-0.9-0.1-1.3V114h1.8v9.1h-1.4l-0.3-0.9H512C511.4,122.9,510.8,123.2,510,123.2z M510.6,121.8c0.5,0,0.8-0.1,1-0.4
			s0.3-0.7,0.3-1.4v-0.2c0-0.7-0.1-1.2-0.3-1.5s-0.6-0.5-1.1-0.5c-0.4,0-0.7,0.2-0.9,0.5c-0.2,0.3-0.3,0.8-0.3,1.5s0.1,1.1,0.3,1.5
		C509.9,121.6,510.2,121.8,510.6,121.8z"></path>	<path class="st17" d="M518.5,123.2c-1.1,0-1.9-0.3-2.5-0.9s-0.9-1.4-0.9-2.5s0.3-1.9,0.8-2.5s1.3-0.9,2.3-0.9
			c0.9,0,1.6,0.3,2.2,0.8c0.5,0.5,0.8,1.3,0.8,2.2v0.9H517c0,0.5,0.2,0.9,0.5,1.2c0.3,0.3,0.7,0.4,1.2,0.4c0.4,0,0.8,0,1.1-0.1
			s0.7-0.2,1.1-0.4v1.4c-0.3,0.2-0.6,0.3-1,0.3S519,123.2,518.5,123.2z M518.2,117.7c-0.4,0-0.7,0.1-0.9,0.4c-0.2,0.2-0.3,0.6-0.4,1
		h2.5c0-0.4-0.1-0.8-0.3-1C518.9,117.8,518.6,117.7,518.2,117.7z"></path>	<path class="st17" d="M527.2,121.2c0,0.7-0.2,1.2-0.7,1.5c-0.5,0.4-1.2,0.5-2.1,0.5c-0.5,0-0.9,0-1.2-0.1s-0.7-0.2-0.9-0.3v-1.5
			c0.3,0.2,0.7,0.3,1.1,0.4c0.4,0.1,0.8,0.2,1.1,0.2c0.6,0,1-0.2,1-0.6c0-0.1,0-0.3-0.1-0.3c-0.1-0.1-0.2-0.2-0.4-0.3
			c-0.2-0.1-0.5-0.2-0.8-0.4c-0.5-0.2-0.9-0.4-1.1-0.6c-0.2-0.2-0.4-0.4-0.5-0.6s-0.2-0.5-0.2-0.9c0-0.6,0.2-1,0.7-1.4
			c0.5-0.3,1.1-0.5,1.9-0.5c0.8,0,1.6,0.2,2.3,0.5l-0.5,1.3c-0.3-0.1-0.6-0.3-0.9-0.3c-0.3-0.1-0.6-0.1-0.9-0.1
			c-0.5,0-0.8,0.1-0.8,0.4c0,0.2,0.1,0.3,0.3,0.4s0.5,0.3,1.1,0.5c0.5,0.2,0.9,0.4,1.1,0.6s0.4,0.4,0.5,0.6
		C527.1,120.6,527.2,120.8,527.2,121.2z"></path>	<path class="st17" d="M533.5,123.1h-1.8V114h1.8V123.1z"></path>	<path class="st17" d="M539.5,123.1l-0.3-0.9l0,0c-0.3,0.4-0.6,0.6-0.9,0.8c-0.3,0.1-0.7,0.2-1.2,0.2c-0.6,0-1.1-0.2-1.5-0.5
			c-0.4-0.4-0.5-0.9-0.5-1.5c0-0.7,0.2-1.2,0.7-1.5s1.2-0.5,2.2-0.5h1.1v-0.3c0-0.7-0.3-1-1-1c-0.5,0-1.1,0.2-1.8,0.5l-0.6-1.2
			c0.8-0.4,1.6-0.6,2.5-0.6s1.6,0.2,2,0.6c0.5,0.4,0.7,1,0.7,1.7v4.4h-1.4V123.1z M539,120.1h-0.7c-0.5,0-0.9,0.1-1.2,0.3
		s-0.4,0.4-0.4,0.8c0,0.5,0.3,0.8,0.9,0.8c0.4,0,0.7-0.1,1-0.4c0.2-0.2,0.4-0.6,0.4-1V120.1z"></path>	<path class="st17" d="M548.7,123.1h-1.8v-3.8c0-0.5-0.1-0.8-0.3-1.1s-0.4-0.4-0.8-0.4c-0.5,0-0.9,0.2-1.1,0.5
			c-0.2,0.3-0.3,0.9-0.3,1.7v3.1h-1.8v-6.6h1.4l0.2,0.8h0.1c0.2-0.3,0.5-0.6,0.8-0.7c0.4-0.2,0.7-0.2,1.2-0.2c0.8,0,1.3,0.2,1.7,0.6
		s0.6,1,0.6,1.8L548.7,123.1L548.7,123.1z"></path>	<path class="st17" d="M556.2,116.6v0.9l-1,0.3c0.2,0.3,0.3,0.6,0.3,1c0,0.7-0.2,1.3-0.7,1.6c-0.5,0.4-1.2,0.6-2,0.6h-0.3h-0.3
			c-0.2,0.1-0.3,0.3-0.3,0.5c0,0.3,0.3,0.4,1,0.4h1.1c0.7,0,1.3,0.2,1.6,0.5c0.4,0.3,0.6,0.8,0.6,1.4c0,0.8-0.3,1.4-1,1.8
			c-0.6,0.4-1.6,0.6-2.8,0.6c-0.9,0-1.6-0.2-2.1-0.5s-0.7-0.8-0.7-1.3c0-0.4,0.1-0.7,0.4-1c0.2-0.3,0.6-0.5,1.1-0.6
			c-0.2-0.1-0.3-0.2-0.5-0.4c-0.1-0.2-0.2-0.4-0.2-0.6c0-0.3,0.1-0.5,0.2-0.6c0.1-0.2,0.4-0.3,0.6-0.5c-0.3-0.1-0.6-0.4-0.8-0.7
			c-0.2-0.3-0.3-0.7-0.3-1.2c0-0.7,0.2-1.3,0.7-1.7c0.5-0.4,1.1-0.6,2-0.6c0.2,0,0.4,0,0.7,0s0.4,0.1,0.5,0.1L556.2,116.6
			L556.2,116.6z M551.2,124c0,0.2,0.1,0.4,0.4,0.6c0.2,0.1,0.6,0.2,1,0.2c0.6,0,1.1-0.1,1.5-0.3c0.4-0.2,0.5-0.4,0.5-0.7
			c0-0.2-0.1-0.4-0.3-0.5s-0.5-0.1-1-0.1h-0.9c-0.3,0-0.6,0.1-0.8,0.2C551.3,123.6,551.2,123.8,551.2,124z M551.8,118.7
			c0,0.4,0.1,0.6,0.2,0.8c0.2,0.2,0.4,0.3,0.7,0.3s0.6-0.1,0.7-0.3c0.2-0.2,0.2-0.5,0.2-0.8c0-0.8-0.3-1.2-1-1.2
		C552.1,117.5,551.8,117.9,551.8,118.7z"></path>	<path class="st17" d="M562,123.1l-0.2-0.8h-0.1c-0.2,0.3-0.5,0.5-0.8,0.7c-0.4,0.2-0.8,0.2-1.2,0.2c-0.8,0-1.4-0.2-1.7-0.6
			c-0.4-0.4-0.6-1-0.6-1.8v-4.3h1.8v3.8c0,0.5,0.1,0.8,0.3,1.1s0.4,0.4,0.8,0.4c0.5,0,0.9-0.2,1.1-0.5s0.3-0.9,0.3-1.7v-3.1h1.8v6.6
		C563.5,123.1,562,123.1,562,123.1z"></path>	<path class="st17" d="M568.2,123.2c-1.1,0-1.9-0.3-2.5-0.9s-0.9-1.4-0.9-2.5s0.3-1.9,0.8-2.5s1.3-0.9,2.3-0.9
			c0.9,0,1.6,0.3,2.2,0.8c0.5,0.5,0.8,1.3,0.8,2.2v0.9h-4.2c0,0.5,0.2,0.9,0.5,1.2c0.3,0.3,0.7,0.4,1.2,0.4c0.4,0,0.8,0,1.1-0.1
			c0.4-0.1,0.7-0.2,1.1-0.4v1.4c-0.3,0.2-0.6,0.3-1,0.3S568.7,123.2,568.2,123.2z M567.9,117.7c-0.4,0-0.7,0.1-0.9,0.4
		c-0.2,0.2-0.3,0.6-0.4,1h2.5c0-0.4-0.1-0.8-0.3-1C568.6,117.8,568.3,117.7,567.9,117.7z"></path>	<path class="st17" d="M576.9,121.2c0,0.7-0.2,1.2-0.7,1.5c-0.5,0.4-1.2,0.5-2.1,0.5c-0.5,0-0.9,0-1.2-0.1s-0.7-0.2-0.9-0.3v-1.5
			c0.3,0.2,0.7,0.3,1.1,0.4c0.4,0.1,0.8,0.2,1.1,0.2c0.6,0,1-0.2,1-0.6c0-0.1,0-0.3-0.1-0.3c-0.1-0.1-0.2-0.2-0.4-0.3
			c-0.2-0.1-0.5-0.2-0.8-0.4c-0.5-0.2-0.9-0.4-1.1-0.6c-0.2-0.2-0.4-0.4-0.5-0.6s-0.2-0.5-0.2-0.9c0-0.6,0.2-1,0.7-1.4
			c0.5-0.3,1.1-0.5,1.9-0.5c0.8,0,1.6,0.2,2.3,0.5l-0.5,1.3c-0.3-0.1-0.6-0.3-0.9-0.3c-0.3-0.1-0.6-0.1-0.9-0.1
			c-0.5,0-0.8,0.1-0.8,0.4c0,0.2,0.1,0.3,0.3,0.4s0.5,0.3,1.1,0.5c0.5,0.2,0.9,0.4,1.1,0.6c0.2,0.2,0.4,0.4,0.5,0.6
		C576.8,120.6,576.9,120.8,576.9,121.2z"></path></g>
	<g id="parcours-A-icone">
		<path class="st17" d="M484.3,104.4c-1.7,0-3,1.4-3,3c0,1.7,1.4,3,3,3c1.7,0,3-1.4,3-3C487.3,105.7,485.9,104.4,484.3,104.4z
			 M490.3,109.1l-0.5,1.3l1,1.9l0.1,0.3l-1.4,1.4l-2.2-1l-1.3,0.5l-0.7,2l-0.1,0.3h-1.9l-0.8-2.3l-1.3-0.5l-1.9,1l-0.3,0l-1.3-1.3
			l1-2.2l-0.5-1.3l-2-0.7l-0.3-0.1v-1.9l2.3-0.8l0.5-1.3l-1-1.9l-0.1-0.3l1.3-1.3l2.2,1l1.3-0.5l0.7-2l0.1-0.3h1.9l0.8,2.3l1.3,0.5
							  l1.9-1l0.3-0.1l1.3,1.3l-1,2.2l0.5,1.3l2,0.7l0.3,0.1v1.9L490.3,109.1z"></path>	<path class="st17" d="M495.6,115.9c-1.2-0.6-2.7-0.1-3.3,1.1c-0.6,1.2-0.1,2.7,1.1,3.3c1.2,0.6,2.7,0.1,3.3-1.1
			C497.3,118,496.8,116.5,495.6,115.9z M498.3,121.5l-0.9,0.8v1.7v0.2l-1.5,0.5l-1.2-1.6l-1.1-0.1l-1.2,1.2l-0.2,0.2l-1.4-0.7l0.2-2
			l-0.8-0.9h-1.7h-0.2l-0.5-1.5l1.6-1.2l0.1-1.1l-1.2-1.2l-0.2-0.2l0.7-1.4l2,0.2l0.9-0.8v-1.7v-0.2l1.5-0.5l1.2,1.6l1.1,0.1
			l1.2-1.2l0.2-0.2l1.4,0.7l-0.2,2l0.8,0.9h1.7h0.2l0.5,1.5l-1.6,1.2l-0.1,1.1l1.2,1.2l0.2,0.2l-0.7,1.4L498.3,121.5z"></path></g>
</g>
</svg>
