<?xml version="1.0" encoding="utf-8"?>
<!-- Generator: Adobe Illustrator 20.0.0, SVG Export Plug-In . SVG Version: 6.00 Build 0)  -->
<svg version="1.1" id="Capa_1" xmlns="http://www.w3.org/2000/svg" xmlns:xlink="http://www.w3.org/1999/xlink" x="0px" y="0px"
	 viewBox="0 0 414.3 414.3" style="enable-background:new 0 0 414.3 414.3;" xml:space="preserve">
<g>
	<path d="M408.3,251.7l-177.8,104c-3.8,2.2-8.5,2.2-12.3,0.1c-3.8-2.2-6.2-6.2-6.2-10.6l0-47c-0.2-0.1-0.4-0.1-0.5-0.1
		c-4.4-1.2-9.2-2.6-14.9-4.3c-18.5-5.5-37.4-12.6-59.7-22.4c-19.3-8.5-38.2-19.4-56.1-32.6C68,229.5,55.9,218.7,45,206.7
		C15.1,174.2-1.3,131.1,0.1,88.3c0.2-7.5,1.1-14.7,1.9-20.7c0.8-6,5.8-10.5,11.9-10.7c0.1,0,0.2,0,0.3,0c5.9,0,11,4.3,12.1,10.1
		c3.3,18.7,8.6,34,16.1,46.9c9.4,16.1,22.2,29.6,37,39.1c12.7,8.1,26.2,14.4,41.1,19.1c17.4,5.5,36.6,9,58.7,10.5
		c8.9,0.6,18.5,1,30.2,1c0.4,0,1.1,0,2.1,0l0-44.3c0-4.4,2.3-8.4,6.1-10.6c3.8-2.2,8.4-2.2,12.2,0l178.4,101.7
		c3.8,2.2,6.2,6.2,6.2,10.6C414.4,245.4,412,249.5,408.3,251.7z"/>
</g>
</svg>
